<svg width="48" height="48" viewBox="0 0 48 48" fill="none" xmlns="http://www.w3.org/2000/svg">
<rect width="48" height="48" rx="24" fill="#6A1152"/>
<path d="M30.4421 21.2875C30.0915 20.4508 29.5815 19.6904 28.9405 19.0485C28.3014 18.4054 27.5423 17.8942 26.7061 17.5438C25.8496 17.183 24.9293 16.9981 23.9999 17H23.9686C23.0233 17.0047 22.1093 17.1922 21.2483 17.561C20.4194 17.915 19.6673 18.4271 19.0343 19.0688C18.3995 19.7092 17.8953 20.467 17.5499 21.3C17.1913 22.1662 17.0096 23.0954 17.0155 24.0328C17.0202 25.1172 17.2796 26.1938 17.764 27.1563V29.5313C17.764 29.9281 18.0858 30.25 18.4811 30.25H20.853C21.82 30.738 22.8871 30.9947 23.9702 31H24.003C24.9374 31 25.8421 30.8188 26.6952 30.4641C27.5271 30.1178 28.2834 29.6125 28.9218 28.9766C29.5655 28.3375 30.0718 27.5906 30.4265 26.7578C30.7936 25.8953 30.9811 24.9781 30.9858 24.0313C30.989 23.0797 30.8046 22.1563 30.4421 21.2875ZM20.8811 24.75C20.4686 24.75 20.1327 24.4141 20.1327 24C20.1327 23.586 20.4686 23.25 20.8811 23.25C21.2936 23.25 21.6296 23.586 21.6296 24C21.6296 24.4141 21.2952 24.75 20.8811 24.75ZM23.9999 24.75C23.5874 24.75 23.2515 24.4141 23.2515 24C23.2515 23.586 23.5874 23.25 23.9999 23.25C24.4124 23.25 24.7483 23.586 24.7483 24C24.7483 24.4141 24.4124 24.75 23.9999 24.75ZM27.1186 24.75C26.7061 24.75 26.3702 24.4141 26.3702 24C26.3702 23.586 26.7061 23.25 27.1186 23.25C27.5311 23.25 27.8671 23.586 27.8671 24C27.8671 24.4141 27.5311 24.75 27.1186 24.75Z" fill="#F8F8F8"/>
</svg>
