<svg width="72" height="72" viewBox="0 0 72 72" fill="none" xmlns="http://www.w3.org/2000/svg">
<rect x="8.5" y="16.5" width="31" height="31" rx="15.5" fill="white"/>
<rect x="8.5" y="16.5" width="31" height="31" rx="15.5" stroke="#E9E9F2"/>
<path fill-rule="evenodd" clip-rule="evenodd" d="M28.9075 27.0924C28.1278 26.3126 27.2772 26.4821 26.9612 26.5812L26.9573 26.5825C26.9555 26.583 26.9537 26.5838 26.9521 26.5848C26.9509 26.5855 26.9498 26.5864 26.9488 26.5874C26.9477 26.5884 26.9465 26.5896 26.9451 26.591L26.922 26.614C26.596 26.94 26.433 27.103 26.3569 27.2845C26.2533 27.5317 26.2533 27.8102 26.3569 28.0574C26.433 28.2389 26.596 28.4019 26.922 28.7279L27.2721 29.078C27.5981 29.404 27.7611 29.567 27.9425 29.643C28.1898 29.7466 28.4683 29.7466 28.7155 29.643C28.897 29.567 29.06 29.404 29.386 29.078L29.4089 29.0549C29.4103 29.0535 29.4115 29.0523 29.4126 29.0512C29.4136 29.0502 29.4144 29.049 29.4152 29.0478C29.4161 29.0462 29.4169 29.0445 29.4175 29.0427L29.4187 29.0387C29.5178 28.7228 29.6873 27.8722 28.9075 27.0924ZM26.3763 32.0876C26.7723 31.6916 26.9703 31.4936 27.0445 31.2653C27.1098 31.0644 27.1098 30.8481 27.0445 30.6472C26.9703 30.4189 26.7723 30.2209 26.3763 29.8249L26.1751 29.6236C25.7791 29.2276 25.5811 29.0296 25.3527 28.9554C25.1519 28.8902 24.9355 28.8902 24.7347 28.9554C24.5064 29.0296 24.3084 29.2276 23.9123 29.6236L18.9055 34.6304C18.8604 34.6756 18.8381 34.698 18.8225 34.7149C18.8217 34.7157 18.8212 34.7167 18.8211 34.7178C18.8174 34.7405 18.8136 34.7719 18.8059 34.8353L18.5372 37.0753C18.5119 37.2861 18.498 37.4064 18.4952 37.4933C18.495 37.4997 18.5002 37.5049 18.5066 37.5047C18.5935 37.502 18.7138 37.4881 18.9246 37.4628L21.1646 37.194C21.2281 37.1864 21.2594 37.1825 21.2821 37.1789C21.2832 37.1787 21.2842 37.1782 21.285 37.1775C21.3019 37.1619 21.3243 37.1396 21.3695 37.0944L26.3763 32.0876ZM26.6136 25.4729C27.1096 25.3174 28.5026 25.0448 29.7289 26.2711C30.9552 27.4974 30.6826 28.8904 30.527 29.3863C30.5129 29.4314 30.4981 29.4778 30.4625 29.5517C30.4343 29.6103 30.3857 29.6906 30.3468 29.7427C30.2961 29.8107 30.25 29.8567 30.2136 29.893C30.2115 29.8951 30.2094 29.8972 30.2073 29.8993L22.1908 37.9158C22.1851 37.9215 22.1793 37.9273 22.1733 37.9333C22.1079 37.9991 22.0254 38.0819 21.9263 38.1476C21.8402 38.2047 21.7469 38.2501 21.6488 38.2825C21.5358 38.3199 21.4198 38.3335 21.3276 38.3444C21.3192 38.3453 21.311 38.3463 21.303 38.3473L19.0418 38.6186C18.8599 38.6405 18.6876 38.6612 18.543 38.6657C18.3883 38.6705 18.1983 38.6608 18.007 38.5746C17.7487 38.4581 17.5418 38.2513 17.4254 37.993C17.3392 37.8017 17.3294 37.6116 17.3343 37.457C17.3388 37.3124 17.3595 37.1401 17.3813 36.9582L17.6527 34.6969C17.6536 34.6889 17.6546 34.6807 17.6556 34.6723C17.6665 34.5802 17.6801 34.4641 17.7175 34.3511C17.7499 34.2531 17.7952 34.1598 17.8523 34.0737C17.9181 33.9745 18.0009 33.8921 18.0666 33.8266C18.0726 33.8206 18.0785 33.8148 18.0842 33.8091L26.1007 25.7926C26.1027 25.7906 26.1048 25.7885 26.107 25.7864C26.1433 25.75 26.1893 25.7039 26.2572 25.6532C26.3094 25.6143 26.3896 25.5657 26.4482 25.5375C26.5222 25.5019 26.5686 25.487 26.6136 25.4729Z" fill="#040509"/>
<rect x="8.5" y="8.5" width="31" height="31" rx="15.5" fill="white"/>
<rect x="8.5" y="8.5" width="31" height="31" rx="15.5" stroke="#E9E9F2"/>
<path fill-rule="evenodd" clip-rule="evenodd" d="M26.4676 19.801C25.5115 19.801 24.7364 20.5761 24.7364 21.5322C24.7364 22.4884 25.5115 23.2635 26.4676 23.2635C27.4238 23.2635 28.1989 22.4884 28.1989 21.5322C28.1989 20.5761 27.4238 19.801 26.4676 19.801ZM25.7312 21.5322C25.7312 21.1255 26.0609 20.7958 26.4676 20.7958C26.8744 20.7958 27.2041 21.1255 27.2041 21.5322C27.2041 21.9389 26.8744 22.2687 26.4676 22.2687C26.0609 22.2687 25.7312 21.9389 25.7312 21.5322Z" fill="#040509"/>
<path fill-rule="evenodd" clip-rule="evenodd" d="M23.9793 17.3333H24.0205C25.0244 17.3332 25.8057 17.3332 26.4341 17.3804C27.072 17.4283 27.5923 17.5267 28.0654 17.745C29.0324 18.1912 29.8087 18.9674 30.2548 19.9344C30.4731 20.4076 30.5716 20.9279 30.6194 21.5657C30.6666 22.1941 30.6666 22.9755 30.6666 23.9793V24.0205C30.6666 25.0244 30.6666 25.8057 30.6194 26.4341C30.5716 27.072 30.4731 27.5923 30.2548 28.0654C29.8582 28.925 29.2008 29.6338 28.3804 30.0941C28.3744 30.1008 28.3681 30.1074 28.3617 30.1139C28.2774 30.1981 28.1706 30.2458 28.0606 30.257C27.5888 30.4738 27.0698 30.5717 26.4341 30.6194C25.8057 30.6666 25.0244 30.6666 24.0205 30.6666H23.9793C22.9755 30.6666 22.1941 30.6666 21.5657 30.6194C20.9279 30.5716 20.4076 30.4731 19.9344 30.2548C18.9674 29.8087 18.1912 29.0324 17.745 28.0654C17.5267 27.5923 17.4283 27.072 17.3804 26.4341C17.3332 25.8057 17.3332 25.0244 17.3333 24.0205V23.9793C17.3332 22.9755 17.3332 22.1941 17.3804 21.5657C17.4283 20.9279 17.5267 20.4076 17.745 19.9344C18.1912 18.9674 18.9674 18.1912 19.9344 17.745C20.4076 17.5267 20.9279 17.4283 21.5657 17.3804C22.1941 17.3332 22.9755 17.3332 23.9793 17.3333ZM29.3342 27.6856C29.054 28.2748 28.6152 28.7706 28.0711 29.1199L26.2371 27.2859L26.4367 27.0863C26.7052 26.8178 26.8857 26.6379 27.0358 26.5104C27.1815 26.3867 27.2655 26.342 27.3296 26.3212C27.4961 26.2671 27.6755 26.2671 27.842 26.3212C27.9061 26.342 27.9901 26.3867 28.1358 26.5104C28.2858 26.6378 28.4663 26.8177 28.7347 27.0861L29.3342 27.6856ZM29.6274 26.3597C29.6224 26.4274 29.6167 26.4924 29.6105 26.555L29.4239 26.3684C29.1734 26.1179 28.9643 25.9088 28.7796 25.752C28.5869 25.5884 28.3881 25.4526 28.1494 25.375C27.7831 25.256 27.3885 25.256 27.0222 25.375C26.7835 25.4526 26.5847 25.5884 26.392 25.7521C26.2072 25.9089 25.9981 26.1181 25.7475 26.3686L25.5285 26.5876L23.9816 25.0857C23.7308 24.8423 23.5214 24.639 23.3367 24.4866C23.1438 24.3276 22.9455 24.196 22.7085 24.1217C22.3445 24.0076 21.9539 24.0105 21.5916 24.13C21.3557 24.2078 21.1594 24.3422 20.9689 24.5041C20.7864 24.6592 20.58 24.8656 20.3329 25.1127L18.45 26.9956C18.416 26.8114 18.3906 26.6025 18.3724 26.3597C18.3284 25.7728 18.328 25.0287 18.328 23.9999C18.328 22.9711 18.3284 22.227 18.3724 21.6401C18.4161 21.0584 18.5006 20.6714 18.6483 20.3512C18.9953 19.5991 19.5991 18.9953 20.3512 18.6483C20.6714 18.5006 21.0584 18.4161 21.6401 18.3724C22.227 18.3284 22.9711 18.328 23.9999 18.328C25.0287 18.328 25.7728 18.3284 26.3597 18.3724C26.9415 18.4161 27.3285 18.5006 27.6487 18.6483C28.4008 18.9953 29.0045 19.5991 29.3515 20.3512C29.4992 20.6714 29.5838 21.0584 29.6274 21.6401C29.6715 22.227 29.6718 22.9711 29.6718 23.9999C29.6718 25.0287 29.6715 25.7728 29.6274 26.3597ZM20.3512 29.3515C19.724 29.0621 19.1999 28.5942 18.8419 28.0106L21.0222 25.8303C21.2871 25.5654 21.4651 25.388 21.6131 25.2621C21.7567 25.1401 21.8397 25.0957 21.9032 25.0747C22.0679 25.0204 22.2454 25.0191 22.4109 25.0709C22.4748 25.091 22.5584 25.1342 22.7037 25.2541C22.8536 25.3777 23.0342 25.5525 23.303 25.8134L25.1846 27.6402L27.078 29.5336C26.8741 29.576 26.6394 29.6064 26.3597 29.6274C25.7728 29.6715 25.0287 29.6718 23.9999 29.6718C22.9711 29.6718 22.227 29.6715 21.6401 29.6274C21.0584 29.5838 20.6714 29.4992 20.3512 29.3515Z" fill="#040509"/>
<rect x="4.5" y="8.5" width="31" height="31" rx="15.5" fill="white"/>
<rect x="4.5" y="8.5" width="31" height="31" rx="15.5" stroke="#E9E9F2"/>
<path fill-rule="evenodd" clip-rule="evenodd" d="M20.1277 17.3333C18.1391 17.3333 16.527 18.9454 16.527 20.934V23.4146C16.527 25.4033 18.1391 27.0154 20.1277 27.0154C22.1164 27.0154 23.7285 25.4033 23.7285 23.4146V20.934C23.7285 18.9454 22.1164 17.3333 20.1277 17.3333ZM17.527 20.934C17.527 19.4977 18.6914 18.3333 20.1277 18.3333C21.5641 18.3333 22.7285 19.4977 22.7285 20.934V23.4146C22.7285 24.851 21.5641 26.0154 20.1277 26.0154C18.6914 26.0154 17.527 24.851 17.527 23.4146V20.934Z" fill="#040509"/>
<path d="M15.6665 23.4146C15.6665 23.1385 15.4426 22.9146 15.1665 22.9146C14.8904 22.9146 14.6665 23.1385 14.6665 23.4146C14.6665 25.1301 15.4543 26.5014 16.5205 27.4343C17.4322 28.2321 18.5659 28.7263 19.6277 28.847V30.2364C19.6277 30.5125 19.8516 30.7364 20.1277 30.7364C20.4039 30.7364 20.6277 30.5125 20.6277 30.2364V28.847C21.6896 28.7263 22.8233 28.2321 23.735 27.4343C24.8012 26.5014 25.589 25.1301 25.589 23.4146C25.589 23.1385 25.3651 22.9146 25.089 22.9146C24.8128 22.9146 24.589 23.1385 24.589 23.4146C24.589 24.8 23.9592 25.9093 23.0765 26.6818C22.1841 27.4626 21.0583 27.8759 20.1277 27.8759C19.1972 27.8759 18.0714 27.4626 17.179 26.6818C16.2963 25.9093 15.6665 24.8 15.6665 23.4146Z" fill="#040509"/>
<rect width="72" height="72" rx="36" fill="#6A1152"/>
<path d="M26.4 43.2H28.8V48.0972L34.9212 43.2H40.8C42.1236 43.2 43.2 42.1236 43.2 40.8V31.2C43.2 29.8764 42.1236 28.8 40.8 28.8H26.4C25.0764 28.8 24 29.8764 24 31.2V40.8C24 42.1236 25.0764 43.2 26.4 43.2Z" fill="#F8F8F8"/>
<path d="M45.6 24.0001H31.2C29.8764 24.0001 28.8 25.0765 28.8 26.4001H43.2C44.5236 26.4001 45.6 27.4765 45.6 28.8001V38.4001C46.9236 38.4001 48 37.3237 48 36.0001V26.4001C48 25.0765 46.9236 24.0001 45.6 24.0001Z" fill="#F8F8F8"/>
</svg>
