<svg width="48" height="48" viewBox="0 0 48 48" fill="none" xmlns="http://www.w3.org/2000/svg">
<rect width="48" height="48" rx="24" fill="#6A1152"/>
<path d="M29.3 30C27.9111 30 26.5389 29.6973 25.1833 29.092C23.8278 28.4867 22.5944 27.6282 21.4833 26.5167C20.3722 25.4056 19.514 24.1722 18.9087 22.8167C18.3033 21.4611 18.0004 20.0889 18 18.7C18 18.5 18.0667 18.3333 18.2 18.2C18.3333 18.0667 18.5 18 18.7 18H21.4C21.5556 18 21.6944 18.0529 21.8167 18.1587C21.9389 18.2644 22.0111 18.3893 22.0333 18.5333L22.4667 20.8667C22.4889 21.0444 22.4833 21.1944 22.45 21.3167C22.4167 21.4389 22.3556 21.5444 22.2667 21.6333L20.65 23.2667C20.8722 23.6778 21.136 24.0749 21.4413 24.458C21.7467 24.8411 22.0829 25.2107 22.45 25.5667C22.7944 25.9111 23.1556 26.2307 23.5333 26.5253C23.9111 26.82 24.3111 27.0893 24.7333 27.3333L26.3 25.7667C26.4 25.6667 26.5307 25.5918 26.692 25.542C26.8533 25.4922 27.0116 25.4782 27.1667 25.5L29.4667 25.9667C29.6222 26.0111 29.75 26.0918 29.85 26.2087C29.95 26.3256 30 26.456 30 26.6V29.3C30 29.5 29.9333 29.6667 29.8 29.8C29.6667 29.9333 29.5 30 29.3 30Z" fill="#F8F8F8"/>
</svg>
