<svg width="49" height="48" viewBox="0 0 49 48" fill="none" xmlns="http://www.w3.org/2000/svg">
<rect width="49" height="48" rx="24" fill="#6A1152"/>
<path d="M29.8333 21.3333L24.4999 24.6666L19.1666 21.3333V20L24.4999 23.3333L29.8333 20M29.8333 18.6666H19.1666C18.4266 18.6666 17.8333 19.26 17.8333 20V28C17.8333 28.3536 17.9737 28.6927 18.2238 28.9428C18.4738 29.1928 18.813 29.3333 19.1666 29.3333H29.8333C30.1869 29.3333 30.526 29.1928 30.7761 28.9428C31.0261 28.6927 31.1666 28.3536 31.1666 28V20C31.1666 19.6463 31.0261 19.3072 30.7761 19.0572C30.526 18.8071 30.1869 18.6666 29.8333 18.6666Z" fill="#F8F8F8"/>
</svg>
