<svg width="83" height="83" viewBox="0 0 83 83" fill="none" xmlns="http://www.w3.org/2000/svg">
<rect width="83" height="83" rx="20" fill="#A92F7B"/>
<path d="M57.9 59C53.7333 59 49.6087 58.1 45.526 56.3C41.4433 54.5 37.7347 51.9333 34.4 48.6C31.0667 45.2667 28.5 41.5667 26.7 37.5C24.9 33.4333 24 29.3 24 25.1V23H35.8L37.65 33.05L31.95 38.8C32.6833 40.1 33.5 41.3333 34.4 42.5C35.3 43.6667 36.2667 44.75 37.3 45.75C38.2667 46.7167 39.3253 47.642 40.476 48.526C41.6267 49.41 42.868 50.2347 44.2 51L50 45.2L60 47.25V59H57.9Z" fill="white"/>
</svg>
