<svg width="311" height="235" viewBox="0 0 311 235" fill="none" xmlns="http://www.w3.org/2000/svg">
<g filter="url(#filter0_d_66_2328)">
<rect x="11" width="300" height="226.531" rx="20" fill="#F9F4F4"/>
</g>
<rect x="18.3467" y="33.061" width="285.306" height="188.571" fill="white"/>
<rect x="35.603" y="48.0874" width="114.068" height="42.496" rx="8" fill="#F9F4F4"/>
<rect x="160.854" y="48.0874" width="55.9158" height="42.496" rx="8" fill="#F9F4F4"/>
<rect x="233.545" y="48.0874" width="55.9158" height="42.496" rx="8" fill="#F9F4F4"/>
<rect x="242.607" y="57" width="0.455392" height="20.7571" rx="0.227696" fill="#EFF3FE"/>
<rect x="242.455" y="66.5801" width="0.758986" height="11.1769" rx="0.379493" fill="url(#paint0_linear_66_2328)"/>
<rect x="242.455" y="63.3867" width="0.758986" height="2.39505" rx="0.379493" fill="url(#paint1_linear_66_2328)"/>
<path d="M243.1 80.6378C243.1 80.7631 243.086 80.8718 243.059 80.9638C243.032 81.0551 242.996 81.1308 242.949 81.1908C242.902 81.2508 242.847 81.2954 242.783 81.3248C242.72 81.3541 242.652 81.3688 242.579 81.3688C242.506 81.3688 242.437 81.3541 242.374 81.3248C242.311 81.2954 242.257 81.2508 242.21 81.1908C242.163 81.1308 242.127 81.0551 242.1 80.9638C242.073 80.8718 242.06 80.7631 242.06 80.6378C242.06 80.5124 242.073 80.4038 242.1 80.3118C242.127 80.2198 242.163 80.1438 242.21 80.0838C242.257 80.0231 242.311 79.9781 242.374 79.9488C242.437 79.9194 242.506 79.9048 242.579 79.9048C242.652 79.9048 242.72 79.9194 242.783 79.9488C242.847 79.9781 242.902 80.0231 242.949 80.0838C242.996 80.1438 243.032 80.2198 243.059 80.3118C243.086 80.4038 243.1 80.5124 243.1 80.6378ZM242.915 80.6378C242.915 80.5284 242.906 80.4368 242.887 80.3628C242.869 80.2881 242.844 80.2281 242.813 80.1828C242.782 80.1374 242.747 80.1051 242.706 80.0858C242.665 80.0658 242.623 80.0558 242.579 80.0558C242.535 80.0558 242.493 80.0658 242.452 80.0858C242.411 80.1051 242.376 80.1374 242.345 80.1828C242.314 80.2281 242.29 80.2881 242.271 80.3628C242.253 80.4368 242.244 80.5284 242.244 80.6378C242.244 80.7471 242.253 80.8388 242.271 80.9128C242.29 80.9868 242.314 81.0464 242.345 81.0918C242.376 81.1371 242.411 81.1698 242.452 81.1898C242.493 81.2091 242.535 81.2188 242.579 81.2188C242.623 81.2188 242.665 81.2091 242.706 81.1898C242.747 81.1698 242.782 81.1371 242.813 81.0918C242.844 81.0464 242.869 80.9868 242.887 80.9128C242.906 80.8388 242.915 80.7471 242.915 80.6378ZM243.018 83.2178V83.3538H242.25V83.2178H242.557V82.2408C242.557 82.2114 242.558 82.1818 242.56 82.1518L242.305 82.3708C242.296 82.3781 242.288 82.3828 242.279 82.3848C242.27 82.3861 242.262 82.3861 242.255 82.3848C242.248 82.3834 242.241 82.3808 242.234 82.3768C242.228 82.3728 242.223 82.3684 242.22 82.3638L242.164 82.2868L242.591 81.9178H242.736V83.2178H243.018Z" fill="#D7DBE6"/>
<rect x="245.643" y="57" width="0.455392" height="20.7571" rx="0.227696" fill="#EFF3FE"/>
<rect x="245.491" y="72.967" width="0.758986" height="4.7901" rx="0.379493" fill="url(#paint2_linear_66_2328)"/>
<rect x="245.491" y="60.1934" width="0.758986" height="11.9753" rx="0.379493" fill="url(#paint3_linear_66_2328)"/>
<path d="M245.984 80.6378C245.984 80.7631 245.971 80.8718 245.943 80.9638C245.917 81.0551 245.88 81.1308 245.833 81.1908C245.787 81.2508 245.731 81.2954 245.667 81.3248C245.604 81.3541 245.536 81.3688 245.463 81.3688C245.39 81.3688 245.322 81.3541 245.258 81.3248C245.196 81.2954 245.141 81.2508 245.094 81.1908C245.048 81.1308 245.011 81.0551 244.984 80.9638C244.958 80.8718 244.944 80.7631 244.944 80.6378C244.944 80.5124 244.958 80.4038 244.984 80.3118C245.011 80.2198 245.048 80.1438 245.094 80.0838C245.141 80.0231 245.196 79.9781 245.258 79.9488C245.322 79.9194 245.39 79.9048 245.463 79.9048C245.536 79.9048 245.604 79.9194 245.667 79.9488C245.731 79.9781 245.787 80.0231 245.833 80.0838C245.88 80.1438 245.917 80.2198 245.943 80.3118C245.971 80.4038 245.984 80.5124 245.984 80.6378ZM245.799 80.6378C245.799 80.5284 245.79 80.4368 245.771 80.3628C245.753 80.2881 245.729 80.2281 245.697 80.1828C245.667 80.1374 245.631 80.1051 245.59 80.0858C245.55 80.0658 245.507 80.0558 245.463 80.0558C245.419 80.0558 245.377 80.0658 245.336 80.0858C245.296 80.1051 245.26 80.1374 245.229 80.1828C245.199 80.2281 245.174 80.2881 245.155 80.3628C245.137 80.4368 245.128 80.5284 245.128 80.6378C245.128 80.7471 245.137 80.8388 245.155 80.9128C245.174 80.9868 245.199 81.0464 245.229 81.0918C245.26 81.1371 245.296 81.1698 245.336 81.1898C245.377 81.2091 245.419 81.2188 245.463 81.2188C245.507 81.2188 245.55 81.2091 245.59 81.1898C245.631 81.1698 245.667 81.1371 245.697 81.0918C245.729 81.0464 245.753 80.9868 245.771 80.9128C245.79 80.8388 245.799 80.7471 245.799 80.6378ZM245.871 83.1848C245.891 83.1848 245.906 83.1904 245.917 83.2018C245.929 83.2131 245.934 83.2278 245.934 83.2458V83.3538H244.978V83.2928C244.978 83.2801 244.981 83.2671 244.986 83.2538C244.992 83.2404 245 83.2281 245.011 83.2168L245.47 82.7558C245.508 82.7171 245.543 82.6801 245.574 82.6448C245.606 82.6088 245.632 82.5728 245.654 82.5368C245.676 82.5008 245.693 82.4644 245.705 82.4278C245.717 82.3904 245.723 82.3508 245.723 82.3088C245.723 82.2668 245.717 82.2301 245.703 82.1988C245.69 82.1668 245.672 82.1404 245.648 82.1198C245.626 82.0991 245.599 82.0838 245.567 82.0738C245.536 82.0631 245.502 82.0578 245.466 82.0578C245.43 82.0578 245.396 82.0631 245.365 82.0738C245.335 82.0844 245.307 82.0994 245.283 82.1188C245.26 82.1374 245.24 82.1598 245.224 82.1858C245.208 82.2118 245.197 82.2404 245.19 82.2718C245.182 82.2951 245.171 82.3108 245.157 82.3188C245.144 82.3261 245.125 82.3281 245.1 82.3248L245.007 82.3088C245.017 82.2434 245.035 82.1858 245.061 82.1358C245.089 82.0851 245.123 82.0428 245.163 82.0088C245.205 81.9748 245.252 81.9491 245.304 81.9318C245.357 81.9138 245.414 81.9048 245.475 81.9048C245.536 81.9048 245.593 81.9138 245.645 81.9318C245.698 81.9498 245.744 81.9761 245.782 82.0108C245.821 82.0448 245.851 82.0864 245.873 82.1358C245.895 82.1851 245.906 82.2411 245.906 82.3038C245.906 82.3571 245.898 82.4068 245.882 82.4528C245.866 82.4981 245.845 82.5414 245.817 82.5828C245.79 82.6241 245.758 82.6644 245.722 82.7038C245.687 82.7431 245.649 82.7828 245.609 82.8228L245.231 83.2088C245.258 83.2014 245.285 83.1958 245.312 83.1918C245.34 83.1871 245.366 83.1848 245.391 83.1848H245.871Z" fill="#D7DBE6"/>
<rect x="248.831" y="57" width="0.455392" height="20.7571" rx="0.227696" fill="#EFF3FE"/>
<rect x="248.679" y="68.177" width="0.758986" height="9.5802" rx="0.379493" fill="url(#paint4_linear_66_2328)"/>
<rect x="248.679" y="60.9917" width="0.758986" height="6.3868" rx="0.379493" fill="url(#paint5_linear_66_2328)"/>
<path d="M249.172 80.6378C249.172 80.7631 249.158 80.8718 249.131 80.9638C249.104 81.0551 249.067 81.1308 249.021 81.1908C248.974 81.2508 248.919 81.2954 248.855 81.3248C248.791 81.3541 248.723 81.3688 248.651 81.3688C248.577 81.3688 248.509 81.3541 248.446 81.3248C248.383 81.2954 248.328 81.2508 248.282 81.1908C248.235 81.1308 248.198 81.0551 248.172 80.9638C248.145 80.8718 248.132 80.7631 248.132 80.6378C248.132 80.5124 248.145 80.4038 248.172 80.3118C248.198 80.2198 248.235 80.1438 248.282 80.0838C248.328 80.0231 248.383 79.9781 248.446 79.9488C248.509 79.9194 248.577 79.9048 248.651 79.9048C248.723 79.9048 248.791 79.9194 248.855 79.9488C248.919 79.9781 248.974 80.0231 249.021 80.0838C249.067 80.1438 249.104 80.2198 249.131 80.3118C249.158 80.4038 249.172 80.5124 249.172 80.6378ZM248.987 80.6378C248.987 80.5284 248.977 80.4368 248.959 80.3628C248.941 80.2881 248.916 80.2281 248.885 80.1828C248.854 80.1374 248.818 80.1051 248.778 80.0858C248.737 80.0658 248.695 80.0558 248.651 80.0558C248.607 80.0558 248.564 80.0658 248.524 80.0858C248.483 80.1051 248.447 80.1374 248.417 80.1828C248.386 80.2281 248.361 80.2881 248.343 80.3628C248.325 80.4368 248.316 80.5284 248.316 80.6378C248.316 80.7471 248.325 80.8388 248.343 80.9128C248.361 80.9868 248.386 81.0464 248.417 81.0918C248.447 81.1371 248.483 81.1698 248.524 81.1898C248.564 81.2091 248.607 81.2188 248.651 81.2188C248.695 81.2188 248.737 81.2091 248.778 81.1898C248.818 81.1698 248.854 81.1371 248.885 81.0918C248.916 81.0464 248.941 80.9868 248.959 80.9128C248.977 80.8388 248.987 80.7471 248.987 80.6378ZM248.202 82.3088C248.211 82.2434 248.229 82.1858 248.256 82.1358C248.282 82.0851 248.316 82.0428 248.357 82.0088C248.398 81.9748 248.445 81.9491 248.498 81.9318C248.551 81.9138 248.608 81.9048 248.67 81.9048C248.73 81.9048 248.786 81.9134 248.838 81.9308C248.889 81.9481 248.933 81.9728 248.97 82.0048C249.007 82.0368 249.036 82.0754 249.057 82.1208C249.077 82.1661 249.088 82.2164 249.088 82.2718C249.088 82.3171 249.082 82.3578 249.07 82.3938C249.058 82.4291 249.042 82.4601 249.02 82.4868C248.998 82.5134 248.972 82.5361 248.942 82.5548C248.911 82.5734 248.877 82.5888 248.839 82.6008C248.932 82.6248 249.002 82.6661 249.049 82.7248C249.096 82.7828 249.12 82.8554 249.12 82.9428C249.12 83.0088 249.107 83.0681 249.082 83.1208C249.057 83.1734 249.023 83.2184 248.98 83.2558C248.936 83.2924 248.886 83.3208 248.828 83.3408C248.77 83.3601 248.709 83.3698 248.643 83.3698C248.567 83.3698 248.502 83.3604 248.448 83.3418C248.394 83.3224 248.348 83.2961 248.311 83.2628C248.273 83.2294 248.243 83.1901 248.219 83.1448C248.195 83.0988 248.174 83.0491 248.158 82.9958L248.235 82.9638C248.255 82.9551 248.274 82.9528 248.293 82.9568C248.312 82.9608 248.326 82.9718 248.335 82.9898C248.343 83.0084 248.354 83.0308 248.367 83.0568C248.38 83.0828 248.398 83.1078 248.421 83.1318C248.443 83.1558 248.472 83.1761 248.507 83.1928C248.542 83.2094 248.587 83.2178 248.641 83.2178C248.691 83.2178 248.734 83.2098 248.772 83.1938C248.81 83.1771 248.841 83.1558 248.866 83.1298C248.891 83.1038 248.91 83.0748 248.923 83.0428C248.935 83.0108 248.942 82.9791 248.942 82.9478C248.942 82.9091 248.937 82.8738 248.927 82.8418C248.917 82.8098 248.898 82.7821 248.871 82.7588C248.843 82.7354 248.806 82.7171 248.758 82.7038C248.71 82.6904 248.649 82.6838 248.575 82.6838V82.5548C248.636 82.5541 248.688 82.5474 248.731 82.5348C248.774 82.5221 248.809 82.5048 248.836 82.4828C248.863 82.4608 248.883 82.4344 248.895 82.4038C248.907 82.3731 248.914 82.3391 248.914 82.3018C248.914 82.2604 248.907 82.2244 248.894 82.1938C248.881 82.1631 248.863 82.1378 248.841 82.1178C248.818 82.0978 248.791 82.0828 248.76 82.0728C248.729 82.0628 248.696 82.0578 248.66 82.0578C248.624 82.0578 248.59 82.0631 248.559 82.0738C248.528 82.0844 248.501 82.0994 248.477 82.1188C248.453 82.1374 248.434 82.1598 248.418 82.1858C248.402 82.2118 248.39 82.2404 248.384 82.2718C248.375 82.2951 248.364 82.3108 248.351 82.3188C248.338 82.3261 248.319 82.3281 248.295 82.3248L248.202 82.3088Z" fill="#D7DBE6"/>
<rect x="252.019" y="57" width="0.455392" height="20.7571" rx="0.227696" fill="#EFF3FE"/>
<rect x="251.867" y="68.177" width="0.758986" height="9.5802" rx="0.379493" fill="url(#paint6_linear_66_2328)"/>
<rect x="251.867" y="65.7817" width="0.758986" height="1.5967" rx="0.379493" fill="url(#paint7_linear_66_2328)"/>
<path d="M252.36 80.6378C252.36 80.7631 252.346 80.8718 252.319 80.9638C252.292 81.0551 252.255 81.1308 252.209 81.1908C252.162 81.2508 252.107 81.2954 252.043 81.3248C251.979 81.3541 251.911 81.3688 251.839 81.3688C251.765 81.3688 251.697 81.3541 251.634 81.3248C251.571 81.2954 251.516 81.2508 251.47 81.1908C251.423 81.1308 251.386 81.0551 251.36 80.9638C251.333 80.8718 251.32 80.7631 251.32 80.6378C251.32 80.5124 251.333 80.4038 251.36 80.3118C251.386 80.2198 251.423 80.1438 251.47 80.0838C251.516 80.0231 251.571 79.9781 251.634 79.9488C251.697 79.9194 251.765 79.9048 251.839 79.9048C251.911 79.9048 251.979 79.9194 252.043 79.9488C252.107 79.9781 252.162 80.0231 252.209 80.0838C252.255 80.1438 252.292 80.2198 252.319 80.3118C252.346 80.4038 252.36 80.5124 252.36 80.6378ZM252.175 80.6378C252.175 80.5284 252.165 80.4368 252.147 80.3628C252.129 80.2881 252.104 80.2281 252.073 80.1828C252.042 80.1374 252.006 80.1051 251.966 80.0858C251.925 80.0658 251.883 80.0558 251.839 80.0558C251.795 80.0558 251.752 80.0658 251.712 80.0858C251.671 80.1051 251.635 80.1374 251.605 80.1828C251.574 80.2281 251.549 80.2881 251.531 80.3628C251.513 80.4368 251.504 80.5284 251.504 80.6378C251.504 80.7471 251.513 80.8388 251.531 80.9128C251.549 80.9868 251.574 81.0464 251.605 81.0918C251.635 81.1371 251.671 81.1698 251.712 81.1898C251.752 81.2091 251.795 81.2188 251.839 81.2188C251.883 81.2188 251.925 81.2091 251.966 81.1898C252.006 81.1698 252.042 81.1371 252.073 81.0918C252.104 81.0464 252.129 80.9868 252.147 80.9128C252.165 80.8388 252.175 80.7471 252.175 80.6378ZM251.99 82.8368V82.2458C251.99 82.2284 251.99 82.2094 251.992 82.1888C251.993 82.1681 251.995 82.1471 251.998 82.1258L251.476 82.8368H251.99ZM252.363 82.8368V82.9388C252.363 82.9494 252.359 82.9584 252.353 82.9658C252.347 82.9731 252.337 82.9768 252.324 82.9768H252.146V83.3538H251.99V82.9768H251.354C251.34 82.9768 251.329 82.9731 251.319 82.9658C251.309 82.9578 251.303 82.9481 251.301 82.9368L251.283 82.8458L251.98 81.9208H252.146V82.8368H252.363Z" fill="#D7DBE6"/>
<rect x="255.207" y="57" width="0.455392" height="20.7571" rx="0.227696" fill="#EFF3FE"/>
<rect x="255.055" y="66.5801" width="0.758986" height="11.1769" rx="0.379493" fill="url(#paint8_linear_66_2328)"/>
<rect x="255.055" y="59.3948" width="0.758986" height="6.3868" rx="0.379493" fill="url(#paint9_linear_66_2328)"/>
<rect x="258.394" y="57" width="0.455392" height="20.7571" rx="0.227696" fill="#EFF3FE"/>
<rect x="258.242" y="68.9751" width="0.758986" height="8.78185" rx="0.379493" fill="url(#paint10_linear_66_2328)"/>
<rect x="258.242" y="63.3867" width="0.758986" height="4.7901" rx="0.379493" fill="url(#paint11_linear_66_2328)"/>
<path d="M258.735 80.6378C258.735 80.7631 258.721 80.8718 258.694 80.9638C258.667 81.0551 258.631 81.1308 258.584 81.1908C258.537 81.2508 258.482 81.2954 258.418 81.3248C258.355 81.3541 258.287 81.3688 258.214 81.3688C258.141 81.3688 258.072 81.3541 258.009 81.3248C257.946 81.2954 257.892 81.2508 257.845 81.1908C257.798 81.1308 257.762 81.0551 257.735 80.9638C257.708 80.8718 257.695 80.7631 257.695 80.6378C257.695 80.5124 257.708 80.4038 257.735 80.3118C257.762 80.2198 257.798 80.1438 257.845 80.0838C257.892 80.0231 257.946 79.9781 258.009 79.9488C258.072 79.9194 258.141 79.9048 258.214 79.9048C258.287 79.9048 258.355 79.9194 258.418 79.9488C258.482 79.9781 258.537 80.0231 258.584 80.0838C258.631 80.1438 258.667 80.2198 258.694 80.3118C258.721 80.4038 258.735 80.5124 258.735 80.6378ZM258.55 80.6378C258.55 80.5284 258.541 80.4368 258.522 80.3628C258.504 80.2881 258.479 80.2281 258.448 80.1828C258.417 80.1374 258.382 80.1051 258.341 80.0858C258.3 80.0658 258.258 80.0558 258.214 80.0558C258.17 80.0558 258.128 80.0658 258.087 80.0858C258.046 80.1051 258.011 80.1374 257.98 80.1828C257.949 80.2281 257.925 80.2881 257.906 80.3628C257.888 80.4368 257.879 80.5284 257.879 80.6378C257.879 80.7471 257.888 80.8388 257.906 80.9128C257.925 80.9868 257.949 81.0464 257.98 81.0918C258.011 81.1371 258.046 81.1698 258.087 81.1898C258.128 81.2091 258.17 81.2188 258.214 81.2188C258.258 81.2188 258.3 81.2091 258.341 81.1898C258.382 81.1698 258.417 81.1371 258.448 81.0918C258.479 81.0464 258.504 80.9868 258.522 80.9128C258.541 80.8388 258.55 80.7471 258.55 80.6378ZM258.213 83.2218C258.261 83.2218 258.304 83.2141 258.343 83.1988C258.382 83.1834 258.416 83.1621 258.443 83.1348C258.471 83.1074 258.492 83.0751 258.507 83.0378C258.522 83.0004 258.53 82.9598 258.53 82.9158C258.53 82.8691 258.523 82.8271 258.508 82.7898C258.493 82.7518 258.472 82.7198 258.445 82.6938C258.418 82.6671 258.386 82.6468 258.349 82.6328C258.312 82.6188 258.271 82.6118 258.226 82.6118C258.178 82.6118 258.135 82.6201 258.096 82.6368C258.057 82.6528 258.024 82.6748 257.997 82.7028C257.97 82.7301 257.95 82.7621 257.935 82.7988C257.921 82.8348 257.914 82.8724 257.914 82.9118C257.914 82.9578 257.921 82.9998 257.934 83.0378C257.947 83.0758 257.967 83.1084 257.992 83.1358C258.018 83.1631 258.049 83.1844 258.086 83.1998C258.123 83.2144 258.166 83.2218 258.213 83.2218ZM258.109 82.4578C258.096 82.4738 258.084 82.4894 258.072 82.5048C258.061 82.5194 258.05 82.5341 258.039 82.5488C258.073 82.5254 258.11 82.5074 258.151 82.4948C258.192 82.4821 258.236 82.4758 258.284 82.4758C258.342 82.4758 258.397 82.4854 258.448 82.5048C258.499 82.5234 258.544 82.5511 258.582 82.5878C258.621 82.6238 258.651 82.6684 258.674 82.7218C258.697 82.7744 258.708 82.8348 258.708 82.9028C258.708 82.9688 258.696 83.0301 258.672 83.0868C258.648 83.1434 258.614 83.1928 258.571 83.2348C258.528 83.2768 258.477 83.3098 258.416 83.3338C258.356 83.3578 258.29 83.3698 258.217 83.3698C258.145 83.3698 258.08 83.3584 258.021 83.3358C257.962 83.3124 257.912 83.2798 257.871 83.2378C257.83 83.1951 257.799 83.1438 257.776 83.0838C257.754 83.0231 257.743 82.9554 257.743 82.8808C257.743 82.8181 257.757 82.7514 257.784 82.6808C257.812 82.6094 257.856 82.5334 257.917 82.4528L258.281 81.9638C258.29 81.9518 258.303 81.9418 258.319 81.9338C258.336 81.9251 258.355 81.9208 258.376 81.9208H258.534L258.109 82.4578Z" fill="#D7DBE6"/>
<rect x="261.582" y="57" width="0.455392" height="20.7571" rx="0.227696" fill="#EFF3FE"/>
<rect x="261.43" y="64.1851" width="0.758986" height="13.572" rx="0.379493" fill="url(#paint12_linear_66_2328)"/>
<rect x="261.43" y="60.1934" width="0.758986" height="3.1934" rx="0.379493" fill="url(#paint13_linear_66_2328)"/>
<path d="M261.923 80.6378C261.923 80.7631 261.909 80.8718 261.882 80.9638C261.855 81.0551 261.818 81.1308 261.772 81.1908C261.725 81.2508 261.67 81.2954 261.606 81.3248C261.542 81.3541 261.474 81.3688 261.402 81.3688C261.328 81.3688 261.26 81.3541 261.197 81.3248C261.134 81.2954 261.079 81.2508 261.033 81.1908C260.986 81.1308 260.949 81.0551 260.923 80.9638C260.896 80.8718 260.883 80.7631 260.883 80.6378C260.883 80.5124 260.896 80.4038 260.923 80.3118C260.949 80.2198 260.986 80.1438 261.033 80.0838C261.079 80.0231 261.134 79.9781 261.197 79.9488C261.26 79.9194 261.328 79.9048 261.402 79.9048C261.474 79.9048 261.542 79.9194 261.606 79.9488C261.67 79.9781 261.725 80.0231 261.772 80.0838C261.818 80.1438 261.855 80.2198 261.882 80.3118C261.909 80.4038 261.923 80.5124 261.923 80.6378ZM261.738 80.6378C261.738 80.5284 261.728 80.4368 261.71 80.3628C261.692 80.2881 261.667 80.2281 261.636 80.1828C261.605 80.1374 261.569 80.1051 261.529 80.0858C261.488 80.0658 261.446 80.0558 261.402 80.0558C261.358 80.0558 261.315 80.0658 261.275 80.0858C261.234 80.1051 261.198 80.1374 261.168 80.1828C261.137 80.2281 261.112 80.2881 261.094 80.3628C261.076 80.4368 261.067 80.5284 261.067 80.6378C261.067 80.7471 261.076 80.8388 261.094 80.9128C261.112 80.9868 261.137 81.0464 261.168 81.0918C261.198 81.1371 261.234 81.1698 261.275 81.1898C261.315 81.2091 261.358 81.2188 261.402 81.2188C261.446 81.2188 261.488 81.2091 261.529 81.1898C261.569 81.1698 261.605 81.1371 261.636 81.0918C261.667 81.0464 261.692 80.9868 261.71 80.9128C261.728 80.8388 261.738 80.7471 261.738 80.6378ZM261.904 81.9208V82.0008C261.904 82.0234 261.901 82.0421 261.896 82.0568C261.891 82.0714 261.886 82.0838 261.882 82.0938L261.288 83.2908C261.279 83.3081 261.267 83.3231 261.252 83.3358C261.236 83.3478 261.216 83.3538 261.191 83.3538H261.063L261.665 82.1718C261.673 82.1551 261.682 82.1398 261.692 82.1258C261.701 82.1118 261.711 82.0984 261.722 82.0858H260.974C260.962 82.0858 260.952 82.0814 260.944 82.0728C260.935 82.0634 260.931 82.0531 260.931 82.0418V81.9208H261.904Z" fill="#D7DBE6"/>
<rect x="264.618" y="57" width="0.455392" height="20.7571" rx="0.227696" fill="#EFF3FE"/>
<rect x="264.466" y="68.177" width="0.758986" height="9.5802" rx="0.379493" fill="url(#paint14_linear_66_2328)"/>
<rect x="264.466" y="64.1851" width="0.758986" height="3.1934" rx="0.379493" fill="url(#paint15_linear_66_2328)"/>
<path d="M264.959 80.6378C264.959 80.7631 264.945 80.8718 264.918 80.9638C264.891 81.0551 264.855 81.1308 264.808 81.1908C264.761 81.2508 264.706 81.2954 264.642 81.3248C264.579 81.3541 264.511 81.3688 264.438 81.3688C264.365 81.3688 264.296 81.3541 264.233 81.3248C264.17 81.2954 264.116 81.2508 264.069 81.1908C264.022 81.1308 263.986 81.0551 263.959 80.9638C263.932 80.8718 263.919 80.7631 263.919 80.6378C263.919 80.5124 263.932 80.4038 263.959 80.3118C263.986 80.2198 264.022 80.1438 264.069 80.0838C264.116 80.0231 264.17 79.9781 264.233 79.9488C264.296 79.9194 264.365 79.9048 264.438 79.9048C264.511 79.9048 264.579 79.9194 264.642 79.9488C264.706 79.9781 264.761 80.0231 264.808 80.0838C264.855 80.1438 264.891 80.2198 264.918 80.3118C264.945 80.4038 264.959 80.5124 264.959 80.6378ZM264.774 80.6378C264.774 80.5284 264.765 80.4368 264.746 80.3628C264.728 80.2881 264.703 80.2281 264.672 80.1828C264.641 80.1374 264.606 80.1051 264.565 80.0858C264.524 80.0658 264.482 80.0558 264.438 80.0558C264.394 80.0558 264.352 80.0658 264.311 80.0858C264.27 80.1051 264.235 80.1374 264.204 80.1828C264.173 80.2281 264.149 80.2881 264.13 80.3628C264.112 80.4368 264.103 80.5284 264.103 80.6378C264.103 80.7471 264.112 80.8388 264.13 80.9128C264.149 80.9868 264.173 81.0464 264.204 81.0918C264.235 81.1371 264.27 81.1698 264.311 81.1898C264.352 81.2091 264.394 81.2188 264.438 81.2188C264.482 81.2188 264.524 81.2091 264.565 81.1898C264.606 81.1698 264.641 81.1371 264.672 81.0918C264.703 81.0464 264.728 80.9868 264.746 80.9128C264.765 80.8388 264.774 80.7471 264.774 80.6378ZM264.439 83.2278C264.486 83.2278 264.527 83.2214 264.564 83.2088C264.601 83.1954 264.633 83.1771 264.658 83.1538C264.684 83.1298 264.704 83.1014 264.717 83.0688C264.731 83.0354 264.738 82.9988 264.738 82.9588C264.738 82.9094 264.73 82.8674 264.713 82.8328C264.697 82.7974 264.675 82.7688 264.647 82.7468C264.62 82.7248 264.588 82.7088 264.552 82.6988C264.516 82.6881 264.478 82.6828 264.439 82.6828C264.4 82.6828 264.362 82.6881 264.326 82.6988C264.29 82.7088 264.258 82.7248 264.23 82.7468C264.203 82.7688 264.181 82.7974 264.164 82.8328C264.148 82.8674 264.14 82.9094 264.14 82.9588C264.14 82.9988 264.147 83.0354 264.16 83.0688C264.174 83.1014 264.194 83.1298 264.219 83.1538C264.245 83.1771 264.276 83.1954 264.313 83.2088C264.35 83.2214 264.392 83.2278 264.439 83.2278ZM264.439 82.0428C264.396 82.0428 264.359 82.0491 264.326 82.0618C264.294 82.0744 264.267 82.0918 264.245 82.1138C264.224 82.1358 264.207 82.1614 264.196 82.1908C264.185 82.2201 264.18 82.2514 264.18 82.2848C264.18 82.3174 264.185 82.3491 264.194 82.3798C264.203 82.4104 264.218 82.4378 264.239 82.4618C264.26 82.4851 264.286 82.5041 264.319 82.5188C264.352 82.5328 264.392 82.5398 264.439 82.5398C264.486 82.5398 264.525 82.5328 264.558 82.5188C264.591 82.5041 264.618 82.4851 264.639 82.4618C264.66 82.4378 264.675 82.4104 264.684 82.3798C264.693 82.3491 264.698 82.3174 264.698 82.2848C264.698 82.2514 264.692 82.2201 264.681 82.1908C264.67 82.1614 264.654 82.1358 264.632 82.1138C264.611 82.0918 264.584 82.0744 264.551 82.0618C264.519 82.0491 264.482 82.0428 264.439 82.0428ZM264.644 82.6068C264.733 82.6321 264.802 82.6744 264.85 82.7338C264.898 82.7931 264.922 82.8691 264.922 82.9618C264.922 83.0244 264.91 83.0811 264.886 83.1318C264.863 83.1818 264.83 83.2244 264.787 83.2598C264.745 83.2951 264.694 83.3224 264.635 83.3418C264.576 83.3604 264.51 83.3698 264.439 83.3698C264.368 83.3698 264.302 83.3604 264.243 83.3418C264.184 83.3224 264.133 83.2951 264.09 83.2598C264.047 83.2244 264.014 83.1818 263.991 83.1318C263.968 83.0811 263.956 83.0244 263.956 82.9618C263.956 82.8691 263.98 82.7931 264.028 82.7338C264.076 82.6744 264.145 82.6321 264.234 82.6068C264.159 82.5788 264.102 82.5371 264.063 82.4818C264.025 82.4258 264.006 82.3591 264.006 82.2818C264.006 82.2291 264.016 82.1798 264.037 82.1338C264.058 82.0878 264.087 82.0478 264.125 82.0138C264.163 81.9798 264.208 81.9531 264.261 81.9338C264.314 81.9144 264.374 81.9048 264.439 81.9048C264.504 81.9048 264.563 81.9144 264.616 81.9338C264.669 81.9531 264.715 81.9798 264.753 82.0138C264.791 82.0478 264.82 82.0878 264.841 82.1338C264.862 82.1798 264.872 82.2291 264.872 82.2818C264.872 82.3591 264.853 82.4258 264.814 82.4818C264.776 82.5371 264.719 82.5788 264.644 82.6068Z" fill="#D7DBE6"/>
<rect x="267.805" y="57" width="0.455392" height="20.7571" rx="0.227696" fill="#EFF3FE"/>
<rect x="267.654" y="75.3618" width="0.758986" height="2.39505" rx="0.379493" fill="url(#paint16_linear_66_2328)"/>
<rect x="267.654" y="62.5884" width="0.758986" height="11.9753" rx="0.379493" fill="url(#paint17_linear_66_2328)"/>
<path d="M268.146 80.6378C268.146 80.7631 268.133 80.8718 268.105 80.9638C268.079 81.0551 268.042 81.1308 267.995 81.1908C267.949 81.2508 267.893 81.2954 267.829 81.3248C267.766 81.3541 267.698 81.3688 267.625 81.3688C267.552 81.3688 267.484 81.3541 267.42 81.3248C267.358 81.2954 267.303 81.2508 267.256 81.1908C267.21 81.1308 267.173 81.0551 267.146 80.9638C267.12 80.8718 267.106 80.7631 267.106 80.6378C267.106 80.5124 267.12 80.4038 267.146 80.3118C267.173 80.2198 267.21 80.1438 267.256 80.0838C267.303 80.0231 267.358 79.9781 267.42 79.9488C267.484 79.9194 267.552 79.9048 267.625 79.9048C267.698 79.9048 267.766 79.9194 267.829 79.9488C267.893 79.9781 267.949 80.0231 267.995 80.0838C268.042 80.1438 268.079 80.2198 268.105 80.3118C268.133 80.4038 268.146 80.5124 268.146 80.6378ZM267.961 80.6378C267.961 80.5284 267.952 80.4368 267.933 80.3628C267.915 80.2881 267.891 80.2281 267.859 80.1828C267.829 80.1374 267.793 80.1051 267.752 80.0858C267.712 80.0658 267.669 80.0558 267.625 80.0558C267.581 80.0558 267.539 80.0658 267.498 80.0858C267.458 80.1051 267.422 80.1374 267.391 80.1828C267.361 80.2281 267.336 80.2881 267.317 80.3628C267.299 80.4368 267.29 80.5284 267.29 80.6378C267.29 80.7471 267.299 80.8388 267.317 80.9128C267.336 80.9868 267.361 81.0464 267.391 81.0918C267.422 81.1371 267.458 81.1698 267.498 81.1898C267.539 81.2091 267.581 81.2188 267.625 81.2188C267.669 81.2188 267.712 81.2091 267.752 81.1898C267.793 81.1698 267.829 81.1371 267.859 81.0918C267.891 81.0464 267.915 80.9868 267.933 80.9128C267.952 80.8388 267.961 80.7471 267.961 80.6378ZM267.329 82.3418C267.329 82.3871 267.336 82.4278 267.348 82.4638C267.362 82.4991 267.38 82.5291 267.404 82.5538C267.429 82.5784 267.459 82.5971 267.493 82.6098C267.529 82.6224 267.568 82.6288 267.611 82.6288C267.659 82.6288 267.702 82.6211 267.738 82.6058C267.776 82.5898 267.807 82.5688 267.832 82.5428C267.858 82.5168 267.877 82.4868 267.89 82.4528C267.904 82.4188 267.91 82.3834 267.91 82.3468C267.91 82.3021 267.903 82.2618 267.888 82.2258C267.874 82.1891 267.855 82.1581 267.829 82.1328C267.804 82.1074 267.774 82.0881 267.738 82.0748C267.704 82.0608 267.665 82.0538 267.623 82.0538C267.579 82.0538 267.539 82.0611 267.503 82.0758C267.467 82.0898 267.436 82.1094 267.41 82.1348C267.384 82.1601 267.364 82.1904 267.35 82.2258C267.336 82.2611 267.329 82.2998 267.329 82.3418ZM267.745 82.7828C267.76 82.7634 267.774 82.7451 267.786 82.7278C267.799 82.7104 267.811 82.6931 267.822 82.6758C267.786 82.7051 267.744 82.7274 267.698 82.7428C267.652 82.7581 267.604 82.7658 267.552 82.7658C267.498 82.7658 267.447 82.7568 267.398 82.7388C267.35 82.7208 267.308 82.6944 267.271 82.6598C267.235 82.6244 267.205 82.5814 267.183 82.5308C267.162 82.4794 267.151 82.4208 267.151 82.3548C267.151 82.2921 267.163 82.2334 267.186 82.1788C267.21 82.1241 267.242 82.0764 267.284 82.0358C267.326 81.9951 267.376 81.9631 267.434 81.9398C267.492 81.9164 267.556 81.9048 267.625 81.9048C267.694 81.9048 267.756 81.9161 267.812 81.9388C267.868 81.9614 267.916 81.9931 267.956 82.0338C267.996 82.0744 268.027 82.1231 268.048 82.1798C268.07 82.2364 268.081 82.2991 268.081 82.3678C268.081 82.4091 268.077 82.4484 268.069 82.4858C268.062 82.5224 268.051 82.5588 268.036 82.5948C268.022 82.6301 268.005 82.6654 267.984 82.7008C267.964 82.7354 267.94 82.7711 267.914 82.8078L267.565 83.3118C267.557 83.3244 267.544 83.3348 267.528 83.3428C267.512 83.3501 267.494 83.3538 267.473 83.3538H267.309L267.745 82.7828Z" fill="#D7DBE6"/>
<rect x="270.842" y="57" width="0.455392" height="20.7571" rx="0.227696" fill="#EFF3FE"/>
<rect x="270.69" y="69.7734" width="0.758986" height="7.9835" rx="0.379493" fill="url(#paint18_linear_66_2328)"/>
<rect x="270.69" y="60.9917" width="0.758986" height="7.9835" rx="0.379493" fill="url(#paint19_linear_66_2328)"/>
<path d="M271.252 81.2178V81.3538H270.484V81.2178H270.791V80.2408C270.791 80.2114 270.792 80.1818 270.794 80.1518L270.539 80.3708C270.531 80.3781 270.522 80.3828 270.513 80.3848C270.505 80.3861 270.497 80.3861 270.489 80.3848C270.482 80.3834 270.475 80.3808 270.468 80.3768C270.462 80.3728 270.458 80.3684 270.454 80.3638L270.398 80.2868L270.825 79.9178H270.97V81.2178H271.252ZM271.334 82.6378C271.334 82.7631 271.321 82.8718 271.293 82.9638C271.267 83.0551 271.23 83.1308 271.183 83.1908C271.137 83.2508 271.081 83.2954 271.017 83.3248C270.954 83.3541 270.886 83.3688 270.813 83.3688C270.74 83.3688 270.672 83.3541 270.608 83.3248C270.546 83.2954 270.491 83.2508 270.444 83.1908C270.398 83.1308 270.361 83.0551 270.334 82.9638C270.308 82.8718 270.294 82.7631 270.294 82.6378C270.294 82.5124 270.308 82.4038 270.334 82.3118C270.361 82.2198 270.398 82.1438 270.444 82.0838C270.491 82.0231 270.546 81.9781 270.608 81.9488C270.672 81.9194 270.74 81.9048 270.813 81.9048C270.886 81.9048 270.954 81.9194 271.017 81.9488C271.081 81.9781 271.137 82.0231 271.183 82.0838C271.23 82.1438 271.267 82.2198 271.293 82.3118C271.321 82.4038 271.334 82.5124 271.334 82.6378ZM271.149 82.6378C271.149 82.5284 271.14 82.4368 271.121 82.3628C271.103 82.2881 271.079 82.2281 271.047 82.1828C271.017 82.1374 270.981 82.1051 270.94 82.0858C270.9 82.0658 270.857 82.0558 270.813 82.0558C270.769 82.0558 270.727 82.0658 270.686 82.0858C270.646 82.1051 270.61 82.1374 270.579 82.1828C270.549 82.2281 270.524 82.2881 270.505 82.3628C270.487 82.4368 270.478 82.5284 270.478 82.6378C270.478 82.7471 270.487 82.8388 270.505 82.9128C270.524 82.9868 270.549 83.0464 270.579 83.0918C270.61 83.1371 270.646 83.1698 270.686 83.1898C270.727 83.2091 270.769 83.2188 270.813 83.2188C270.857 83.2188 270.9 83.2091 270.94 83.1898C270.981 83.1698 271.017 83.1371 271.047 83.0918C271.079 83.0464 271.103 82.9868 271.121 82.9128C271.14 82.8388 271.149 82.7471 271.149 82.6378Z" fill="#D7DBE6"/>
<rect x="273.574" y="57" width="0.455392" height="20.7571" rx="0.227696" fill="#EFF3FE"/>
<rect x="273.422" y="71.3704" width="0.758986" height="6.3868" rx="0.379493" fill="url(#paint20_linear_66_2328)"/>
<rect x="273.422" y="64.1851" width="0.758986" height="6.3868" rx="0.379493" fill="url(#paint21_linear_66_2328)"/>
<path d="M274.136 81.2178V81.3538H273.368V81.2178H273.675V80.2408C273.675 80.2114 273.676 80.1818 273.678 80.1518L273.423 80.3708C273.415 80.3781 273.406 80.3828 273.397 80.3848C273.389 80.3861 273.381 80.3861 273.373 80.3848C273.366 80.3834 273.359 80.3808 273.352 80.3768C273.346 80.3728 273.342 80.3684 273.338 80.3638L273.282 80.2868L273.709 79.9178H273.854V81.2178H274.136ZM274.136 83.2178V83.3538H273.368V83.2178H273.675V82.2408C273.675 82.2114 273.676 82.1818 273.678 82.1518L273.423 82.3708C273.415 82.3781 273.406 82.3828 273.397 82.3848C273.389 82.3861 273.381 82.3861 273.373 82.3848C273.366 82.3834 273.359 82.3808 273.352 82.3768C273.346 82.3728 273.342 82.3684 273.338 82.3638L273.282 82.2868L273.709 81.9178H273.854V83.2178H274.136Z" fill="#D7DBE6"/>
<rect x="276.458" y="57" width="0.455392" height="20.7571" rx="0.227696" fill="#EFF3FE"/>
<rect x="276.306" y="71.3704" width="0.758986" height="6.3868" rx="0.379493" fill="url(#paint22_linear_66_2328)"/>
<rect x="276.306" y="57.7983" width="0.758986" height="12.7736" rx="0.379493" fill="url(#paint23_linear_66_2328)"/>
<path d="M276.869 81.2178V81.3538H276.101V81.2178H276.408V80.2408C276.408 80.2114 276.409 80.1818 276.411 80.1518L276.156 80.3708C276.147 80.3781 276.138 80.3828 276.13 80.3848C276.121 80.3861 276.113 80.3861 276.106 80.3848C276.098 80.3834 276.091 80.3808 276.085 80.3768C276.079 80.3728 276.074 80.3684 276.071 80.3638L276.015 80.2868L276.442 79.9178H276.587V81.2178H276.869ZM276.838 83.1848C276.857 83.1848 276.872 83.1904 276.884 83.2018C276.895 83.2131 276.901 83.2278 276.901 83.2458V83.3538H275.945V83.2928C275.945 83.2801 275.947 83.2671 275.953 83.2538C275.958 83.2404 275.966 83.2281 275.978 83.2168L276.437 82.7558C276.475 82.7171 276.509 82.6801 276.541 82.6448C276.572 82.6088 276.599 82.5728 276.621 82.5368C276.643 82.5008 276.66 82.4644 276.672 82.4278C276.684 82.3904 276.69 82.3508 276.69 82.3088C276.69 82.2668 276.683 82.2301 276.67 82.1988C276.656 82.1668 276.638 82.1404 276.615 82.1198C276.592 82.0991 276.565 82.0838 276.534 82.0738C276.502 82.0631 276.469 82.0578 276.433 82.0578C276.396 82.0578 276.362 82.0631 276.332 82.0738C276.301 82.0844 276.274 82.0994 276.25 82.1188C276.226 82.1374 276.207 82.1598 276.191 82.1858C276.175 82.2118 276.163 82.2404 276.157 82.2718C276.149 82.2951 276.138 82.3108 276.124 82.3188C276.11 82.3261 276.091 82.3281 276.067 82.3248L275.974 82.3088C275.983 82.2434 276.001 82.1858 276.028 82.1358C276.055 82.0851 276.089 82.0428 276.13 82.0088C276.171 81.9748 276.218 81.9491 276.271 81.9318C276.323 81.9138 276.38 81.9048 276.442 81.9048C276.502 81.9048 276.559 81.9138 276.612 81.9318C276.664 81.9498 276.71 81.9761 276.749 82.0108C276.787 82.0448 276.818 82.0864 276.84 82.1358C276.862 82.1851 276.873 82.2411 276.873 82.3038C276.873 82.3571 276.865 82.4068 276.849 82.4528C276.833 82.4981 276.811 82.5414 276.784 82.5828C276.756 82.6241 276.725 82.6644 276.689 82.7038C276.653 82.7431 276.616 82.7828 276.576 82.8228L276.198 83.2088C276.224 83.2014 276.251 83.1958 276.279 83.1918C276.306 83.1871 276.332 83.1848 276.358 83.1848H276.838Z" fill="#D7DBE6"/>
<rect x="35.603" y="112.95" width="91.702" height="99.5302" rx="8" fill="#F9F4F4"/>
<rect x="139.606" y="112.95" width="149.854" height="55.9158" rx="8" fill="#F9F4F4"/>
<rect x="139.606" y="174.458" width="149.854" height="38.0228" rx="8" fill="#F9F4F4"/>
<rect x="284.061" y="14.6936" width="18.3673" height="4.89796" rx="2.44898" fill="#C4C4C4"/>
<circle cx="21.4079" cy="16.5305" r="3.06122" fill="#C4C4C4"/>
<circle cx="29.9797" cy="16.5305" r="3.06122" fill="#C4C4C4"/>
<circle cx="38.551" cy="16.5305" r="3.06122" fill="#C4C4C4"/>
<defs>
<filter id="filter0_d_66_2328" x="0" y="0" width="311" height="234.531" filterUnits="userSpaceOnUse" color-interpolation-filters="sRGB">
<feFlood flood-opacity="0" result="BackgroundImageFix"/>
<feColorMatrix in="SourceAlpha" type="matrix" values="0 0 0 0 0 0 0 0 0 0 0 0 0 0 0 0 0 0 127 0" result="hardAlpha"/>
<feOffset dx="-7" dy="4"/>
<feGaussianBlur stdDeviation="2"/>
<feComposite in2="hardAlpha" operator="out"/>
<feColorMatrix type="matrix" values="0 0 0 0 0 0 0 0 0 0 0 0 0 0 0 0 0 0 0.25 0"/>
<feBlend mode="normal" in2="BackgroundImageFix" result="effect1_dropShadow_66_2328"/>
<feBlend mode="normal" in="SourceGraphic" in2="effect1_dropShadow_66_2328" result="shape"/>
</filter>
<linearGradient id="paint0_linear_66_2328" x1="242.835" y1="66.5801" x2="242.835" y2="77.757" gradientUnits="userSpaceOnUse">
<stop stop-color="#EED5DB"/>
<stop offset="1" stop-color="#F1D1E6"/>
</linearGradient>
<linearGradient id="paint1_linear_66_2328" x1="242.835" y1="63.3867" x2="242.835" y2="65.7818" gradientUnits="userSpaceOnUse">
<stop stop-color="#F6E5EB"/>
<stop offset="1" stop-color="#D6CED0"/>
</linearGradient>
<linearGradient id="paint2_linear_66_2328" x1="245.871" y1="72.967" x2="245.871" y2="77.7571" gradientUnits="userSpaceOnUse">
<stop stop-color="#EED5DB"/>
<stop offset="1" stop-color="#F1D1E6"/>
</linearGradient>
<linearGradient id="paint3_linear_66_2328" x1="245.871" y1="60.1934" x2="245.871" y2="72.1686" gradientUnits="userSpaceOnUse">
<stop stop-color="#F6E5EB"/>
<stop offset="1" stop-color="#D6CED0"/>
</linearGradient>
<linearGradient id="paint4_linear_66_2328" x1="249.058" y1="68.177" x2="249.058" y2="77.7572" gradientUnits="userSpaceOnUse">
<stop stop-color="#EED5DB"/>
<stop offset="1" stop-color="#F1D1E6"/>
</linearGradient>
<linearGradient id="paint5_linear_66_2328" x1="249.058" y1="60.9917" x2="249.058" y2="67.3785" gradientUnits="userSpaceOnUse">
<stop stop-color="#F6E5EB"/>
<stop offset="1" stop-color="#D6CED0"/>
</linearGradient>
<linearGradient id="paint6_linear_66_2328" x1="252.246" y1="68.177" x2="252.246" y2="77.7572" gradientUnits="userSpaceOnUse">
<stop stop-color="#EED5DB"/>
<stop offset="1" stop-color="#F1D1E6"/>
</linearGradient>
<linearGradient id="paint7_linear_66_2328" x1="252.246" y1="65.7817" x2="252.246" y2="67.3784" gradientUnits="userSpaceOnUse">
<stop stop-color="#F6E5EB"/>
<stop offset="1" stop-color="#D6CED0"/>
</linearGradient>
<linearGradient id="paint8_linear_66_2328" x1="255.434" y1="66.5801" x2="255.434" y2="77.757" gradientUnits="userSpaceOnUse">
<stop stop-color="#EED5DB"/>
<stop offset="1" stop-color="#F1D1E6"/>
</linearGradient>
<linearGradient id="paint9_linear_66_2328" x1="255.434" y1="59.3948" x2="255.434" y2="65.7816" gradientUnits="userSpaceOnUse">
<stop stop-color="#F6E5EB"/>
<stop offset="1" stop-color="#D6CED0"/>
</linearGradient>
<linearGradient id="paint10_linear_66_2328" x1="258.622" y1="68.9751" x2="258.622" y2="77.7569" gradientUnits="userSpaceOnUse">
<stop stop-color="#EED5DB"/>
<stop offset="1" stop-color="#F1D1E6"/>
</linearGradient>
<linearGradient id="paint11_linear_66_2328" x1="258.622" y1="63.3867" x2="258.622" y2="68.1768" gradientUnits="userSpaceOnUse">
<stop stop-color="#F6E5EB"/>
<stop offset="1" stop-color="#D6CED0"/>
</linearGradient>
<linearGradient id="paint12_linear_66_2328" x1="261.809" y1="64.1851" x2="261.809" y2="77.757" gradientUnits="userSpaceOnUse">
<stop stop-color="#EED5DB"/>
<stop offset="1" stop-color="#F1D1E6"/>
</linearGradient>
<linearGradient id="paint13_linear_66_2328" x1="261.809" y1="60.1934" x2="261.809" y2="63.3868" gradientUnits="userSpaceOnUse">
<stop stop-color="#F6E5EB"/>
<stop offset="1" stop-color="#D6CED0"/>
</linearGradient>
<linearGradient id="paint14_linear_66_2328" x1="264.846" y1="68.177" x2="264.846" y2="77.7572" gradientUnits="userSpaceOnUse">
<stop stop-color="#EED5DB"/>
<stop offset="1" stop-color="#F1D1E6"/>
</linearGradient>
<linearGradient id="paint15_linear_66_2328" x1="264.846" y1="64.1851" x2="264.846" y2="67.3785" gradientUnits="userSpaceOnUse">
<stop stop-color="#F6E5EB"/>
<stop offset="1" stop-color="#D6CED0"/>
</linearGradient>
<linearGradient id="paint16_linear_66_2328" x1="268.033" y1="75.3618" x2="268.033" y2="77.7569" gradientUnits="userSpaceOnUse">
<stop stop-color="#EED5DB"/>
<stop offset="1" stop-color="#F1D1E6"/>
</linearGradient>
<linearGradient id="paint17_linear_66_2328" x1="268.033" y1="62.5884" x2="268.033" y2="74.5636" gradientUnits="userSpaceOnUse">
<stop stop-color="#F6E5EB"/>
<stop offset="1" stop-color="#D6CED0"/>
</linearGradient>
<linearGradient id="paint18_linear_66_2328" x1="271.069" y1="69.7734" x2="271.069" y2="77.7569" gradientUnits="userSpaceOnUse">
<stop stop-color="#EED5DB"/>
<stop offset="1" stop-color="#F1D1E6"/>
</linearGradient>
<linearGradient id="paint19_linear_66_2328" x1="271.069" y1="60.9917" x2="271.069" y2="68.9752" gradientUnits="userSpaceOnUse">
<stop stop-color="#F6E5EB"/>
<stop offset="1" stop-color="#D6CED0"/>
</linearGradient>
<linearGradient id="paint20_linear_66_2328" x1="273.802" y1="71.3704" x2="273.802" y2="77.7572" gradientUnits="userSpaceOnUse">
<stop stop-color="#EED5DB"/>
<stop offset="1" stop-color="#F1D1E6"/>
</linearGradient>
<linearGradient id="paint21_linear_66_2328" x1="273.802" y1="64.1851" x2="273.802" y2="70.5719" gradientUnits="userSpaceOnUse">
<stop stop-color="#F6E5EB"/>
<stop offset="1" stop-color="#D6CED0"/>
</linearGradient>
<linearGradient id="paint22_linear_66_2328" x1="276.686" y1="71.3704" x2="276.686" y2="77.7572" gradientUnits="userSpaceOnUse">
<stop stop-color="#EED5DB"/>
<stop offset="1" stop-color="#F1D1E6"/>
</linearGradient>
<linearGradient id="paint23_linear_66_2328" x1="276.686" y1="57.7983" x2="276.686" y2="70.5719" gradientUnits="userSpaceOnUse">
<stop stop-color="#F6E5EB"/>
<stop offset="1" stop-color="#D6CED0"/>
</linearGradient>
</defs>
</svg>
