<svg width="112" height="30" viewBox="0 0 112 30" fill="none" xmlns="http://www.w3.org/2000/svg">
<path id="Vector 190" d="M2.71542 6.13512L1.60164 8.98215C0.543216 11.6877 0 14.5673 0 17.4725V17.8965C0 24.5811 5.41894 30 12.1035 30H96.3421C104.99 30 112 22.9897 112 14.3421C109.607 15.5723 107.301 14.6592 105.394 13.0243C102.354 10.4179 98.3533 8.44049 94.5797 9.78005C91.4853 10.8785 88.0342 9.93727 85.926 7.41992L84.9655 6.273C82.5459 3.3838 78.7087 2.09823 75.0369 2.94659L70.2132 4.06106C68.2317 4.5189 66.1467 4.12811 64.4643 2.9854C60.8893 0.557191 55.9933 1.74873 53.9414 5.55224L50.7027 11.5555C49.6171 13.5677 46.7937 13.7346 45.4786 11.8642C44.786 10.8791 43.5823 10.3887 42.3984 10.6093L40.4939 10.9642C38.3586 11.3622 36.1729 10.593 34.7574 8.94537L33.2006 7.13316C31.5072 5.16197 28.6195 4.74135 26.4341 6.14755C24.3489 7.48927 21.6069 7.1743 19.8802 5.39474L17.6757 3.12272C13.0783 -1.61558 5.12071 -0.0132365 2.71542 6.13512Z" fill="url(#paint0_linear_66_2137)"/>
<defs>
<linearGradient id="paint0_linear_66_2137" x1="56" y1="-7" x2="56" y2="30" gradientUnits="userSpaceOnUse">
<stop stop-color="#D5D9FF"/>
<stop offset="1" stop-color="#D9D9D9" stop-opacity="0"/>
</linearGradient>
</defs>
</svg>
