<svg width="129" height="45" viewBox="0 0 129 45" fill="none" xmlns="http://www.w3.org/2000/svg">
<path opacity="0.5" d="M24.7294 40.3636V44H24.179V40.9141H24.1577L23.2876 41.4822V40.9567L24.195 40.3636H24.7294ZM26.979 44.0604C26.6985 44.0592 26.4588 43.9852 26.2599 43.8384C26.0611 43.6916 25.909 43.478 25.8036 43.1974C25.6983 42.9169 25.6456 42.579 25.6456 42.1836C25.6456 41.7894 25.6983 41.4527 25.8036 41.1733C25.9102 40.8939 26.0629 40.6809 26.2617 40.5341C26.4618 40.3873 26.7009 40.3139 26.979 40.3139C27.2572 40.3139 27.4957 40.3879 27.6946 40.5359C27.8935 40.6826 28.0456 40.8957 28.1509 41.1751C28.2575 41.4532 28.3107 41.7894 28.3107 42.1836C28.3107 42.5801 28.258 42.9187 28.1527 43.1992C28.0473 43.4786 27.8952 43.6922 27.6964 43.8402C27.4975 43.987 27.2584 44.0604 26.979 44.0604ZM26.979 43.5863C27.2253 43.5863 27.4176 43.4661 27.5561 43.2259C27.6958 42.9856 27.7656 42.6381 27.7656 42.1836C27.7656 41.8817 27.7337 41.6267 27.6697 41.4183C27.607 41.2088 27.5165 41.0502 27.3981 40.9425C27.2809 40.8336 27.1412 40.7791 26.979 40.7791C26.734 40.7791 26.5417 40.8999 26.402 41.1413C26.2623 41.3828 26.1919 41.7302 26.1907 42.1836C26.1907 42.4866 26.2221 42.7429 26.2848 42.9524C26.3487 43.1607 26.4393 43.3188 26.5565 43.4265C26.6737 43.533 26.8145 43.5863 26.979 43.5863Z" fill="#C0B6B6"/>
<path opacity="0.5" d="M46.7294 40.3636V44H46.179V40.9141H46.1577L45.2876 41.4822V40.9567L46.195 40.3636H46.7294ZM49.0927 40.3636V44H48.5423V40.9141H48.521L47.6509 41.4822V40.9567L48.5582 40.3636H49.0927Z" fill="#C0B6B6"/>
<path opacity="0.5" d="M69.7294 40.3636V44H69.179V40.9141H69.1577L68.2876 41.4822V40.9567L69.195 40.3636H69.7294ZM70.7131 44V43.6023L71.9435 42.3274C72.0749 42.1889 72.1832 42.0676 72.2685 41.9634C72.3549 41.8581 72.4194 41.758 72.462 41.6634C72.5046 41.5687 72.5259 41.468 72.5259 41.3615C72.5259 41.2408 72.4975 41.1366 72.4407 41.049C72.3839 40.9602 72.3063 40.8922 72.2081 40.8448C72.1098 40.7963 71.9992 40.772 71.8761 40.772C71.7459 40.772 71.6322 40.7987 71.5352 40.8519C71.4381 40.9052 71.3635 40.9804 71.3114 41.0774C71.2594 41.1745 71.2333 41.2881 71.2333 41.4183H70.7095C70.7095 41.197 70.7604 41.0034 70.8622 40.8377C70.964 40.672 71.1037 40.5436 71.2812 40.4524C71.4588 40.3601 71.6606 40.3139 71.8867 40.3139C72.1152 40.3139 72.3164 40.3595 72.4904 40.4506C72.6656 40.5406 72.8023 40.6637 72.9006 40.82C72.9988 40.975 73.0479 41.1502 73.0479 41.3455C73.0479 41.4805 73.0225 41.6125 72.9716 41.7415C72.9219 41.8705 72.8349 42.0143 72.7106 42.1729C72.5863 42.3304 72.4135 42.5215 72.1921 42.7464L71.4695 43.5028V43.5295H73.1065V44H70.7131Z" fill="#C0B6B6"/>
<path opacity="0.5" d="M91.7294 40.3636V44H91.179V40.9141H91.1577L90.2876 41.4822V40.9567L91.195 40.3636H91.7294ZM93.979 44.0497C93.7352 44.0497 93.5174 44.0077 93.3256 43.9237C93.1351 43.8396 92.9841 43.723 92.8729 43.5739C92.7628 43.4235 92.7036 43.2495 92.6953 43.0518H93.2528C93.2599 43.1596 93.296 43.2531 93.3612 43.3324C93.4274 43.4105 93.5138 43.4709 93.6204 43.5135C93.7269 43.5561 93.8453 43.5774 93.9755 43.5774C94.1187 43.5774 94.2454 43.5526 94.3555 43.5028C94.4667 43.4531 94.5537 43.3839 94.6165 43.2951C94.6792 43.2051 94.7106 43.1016 94.7106 42.9844C94.7106 42.8625 94.6792 42.7553 94.6165 42.663C94.5549 42.5695 94.4644 42.4961 94.3448 42.4428C94.2264 42.3896 94.0832 42.3629 93.9151 42.3629H93.608V41.9155H93.9151C94.0501 41.9155 94.1684 41.8912 94.2702 41.8427C94.3732 41.7942 94.4537 41.7267 94.5117 41.6403C94.5697 41.5527 94.5987 41.4503 94.5987 41.3331C94.5987 41.2206 94.5733 41.123 94.5224 41.0401C94.4727 40.9561 94.4016 40.8904 94.3093 40.843C94.2182 40.7957 94.1104 40.772 93.9862 40.772C93.8678 40.772 93.7571 40.7939 93.6541 40.8377C93.5523 40.8803 93.4695 40.9419 93.4055 41.0224C93.3416 41.1017 93.3073 41.197 93.3026 41.3082H92.7717C92.7776 41.1117 92.8356 40.9389 92.9457 40.7898C93.0569 40.6406 93.2037 40.524 93.386 40.44C93.5683 40.3559 93.7707 40.3139 93.9933 40.3139C94.2264 40.3139 94.4277 40.3595 94.5969 40.4506C94.7674 40.5406 94.8988 40.6607 94.9911 40.8111C95.0846 40.9614 95.1308 41.1259 95.1296 41.3047C95.1308 41.5083 95.074 41.6811 94.9592 41.8232C94.8455 41.9652 94.694 42.0605 94.5046 42.109V42.1374C94.7461 42.1741 94.9331 42.27 95.0657 42.4251C95.1995 42.5801 95.2657 42.7725 95.2646 43.0021C95.2657 43.2022 95.2101 43.3815 95.0977 43.5401C94.9864 43.6987 94.8343 43.8236 94.6413 43.9148C94.4484 44.0047 94.2276 44.0497 93.979 44.0497Z" fill="#C0B6B6"/>
<path opacity="0.5" d="M113.729 40.3636V44H113.179V40.9141H113.158L112.288 41.4822V40.9567L113.195 40.3636H113.729ZM114.637 43.2898V42.8459L116.208 40.3636H116.558V41.017H116.336L115.212 42.7962V42.8246H117.366V43.2898H114.637ZM116.361 44V43.1548L116.364 42.9524V40.3636H116.885V44H116.361Z" fill="#C0B6B6"/>
<path d="M1.51278 5.04972C1.30445 5.04972 1.11683 5.00829 0.949929 4.92543C0.783026 4.84257 0.649266 4.72893 0.548651 4.58452C0.448035 4.4401 0.392992 4.27557 0.383523 4.09091H0.809659C0.826231 4.25545 0.900805 4.39157 1.03338 4.49929C1.16714 4.60582 1.32694 4.65909 1.51278 4.65909C1.66193 4.65909 1.79451 4.62417 1.91051 4.55433C2.0277 4.48449 2.11944 4.38861 2.18572 4.26669C2.2532 4.14358 2.28693 4.0045 2.28693 3.84943C2.28693 3.69081 2.25201 3.54936 2.18217 3.42507C2.11352 3.2996 2.01882 3.20076 1.89808 3.12855C1.77734 3.05634 1.63944 3.01965 1.48438 3.01847C1.37311 3.01728 1.25888 3.03445 1.14169 3.06996C1.0245 3.10428 0.92803 3.14867 0.852273 3.20312L0.440341 3.15341L0.660511 1.36364H2.54972V1.75426H1.02983L0.901989 2.8267H0.923295C0.997869 2.76752 1.09138 2.71839 1.20384 2.67933C1.31629 2.64027 1.43348 2.62074 1.5554 2.62074C1.77794 2.62074 1.97621 2.67401 2.15021 2.78054C2.3254 2.88589 2.46271 3.0303 2.56214 3.21378C2.66276 3.39725 2.71307 3.60677 2.71307 3.84233C2.71307 4.07434 2.66098 4.28149 2.55682 4.46378C2.45384 4.64489 2.31179 4.78812 2.13068 4.89347C1.94957 4.99763 1.74361 5.04972 1.51278 5.04972ZM4.60449 5.04972C4.33697 5.04972 4.10911 4.97692 3.9209 4.83132C3.73269 4.68454 3.58887 4.47206 3.48944 4.19389C3.39 3.91454 3.34029 3.57718 3.34029 3.18182C3.34029 2.78883 3.39 2.45324 3.48944 2.17507C3.59005 1.89571 3.73446 1.68265 3.92267 1.53587C4.11207 1.3879 4.33934 1.31392 4.60449 1.31392C4.86964 1.31392 5.09632 1.3879 5.28453 1.53587C5.47393 1.68265 5.61834 1.89571 5.71777 2.17507C5.81839 2.45324 5.8687 2.78883 5.8687 3.18182C5.8687 3.57718 5.81898 3.91454 5.71955 4.19389C5.62012 4.47206 5.4763 4.68454 5.28809 4.83132C5.09988 4.97692 4.87201 5.04972 4.60449 5.04972ZM4.60449 4.65909C4.86964 4.65909 5.07561 4.53125 5.22239 4.27557C5.36917 4.01989 5.44256 3.6553 5.44256 3.18182C5.44256 2.86695 5.40882 2.59884 5.34135 2.37749C5.27507 2.15613 5.17918 1.98745 5.05371 1.87145C4.92942 1.75545 4.77968 1.69744 4.60449 1.69744C4.34171 1.69744 4.13633 1.82706 3.98837 2.08629C3.84041 2.34434 3.76642 2.70952 3.76642 3.18182C3.76642 3.49669 3.79957 3.7642 3.86586 3.98438C3.93214 4.20455 4.02743 4.37204 4.15172 4.48686C4.2772 4.60168 4.42812 4.65909 4.60449 4.65909Z" fill="#DDBDBD"/>
<path d="M1.51278 22.0497C1.30445 22.0497 1.11683 22.0083 0.949929 21.9254C0.783026 21.8426 0.649266 21.7289 0.548651 21.5845C0.448035 21.4401 0.392992 21.2756 0.383523 21.0909H0.809659C0.826231 21.2554 0.900805 21.3916 1.03338 21.4993C1.16714 21.6058 1.32694 21.6591 1.51278 21.6591C1.66193 21.6591 1.79451 21.6242 1.91051 21.5543C2.0277 21.4845 2.11944 21.3886 2.18572 21.2667C2.2532 21.1436 2.28693 21.0045 2.28693 20.8494C2.28693 20.6908 2.25201 20.5494 2.18217 20.4251C2.11352 20.2996 2.01882 20.2008 1.89808 20.1286C1.77734 20.0563 1.63944 20.0196 1.48438 20.0185C1.37311 20.0173 1.25888 20.0344 1.14169 20.07C1.0245 20.1043 0.92803 20.1487 0.852273 20.2031L0.440341 20.1534L0.660511 18.3636H2.54972V18.7543H1.02983L0.901989 19.8267H0.923295C0.997869 19.7675 1.09138 19.7184 1.20384 19.6793C1.31629 19.6403 1.43348 19.6207 1.5554 19.6207C1.77794 19.6207 1.97621 19.674 2.15021 19.7805C2.3254 19.8859 2.46271 20.0303 2.56214 20.2138C2.66276 20.3973 2.71307 20.6068 2.71307 20.8423C2.71307 21.0743 2.66098 21.2815 2.55682 21.4638C2.45384 21.6449 2.31179 21.7881 2.13068 21.8935C1.94957 21.9976 1.74361 22.0497 1.51278 22.0497ZM4.60449 22.0497C4.33697 22.0497 4.10911 21.9769 3.9209 21.8313C3.73269 21.6845 3.58887 21.4721 3.48944 21.1939C3.39 20.9145 3.34029 20.5772 3.34029 20.1818C3.34029 19.7888 3.39 19.4532 3.48944 19.1751C3.59005 18.8957 3.73446 18.6826 3.92267 18.5359C4.11207 18.3879 4.33934 18.3139 4.60449 18.3139C4.86964 18.3139 5.09632 18.3879 5.28453 18.5359C5.47393 18.6826 5.61834 18.8957 5.71777 19.1751C5.81839 19.4532 5.8687 19.7888 5.8687 20.1818C5.8687 20.5772 5.81898 20.9145 5.71955 21.1939C5.62012 21.4721 5.4763 21.6845 5.28809 21.8313C5.09988 21.9769 4.87201 22.0497 4.60449 22.0497ZM4.60449 21.6591C4.86964 21.6591 5.07561 21.5312 5.22239 21.2756C5.36917 21.0199 5.44256 20.6553 5.44256 20.1818C5.44256 19.867 5.40882 19.5988 5.34135 19.3775C5.27507 19.1561 5.17918 18.9875 5.05371 18.8714C4.92942 18.7554 4.77968 18.6974 4.60449 18.6974C4.34171 18.6974 4.13633 18.8271 3.98837 19.0863C3.84041 19.3443 3.76642 19.7095 3.76642 20.1818C3.76642 20.4967 3.79957 20.7642 3.86586 20.9844C3.93214 21.2045 4.02743 21.372 4.15172 21.4869C4.2772 21.6017 4.42812 21.6591 4.60449 21.6591Z" fill="#DDBDBD"/>
<path d="M1.51278 38.0497C1.30445 38.0497 1.11683 38.0083 0.949929 37.9254C0.783026 37.8426 0.649266 37.7289 0.548651 37.5845C0.448035 37.4401 0.392992 37.2756 0.383523 37.0909H0.809659C0.826231 37.2554 0.900805 37.3916 1.03338 37.4993C1.16714 37.6058 1.32694 37.6591 1.51278 37.6591C1.66193 37.6591 1.79451 37.6242 1.91051 37.5543C2.0277 37.4845 2.11944 37.3886 2.18572 37.2667C2.2532 37.1436 2.28693 37.0045 2.28693 36.8494C2.28693 36.6908 2.25201 36.5494 2.18217 36.4251C2.11352 36.2996 2.01882 36.2008 1.89808 36.1286C1.77734 36.0563 1.63944 36.0196 1.48438 36.0185C1.37311 36.0173 1.25888 36.0344 1.14169 36.07C1.0245 36.1043 0.92803 36.1487 0.852273 36.2031L0.440341 36.1534L0.660511 34.3636H2.54972V34.7543H1.02983L0.901989 35.8267H0.923295C0.997869 35.7675 1.09138 35.7184 1.20384 35.6793C1.31629 35.6403 1.43348 35.6207 1.5554 35.6207C1.77794 35.6207 1.97621 35.674 2.15021 35.7805C2.3254 35.8859 2.46271 36.0303 2.56214 36.2138C2.66276 36.3973 2.71307 36.6068 2.71307 36.8423C2.71307 37.0743 2.66098 37.2815 2.55682 37.4638C2.45384 37.6449 2.31179 37.7881 2.13068 37.8935C1.94957 37.9976 1.74361 38.0497 1.51278 38.0497ZM4.60449 38.0497C4.33697 38.0497 4.10911 37.9769 3.9209 37.8313C3.73269 37.6845 3.58887 37.4721 3.48944 37.1939C3.39 36.9145 3.34029 36.5772 3.34029 36.1818C3.34029 35.7888 3.39 35.4532 3.48944 35.1751C3.59005 34.8957 3.73446 34.6826 3.92267 34.5359C4.11207 34.3879 4.33934 34.3139 4.60449 34.3139C4.86964 34.3139 5.09632 34.3879 5.28453 34.5359C5.47393 34.6826 5.61834 34.8957 5.71777 35.1751C5.81839 35.4532 5.8687 35.7888 5.8687 36.1818C5.8687 36.5772 5.81898 36.9145 5.71955 37.1939C5.62012 37.4721 5.4763 37.6845 5.28809 37.8313C5.09988 37.9769 4.87201 38.0497 4.60449 38.0497ZM4.60449 37.6591C4.86964 37.6591 5.07561 37.5312 5.22239 37.2756C5.36917 37.0199 5.44256 36.6553 5.44256 36.1818C5.44256 35.867 5.40882 35.5988 5.34135 35.3775C5.27507 35.1561 5.17918 34.9875 5.05371 34.8714C4.92942 34.7554 4.77968 34.6974 4.60449 34.6974C4.34171 34.6974 4.13633 34.8271 3.98837 35.0863C3.84041 35.3443 3.76642 35.7095 3.76642 36.1818C3.76642 36.4967 3.79957 36.7642 3.86586 36.9844C3.93214 37.2045 4.02743 37.372 4.15172 37.4869C4.2772 37.6017 4.42812 37.6591 4.60449 37.6591Z" fill="#DDBDBD"/>
<path d="M128 36L14 36" stroke="black" stroke-opacity="0.2" stroke-width="0.5" stroke-linecap="round" stroke-dasharray="6 6"/>
<path d="M127 18L13 18" stroke="black" stroke-opacity="0.2" stroke-width="0.5" stroke-linecap="round" stroke-dasharray="6 6"/>
<path d="M127 2.00001L13 2" stroke="black" stroke-opacity="0.2" stroke-width="0.5" stroke-linecap="round" stroke-dasharray="6 6"/>
<rect x="69" y="22" width="2" height="13" rx="1" fill="#E7E7E7"/>
<rect x="71" y="25" width="3" height="10" rx="1.5" fill="#F5D3C2"/>
<rect x="91" y="16" width="3" height="19" rx="1.5" fill="#E7E7E7"/>
<rect x="94" y="29" width="2" height="6" rx="1" fill="#F5D3C2"/>
<rect x="116" y="29" width="2" height="6" rx="1" fill="#F5D3C2"/>
<rect x="113" y="17" width="3" height="18" rx="1.5" fill="#E7E7E7"/>
<rect x="46" y="5" width="3" height="30" rx="1.5" fill="#E7E7E7"/>
<rect x="49" y="12" width="3" height="23" rx="1.5" fill="#F5D3C2"/>
</svg>
