<svg width="192" height="144" viewBox="0 0 192 144" fill="none" xmlns="http://www.w3.org/2000/svg">
<g id="about chart">
<g id="Background " filter="url(#filter0_d_66_2230)">
<rect x="16" y="11" width="150" height="101.576" rx="15" fill="white"/>
</g>
<g id="Group 87">
<path id="Ellipse 19" d="M117.819 61.683C117.819 77.095 105.325 89.5889 89.9127 89.5889C74.5007 89.5889 62.0068 77.095 62.0068 61.683C62.0068 46.271 74.5007 33.7771 89.9127 33.7771C105.325 33.7771 117.819 46.271 117.819 61.683ZM70.3786 61.683C70.3786 72.4714 79.1243 81.2171 89.9127 81.2171C100.701 81.2171 109.447 72.4714 109.447 61.683C109.447 50.8946 100.701 42.1489 89.9127 42.1489C79.1243 42.1489 70.3786 50.8946 70.3786 61.683Z" fill="#EFF3FE"/>
<path id="Ellipse 21" d="M116.372 77.3254C112.183 84.1426 105.458 89.0168 97.6755 90.8755C89.8932 92.7342 81.6912 91.4254 74.874 87.2368L82.7705 74.3845C86.1792 76.4788 90.2801 77.1333 94.1713 76.2039C98.0624 75.2745 101.425 72.8375 103.519 69.4289L116.372 77.3254Z" fill="#FD7289"/>
<path id="Ellipse 22" d="M90.6671 91.7008C86.7053 91.7008 82.7823 90.9205 79.1221 89.4044C75.4619 87.8883 72.1361 85.6661 69.3347 82.8647C66.5333 80.0633 64.3111 76.7375 62.795 73.0773C61.2789 69.4171 60.4985 65.4941 60.4985 61.5323H75.5828C75.5828 63.5132 75.973 65.4747 76.731 67.3048C77.4891 69.1349 78.6002 70.7978 80.0009 72.1985C81.4016 73.5992 83.0645 74.7103 84.8946 75.4684C86.7247 76.2264 88.6862 76.6166 90.6671 76.6166L90.6671 91.7008Z" fill="#FF9A3E"/>
<path id="Ellipse 20" d="M78.0439 34.1316C84.034 31.3721 90.7633 30.6515 97.2018 32.08C103.64 33.5086 109.433 37.0076 113.694 42.0416C117.955 47.0755 120.449 53.367 120.794 59.9531C121.139 66.5392 119.317 73.057 115.606 78.5088L103.136 70.0205C104.992 67.2946 105.903 64.0358 105.731 60.7427C105.558 57.4497 104.311 54.3039 102.181 51.7869C100.05 49.27 97.1537 47.5204 93.9344 46.8062C90.7152 46.0919 87.3505 46.4522 84.3555 47.832L78.0439 34.1316Z" fill="#C967A3"/>
</g>
</g>
<defs>
<filter id="filter0_d_66_2230" x="0" y="0" width="192" height="143.576" filterUnits="userSpaceOnUse" color-interpolation-filters="sRGB">
<feFlood flood-opacity="0" result="BackgroundImageFix"/>
<feColorMatrix in="SourceAlpha" type="matrix" values="0 0 0 0 0 0 0 0 0 0 0 0 0 0 0 0 0 0 127 0" result="hardAlpha"/>
<feOffset dx="5" dy="10"/>
<feGaussianBlur stdDeviation="10.5"/>
<feComposite in2="hardAlpha" operator="out"/>
<feColorMatrix type="matrix" values="0 0 0 0 0.429167 0 0 0 0 0.416649 0 0 0 0 0.416649 0 0 0 0.25 0"/>
<feBlend mode="normal" in2="BackgroundImageFix" result="effect1_dropShadow_66_2230"/>
<feBlend mode="normal" in="SourceGraphic" in2="effect1_dropShadow_66_2230" result="shape"/>
</filter>
</defs>
</svg>
