<svg width="129" height="160" viewBox="0 0 129 160" fill="none" xmlns="http://www.w3.org/2000/svg">
<g id="Icon">
<rect id="Background" y="160" width="160" height="129" rx="23" transform="rotate(-90 0 160)" fill="#BE3788"/>
<g id="Icon_2">
<path id="Vector" d="M89.1213 69.3269C89.1213 54.7385 76.9173 43.0312 62.27 44.0634C49.969 44.9258 39.9822 54.9606 39.0708 67.3931C38.2693 78.3426 44.3518 87.9462 53.4014 92.2516C54.7588 92.8983 55.625 94.2768 55.625 95.7925V101.796V106.33C55.625 110.708 58.7988 114.549 63.1038 115.032C68.191 115.601 72.5024 111.59 72.5024 106.559V95.7925C72.5024 94.2768 73.3751 92.8983 74.7325 92.2516C83.2326 88.1945 89.1213 79.4597 89.1213 69.3269Z" stroke="white" stroke-width="2.5" stroke-miterlimit="10"/>
<path id="Vector_2" d="M72.4961 101.45H55.6187" stroke="white" stroke-width="2.5" stroke-miterlimit="10"/>
<g id="Pattern">
<path id="Vector_3" d="M64.0603 70.9535C59.1542 70.9535 55.1594 74.9909 55.1594 79.9496V85.1891C57.7644 86.7571 60.8089 87.6652 64.0603 87.6652C67.3117 87.6652 70.3562 86.7636 72.9612 85.1891V79.9496C72.9612 74.9909 68.9665 70.9535 64.0603 70.9535Z" fill="#E445A4"/>
<path id="Vector_4" d="M50.7705 79.9496C50.7705 72.5411 56.7303 66.5175 64.0604 66.5175C71.3906 66.5175 77.3503 72.5411 77.3503 79.9496V81.4326C79.923 78.3621 81.4743 74.3965 81.4743 70.065C81.4743 60.3438 73.6788 52.4648 64.0604 52.4648C54.442 52.4648 46.6465 60.3438 46.6465 70.065C46.6465 74.403 48.1978 78.3686 50.7705 81.4326V79.9496Z" fill="#E445A4"/>
</g>
</g>
</g>
</svg>
