<svg width="36" height="27" viewBox="0 0 36 27" fill="none" xmlns="http://www.w3.org/2000/svg">
<rect x="0.607178" width="0.455392" height="20.7571" rx="0.227696" fill="#EFF3FE"/>
<rect x="0.455322" y="9.58008" width="0.758986" height="11.1769" rx="0.379493" fill="url(#paint0_linear_269_1436)"/>
<rect x="0.455322" y="6.38672" width="0.758986" height="2.39505" rx="0.379493" fill="url(#paint1_linear_269_1436)"/>
<path d="M1.1 23.6378C1.1 23.7631 1.08633 23.8718 1.059 23.9638C1.03233 24.0551 0.995667 24.1308 0.949 24.1908C0.902333 24.2508 0.847 24.2954 0.783 24.3248C0.719667 24.3541 0.651667 24.3688 0.579 24.3688C0.505667 24.3688 0.437333 24.3541 0.374 24.3248C0.311333 24.2954 0.256667 24.2508 0.21 24.1908C0.163333 24.1308 0.126667 24.0551 0.1 23.9638C0.0733333 23.8718 0.06 23.7631 0.06 23.6378C0.06 23.5124 0.0733333 23.4038 0.1 23.3118C0.126667 23.2198 0.163333 23.1438 0.21 23.0838C0.256667 23.0231 0.311333 22.9781 0.374 22.9488C0.437333 22.9194 0.505667 22.9048 0.579 22.9048C0.651667 22.9048 0.719667 22.9194 0.783 22.9488C0.847 22.9781 0.902333 23.0231 0.949 23.0838C0.995667 23.1438 1.03233 23.2198 1.059 23.3118C1.08633 23.4038 1.1 23.5124 1.1 23.6378ZM0.915 23.6378C0.915 23.5284 0.905667 23.4368 0.887 23.3628C0.869 23.2881 0.844333 23.2281 0.813 23.1828C0.782333 23.1374 0.746667 23.1051 0.706 23.0858C0.665333 23.0658 0.623 23.0558 0.579 23.0558C0.535 23.0558 0.492667 23.0658 0.452 23.0858C0.411333 23.1051 0.375667 23.1374 0.345 23.1828C0.314333 23.2281 0.289667 23.2881 0.271 23.3628C0.253 23.4368 0.244 23.5284 0.244 23.6378C0.244 23.7471 0.253 23.8388 0.271 23.9128C0.289667 23.9868 0.314333 24.0464 0.345 24.0918C0.375667 24.1371 0.411333 24.1698 0.452 24.1898C0.492667 24.2091 0.535 24.2188 0.579 24.2188C0.623 24.2188 0.665333 24.2091 0.706 24.1898C0.746667 24.1698 0.782333 24.1371 0.813 24.0918C0.844333 24.0464 0.869 23.9868 0.887 23.9128C0.905667 23.8388 0.915 23.7471 0.915 23.6378ZM1.018 26.2178V26.3538H0.25V26.2178H0.557V25.2408C0.557 25.2114 0.558 25.1818 0.56 25.1518L0.305 25.3708C0.296333 25.3781 0.287667 25.3828 0.279 25.3848C0.270333 25.3861 0.262333 25.3861 0.255 25.3848C0.247667 25.3834 0.240667 25.3808 0.234 25.3768C0.228 25.3728 0.223333 25.3684 0.22 25.3638L0.164 25.2868L0.591 24.9178H0.736V26.2178H1.018Z" fill="#D7DBE6"/>
<rect x="3.64331" width="0.455392" height="20.7571" rx="0.227696" fill="#EFF3FE"/>
<rect x="3.49146" y="15.967" width="0.758986" height="4.7901" rx="0.379493" fill="url(#paint2_linear_269_1436)"/>
<rect x="3.49146" y="3.19336" width="0.758986" height="11.9753" rx="0.379493" fill="url(#paint3_linear_269_1436)"/>
<path d="M3.98428 23.6378C3.98428 23.7631 3.97061 23.8718 3.94328 23.9638C3.91661 24.0551 3.87994 24.1308 3.83328 24.1908C3.78661 24.2508 3.73128 24.2954 3.66728 24.3248C3.60394 24.3541 3.53594 24.3688 3.46328 24.3688C3.38994 24.3688 3.32161 24.3541 3.25828 24.3248C3.19561 24.2954 3.14094 24.2508 3.09428 24.1908C3.04761 24.1308 3.01094 24.0551 2.98428 23.9638C2.95761 23.8718 2.94428 23.7631 2.94428 23.6378C2.94428 23.5124 2.95761 23.4038 2.98428 23.3118C3.01094 23.2198 3.04761 23.1438 3.09428 23.0838C3.14094 23.0231 3.19561 22.9781 3.25828 22.9488C3.32161 22.9194 3.38994 22.9048 3.46328 22.9048C3.53594 22.9048 3.60394 22.9194 3.66728 22.9488C3.73128 22.9781 3.78661 23.0231 3.83328 23.0838C3.87994 23.1438 3.91661 23.2198 3.94328 23.3118C3.97061 23.4038 3.98428 23.5124 3.98428 23.6378ZM3.79928 23.6378C3.79928 23.5284 3.78994 23.4368 3.77128 23.3628C3.75328 23.2881 3.72861 23.2281 3.69728 23.1828C3.66661 23.1374 3.63094 23.1051 3.59028 23.0858C3.54961 23.0658 3.50728 23.0558 3.46328 23.0558C3.41928 23.0558 3.37694 23.0658 3.33628 23.0858C3.29561 23.1051 3.25994 23.1374 3.22928 23.1828C3.19861 23.2281 3.17394 23.2881 3.15528 23.3628C3.13728 23.4368 3.12828 23.5284 3.12828 23.6378C3.12828 23.7471 3.13728 23.8388 3.15528 23.9128C3.17394 23.9868 3.19861 24.0464 3.22928 24.0918C3.25994 24.1371 3.29561 24.1698 3.33628 24.1898C3.37694 24.2091 3.41928 24.2188 3.46328 24.2188C3.50728 24.2188 3.54961 24.2091 3.59028 24.1898C3.63094 24.1698 3.66661 24.1371 3.69728 24.0918C3.72861 24.0464 3.75328 23.9868 3.77128 23.9128C3.78994 23.8388 3.79928 23.7471 3.79928 23.6378ZM3.87128 26.1848C3.89061 26.1848 3.90594 26.1904 3.91728 26.2018C3.92861 26.2131 3.93428 26.2278 3.93428 26.2458V26.3538H2.97828V26.2928C2.97828 26.2801 2.98094 26.2671 2.98628 26.2538C2.99161 26.2404 2.99994 26.2281 3.01128 26.2168L3.47028 25.7558C3.50828 25.7171 3.54294 25.6801 3.57428 25.6448C3.60561 25.6088 3.63228 25.5728 3.65428 25.5368C3.67628 25.5008 3.69328 25.4644 3.70528 25.4278C3.71728 25.3904 3.72328 25.3508 3.72328 25.3088C3.72328 25.2668 3.71661 25.2301 3.70328 25.1988C3.68994 25.1668 3.67161 25.1404 3.64828 25.1198C3.62561 25.0991 3.59861 25.0838 3.56728 25.0738C3.53594 25.0631 3.50228 25.0578 3.46628 25.0578C3.42961 25.0578 3.39594 25.0631 3.36528 25.0738C3.33461 25.0844 3.30728 25.0994 3.28328 25.1188C3.25994 25.1374 3.24028 25.1598 3.22428 25.1858C3.20828 25.2118 3.19694 25.2404 3.19028 25.2718C3.18228 25.2951 3.17128 25.3108 3.15728 25.3188C3.14394 25.3261 3.12494 25.3281 3.10028 25.3248L3.00728 25.3088C3.01661 25.2434 3.03461 25.1858 3.06128 25.1358C3.08861 25.0851 3.12261 25.0428 3.16328 25.0088C3.20461 24.9748 3.25161 24.9491 3.30428 24.9318C3.35694 24.9138 3.41394 24.9048 3.47528 24.9048C3.53594 24.9048 3.59261 24.9138 3.64528 24.9318C3.69794 24.9498 3.74361 24.9761 3.78228 25.0108C3.82094 25.0448 3.85128 25.0864 3.87328 25.1358C3.89528 25.1851 3.90628 25.2411 3.90628 25.3038C3.90628 25.3571 3.89828 25.4068 3.88228 25.4528C3.86628 25.4981 3.84461 25.5414 3.81728 25.5828C3.78994 25.6241 3.75828 25.6644 3.72228 25.7038C3.68694 25.7431 3.64928 25.7828 3.60928 25.8228L3.23128 26.2088C3.25794 26.2014 3.28494 26.1958 3.31228 26.1918C3.33961 26.1871 3.36594 26.1848 3.39128 26.1848H3.87128Z" fill="#D7DBE6"/>
<rect x="6.83081" width="0.455392" height="20.7571" rx="0.227696" fill="#EFF3FE"/>
<rect x="6.67896" y="11.177" width="0.758986" height="9.5802" rx="0.379493" fill="url(#paint4_linear_269_1436)"/>
<rect x="6.67896" y="3.9917" width="0.758986" height="6.3868" rx="0.379493" fill="url(#paint5_linear_269_1436)"/>
<path d="M7.17178 23.6378C7.17178 23.7631 7.15811 23.8718 7.13078 23.9638C7.10411 24.0551 7.06744 24.1308 7.02078 24.1908C6.97411 24.2508 6.91878 24.2954 6.85478 24.3248C6.79144 24.3541 6.72344 24.3688 6.65078 24.3688C6.57744 24.3688 6.50911 24.3541 6.44578 24.3248C6.38311 24.2954 6.32844 24.2508 6.28178 24.1908C6.23511 24.1308 6.19844 24.0551 6.17178 23.9638C6.14511 23.8718 6.13178 23.7631 6.13178 23.6378C6.13178 23.5124 6.14511 23.4038 6.17178 23.3118C6.19844 23.2198 6.23511 23.1438 6.28178 23.0838C6.32844 23.0231 6.38311 22.9781 6.44578 22.9488C6.50911 22.9194 6.57744 22.9048 6.65078 22.9048C6.72344 22.9048 6.79144 22.9194 6.85478 22.9488C6.91878 22.9781 6.97411 23.0231 7.02078 23.0838C7.06744 23.1438 7.10411 23.2198 7.13078 23.3118C7.15811 23.4038 7.17178 23.5124 7.17178 23.6378ZM6.98678 23.6378C6.98678 23.5284 6.97744 23.4368 6.95878 23.3628C6.94078 23.2881 6.91611 23.2281 6.88478 23.1828C6.85411 23.1374 6.81844 23.1051 6.77778 23.0858C6.73711 23.0658 6.69478 23.0558 6.65078 23.0558C6.60678 23.0558 6.56444 23.0658 6.52378 23.0858C6.48311 23.1051 6.44744 23.1374 6.41678 23.1828C6.38611 23.2281 6.36144 23.2881 6.34278 23.3628C6.32478 23.4368 6.31578 23.5284 6.31578 23.6378C6.31578 23.7471 6.32478 23.8388 6.34278 23.9128C6.36144 23.9868 6.38611 24.0464 6.41678 24.0918C6.44744 24.1371 6.48311 24.1698 6.52378 24.1898C6.56444 24.2091 6.60678 24.2188 6.65078 24.2188C6.69478 24.2188 6.73711 24.2091 6.77778 24.1898C6.81844 24.1698 6.85411 24.1371 6.88478 24.0918C6.91611 24.0464 6.94078 23.9868 6.95878 23.9128C6.97744 23.8388 6.98678 23.7471 6.98678 23.6378ZM6.20178 25.3088C6.21111 25.2434 6.22911 25.1858 6.25578 25.1358C6.28244 25.0851 6.31611 25.0428 6.35678 25.0088C6.39811 24.9748 6.44511 24.9491 6.49778 24.9318C6.55111 24.9138 6.60844 24.9048 6.66978 24.9048C6.73044 24.9048 6.78644 24.9134 6.83778 24.9308C6.88911 24.9481 6.93311 24.9728 6.96978 25.0048C7.00711 25.0368 7.03611 25.0754 7.05678 25.1208C7.07744 25.1661 7.08778 25.2164 7.08778 25.2718C7.08778 25.3171 7.08178 25.3578 7.06978 25.3938C7.05844 25.4291 7.04178 25.4601 7.01978 25.4868C6.99844 25.5134 6.97244 25.5361 6.94178 25.5548C6.91111 25.5734 6.87678 25.5888 6.83878 25.6008C6.93211 25.6248 7.00211 25.6661 7.04878 25.7248C7.09611 25.7828 7.11978 25.8554 7.11978 25.9428C7.11978 26.0088 7.10711 26.0681 7.08178 26.1208C7.05711 26.1734 7.02311 26.2184 6.97978 26.2558C6.93644 26.2924 6.88578 26.3208 6.82778 26.3408C6.77044 26.3601 6.70878 26.3698 6.64278 26.3698C6.56678 26.3698 6.50178 26.3604 6.44778 26.3418C6.39378 26.3224 6.34811 26.2961 6.31078 26.2628C6.27344 26.2294 6.24278 26.1901 6.21878 26.1448C6.19478 26.0988 6.17444 26.0491 6.15778 25.9958L6.23478 25.9638C6.25478 25.9551 6.27411 25.9528 6.29278 25.9568C6.31211 25.9608 6.32611 25.9718 6.33478 25.9898C6.34344 26.0084 6.35411 26.0308 6.36678 26.0568C6.38011 26.0828 6.39811 26.1078 6.42078 26.1318C6.44344 26.1558 6.47211 26.1761 6.50678 26.1928C6.54211 26.2094 6.58678 26.2178 6.64078 26.2178C6.69078 26.2178 6.73444 26.2098 6.77178 26.1938C6.80978 26.1771 6.84111 26.1558 6.86578 26.1298C6.89111 26.1038 6.91011 26.0748 6.92278 26.0428C6.93544 26.0108 6.94178 25.9791 6.94178 25.9478C6.94178 25.9091 6.93678 25.8738 6.92678 25.8418C6.91678 25.8098 6.89811 25.7821 6.87078 25.7588C6.84344 25.7354 6.80578 25.7171 6.75778 25.7038C6.71044 25.6904 6.64944 25.6838 6.57478 25.6838V25.5548C6.63611 25.5541 6.68811 25.5474 6.73078 25.5348C6.77411 25.5221 6.80911 25.5048 6.83578 25.4828C6.86311 25.4608 6.88278 25.4344 6.89478 25.4038C6.90744 25.3731 6.91378 25.3391 6.91378 25.3018C6.91378 25.2604 6.90711 25.2244 6.89378 25.1938C6.88111 25.1631 6.86344 25.1378 6.84078 25.1178C6.81811 25.0978 6.79111 25.0828 6.75978 25.0728C6.72911 25.0628 6.69578 25.0578 6.65978 25.0578C6.62378 25.0578 6.59011 25.0631 6.55878 25.0738C6.52811 25.0844 6.50078 25.0994 6.47678 25.1188C6.45344 25.1374 6.43378 25.1598 6.41778 25.1858C6.40178 25.2118 6.39044 25.2404 6.38378 25.2718C6.37511 25.2951 6.36411 25.3108 6.35078 25.3188C6.33811 25.3261 6.31944 25.3281 6.29478 25.3248L6.20178 25.3088Z" fill="#D7DBE6"/>
<rect x="10.0188" width="0.455392" height="20.7571" rx="0.227696" fill="#EFF3FE"/>
<rect x="9.86694" y="11.177" width="0.758986" height="9.5802" rx="0.379493" fill="url(#paint6_linear_269_1436)"/>
<rect x="9.86694" y="8.78174" width="0.758986" height="1.5967" rx="0.379493" fill="url(#paint7_linear_269_1436)"/>
<path d="M10.3598 23.6378C10.3598 23.7631 10.3461 23.8718 10.3188 23.9638C10.2921 24.0551 10.2554 24.1308 10.2088 24.1908C10.1621 24.2508 10.1068 24.2954 10.0428 24.3248C9.97943 24.3541 9.91143 24.3688 9.83877 24.3688C9.76543 24.3688 9.6971 24.3541 9.63377 24.3248C9.5711 24.2954 9.51643 24.2508 9.46977 24.1908C9.4231 24.1308 9.38643 24.0551 9.35977 23.9638C9.3331 23.8718 9.31977 23.7631 9.31977 23.6378C9.31977 23.5124 9.3331 23.4038 9.35977 23.3118C9.38643 23.2198 9.4231 23.1438 9.46977 23.0838C9.51643 23.0231 9.5711 22.9781 9.63377 22.9488C9.6971 22.9194 9.76543 22.9048 9.83877 22.9048C9.91143 22.9048 9.97943 22.9194 10.0428 22.9488C10.1068 22.9781 10.1621 23.0231 10.2088 23.0838C10.2554 23.1438 10.2921 23.2198 10.3188 23.3118C10.3461 23.4038 10.3598 23.5124 10.3598 23.6378ZM10.1748 23.6378C10.1748 23.5284 10.1654 23.4368 10.1468 23.3628C10.1288 23.2881 10.1041 23.2281 10.0728 23.1828C10.0421 23.1374 10.0064 23.1051 9.96577 23.0858C9.9251 23.0658 9.88277 23.0558 9.83877 23.0558C9.79477 23.0558 9.75243 23.0658 9.71177 23.0858C9.6711 23.1051 9.63543 23.1374 9.60477 23.1828C9.5741 23.2281 9.54943 23.2881 9.53077 23.3628C9.51277 23.4368 9.50377 23.5284 9.50377 23.6378C9.50377 23.7471 9.51277 23.8388 9.53077 23.9128C9.54943 23.9868 9.5741 24.0464 9.60477 24.0918C9.63543 24.1371 9.6711 24.1698 9.71177 24.1898C9.75243 24.2091 9.79477 24.2188 9.83877 24.2188C9.88277 24.2188 9.9251 24.2091 9.96577 24.1898C10.0064 24.1698 10.0421 24.1371 10.0728 24.0918C10.1041 24.0464 10.1288 23.9868 10.1468 23.9128C10.1654 23.8388 10.1748 23.7471 10.1748 23.6378ZM9.98977 25.8368V25.2458C9.98977 25.2284 9.99043 25.2094 9.99177 25.1888C9.9931 25.1681 9.9951 25.1471 9.99777 25.1258L9.47577 25.8368H9.98977ZM10.3628 25.8368V25.9388C10.3628 25.9494 10.3594 25.9584 10.3528 25.9658C10.3468 25.9731 10.3371 25.9768 10.3238 25.9768H10.1458V26.3538H9.98977V25.9768H9.35377C9.34043 25.9768 9.32877 25.9731 9.31877 25.9658C9.30943 25.9578 9.30343 25.9481 9.30077 25.9368L9.28277 25.8458L9.97977 24.9208H10.1458V25.8368H10.3628Z" fill="#D7DBE6"/>
<rect x="13.2065" width="0.455392" height="20.7571" rx="0.227696" fill="#EFF3FE"/>
<rect x="13.0547" y="9.58008" width="0.758986" height="11.1769" rx="0.379493" fill="url(#paint8_linear_269_1436)"/>
<rect x="13.0547" y="2.39478" width="0.758986" height="6.3868" rx="0.379493" fill="url(#paint9_linear_269_1436)"/>
<rect x="16.394" width="0.455392" height="20.7571" rx="0.227696" fill="#EFF3FE"/>
<rect x="16.2422" y="11.9751" width="0.758986" height="8.78185" rx="0.379493" fill="url(#paint10_linear_269_1436)"/>
<rect x="16.2422" y="6.38672" width="0.758986" height="4.7901" rx="0.379493" fill="url(#paint11_linear_269_1436)"/>
<path d="M16.735 23.6378C16.735 23.7631 16.7213 23.8718 16.694 23.9638C16.6673 24.0551 16.6307 24.1308 16.584 24.1908C16.5373 24.2508 16.482 24.2954 16.418 24.3248C16.3547 24.3541 16.2867 24.3688 16.214 24.3688C16.1407 24.3688 16.0723 24.3541 16.009 24.3248C15.9463 24.2954 15.8917 24.2508 15.845 24.1908C15.7983 24.1308 15.7617 24.0551 15.735 23.9638C15.7083 23.8718 15.695 23.7631 15.695 23.6378C15.695 23.5124 15.7083 23.4038 15.735 23.3118C15.7617 23.2198 15.7983 23.1438 15.845 23.0838C15.8917 23.0231 15.9463 22.9781 16.009 22.9488C16.0723 22.9194 16.1407 22.9048 16.214 22.9048C16.2867 22.9048 16.3547 22.9194 16.418 22.9488C16.482 22.9781 16.5373 23.0231 16.584 23.0838C16.6307 23.1438 16.6673 23.2198 16.694 23.3118C16.7213 23.4038 16.735 23.5124 16.735 23.6378ZM16.55 23.6378C16.55 23.5284 16.5407 23.4368 16.522 23.3628C16.504 23.2881 16.4793 23.2281 16.448 23.1828C16.4173 23.1374 16.3817 23.1051 16.341 23.0858C16.3003 23.0658 16.258 23.0558 16.214 23.0558C16.17 23.0558 16.1277 23.0658 16.087 23.0858C16.0463 23.1051 16.0107 23.1374 15.98 23.1828C15.9493 23.2281 15.9247 23.2881 15.906 23.3628C15.888 23.4368 15.879 23.5284 15.879 23.6378C15.879 23.7471 15.888 23.8388 15.906 23.9128C15.9247 23.9868 15.9493 24.0464 15.98 24.0918C16.0107 24.1371 16.0463 24.1698 16.087 24.1898C16.1277 24.2091 16.17 24.2188 16.214 24.2188C16.258 24.2188 16.3003 24.2091 16.341 24.1898C16.3817 24.1698 16.4173 24.1371 16.448 24.0918C16.4793 24.0464 16.504 23.9868 16.522 23.9128C16.5407 23.8388 16.55 23.7471 16.55 23.6378ZM16.213 26.2218C16.261 26.2218 16.3043 26.2141 16.343 26.1988C16.3823 26.1834 16.4157 26.1621 16.443 26.1348C16.471 26.1074 16.4923 26.0751 16.507 26.0378C16.5223 26.0004 16.53 25.9598 16.53 25.9158C16.53 25.8691 16.5227 25.8271 16.508 25.7898C16.4933 25.7518 16.4723 25.7198 16.445 25.6938C16.4183 25.6671 16.3863 25.6468 16.349 25.6328C16.3117 25.6188 16.2707 25.6118 16.226 25.6118C16.178 25.6118 16.1347 25.6201 16.096 25.6368C16.0573 25.6528 16.0243 25.6748 15.997 25.7028C15.9703 25.7301 15.9497 25.7621 15.935 25.7988C15.921 25.8348 15.914 25.8724 15.914 25.9118C15.914 25.9578 15.9207 25.9998 15.934 26.0378C15.9473 26.0758 15.9667 26.1084 15.992 26.1358C16.018 26.1631 16.0493 26.1844 16.086 26.1998C16.1233 26.2144 16.1657 26.2218 16.213 26.2218ZM16.109 25.4578C16.0963 25.4738 16.084 25.4894 16.072 25.5048C16.0607 25.5194 16.0497 25.5341 16.039 25.5488C16.073 25.5254 16.1103 25.5074 16.151 25.4948C16.1917 25.4821 16.236 25.4758 16.284 25.4758C16.342 25.4758 16.3967 25.4854 16.448 25.5048C16.4993 25.5234 16.544 25.5511 16.582 25.5878C16.6207 25.6238 16.6513 25.6684 16.674 25.7218C16.6967 25.7744 16.708 25.8348 16.708 25.9028C16.708 25.9688 16.696 26.0301 16.672 26.0868C16.648 26.1434 16.6143 26.1928 16.571 26.2348C16.5283 26.2768 16.4767 26.3098 16.416 26.3338C16.356 26.3578 16.2897 26.3698 16.217 26.3698C16.145 26.3698 16.0797 26.3584 16.021 26.3358C15.9623 26.3124 15.9123 26.2798 15.871 26.2378C15.8303 26.1951 15.7987 26.1438 15.776 26.0838C15.754 26.0231 15.743 25.9554 15.743 25.8808C15.743 25.8181 15.7567 25.7514 15.784 25.6808C15.812 25.6094 15.8563 25.5334 15.917 25.4528L16.281 24.9638C16.2903 24.9518 16.303 24.9418 16.319 24.9338C16.3357 24.9251 16.3547 24.9208 16.376 24.9208H16.534L16.109 25.4578Z" fill="#D7DBE6"/>
<rect x="19.5818" width="0.455392" height="20.7571" rx="0.227696" fill="#EFF3FE"/>
<rect x="19.4299" y="7.18506" width="0.758986" height="13.572" rx="0.379493" fill="url(#paint12_linear_269_1436)"/>
<rect x="19.4299" y="3.19336" width="0.758986" height="3.1934" rx="0.379493" fill="url(#paint13_linear_269_1436)"/>
<path d="M19.9228 23.6378C19.9228 23.7631 19.9091 23.8718 19.8818 23.9638C19.8551 24.0551 19.8184 24.1308 19.7718 24.1908C19.7251 24.2508 19.6698 24.2954 19.6058 24.3248C19.5424 24.3541 19.4744 24.3688 19.4018 24.3688C19.3284 24.3688 19.2601 24.3541 19.1968 24.3248C19.1341 24.2954 19.0794 24.2508 19.0328 24.1908C18.9861 24.1308 18.9494 24.0551 18.9228 23.9638C18.8961 23.8718 18.8828 23.7631 18.8828 23.6378C18.8828 23.5124 18.8961 23.4038 18.9228 23.3118C18.9494 23.2198 18.9861 23.1438 19.0328 23.0838C19.0794 23.0231 19.1341 22.9781 19.1968 22.9488C19.2601 22.9194 19.3284 22.9048 19.4018 22.9048C19.4744 22.9048 19.5424 22.9194 19.6058 22.9488C19.6698 22.9781 19.7251 23.0231 19.7718 23.0838C19.8184 23.1438 19.8551 23.2198 19.8818 23.3118C19.9091 23.4038 19.9228 23.5124 19.9228 23.6378ZM19.7378 23.6378C19.7378 23.5284 19.7284 23.4368 19.7098 23.3628C19.6918 23.2881 19.6671 23.2281 19.6358 23.1828C19.6051 23.1374 19.5694 23.1051 19.5288 23.0858C19.4881 23.0658 19.4458 23.0558 19.4018 23.0558C19.3578 23.0558 19.3154 23.0658 19.2748 23.0858C19.2341 23.1051 19.1984 23.1374 19.1678 23.1828C19.1371 23.2281 19.1124 23.2881 19.0938 23.3628C19.0758 23.4368 19.0668 23.5284 19.0668 23.6378C19.0668 23.7471 19.0758 23.8388 19.0938 23.9128C19.1124 23.9868 19.1371 24.0464 19.1678 24.0918C19.1984 24.1371 19.2341 24.1698 19.2748 24.1898C19.3154 24.2091 19.3578 24.2188 19.4018 24.2188C19.4458 24.2188 19.4881 24.2091 19.5288 24.1898C19.5694 24.1698 19.6051 24.1371 19.6358 24.0918C19.6671 24.0464 19.6918 23.9868 19.7098 23.9128C19.7284 23.8388 19.7378 23.7471 19.7378 23.6378ZM19.9038 24.9208V25.0008C19.9038 25.0234 19.9011 25.0421 19.8958 25.0568C19.8911 25.0714 19.8864 25.0838 19.8818 25.0938L19.2878 26.2908C19.2791 26.3081 19.2671 26.3231 19.2518 26.3358C19.2364 26.3478 19.2161 26.3538 19.1908 26.3538H19.0628L19.6648 25.1718C19.6734 25.1551 19.6824 25.1398 19.6918 25.1258C19.7011 25.1118 19.7111 25.0984 19.7218 25.0858H18.9738C18.9624 25.0858 18.9524 25.0814 18.9438 25.0728C18.9351 25.0634 18.9308 25.0531 18.9308 25.0418V24.9208H19.9038Z" fill="#D7DBE6"/>
<rect x="22.6179" width="0.455392" height="20.7571" rx="0.227696" fill="#EFF3FE"/>
<rect x="22.4661" y="11.177" width="0.758986" height="9.5802" rx="0.379493" fill="url(#paint14_linear_269_1436)"/>
<rect x="22.4661" y="7.18506" width="0.758986" height="3.1934" rx="0.379493" fill="url(#paint15_linear_269_1436)"/>
<path d="M22.9589 23.6378C22.9589 23.7631 22.9452 23.8718 22.9179 23.9638C22.8912 24.0551 22.8546 24.1308 22.8079 24.1908C22.7612 24.2508 22.7059 24.2954 22.6419 24.3248C22.5786 24.3541 22.5106 24.3688 22.4379 24.3688C22.3646 24.3688 22.2962 24.3541 22.2329 24.3248C22.1702 24.2954 22.1156 24.2508 22.0689 24.1908C22.0222 24.1308 21.9856 24.0551 21.9589 23.9638C21.9322 23.8718 21.9189 23.7631 21.9189 23.6378C21.9189 23.5124 21.9322 23.4038 21.9589 23.3118C21.9856 23.2198 22.0222 23.1438 22.0689 23.0838C22.1156 23.0231 22.1702 22.9781 22.2329 22.9488C22.2962 22.9194 22.3646 22.9048 22.4379 22.9048C22.5106 22.9048 22.5786 22.9194 22.6419 22.9488C22.7059 22.9781 22.7612 23.0231 22.8079 23.0838C22.8546 23.1438 22.8912 23.2198 22.9179 23.3118C22.9452 23.4038 22.9589 23.5124 22.9589 23.6378ZM22.7739 23.6378C22.7739 23.5284 22.7646 23.4368 22.7459 23.3628C22.7279 23.2881 22.7032 23.2281 22.6719 23.1828C22.6412 23.1374 22.6056 23.1051 22.5649 23.0858C22.5242 23.0658 22.4819 23.0558 22.4379 23.0558C22.3939 23.0558 22.3516 23.0658 22.3109 23.0858C22.2702 23.1051 22.2346 23.1374 22.2039 23.1828C22.1732 23.2281 22.1486 23.2881 22.1299 23.3628C22.1119 23.4368 22.1029 23.5284 22.1029 23.6378C22.1029 23.7471 22.1119 23.8388 22.1299 23.9128C22.1486 23.9868 22.1732 24.0464 22.2039 24.0918C22.2346 24.1371 22.2702 24.1698 22.3109 24.1898C22.3516 24.2091 22.3939 24.2188 22.4379 24.2188C22.4819 24.2188 22.5242 24.2091 22.5649 24.1898C22.6056 24.1698 22.6412 24.1371 22.6719 24.0918C22.7032 24.0464 22.7279 23.9868 22.7459 23.9128C22.7646 23.8388 22.7739 23.7471 22.7739 23.6378ZM22.4389 26.2278C22.4856 26.2278 22.5272 26.2214 22.5639 26.2088C22.6012 26.1954 22.6326 26.1771 22.6579 26.1538C22.6839 26.1298 22.7036 26.1014 22.7169 26.0688C22.7309 26.0354 22.7379 25.9988 22.7379 25.9588C22.7379 25.9094 22.7296 25.8674 22.7129 25.8328C22.6969 25.7974 22.6749 25.7688 22.6469 25.7468C22.6196 25.7248 22.5879 25.7088 22.5519 25.6988C22.5159 25.6881 22.4782 25.6828 22.4389 25.6828C22.3996 25.6828 22.3619 25.6881 22.3259 25.6988C22.2899 25.7088 22.2579 25.7248 22.2299 25.7468C22.2026 25.7688 22.1806 25.7974 22.1639 25.8328C22.1479 25.8674 22.1399 25.9094 22.1399 25.9588C22.1399 25.9988 22.1466 26.0354 22.1599 26.0688C22.1739 26.1014 22.1936 26.1298 22.2189 26.1538C22.2449 26.1771 22.2762 26.1954 22.3129 26.2088C22.3502 26.2214 22.3922 26.2278 22.4389 26.2278ZM22.4389 25.0428C22.3962 25.0428 22.3586 25.0491 22.3259 25.0618C22.2939 25.0744 22.2669 25.0918 22.2449 25.1138C22.2236 25.1358 22.2072 25.1614 22.1959 25.1908C22.1852 25.2201 22.1799 25.2514 22.1799 25.2848C22.1799 25.3174 22.1846 25.3491 22.1939 25.3798C22.2032 25.4104 22.2182 25.4378 22.2389 25.4618C22.2596 25.4851 22.2862 25.5041 22.3189 25.5188C22.3522 25.5328 22.3922 25.5398 22.4389 25.5398C22.4856 25.5398 22.5252 25.5328 22.5579 25.5188C22.5912 25.5041 22.6182 25.4851 22.6389 25.4618C22.6596 25.4378 22.6746 25.4104 22.6839 25.3798C22.6932 25.3491 22.6979 25.3174 22.6979 25.2848C22.6979 25.2514 22.6922 25.2201 22.6809 25.1908C22.6702 25.1614 22.6539 25.1358 22.6319 25.1138C22.6106 25.0918 22.5836 25.0744 22.5509 25.0618C22.5189 25.0491 22.4816 25.0428 22.4389 25.0428ZM22.6439 25.6068C22.7332 25.6321 22.8019 25.6744 22.8499 25.7338C22.8979 25.7931 22.9219 25.8691 22.9219 25.9618C22.9219 26.0244 22.9099 26.0811 22.8859 26.1318C22.8626 26.1818 22.8296 26.2244 22.7869 26.2598C22.7449 26.2951 22.6942 26.3224 22.6349 26.3418C22.5756 26.3604 22.5102 26.3698 22.4389 26.3698C22.3676 26.3698 22.3022 26.3604 22.2429 26.3418C22.1836 26.3224 22.1326 26.2951 22.0899 26.2598C22.0472 26.2244 22.0142 26.1818 21.9909 26.1318C21.9676 26.0811 21.9559 26.0244 21.9559 25.9618C21.9559 25.8691 21.9799 25.7931 22.0279 25.7338C22.0759 25.6744 22.1446 25.6321 22.2339 25.6068C22.1586 25.5788 22.1016 25.5371 22.0629 25.4818C22.0249 25.4258 22.0059 25.3591 22.0059 25.2818C22.0059 25.2291 22.0162 25.1798 22.0369 25.1338C22.0576 25.0878 22.0869 25.0478 22.1249 25.0138C22.1629 24.9798 22.2082 24.9531 22.2609 24.9338C22.3142 24.9144 22.3736 24.9048 22.4389 24.9048C22.5036 24.9048 22.5626 24.9144 22.6159 24.9338C22.6692 24.9531 22.7149 24.9798 22.7529 25.0138C22.7909 25.0478 22.8202 25.0878 22.8409 25.1338C22.8616 25.1798 22.8719 25.2291 22.8719 25.2818C22.8719 25.3591 22.8526 25.4258 22.8139 25.4818C22.7759 25.5371 22.7192 25.5788 22.6439 25.6068Z" fill="#D7DBE6"/>
<rect x="25.8054" width="0.455392" height="20.7571" rx="0.227696" fill="#EFF3FE"/>
<rect x="25.6536" y="18.3618" width="0.758986" height="2.39505" rx="0.379493" fill="url(#paint16_linear_269_1436)"/>
<rect x="25.6536" y="5.58838" width="0.758986" height="11.9753" rx="0.379493" fill="url(#paint17_linear_269_1436)"/>
<path d="M26.1464 23.6378C26.1464 23.7631 26.1327 23.8718 26.1054 23.9638C26.0787 24.0551 26.0421 24.1308 25.9954 24.1908C25.9487 24.2508 25.8934 24.2954 25.8294 24.3248C25.7661 24.3541 25.6981 24.3688 25.6254 24.3688C25.5521 24.3688 25.4837 24.3541 25.4204 24.3248C25.3577 24.2954 25.3031 24.2508 25.2564 24.1908C25.2097 24.1308 25.1731 24.0551 25.1464 23.9638C25.1197 23.8718 25.1064 23.7631 25.1064 23.6378C25.1064 23.5124 25.1197 23.4038 25.1464 23.3118C25.1731 23.2198 25.2097 23.1438 25.2564 23.0838C25.3031 23.0231 25.3577 22.9781 25.4204 22.9488C25.4837 22.9194 25.5521 22.9048 25.6254 22.9048C25.6981 22.9048 25.7661 22.9194 25.8294 22.9488C25.8934 22.9781 25.9487 23.0231 25.9954 23.0838C26.0421 23.1438 26.0787 23.2198 26.1054 23.3118C26.1327 23.4038 26.1464 23.5124 26.1464 23.6378ZM25.9614 23.6378C25.9614 23.5284 25.9521 23.4368 25.9334 23.3628C25.9154 23.2881 25.8907 23.2281 25.8594 23.1828C25.8287 23.1374 25.7931 23.1051 25.7524 23.0858C25.7117 23.0658 25.6694 23.0558 25.6254 23.0558C25.5814 23.0558 25.5391 23.0658 25.4984 23.0858C25.4577 23.1051 25.4221 23.1374 25.3914 23.1828C25.3607 23.2281 25.3361 23.2881 25.3174 23.3628C25.2994 23.4368 25.2904 23.5284 25.2904 23.6378C25.2904 23.7471 25.2994 23.8388 25.3174 23.9128C25.3361 23.9868 25.3607 24.0464 25.3914 24.0918C25.4221 24.1371 25.4577 24.1698 25.4984 24.1898C25.5391 24.2091 25.5814 24.2188 25.6254 24.2188C25.6694 24.2188 25.7117 24.2091 25.7524 24.1898C25.7931 24.1698 25.8287 24.1371 25.8594 24.0918C25.8907 24.0464 25.9154 23.9868 25.9334 23.9128C25.9521 23.8388 25.9614 23.7471 25.9614 23.6378ZM25.3294 25.3418C25.3294 25.3871 25.3357 25.4278 25.3484 25.4638C25.3617 25.4991 25.3804 25.5291 25.4044 25.5538C25.4291 25.5784 25.4587 25.5971 25.4934 25.6098C25.5287 25.6224 25.5681 25.6288 25.6114 25.6288C25.6594 25.6288 25.7017 25.6211 25.7384 25.6058C25.7757 25.5898 25.8071 25.5688 25.8324 25.5428C25.8577 25.5168 25.8771 25.4868 25.8904 25.4528C25.9037 25.4188 25.9104 25.3834 25.9104 25.3468C25.9104 25.3021 25.9031 25.2618 25.8884 25.2258C25.8744 25.1891 25.8547 25.1581 25.8294 25.1328C25.8041 25.1074 25.7737 25.0881 25.7384 25.0748C25.7037 25.0608 25.6654 25.0538 25.6234 25.0538C25.5794 25.0538 25.5394 25.0611 25.5034 25.0758C25.4674 25.0898 25.4364 25.1094 25.4104 25.1348C25.3844 25.1601 25.3644 25.1904 25.3504 25.2258C25.3364 25.2611 25.3294 25.2998 25.3294 25.3418ZM25.7454 25.7828C25.7601 25.7634 25.7737 25.7451 25.7864 25.7278C25.7991 25.7104 25.8111 25.6931 25.8224 25.6758C25.7857 25.7051 25.7444 25.7274 25.6984 25.7428C25.6524 25.7581 25.6037 25.7658 25.5524 25.7658C25.4984 25.7658 25.4471 25.7568 25.3984 25.7388C25.3504 25.7208 25.3081 25.6944 25.2714 25.6598C25.2347 25.6244 25.2054 25.5814 25.1834 25.5308C25.1621 25.4794 25.1514 25.4208 25.1514 25.3548C25.1514 25.2921 25.1631 25.2334 25.1864 25.1788C25.2097 25.1241 25.2424 25.0764 25.2844 25.0358C25.3264 24.9951 25.3764 24.9631 25.4344 24.9398C25.4924 24.9164 25.5561 24.9048 25.6254 24.9048C25.6941 24.9048 25.7564 24.9161 25.8124 24.9388C25.8684 24.9614 25.9164 24.9931 25.9564 25.0338C25.9964 25.0744 26.0271 25.1231 26.0484 25.1798C26.0704 25.2364 26.0814 25.2991 26.0814 25.3678C26.0814 25.4091 26.0774 25.4484 26.0694 25.4858C26.0621 25.5224 26.0511 25.5588 26.0364 25.5948C26.0224 25.6301 26.0051 25.6654 25.9844 25.7008C25.9637 25.7354 25.9404 25.7711 25.9144 25.8078L25.5654 26.3118C25.5567 26.3244 25.5444 26.3348 25.5284 26.3428C25.5124 26.3501 25.4941 26.3538 25.4734 26.3538H25.3094L25.7454 25.7828Z" fill="#D7DBE6"/>
<rect x="28.8416" width="0.455392" height="20.7571" rx="0.227696" fill="#EFF3FE"/>
<rect x="28.6897" y="12.7734" width="0.758986" height="7.9835" rx="0.379493" fill="url(#paint18_linear_269_1436)"/>
<rect x="28.6897" y="3.9917" width="0.758986" height="7.9835" rx="0.379493" fill="url(#paint19_linear_269_1436)"/>
<path d="M29.2524 24.2178V24.3538H28.4844V24.2178H28.7914V23.2408C28.7914 23.2114 28.7924 23.1818 28.7944 23.1518L28.5394 23.3708C28.5307 23.3781 28.522 23.3828 28.5134 23.3848C28.5047 23.3861 28.4967 23.3861 28.4894 23.3848C28.482 23.3834 28.475 23.3808 28.4684 23.3768C28.4624 23.3728 28.4577 23.3684 28.4544 23.3638L28.3984 23.2868L28.8254 22.9178H28.9704V24.2178H29.2524ZM29.3344 25.6378C29.3344 25.7631 29.3207 25.8718 29.2934 25.9638C29.2667 26.0551 29.23 26.1308 29.1834 26.1908C29.1367 26.2508 29.0814 26.2954 29.0174 26.3248C28.954 26.3541 28.886 26.3688 28.8134 26.3688C28.74 26.3688 28.6717 26.3541 28.6084 26.3248C28.5457 26.2954 28.491 26.2508 28.4444 26.1908C28.3977 26.1308 28.361 26.0551 28.3344 25.9638C28.3077 25.8718 28.2944 25.7631 28.2944 25.6378C28.2944 25.5124 28.3077 25.4038 28.3344 25.3118C28.361 25.2198 28.3977 25.1438 28.4444 25.0838C28.491 25.0231 28.5457 24.9781 28.6084 24.9488C28.6717 24.9194 28.74 24.9048 28.8134 24.9048C28.886 24.9048 28.954 24.9194 29.0174 24.9488C29.0814 24.9781 29.1367 25.0231 29.1834 25.0838C29.23 25.1438 29.2667 25.2198 29.2934 25.3118C29.3207 25.4038 29.3344 25.5124 29.3344 25.6378ZM29.1494 25.6378C29.1494 25.5284 29.14 25.4368 29.1214 25.3628C29.1034 25.2881 29.0787 25.2281 29.0474 25.1828C29.0167 25.1374 28.981 25.1051 28.9404 25.0858C28.8997 25.0658 28.8574 25.0558 28.8134 25.0558C28.7694 25.0558 28.727 25.0658 28.6864 25.0858C28.6457 25.1051 28.61 25.1374 28.5794 25.1828C28.5487 25.2281 28.524 25.2881 28.5054 25.3628C28.4874 25.4368 28.4784 25.5284 28.4784 25.6378C28.4784 25.7471 28.4874 25.8388 28.5054 25.9128C28.524 25.9868 28.5487 26.0464 28.5794 26.0918C28.61 26.1371 28.6457 26.1698 28.6864 26.1898C28.727 26.2091 28.7694 26.2188 28.8134 26.2188C28.8574 26.2188 28.8997 26.2091 28.9404 26.1898C28.981 26.1698 29.0167 26.1371 29.0474 26.0918C29.0787 26.0464 29.1034 25.9868 29.1214 25.9128C29.14 25.8388 29.1494 25.7471 29.1494 25.6378Z" fill="#D7DBE6"/>
<rect x="31.574" width="0.455392" height="20.7571" rx="0.227696" fill="#EFF3FE"/>
<rect x="31.4221" y="14.3704" width="0.758986" height="6.3868" rx="0.379493" fill="url(#paint20_linear_269_1436)"/>
<rect x="31.4221" y="7.18506" width="0.758986" height="6.3868" rx="0.379493" fill="url(#paint21_linear_269_1436)"/>
<path d="M32.1364 24.2178V24.3538H31.3684V24.2178H31.6754V23.2408C31.6754 23.2114 31.6764 23.1818 31.6784 23.1518L31.4234 23.3708C31.4147 23.3781 31.4061 23.3828 31.3974 23.3848C31.3887 23.3861 31.3807 23.3861 31.3734 23.3848C31.3661 23.3834 31.3591 23.3808 31.3524 23.3768C31.3464 23.3728 31.3417 23.3684 31.3384 23.3638L31.2824 23.2868L31.7094 22.9178H31.8544V24.2178H32.1364ZM32.1364 26.2178V26.3538H31.3684V26.2178H31.6754V25.2408C31.6754 25.2114 31.6764 25.1818 31.6784 25.1518L31.4234 25.3708C31.4147 25.3781 31.4061 25.3828 31.3974 25.3848C31.3887 25.3861 31.3807 25.3861 31.3734 25.3848C31.3661 25.3834 31.3591 25.3808 31.3524 25.3768C31.3464 25.3728 31.3417 25.3684 31.3384 25.3638L31.2824 25.2868L31.7094 24.9178H31.8544V26.2178H32.1364Z" fill="#D7DBE6"/>
<rect x="34.4583" width="0.455392" height="20.7571" rx="0.227696" fill="#EFF3FE"/>
<rect x="34.3064" y="14.3704" width="0.758986" height="6.3868" rx="0.379493" fill="url(#paint22_linear_269_1436)"/>
<rect x="34.3064" y="0.79834" width="0.758986" height="12.7736" rx="0.379493" fill="url(#paint23_linear_269_1436)"/>
<path d="M34.8688 24.2178V24.3538H34.1008V24.2178H34.4078V23.2408C34.4078 23.2114 34.4088 23.1818 34.4108 23.1518L34.1558 23.3708C34.1472 23.3781 34.1385 23.3828 34.1298 23.3848C34.1212 23.3861 34.1132 23.3861 34.1058 23.3848C34.0985 23.3834 34.0915 23.3808 34.0848 23.3768C34.0788 23.3728 34.0742 23.3684 34.0708 23.3638L34.0148 23.2868L34.4418 22.9178H34.5868V24.2178H34.8688ZM34.8378 26.1848C34.8572 26.1848 34.8725 26.1904 34.8838 26.2018C34.8952 26.2131 34.9008 26.2278 34.9008 26.2458V26.3538H33.9448V26.2928C33.9448 26.2801 33.9475 26.2671 33.9528 26.2538C33.9582 26.2404 33.9665 26.2281 33.9778 26.2168L34.4368 25.7558C34.4748 25.7171 34.5095 25.6801 34.5408 25.6448C34.5722 25.6088 34.5988 25.5728 34.6208 25.5368C34.6428 25.5008 34.6598 25.4644 34.6718 25.4278C34.6838 25.3904 34.6898 25.3508 34.6898 25.3088C34.6898 25.2668 34.6832 25.2301 34.6698 25.1988C34.6565 25.1668 34.6382 25.1404 34.6148 25.1198C34.5922 25.0991 34.5652 25.0838 34.5338 25.0738C34.5025 25.0631 34.4688 25.0578 34.4328 25.0578C34.3962 25.0578 34.3625 25.0631 34.3318 25.0738C34.3012 25.0844 34.2738 25.0994 34.2498 25.1188C34.2265 25.1374 34.2068 25.1598 34.1908 25.1858C34.1748 25.2118 34.1635 25.2404 34.1568 25.2718C34.1488 25.2951 34.1378 25.3108 34.1238 25.3188C34.1105 25.3261 34.0915 25.3281 34.0668 25.3248L33.9738 25.3088C33.9832 25.2434 34.0012 25.1858 34.0278 25.1358C34.0552 25.0851 34.0892 25.0428 34.1298 25.0088C34.1712 24.9748 34.2182 24.9491 34.2708 24.9318C34.3235 24.9138 34.3805 24.9048 34.4418 24.9048C34.5025 24.9048 34.5592 24.9138 34.6118 24.9318C34.6645 24.9498 34.7102 24.9761 34.7488 25.0108C34.7875 25.0448 34.8178 25.0864 34.8398 25.1358C34.8618 25.1851 34.8728 25.2411 34.8728 25.3038C34.8728 25.3571 34.8648 25.4068 34.8488 25.4528C34.8328 25.4981 34.8112 25.5414 34.7838 25.5828C34.7565 25.6241 34.7248 25.6644 34.6888 25.7038C34.6535 25.7431 34.6158 25.7828 34.5758 25.8228L34.1978 26.2088C34.2245 26.2014 34.2515 26.1958 34.2788 26.1918C34.3062 26.1871 34.3325 26.1848 34.3578 26.1848H34.8378Z" fill="#D7DBE6"/>
<defs>
<linearGradient id="paint0_linear_269_1436" x1="0.834815" y1="9.58008" x2="0.834815" y2="20.757" gradientUnits="userSpaceOnUse">
<stop stop-color="#EED5DB"/>
<stop offset="1" stop-color="#F1D1E6"/>
</linearGradient>
<linearGradient id="paint1_linear_269_1436" x1="0.834815" y1="6.38672" x2="0.834815" y2="8.78177" gradientUnits="userSpaceOnUse">
<stop stop-color="#F6E5EB"/>
<stop offset="1" stop-color="#D6CED0"/>
</linearGradient>
<linearGradient id="paint2_linear_269_1436" x1="3.87095" y1="15.967" x2="3.87095" y2="20.7571" gradientUnits="userSpaceOnUse">
<stop stop-color="#EED5DB"/>
<stop offset="1" stop-color="#F1D1E6"/>
</linearGradient>
<linearGradient id="paint3_linear_269_1436" x1="3.87095" y1="3.19336" x2="3.87095" y2="15.1686" gradientUnits="userSpaceOnUse">
<stop stop-color="#F6E5EB"/>
<stop offset="1" stop-color="#D6CED0"/>
</linearGradient>
<linearGradient id="paint4_linear_269_1436" x1="7.05845" y1="11.177" x2="7.05845" y2="20.7572" gradientUnits="userSpaceOnUse">
<stop stop-color="#EED5DB"/>
<stop offset="1" stop-color="#F1D1E6"/>
</linearGradient>
<linearGradient id="paint5_linear_269_1436" x1="7.05845" y1="3.9917" x2="7.05845" y2="10.3785" gradientUnits="userSpaceOnUse">
<stop stop-color="#F6E5EB"/>
<stop offset="1" stop-color="#D6CED0"/>
</linearGradient>
<linearGradient id="paint6_linear_269_1436" x1="10.2464" y1="11.177" x2="10.2464" y2="20.7572" gradientUnits="userSpaceOnUse">
<stop stop-color="#EED5DB"/>
<stop offset="1" stop-color="#F1D1E6"/>
</linearGradient>
<linearGradient id="paint7_linear_269_1436" x1="10.2464" y1="8.78174" x2="10.2464" y2="10.3784" gradientUnits="userSpaceOnUse">
<stop stop-color="#F6E5EB"/>
<stop offset="1" stop-color="#D6CED0"/>
</linearGradient>
<linearGradient id="paint8_linear_269_1436" x1="13.4342" y1="9.58008" x2="13.4342" y2="20.757" gradientUnits="userSpaceOnUse">
<stop stop-color="#EED5DB"/>
<stop offset="1" stop-color="#F1D1E6"/>
</linearGradient>
<linearGradient id="paint9_linear_269_1436" x1="13.4342" y1="2.39478" x2="13.4342" y2="8.78158" gradientUnits="userSpaceOnUse">
<stop stop-color="#F6E5EB"/>
<stop offset="1" stop-color="#D6CED0"/>
</linearGradient>
<linearGradient id="paint10_linear_269_1436" x1="16.6217" y1="11.9751" x2="16.6217" y2="20.7569" gradientUnits="userSpaceOnUse">
<stop stop-color="#EED5DB"/>
<stop offset="1" stop-color="#F1D1E6"/>
</linearGradient>
<linearGradient id="paint11_linear_269_1436" x1="16.6217" y1="6.38672" x2="16.6217" y2="11.1768" gradientUnits="userSpaceOnUse">
<stop stop-color="#F6E5EB"/>
<stop offset="1" stop-color="#D6CED0"/>
</linearGradient>
<linearGradient id="paint12_linear_269_1436" x1="19.8094" y1="7.18506" x2="19.8094" y2="20.757" gradientUnits="userSpaceOnUse">
<stop stop-color="#EED5DB"/>
<stop offset="1" stop-color="#F1D1E6"/>
</linearGradient>
<linearGradient id="paint13_linear_269_1436" x1="19.8094" y1="3.19336" x2="19.8094" y2="6.38676" gradientUnits="userSpaceOnUse">
<stop stop-color="#F6E5EB"/>
<stop offset="1" stop-color="#D6CED0"/>
</linearGradient>
<linearGradient id="paint14_linear_269_1436" x1="22.8456" y1="11.177" x2="22.8456" y2="20.7572" gradientUnits="userSpaceOnUse">
<stop stop-color="#EED5DB"/>
<stop offset="1" stop-color="#F1D1E6"/>
</linearGradient>
<linearGradient id="paint15_linear_269_1436" x1="22.8456" y1="7.18506" x2="22.8456" y2="10.3785" gradientUnits="userSpaceOnUse">
<stop stop-color="#F6E5EB"/>
<stop offset="1" stop-color="#D6CED0"/>
</linearGradient>
<linearGradient id="paint16_linear_269_1436" x1="26.0331" y1="18.3618" x2="26.0331" y2="20.7569" gradientUnits="userSpaceOnUse">
<stop stop-color="#EED5DB"/>
<stop offset="1" stop-color="#F1D1E6"/>
</linearGradient>
<linearGradient id="paint17_linear_269_1436" x1="26.0331" y1="5.58838" x2="26.0331" y2="17.5636" gradientUnits="userSpaceOnUse">
<stop stop-color="#F6E5EB"/>
<stop offset="1" stop-color="#D6CED0"/>
</linearGradient>
<linearGradient id="paint18_linear_269_1436" x1="29.0692" y1="12.7734" x2="29.0692" y2="20.7569" gradientUnits="userSpaceOnUse">
<stop stop-color="#EED5DB"/>
<stop offset="1" stop-color="#F1D1E6"/>
</linearGradient>
<linearGradient id="paint19_linear_269_1436" x1="29.0692" y1="3.9917" x2="29.0692" y2="11.9752" gradientUnits="userSpaceOnUse">
<stop stop-color="#F6E5EB"/>
<stop offset="1" stop-color="#D6CED0"/>
</linearGradient>
<linearGradient id="paint20_linear_269_1436" x1="31.8016" y1="14.3704" x2="31.8016" y2="20.7572" gradientUnits="userSpaceOnUse">
<stop stop-color="#EED5DB"/>
<stop offset="1" stop-color="#F1D1E6"/>
</linearGradient>
<linearGradient id="paint21_linear_269_1436" x1="31.8016" y1="7.18506" x2="31.8016" y2="13.5719" gradientUnits="userSpaceOnUse">
<stop stop-color="#F6E5EB"/>
<stop offset="1" stop-color="#D6CED0"/>
</linearGradient>
<linearGradient id="paint22_linear_269_1436" x1="34.6859" y1="14.3704" x2="34.6859" y2="20.7572" gradientUnits="userSpaceOnUse">
<stop stop-color="#EED5DB"/>
<stop offset="1" stop-color="#F1D1E6"/>
</linearGradient>
<linearGradient id="paint23_linear_269_1436" x1="34.6859" y1="0.79834" x2="34.6859" y2="13.5719" gradientUnits="userSpaceOnUse">
<stop stop-color="#F6E5EB"/>
<stop offset="1" stop-color="#D6CED0"/>
</linearGradient>
</defs>
</svg>
