<svg width="61" height="61" viewBox="0 0 61 61" fill="none" xmlns="http://www.w3.org/2000/svg">
<g id="Group 87">
<path id="Ellipse 19" d="M57.3201 30.3192C57.3201 45.7312 44.8262 58.2251 29.4142 58.2251C14.0022 58.2251 1.5083 45.7312 1.5083 30.3192C1.5083 14.9072 14.0022 2.41333 29.4142 2.41333C44.8262 2.41333 57.3201 14.9072 57.3201 30.3192ZM9.88007 30.3192C9.88007 41.1076 18.6258 49.8534 29.4142 49.8534C40.2026 49.8534 48.9483 41.1076 48.9483 30.3192C48.9483 19.5308 40.2026 10.7851 29.4142 10.7851C18.6258 10.7851 9.88007 19.5308 9.88007 30.3192Z" fill="#EFF3FE"/>
<path id="Ellipse 21" d="M59.3091 37.9767C58.2837 41.8035 56.5146 45.3909 54.1028 48.534C51.6911 51.6771 48.6838 54.3144 45.2528 56.2953C41.8218 58.2762 38.0342 59.5619 34.1063 60.079C30.1784 60.5961 26.1871 60.3345 22.3603 59.3091L26.2644 44.7388C28.1778 45.2515 30.1735 45.3823 32.1374 45.1238C34.1014 44.8652 35.9952 44.2223 37.7107 43.2319C39.4262 42.2415 40.9298 40.9228 42.1357 39.3513C43.3416 37.7797 44.2261 35.986 44.7388 34.0726L59.3091 37.9767Z" fill="#FADCE1"/>
<path id="Ellipse 22" d="M30.1685 60.3371C26.2067 60.3371 22.2838 59.5567 18.6235 58.0406C14.9633 56.5245 11.6376 54.3023 8.83616 51.5009C6.03475 48.6995 3.81255 45.3737 2.29644 41.7135C0.780332 38.0533 -3.4635e-07 34.1303 0 30.1685H15.0843C15.0843 32.1494 15.4744 34.1109 16.2325 35.941C16.9905 37.7711 18.1016 39.434 19.5023 40.8347C20.9031 42.2354 22.5659 43.3465 24.396 44.1046C26.2261 44.8626 28.1876 45.2528 30.1685 45.2528L30.1685 60.3371Z" fill="#B5AA9F"/>
<path id="Ellipse 20" d="M30.1685 0C34.9294 5.67733e-08 39.6228 1.12677 43.8648 3.28817C48.1068 5.44958 51.777 8.58426 54.5754 12.4359C57.3738 16.2876 59.2209 20.7468 59.9656 25.4491C60.7104 30.1514 60.3317 34.9632 58.8605 39.4911L44.5145 34.8298C45.2501 32.5659 45.4395 30.16 45.0671 27.8088C44.6947 25.4577 43.7712 23.2281 42.372 21.3022C40.9728 19.3764 39.1377 17.8091 37.0167 16.7284C34.8957 15.6477 32.549 15.0843 30.1685 15.0843V0Z" fill="#F0E9E9"/>
</g>
</svg>
