<svg width="129" height="160" viewBox="0 0 129 160" fill="none" xmlns="http://www.w3.org/2000/svg">
<g id="Icon">
<rect id="Background" y="160" width="160" height="129" rx="23" transform="rotate(-90 0 160)" fill="#BE3788"/>
<g id="Icon_2">
<path id="Vector" d="M64.6496 81.6975C71.5305 81.6975 77.1086 76.1194 77.1086 69.2385C77.1086 62.3576 71.5305 56.7795 64.6496 56.7795C57.7687 56.7795 52.1907 62.3576 52.1907 69.2385C52.1907 76.1194 57.7687 81.6975 64.6496 81.6975Z" fill="#E445A4"/>
<g id="Group">
<path id="Vector_2" d="M85.8695 69.3308C85.8695 71.4215 81.7641 72.8312 81.152 74.716C80.5188 76.6694 82.9883 80.2226 81.8063 81.8487C80.6138 83.4907 76.4609 82.2341 74.8198 83.4273C73.1946 84.61 73.1154 88.9551 71.163 89.5886C69.2792 90.2011 66.6724 86.7535 64.5828 86.7535C62.4932 86.7535 59.8864 90.2011 58.0026 89.5886C56.0502 88.9551 55.9711 84.61 54.3458 83.4273C52.7047 82.2341 48.5519 83.4907 47.3593 81.8487C46.1773 80.2226 48.6468 76.6694 48.0136 74.716C47.4015 72.8312 43.2961 71.4162 43.2961 69.3308C43.2961 67.2453 47.4015 65.8304 48.0136 63.9456C48.6468 61.9921 46.1773 58.4389 47.3593 56.8128C48.5519 55.1709 52.7047 56.4274 54.3458 55.2342C55.9711 54.0516 56.0502 49.7065 58.0026 49.0729C59.8864 48.4605 62.4932 51.9081 64.5828 51.9081C66.6724 51.9081 69.2792 48.4605 71.163 49.0729C73.1154 49.7065 73.1946 54.0516 74.8198 55.2342C76.4609 56.4274 80.6138 55.1709 81.8063 56.8128C82.9883 58.4389 80.5188 61.9921 81.152 63.9456C81.7588 65.8251 85.8695 67.24 85.8695 69.3308Z" stroke="white" stroke-width="2.5" stroke-miterlimit="10"/>
</g>
<path id="Vector_3" d="M64.2502 90.4809L73.1733 110.876C73.7696 112.238 75.6165 112.391 76.0756 111.119L77.5478 106.225C77.8328 105.427 78.7509 105.116 79.5741 105.538L84.3813 108.257C85.6952 108.928 86.9405 107.74 86.3495 106.383L75.9806 82.6829" stroke="white" stroke-width="2.5" stroke-miterlimit="10"/>
<path id="Vector_4" d="M65.7384 87.0808L55.3272 110.876C54.731 112.238 52.8841 112.391 52.425 111.119L50.9528 106.225C50.6678 105.427 49.7497 105.116 48.9265 105.538L44.1193 108.257C42.8054 108.928 41.56 107.74 42.151 106.383L52.5253 82.6829" stroke="white" stroke-width="2.5" stroke-miterlimit="10"/>
</g>
</g>
</svg>
