<svg width="386" height="253" viewBox="0 0 386 253" fill="none" xmlns="http://www.w3.org/2000/svg">
<rect x="35.6992" y="45.272" width="257.501" height="174.285" stroke="#C6C6C6" stroke-width="2" stroke-linejoin="round" stroke-dasharray="3 3"/>
<rect x="0.800293" width="268.26" height="202.564" fill="#F1F1F1"/>
<rect x="7.37012" y="29.563" width="255.121" height="168.621" fill="white"/>
<rect x="162.8" y="52" width="83" height="6" rx="3" fill="#F1F1F1"/>
<rect x="30.8003" y="125" width="45" height="48" rx="5" transform="rotate(-90 30.8003 125)" fill="#BE3788"/>
<rect x="30.8003" y="176" width="45" height="48" rx="5" transform="rotate(-90 30.8003 176)" fill="#F1F1F1"/>
<rect x="86.8003" y="125" width="45" height="47" rx="5" transform="rotate(-90 86.8003 125)" fill="#F1F1F1"/>
<rect x="86.8003" y="176" width="45" height="47" rx="5" transform="rotate(-90 86.8003 176)" fill="#F1F1F1"/>
<rect x="141.8" y="125" width="45" height="47" rx="5" transform="rotate(-90 141.8 125)" fill="#F1F1F1"/>
<rect x="141.8" y="176" width="45" height="47" rx="5" transform="rotate(-90 141.8 176)" fill="#F1F1F1"/>
<rect x="196.8" y="125" width="45" height="48" rx="5" transform="rotate(-90 196.8 125)" fill="#F1F1F1"/>
<rect x="244.972" y="13.1392" width="16.4241" height="4.37976" rx="2.18988" fill="#C4C4C4"/>
<rect x="30.8003" y="48" width="47.0824" height="4.37976" rx="2.18988" fill="#F1F1F1"/>
<rect x="30.8003" y="55.6641" width="47.0824" height="4.37976" rx="2.18988" fill="#F1F1F1"/>
<rect x="30.8003" y="63.3291" width="26.2786" height="4.37976" rx="2.18988" fill="#F1F1F1"/>
<circle cx="10.1075" cy="14.7813" r="2.73735" fill="#C4C4C4"/>
<circle cx="17.7715" cy="14.7813" r="2.73735" fill="#C4C4C4"/>
<circle cx="25.4366" cy="14.7813" r="2.73735" fill="#C4C4C4"/>
<g filter="url(#filter0_d_139_3260)">
<rect x="185" y="108" width="201" height="136.531" rx="20" fill="#F9F4F4"/>
</g>
<rect x="190" y="128" width="187" height="110" fill="white"/>
<rect x="201.484" y="136.982" width="76.4258" height="25.6125" rx="8" fill="#F9F4F4"/>
<rect x="334.105" y="136.982" width="37.4636" height="25.6125" rx="8" fill="#F9F4F4"/>
<rect x="340.177" y="142.354" width="0.305112" height="12.5104" rx="0.152556" fill="#EFF3FE"/>
<rect x="340.075" y="148.128" width="0.508521" height="6.73635" rx="0.25426" fill="url(#paint0_linear_139_3260)"/>
<rect x="340.075" y="146.203" width="0.508521" height="1.4435" rx="0.25426" fill="url(#paint1_linear_139_3260)"/>
<path d="M340.87 157.111C340.87 157.236 340.856 157.345 340.829 157.437C340.802 157.528 340.766 157.604 340.719 157.664C340.672 157.724 340.617 157.768 340.553 157.798C340.49 157.827 340.422 157.842 340.349 157.842C340.276 157.842 340.207 157.827 340.144 157.798C340.081 157.768 340.027 157.724 339.98 157.664C339.933 157.604 339.897 157.528 339.87 157.437C339.843 157.345 339.83 157.236 339.83 157.111C339.83 156.985 339.843 156.877 339.87 156.785C339.897 156.693 339.933 156.617 339.98 156.557C340.027 156.496 340.081 156.451 340.144 156.422C340.207 156.392 340.276 156.378 340.349 156.378C340.422 156.378 340.49 156.392 340.553 156.422C340.617 156.451 340.672 156.496 340.719 156.557C340.766 156.617 340.802 156.693 340.829 156.785C340.856 156.877 340.87 156.985 340.87 157.111ZM340.685 157.111C340.685 157.001 340.676 156.91 340.657 156.836C340.639 156.761 340.614 156.701 340.583 156.656C340.552 156.61 340.517 156.578 340.476 156.559C340.435 156.539 340.393 156.529 340.349 156.529C340.305 156.529 340.263 156.539 340.222 156.559C340.181 156.578 340.146 156.61 340.115 156.656C340.084 156.701 340.06 156.761 340.041 156.836C340.023 156.91 340.014 157.001 340.014 157.111C340.014 157.22 340.023 157.312 340.041 157.386C340.06 157.46 340.084 157.519 340.115 157.565C340.146 157.61 340.181 157.643 340.222 157.663C340.263 157.682 340.305 157.692 340.349 157.692C340.393 157.692 340.435 157.682 340.476 157.663C340.517 157.643 340.552 157.61 340.583 157.565C340.614 157.519 340.639 157.46 340.657 157.386C340.676 157.312 340.685 157.22 340.685 157.111ZM340.788 159.691V159.827H340.02V159.691H340.327V158.714C340.327 158.684 340.328 158.655 340.33 158.625L340.075 158.844C340.066 158.851 340.058 158.856 340.049 158.858C340.04 158.859 340.032 158.859 340.025 158.858C340.018 158.856 340.011 158.854 340.004 158.85C339.998 158.846 339.993 158.841 339.99 158.837L339.934 158.76L340.361 158.391H340.506V159.691H340.788Z" fill="#D7DBE6"/>
<rect x="342.211" y="142.354" width="0.305112" height="12.5104" rx="0.152556" fill="#EFF3FE"/>
<rect x="342.109" y="151.978" width="0.508521" height="2.88701" rx="0.25426" fill="url(#paint2_linear_139_3260)"/>
<rect x="342.109" y="144.279" width="0.508521" height="7.21752" rx="0.25426" fill="url(#paint3_linear_139_3260)"/>
<path d="M342.803 157.111C342.803 157.236 342.789 157.345 342.762 157.437C342.735 157.528 342.698 157.604 342.652 157.664C342.605 157.724 342.55 157.768 342.486 157.798C342.422 157.827 342.354 157.842 342.282 157.842C342.208 157.842 342.14 157.827 342.077 157.798C342.014 157.768 341.959 157.724 341.913 157.664C341.866 157.604 341.829 157.528 341.803 157.437C341.776 157.345 341.763 157.236 341.763 157.111C341.763 156.985 341.776 156.877 341.803 156.785C341.829 156.693 341.866 156.617 341.913 156.557C341.959 156.496 342.014 156.451 342.077 156.422C342.14 156.392 342.208 156.378 342.282 156.378C342.354 156.378 342.422 156.392 342.486 156.422C342.55 156.451 342.605 156.496 342.652 156.557C342.698 156.617 342.735 156.693 342.762 156.785C342.789 156.877 342.803 156.985 342.803 157.111ZM342.618 157.111C342.618 157.001 342.608 156.91 342.59 156.836C342.572 156.761 342.547 156.701 342.516 156.656C342.485 156.61 342.449 156.578 342.409 156.559C342.368 156.539 342.326 156.529 342.282 156.529C342.238 156.529 342.195 156.539 342.155 156.559C342.114 156.578 342.078 156.61 342.048 156.656C342.017 156.701 341.992 156.761 341.974 156.836C341.956 156.91 341.947 157.001 341.947 157.111C341.947 157.22 341.956 157.312 341.974 157.386C341.992 157.46 342.017 157.519 342.048 157.565C342.078 157.61 342.114 157.643 342.155 157.663C342.195 157.682 342.238 157.692 342.282 157.692C342.326 157.692 342.368 157.682 342.409 157.663C342.449 157.643 342.485 157.61 342.516 157.565C342.547 157.519 342.572 157.46 342.59 157.386C342.608 157.312 342.618 157.22 342.618 157.111ZM342.69 159.658C342.709 159.658 342.724 159.663 342.736 159.675C342.747 159.686 342.753 159.701 342.753 159.719V159.827H341.797V159.766C341.797 159.753 341.799 159.74 341.805 159.727C341.81 159.713 341.818 159.701 341.83 159.69L342.289 159.229C342.327 159.19 342.361 159.153 342.393 159.118C342.424 159.082 342.451 159.046 342.473 159.01C342.495 158.974 342.512 158.937 342.524 158.901C342.536 158.863 342.542 158.824 342.542 158.782C342.542 158.74 342.535 158.703 342.522 158.672C342.508 158.64 342.49 158.613 342.467 158.593C342.444 158.572 342.417 158.557 342.386 158.547C342.354 158.536 342.321 158.531 342.285 158.531C342.248 158.531 342.214 158.536 342.184 158.547C342.153 158.557 342.126 158.572 342.102 158.592C342.078 158.61 342.059 158.633 342.043 158.659C342.027 158.685 342.015 158.713 342.009 158.745C342.001 158.768 341.99 158.784 341.976 158.792C341.962 158.799 341.943 158.801 341.919 158.798L341.826 158.782C341.835 158.716 341.853 158.659 341.88 158.609C341.907 158.558 341.941 158.516 341.982 158.482C342.023 158.448 342.07 158.422 342.123 158.405C342.175 158.387 342.232 158.378 342.294 158.378C342.354 158.378 342.411 158.387 342.464 158.405C342.516 158.423 342.562 158.449 342.601 158.484C342.639 158.518 342.67 158.559 342.692 158.609C342.714 158.658 342.725 158.714 342.725 158.777C342.725 158.83 342.717 158.88 342.701 158.926C342.685 158.971 342.663 159.014 342.636 159.056C342.608 159.097 342.577 159.137 342.541 159.177C342.505 159.216 342.468 159.256 342.428 159.296L342.05 159.682C342.076 159.674 342.103 159.669 342.131 159.665C342.158 159.66 342.184 159.658 342.21 159.658H342.69Z" fill="#D7DBE6"/>
<rect x="344.346" y="142.354" width="0.305112" height="12.5104" rx="0.152556" fill="#EFF3FE"/>
<rect x="344.245" y="149.091" width="0.508521" height="5.77401" rx="0.25426" fill="url(#paint4_linear_139_3260)"/>
<rect x="344.245" y="144.76" width="0.508521" height="3.84934" rx="0.25426" fill="url(#paint5_linear_139_3260)"/>
<path d="M344.938 157.111C344.938 157.236 344.924 157.345 344.897 157.437C344.87 157.528 344.834 157.604 344.787 157.664C344.74 157.724 344.685 157.768 344.621 157.798C344.558 157.827 344.49 157.842 344.417 157.842C344.344 157.842 344.275 157.827 344.212 157.798C344.149 157.768 344.095 157.724 344.048 157.664C344.001 157.604 343.965 157.528 343.938 157.437C343.911 157.345 343.898 157.236 343.898 157.111C343.898 156.985 343.911 156.877 343.938 156.785C343.965 156.693 344.001 156.617 344.048 156.557C344.095 156.496 344.149 156.451 344.212 156.422C344.275 156.392 344.344 156.378 344.417 156.378C344.49 156.378 344.558 156.392 344.621 156.422C344.685 156.451 344.74 156.496 344.787 156.557C344.834 156.617 344.87 156.693 344.897 156.785C344.924 156.877 344.938 156.985 344.938 157.111ZM344.753 157.111C344.753 157.001 344.744 156.91 344.725 156.836C344.707 156.761 344.682 156.701 344.651 156.656C344.62 156.61 344.585 156.578 344.544 156.559C344.503 156.539 344.461 156.529 344.417 156.529C344.373 156.529 344.331 156.539 344.29 156.559C344.249 156.578 344.214 156.61 344.183 156.656C344.152 156.701 344.128 156.761 344.109 156.836C344.091 156.91 344.082 157.001 344.082 157.111C344.082 157.22 344.091 157.312 344.109 157.386C344.128 157.46 344.152 157.519 344.183 157.565C344.214 157.61 344.249 157.643 344.29 157.663C344.331 157.682 344.373 157.692 344.417 157.692C344.461 157.692 344.503 157.682 344.544 157.663C344.585 157.643 344.62 157.61 344.651 157.565C344.682 157.519 344.707 157.46 344.725 157.386C344.744 157.312 344.753 157.22 344.753 157.111ZM343.968 158.782C343.977 158.716 343.995 158.659 344.022 158.609C344.049 158.558 344.082 158.516 344.123 158.482C344.164 158.448 344.211 158.422 344.264 158.405C344.317 158.387 344.375 158.378 344.436 158.378C344.497 158.378 344.553 158.386 344.604 158.404C344.655 158.421 344.699 158.446 344.736 158.478C344.773 158.51 344.802 158.548 344.823 158.594C344.844 158.639 344.854 158.689 344.854 158.745C344.854 158.79 344.848 158.831 344.836 158.867C344.825 158.902 344.808 158.933 344.786 158.96C344.765 158.986 344.739 159.009 344.708 159.028C344.677 159.046 344.643 159.062 344.605 159.074C344.698 159.098 344.768 159.139 344.815 159.198C344.862 159.256 344.886 159.328 344.886 159.416C344.886 159.482 344.873 159.541 344.848 159.594C344.823 159.646 344.789 159.691 344.746 159.729C344.703 159.765 344.652 159.794 344.594 159.814C344.537 159.833 344.475 159.843 344.409 159.843C344.333 159.843 344.268 159.833 344.214 159.815C344.16 159.795 344.114 159.769 344.077 159.736C344.04 159.702 344.009 159.663 343.985 159.618C343.961 159.572 343.941 159.522 343.924 159.469L344.001 159.437C344.021 159.428 344.04 159.426 344.059 159.43C344.078 159.434 344.092 159.445 344.101 159.463C344.11 159.481 344.12 159.504 344.133 159.53C344.146 159.556 344.164 159.581 344.187 159.605C344.21 159.629 344.238 159.649 344.273 159.666C344.308 159.682 344.353 159.691 344.407 159.691C344.457 159.691 344.501 159.683 344.538 159.667C344.576 159.65 344.607 159.629 344.632 159.603C344.657 159.577 344.676 159.548 344.689 159.516C344.702 159.484 344.708 159.452 344.708 159.421C344.708 159.382 344.703 159.347 344.693 159.315C344.683 159.283 344.664 159.255 344.637 159.232C344.61 159.208 344.572 159.19 344.524 159.177C344.477 159.163 344.416 159.157 344.341 159.157V159.028C344.402 159.027 344.454 159.02 344.497 159.008C344.54 158.995 344.575 158.978 344.602 158.956C344.629 158.934 344.649 158.907 344.661 158.877C344.674 158.846 344.68 158.812 344.68 158.775C344.68 158.733 344.673 158.697 344.66 158.667C344.647 158.636 344.63 158.611 344.607 158.591C344.584 158.571 344.557 158.556 344.526 158.546C344.495 158.536 344.462 158.531 344.426 158.531C344.39 158.531 344.356 158.536 344.325 158.547C344.294 158.557 344.267 158.572 344.243 158.592C344.22 158.61 344.2 158.633 344.184 158.659C344.168 158.685 344.157 158.713 344.15 158.745C344.141 158.768 344.13 158.784 344.117 158.792C344.104 158.799 344.086 158.801 344.061 158.798L343.968 158.782Z" fill="#D7DBE6"/>
<rect x="346.482" y="142.354" width="0.305112" height="12.5104" rx="0.152556" fill="#EFF3FE"/>
<rect x="346.381" y="149.091" width="0.508521" height="5.77401" rx="0.25426" fill="url(#paint6_linear_139_3260)"/>
<rect x="346.381" y="147.647" width="0.508521" height="0.962336" rx="0.25426" fill="url(#paint7_linear_139_3260)"/>
<path d="M347.074 157.111C347.074 157.236 347.06 157.345 347.033 157.437C347.006 157.528 346.97 157.604 346.923 157.664C346.876 157.724 346.821 157.768 346.757 157.798C346.694 157.827 346.626 157.842 346.553 157.842C346.48 157.842 346.411 157.827 346.348 157.798C346.285 157.768 346.231 157.724 346.184 157.664C346.137 157.604 346.101 157.528 346.074 157.437C346.047 157.345 346.034 157.236 346.034 157.111C346.034 156.985 346.047 156.877 346.074 156.785C346.101 156.693 346.137 156.617 346.184 156.557C346.231 156.496 346.285 156.451 346.348 156.422C346.411 156.392 346.48 156.378 346.553 156.378C346.626 156.378 346.694 156.392 346.757 156.422C346.821 156.451 346.876 156.496 346.923 156.557C346.97 156.617 347.006 156.693 347.033 156.785C347.06 156.877 347.074 156.985 347.074 157.111ZM346.889 157.111C346.889 157.001 346.88 156.91 346.861 156.836C346.843 156.761 346.818 156.701 346.787 156.656C346.756 156.61 346.721 156.578 346.68 156.559C346.639 156.539 346.597 156.529 346.553 156.529C346.509 156.529 346.467 156.539 346.426 156.559C346.385 156.578 346.35 156.61 346.319 156.656C346.288 156.701 346.264 156.761 346.245 156.836C346.227 156.91 346.218 157.001 346.218 157.111C346.218 157.22 346.227 157.312 346.245 157.386C346.264 157.46 346.288 157.519 346.319 157.565C346.35 157.61 346.385 157.643 346.426 157.663C346.467 157.682 346.509 157.692 346.553 157.692C346.597 157.692 346.639 157.682 346.68 157.663C346.721 157.643 346.756 157.61 346.787 157.565C346.818 157.519 346.843 157.46 346.861 157.386C346.88 157.312 346.889 157.22 346.889 157.111ZM346.704 159.31V158.719C346.704 158.701 346.705 158.682 346.706 158.662C346.707 158.641 346.709 158.62 346.712 158.599L346.19 159.31H346.704ZM347.077 159.31V159.412C347.077 159.422 347.074 159.431 347.067 159.439C347.061 159.446 347.051 159.45 347.038 159.45H346.86V159.827H346.704V159.45H346.068C346.055 159.45 346.043 159.446 346.033 159.439C346.024 159.431 346.018 159.421 346.015 159.41L345.997 159.319L346.694 158.394H346.86V159.31H347.077Z" fill="#D7DBE6"/>
<rect x="348.618" y="142.354" width="0.305112" height="12.5104" rx="0.152556" fill="#EFF3FE"/>
<rect x="348.517" y="148.128" width="0.508521" height="6.73635" rx="0.25426" fill="url(#paint8_linear_139_3260)"/>
<rect x="348.517" y="143.797" width="0.508521" height="3.84934" rx="0.25426" fill="url(#paint9_linear_139_3260)"/>
<rect x="350.754" y="142.354" width="0.305112" height="12.5104" rx="0.152556" fill="#EFF3FE"/>
<rect x="350.652" y="149.572" width="0.508521" height="5.29285" rx="0.25426" fill="url(#paint10_linear_139_3260)"/>
<rect x="350.652" y="146.203" width="0.508521" height="2.88701" rx="0.25426" fill="url(#paint11_linear_139_3260)"/>
<path d="M351.346 157.111C351.346 157.236 351.332 157.345 351.305 157.437C351.278 157.528 351.241 157.604 351.195 157.664C351.148 157.724 351.093 157.768 351.029 157.798C350.965 157.827 350.897 157.842 350.825 157.842C350.751 157.842 350.683 157.827 350.62 157.798C350.557 157.768 350.502 157.724 350.456 157.664C350.409 157.604 350.372 157.528 350.346 157.437C350.319 157.345 350.306 157.236 350.306 157.111C350.306 156.985 350.319 156.877 350.346 156.785C350.372 156.693 350.409 156.617 350.456 156.557C350.502 156.496 350.557 156.451 350.62 156.422C350.683 156.392 350.751 156.378 350.825 156.378C350.897 156.378 350.965 156.392 351.029 156.422C351.093 156.451 351.148 156.496 351.195 156.557C351.241 156.617 351.278 156.693 351.305 156.785C351.332 156.877 351.346 156.985 351.346 157.111ZM351.161 157.111C351.161 157.001 351.151 156.91 351.133 156.836C351.115 156.761 351.09 156.701 351.059 156.656C351.028 156.61 350.992 156.578 350.952 156.559C350.911 156.539 350.869 156.529 350.825 156.529C350.781 156.529 350.738 156.539 350.698 156.559C350.657 156.578 350.621 156.61 350.591 156.656C350.56 156.701 350.535 156.761 350.517 156.836C350.499 156.91 350.49 157.001 350.49 157.111C350.49 157.22 350.499 157.312 350.517 157.386C350.535 157.46 350.56 157.519 350.591 157.565C350.621 157.61 350.657 157.643 350.698 157.663C350.738 157.682 350.781 157.692 350.825 157.692C350.869 157.692 350.911 157.682 350.952 157.663C350.992 157.643 351.028 157.61 351.059 157.565C351.09 157.519 351.115 157.46 351.133 157.386C351.151 157.312 351.161 157.22 351.161 157.111ZM350.824 159.695C350.872 159.695 350.915 159.687 350.954 159.672C350.993 159.656 351.026 159.635 351.054 159.608C351.082 159.58 351.103 159.548 351.118 159.511C351.133 159.473 351.141 159.433 351.141 159.389C351.141 159.342 351.133 159.3 351.119 159.263C351.104 159.225 351.083 159.193 351.056 159.167C351.029 159.14 350.997 159.12 350.96 159.106C350.922 159.092 350.881 159.085 350.837 159.085C350.789 159.085 350.745 159.093 350.707 159.11C350.668 159.126 350.635 159.148 350.608 159.176C350.581 159.203 350.56 159.235 350.546 159.272C350.532 159.308 350.525 159.345 350.525 159.385C350.525 159.431 350.531 159.473 350.545 159.511C350.558 159.549 350.577 159.581 350.603 159.609C350.629 159.636 350.66 159.657 350.697 159.673C350.734 159.687 350.776 159.695 350.824 159.695ZM350.72 158.931C350.707 158.947 350.695 158.962 350.683 158.978C350.671 158.992 350.66 159.007 350.65 159.022C350.684 158.998 350.721 158.98 350.762 158.968C350.802 158.955 350.847 158.949 350.895 158.949C350.953 158.949 351.007 158.958 351.059 158.978C351.11 158.996 351.155 159.024 351.193 159.061C351.231 159.097 351.262 159.141 351.285 159.195C351.307 159.247 351.319 159.308 351.319 159.376C351.319 159.442 351.307 159.503 351.283 159.56C351.259 159.616 351.225 159.666 351.182 159.708C351.139 159.75 351.087 159.783 351.027 159.807C350.967 159.831 350.9 159.843 350.828 159.843C350.756 159.843 350.69 159.831 350.632 159.809C350.573 159.785 350.523 159.753 350.482 159.711C350.441 159.668 350.409 159.617 350.387 159.557C350.365 159.496 350.354 159.428 350.354 159.354C350.354 159.291 350.367 159.224 350.395 159.154C350.423 159.082 350.467 159.006 350.528 158.926L350.892 158.437C350.901 158.425 350.914 158.415 350.93 158.407C350.946 158.398 350.965 158.394 350.987 158.394H351.145L350.72 158.931Z" fill="#D7DBE6"/>
<rect x="352.89" y="142.354" width="0.305112" height="12.5104" rx="0.152556" fill="#EFF3FE"/>
<rect x="352.788" y="146.685" width="0.508521" height="8.17985" rx="0.25426" fill="url(#paint12_linear_139_3260)"/>
<rect x="352.788" y="144.279" width="0.508521" height="1.92467" rx="0.25426" fill="url(#paint13_linear_139_3260)"/>
<path d="M353.481 157.111C353.481 157.236 353.468 157.345 353.44 157.437C353.414 157.528 353.377 157.604 353.33 157.664C353.284 157.724 353.228 157.768 353.164 157.798C353.101 157.827 353.033 157.842 352.96 157.842C352.887 157.842 352.819 157.827 352.755 157.798C352.693 157.768 352.638 157.724 352.591 157.664C352.545 157.604 352.508 157.528 352.481 157.437C352.455 157.345 352.441 157.236 352.441 157.111C352.441 156.985 352.455 156.877 352.481 156.785C352.508 156.693 352.545 156.617 352.591 156.557C352.638 156.496 352.693 156.451 352.755 156.422C352.819 156.392 352.887 156.378 352.96 156.378C353.033 156.378 353.101 156.392 353.164 156.422C353.228 156.451 353.284 156.496 353.33 156.557C353.377 156.617 353.414 156.693 353.44 156.785C353.468 156.877 353.481 156.985 353.481 157.111ZM353.296 157.111C353.296 157.001 353.287 156.91 353.268 156.836C353.25 156.761 353.226 156.701 353.194 156.656C353.164 156.61 353.128 156.578 353.087 156.559C353.047 156.539 353.004 156.529 352.96 156.529C352.916 156.529 352.874 156.539 352.833 156.559C352.793 156.578 352.757 156.61 352.726 156.656C352.696 156.701 352.671 156.761 352.652 156.836C352.634 156.91 352.625 157.001 352.625 157.111C352.625 157.22 352.634 157.312 352.652 157.386C352.671 157.46 352.696 157.519 352.726 157.565C352.757 157.61 352.793 157.643 352.833 157.663C352.874 157.682 352.916 157.692 352.96 157.692C353.004 157.692 353.047 157.682 353.087 157.663C353.128 157.643 353.164 157.61 353.194 157.565C353.226 157.519 353.25 157.46 353.268 157.386C353.287 157.312 353.296 157.22 353.296 157.111ZM353.462 158.394V158.474C353.462 158.496 353.46 158.515 353.454 158.53C353.45 158.544 353.445 158.557 353.44 158.567L352.846 159.764C352.838 159.781 352.826 159.796 352.81 159.809C352.795 159.821 352.775 159.827 352.749 159.827H352.621L353.223 158.645C353.232 158.628 353.241 158.613 353.25 158.599C353.26 158.585 353.27 158.571 353.28 158.559H352.532C352.521 158.559 352.511 158.554 352.502 158.546C352.494 158.536 352.489 158.526 352.489 158.515V158.394H353.462Z" fill="#D7DBE6"/>
<rect x="354.924" y="142.354" width="0.305112" height="12.5104" rx="0.152556" fill="#EFF3FE"/>
<rect x="354.822" y="149.091" width="0.508521" height="5.77401" rx="0.25426" fill="url(#paint14_linear_139_3260)"/>
<rect x="354.822" y="146.685" width="0.508521" height="1.92467" rx="0.25426" fill="url(#paint15_linear_139_3260)"/>
<path d="M355.516 157.111C355.516 157.236 355.502 157.345 355.475 157.437C355.448 157.528 355.411 157.604 355.365 157.664C355.318 157.724 355.263 157.768 355.199 157.798C355.135 157.827 355.067 157.842 354.995 157.842C354.921 157.842 354.853 157.827 354.79 157.798C354.727 157.768 354.672 157.724 354.626 157.664C354.579 157.604 354.542 157.528 354.516 157.437C354.489 157.345 354.476 157.236 354.476 157.111C354.476 156.985 354.489 156.877 354.516 156.785C354.542 156.693 354.579 156.617 354.626 156.557C354.672 156.496 354.727 156.451 354.79 156.422C354.853 156.392 354.921 156.378 354.995 156.378C355.067 156.378 355.135 156.392 355.199 156.422C355.263 156.451 355.318 156.496 355.365 156.557C355.411 156.617 355.448 156.693 355.475 156.785C355.502 156.877 355.516 156.985 355.516 157.111ZM355.331 157.111C355.331 157.001 355.321 156.91 355.303 156.836C355.285 156.761 355.26 156.701 355.229 156.656C355.198 156.61 355.162 156.578 355.122 156.559C355.081 156.539 355.039 156.529 354.995 156.529C354.951 156.529 354.908 156.539 354.868 156.559C354.827 156.578 354.791 156.61 354.761 156.656C354.73 156.701 354.705 156.761 354.687 156.836C354.669 156.91 354.66 157.001 354.66 157.111C354.66 157.22 354.669 157.312 354.687 157.386C354.705 157.46 354.73 157.519 354.761 157.565C354.791 157.61 354.827 157.643 354.868 157.663C354.908 157.682 354.951 157.692 354.995 157.692C355.039 157.692 355.081 157.682 355.122 157.663C355.162 157.643 355.198 157.61 355.229 157.565C355.26 157.519 355.285 157.46 355.303 157.386C355.321 157.312 355.331 157.22 355.331 157.111ZM354.996 159.701C355.042 159.701 355.084 159.694 355.121 159.682C355.158 159.668 355.189 159.65 355.215 159.627C355.241 159.603 355.26 159.574 355.274 159.542C355.288 159.508 355.295 159.472 355.295 159.432C355.295 159.382 355.286 159.34 355.27 159.306C355.254 159.27 355.232 159.242 355.204 159.22C355.176 159.198 355.145 159.182 355.109 159.172C355.073 159.161 355.035 159.156 354.996 159.156C354.956 159.156 354.919 159.161 354.883 159.172C354.847 159.182 354.815 159.198 354.787 159.22C354.759 159.242 354.737 159.27 354.721 159.306C354.705 159.34 354.697 159.382 354.697 159.432C354.697 159.472 354.703 159.508 354.717 159.542C354.731 159.574 354.75 159.603 354.776 159.627C354.802 159.65 354.833 159.668 354.87 159.682C354.907 159.694 354.949 159.701 354.996 159.701ZM354.996 158.516C354.953 158.516 354.915 158.522 354.883 158.535C354.851 158.547 354.824 158.565 354.802 158.587C354.78 158.609 354.764 158.634 354.753 158.664C354.742 158.693 354.737 158.724 354.737 158.758C354.737 158.79 354.741 158.822 354.751 158.853C354.76 158.883 354.775 158.911 354.796 158.935C354.816 158.958 354.843 158.977 354.876 158.992C354.909 159.006 354.949 159.013 354.996 159.013C355.042 159.013 355.082 159.006 355.115 158.992C355.148 158.977 355.175 158.958 355.196 158.935C355.216 158.911 355.231 158.883 355.241 158.853C355.25 158.822 355.255 158.79 355.255 158.758C355.255 158.724 355.249 158.693 355.238 158.664C355.227 158.634 355.211 158.609 355.189 158.587C355.167 158.565 355.14 158.547 355.108 158.535C355.076 158.522 355.038 158.516 354.996 158.516ZM355.201 159.08C355.29 159.105 355.359 159.147 355.407 159.207C355.455 159.266 355.479 159.342 355.479 159.435C355.479 159.497 355.467 159.554 355.443 159.605C355.419 159.655 355.386 159.697 355.344 159.733C355.302 159.768 355.251 159.795 355.192 159.815C355.132 159.833 355.067 159.843 354.996 159.843C354.924 159.843 354.859 159.833 354.8 159.815C354.74 159.795 354.689 159.768 354.647 159.733C354.604 159.697 354.571 159.655 354.548 159.605C354.524 159.554 354.513 159.497 354.513 159.435C354.513 159.342 354.537 159.266 354.585 159.207C354.633 159.147 354.701 159.105 354.791 159.08C354.715 159.052 354.658 159.01 354.62 158.955C354.582 158.899 354.563 158.832 354.563 158.755C354.563 158.702 354.573 158.653 354.594 158.607C354.614 158.561 354.644 158.521 354.682 158.487C354.72 158.453 354.765 158.426 354.818 158.407C354.871 158.387 354.93 158.378 354.996 158.378C355.06 158.378 355.119 158.387 355.173 158.407C355.226 158.426 355.272 158.453 355.31 158.487C355.348 158.521 355.377 158.561 355.398 158.607C355.418 158.653 355.429 158.702 355.429 158.755C355.429 158.832 355.409 158.899 355.371 158.955C355.333 159.01 355.276 159.052 355.201 159.08Z" fill="#D7DBE6"/>
<rect x="357.06" y="142.354" width="0.305112" height="12.5104" rx="0.152556" fill="#EFF3FE"/>
<rect x="356.958" y="153.421" width="0.508521" height="1.4435" rx="0.25426" fill="url(#paint16_linear_139_3260)"/>
<rect x="356.958" y="145.722" width="0.508521" height="7.21752" rx="0.25426" fill="url(#paint17_linear_139_3260)"/>
<path d="M357.651 157.111C357.651 157.236 357.638 157.345 357.61 157.437C357.584 157.528 357.547 157.604 357.5 157.664C357.454 157.724 357.398 157.768 357.334 157.798C357.271 157.827 357.203 157.842 357.13 157.842C357.057 157.842 356.989 157.827 356.925 157.798C356.863 157.768 356.808 157.724 356.761 157.664C356.715 157.604 356.678 157.528 356.651 157.437C356.625 157.345 356.611 157.236 356.611 157.111C356.611 156.985 356.625 156.877 356.651 156.785C356.678 156.693 356.715 156.617 356.761 156.557C356.808 156.496 356.863 156.451 356.925 156.422C356.989 156.392 357.057 156.378 357.13 156.378C357.203 156.378 357.271 156.392 357.334 156.422C357.398 156.451 357.454 156.496 357.5 156.557C357.547 156.617 357.584 156.693 357.61 156.785C357.638 156.877 357.651 156.985 357.651 157.111ZM357.466 157.111C357.466 157.001 357.457 156.91 357.438 156.836C357.42 156.761 357.396 156.701 357.364 156.656C357.334 156.61 357.298 156.578 357.257 156.559C357.217 156.539 357.174 156.529 357.13 156.529C357.086 156.529 357.044 156.539 357.003 156.559C356.963 156.578 356.927 156.61 356.896 156.656C356.866 156.701 356.841 156.761 356.822 156.836C356.804 156.91 356.795 157.001 356.795 157.111C356.795 157.22 356.804 157.312 356.822 157.386C356.841 157.46 356.866 157.519 356.896 157.565C356.927 157.61 356.963 157.643 357.003 157.663C357.044 157.682 357.086 157.692 357.13 157.692C357.174 157.692 357.217 157.682 357.257 157.663C357.298 157.643 357.334 157.61 357.364 157.565C357.396 157.519 357.42 157.46 357.438 157.386C357.457 157.312 357.466 157.22 357.466 157.111ZM356.834 158.815C356.834 158.86 356.841 158.901 356.853 158.937C356.867 158.972 356.885 159.002 356.909 159.027C356.934 159.051 356.964 159.07 356.998 159.083C357.034 159.095 357.073 159.102 357.116 159.102C357.164 159.102 357.207 159.094 357.243 159.079C357.281 159.063 357.312 159.042 357.337 159.016C357.363 158.99 357.382 158.96 357.395 158.926C357.409 158.892 357.415 158.856 357.415 158.82C357.415 158.775 357.408 158.735 357.393 158.699C357.379 158.662 357.36 158.631 357.334 158.606C357.309 158.58 357.279 158.561 357.243 158.548C357.209 158.534 357.17 158.527 357.128 158.527C357.084 158.527 357.044 158.534 357.008 158.549C356.972 158.563 356.941 158.582 356.915 158.608C356.889 158.633 356.869 158.663 356.855 158.699C356.841 158.734 356.834 158.773 356.834 158.815ZM357.25 159.256C357.265 159.236 357.279 159.218 357.291 159.201C357.304 159.183 357.316 159.166 357.327 159.149C357.291 159.178 357.249 159.2 357.203 159.216C357.157 159.231 357.109 159.239 357.057 159.239C357.003 159.239 356.952 159.23 356.903 159.212C356.855 159.194 356.813 159.167 356.776 159.133C356.74 159.097 356.71 159.054 356.688 159.004C356.667 158.952 356.656 158.894 356.656 158.828C356.656 158.765 356.668 158.706 356.691 158.652C356.715 158.597 356.747 158.549 356.789 158.509C356.831 158.468 356.881 158.436 356.939 158.413C356.997 158.389 357.061 158.378 357.13 158.378C357.199 158.378 357.261 158.389 357.317 158.412C357.373 158.434 357.421 158.466 357.461 158.507C357.501 158.547 357.532 158.596 357.553 158.653C357.575 158.709 357.586 158.772 357.586 158.841C357.586 158.882 357.582 158.921 357.574 158.959C357.567 158.995 357.556 159.032 357.541 159.068C357.527 159.103 357.51 159.138 357.489 159.174C357.469 159.208 357.445 159.244 357.419 159.281L357.07 159.785C357.062 159.797 357.049 159.808 357.033 159.816C357.017 159.823 356.999 159.827 356.978 159.827H356.814L357.25 159.256Z" fill="#D7DBE6"/>
<rect x="359.094" y="142.354" width="0.305112" height="12.5104" rx="0.152556" fill="#EFF3FE"/>
<rect x="358.992" y="150.053" width="0.508521" height="4.81168" rx="0.25426" fill="url(#paint18_linear_139_3260)"/>
<rect x="358.992" y="144.76" width="0.508521" height="4.81168" rx="0.25426" fill="url(#paint19_linear_139_3260)"/>
<path d="M359.705 157.691V157.827H358.937V157.691H359.244V156.714C359.244 156.684 359.245 156.655 359.247 156.625L358.992 156.844C358.983 156.851 358.975 156.856 358.966 156.858C358.957 156.859 358.949 156.859 358.942 156.858C358.935 156.856 358.928 156.854 358.921 156.85C358.915 156.846 358.91 156.841 358.907 156.837L358.851 156.76L359.278 156.391H359.423V157.691H359.705ZM359.787 159.111C359.787 159.236 359.773 159.345 359.746 159.437C359.719 159.528 359.683 159.604 359.636 159.664C359.589 159.724 359.534 159.768 359.47 159.798C359.407 159.827 359.339 159.842 359.266 159.842C359.193 159.842 359.124 159.827 359.061 159.798C358.998 159.768 358.944 159.724 358.897 159.664C358.85 159.604 358.814 159.528 358.787 159.437C358.76 159.345 358.747 159.236 358.747 159.111C358.747 158.985 358.76 158.877 358.787 158.785C358.814 158.693 358.85 158.617 358.897 158.557C358.944 158.496 358.998 158.451 359.061 158.422C359.124 158.392 359.193 158.378 359.266 158.378C359.339 158.378 359.407 158.392 359.47 158.422C359.534 158.451 359.589 158.496 359.636 158.557C359.683 158.617 359.719 158.693 359.746 158.785C359.773 158.877 359.787 158.985 359.787 159.111ZM359.602 159.111C359.602 159.001 359.593 158.91 359.574 158.836C359.556 158.761 359.531 158.701 359.5 158.656C359.469 158.61 359.434 158.578 359.393 158.559C359.352 158.539 359.31 158.529 359.266 158.529C359.222 158.529 359.18 158.539 359.139 158.559C359.098 158.578 359.063 158.61 359.032 158.656C359.001 158.701 358.977 158.761 358.958 158.836C358.94 158.91 358.931 159.001 358.931 159.111C358.931 159.22 358.94 159.312 358.958 159.386C358.977 159.46 359.001 159.519 359.032 159.565C359.063 159.61 359.098 159.643 359.139 159.663C359.18 159.682 359.222 159.692 359.266 159.692C359.31 159.692 359.352 159.682 359.393 159.663C359.434 159.643 359.469 159.61 359.5 159.565C359.531 159.519 359.556 159.46 359.574 159.386C359.593 159.312 359.602 159.22 359.602 159.111Z" fill="#D7DBE6"/>
<rect x="360.924" y="142.354" width="0.305112" height="12.5104" rx="0.152556" fill="#EFF3FE"/>
<rect x="360.822" y="151.015" width="0.508521" height="3.84934" rx="0.25426" fill="url(#paint20_linear_139_3260)"/>
<rect x="360.822" y="146.685" width="0.508521" height="3.84934" rx="0.25426" fill="url(#paint21_linear_139_3260)"/>
<path d="M361.637 157.691V157.827H360.869V157.691H361.176V156.714C361.176 156.684 361.177 156.655 361.179 156.625L360.924 156.844C360.915 156.851 360.907 156.856 360.898 156.858C360.889 156.859 360.881 156.859 360.874 156.858C360.867 156.856 360.86 156.854 360.853 156.85C360.847 156.846 360.842 156.841 360.839 156.837L360.783 156.76L361.21 156.391H361.355V157.691H361.637ZM361.637 159.691V159.827H360.869V159.691H361.176V158.714C361.176 158.684 361.177 158.655 361.179 158.625L360.924 158.844C360.915 158.851 360.907 158.856 360.898 158.858C360.889 158.859 360.881 158.859 360.874 158.858C360.867 158.856 360.86 158.854 360.853 158.85C360.847 158.846 360.842 158.841 360.839 158.837L360.783 158.76L361.21 158.391H361.355V159.691H361.637Z" fill="#D7DBE6"/>
<rect x="362.857" y="142.354" width="0.305112" height="12.5104" rx="0.152556" fill="#EFF3FE"/>
<rect x="362.755" y="151.015" width="0.508521" height="3.84934" rx="0.25426" fill="url(#paint22_linear_139_3260)"/>
<rect x="362.755" y="142.835" width="0.508521" height="7.69868" rx="0.25426" fill="url(#paint23_linear_139_3260)"/>
<path d="M363.468 157.691V157.827H362.7V157.691H363.007V156.714C363.007 156.684 363.008 156.655 363.01 156.625L362.755 156.844C362.747 156.851 362.738 156.856 362.729 156.858C362.721 156.859 362.713 156.859 362.705 156.858C362.698 156.856 362.691 156.854 362.684 156.85C362.678 156.846 362.674 156.841 362.67 156.837L362.614 156.76L363.041 156.391H363.186V157.691H363.468ZM363.437 159.658C363.457 159.658 363.472 159.663 363.483 159.675C363.495 159.686 363.5 159.701 363.5 159.719V159.827H362.544V159.766C362.544 159.753 362.547 159.74 362.552 159.727C362.558 159.713 362.566 159.701 362.577 159.69L363.036 159.229C363.074 159.19 363.109 159.153 363.14 159.118C363.172 159.082 363.198 159.046 363.22 159.01C363.242 158.974 363.259 158.937 363.271 158.901C363.283 158.863 363.289 158.824 363.289 158.782C363.289 158.74 363.283 158.703 363.269 158.672C363.256 158.64 363.238 158.613 363.214 158.593C363.192 158.572 363.165 158.557 363.133 158.547C363.102 158.536 363.068 158.531 363.032 158.531C362.996 158.531 362.962 158.536 362.931 158.547C362.901 158.557 362.873 158.572 362.849 158.592C362.826 158.61 362.806 158.633 362.79 158.659C362.774 158.685 362.763 158.713 362.756 158.745C362.748 158.768 362.737 158.784 362.723 158.792C362.71 158.799 362.691 158.801 362.666 158.798L362.573 158.782C362.583 158.716 362.601 158.659 362.627 158.609C362.655 158.558 362.689 158.516 362.729 158.482C362.771 158.448 362.818 158.422 362.87 158.405C362.923 158.387 362.98 158.378 363.041 158.378C363.102 158.378 363.159 158.387 363.211 158.405C363.264 158.423 363.31 158.449 363.348 158.484C363.387 158.518 363.417 158.559 363.439 158.609C363.461 158.658 363.472 158.714 363.472 158.777C363.472 158.83 363.464 158.88 363.448 158.926C363.432 158.971 363.411 159.014 363.383 159.056C363.356 159.097 363.324 159.137 363.288 159.177C363.253 159.216 363.215 159.256 363.175 159.296L362.797 159.682C362.824 159.674 362.851 159.669 362.878 159.665C362.906 159.66 362.932 159.658 362.957 159.658H363.437Z" fill="#D7DBE6"/>
<rect x="201.484" y="176.075" width="61.4403" height="59.9871" rx="8" fill="#F9F4F4"/>
<rect x="271.167" y="176.075" width="100.402" height="33.7006" rx="8" fill="#F9F4F4"/>
<rect x="271.167" y="213.146" width="100.402" height="22.9164" rx="8" fill="#F9F4F4"/>
<rect x="367.951" y="116.856" width="12.3061" height="2.95201" rx="1.47601" fill="#C4C4C4"/>
<ellipse cx="191.973" cy="117.963" rx="2.05102" ry="1.84501" fill="#C4C4C4"/>
<ellipse cx="197.717" cy="117.963" rx="2.05102" ry="1.84501" fill="#C4C4C4"/>
<ellipse cx="203.459" cy="117.963" rx="2.05102" ry="1.84501" fill="#C4C4C4"/>
<path d="M250.405 206.274C250.405 215.562 242.034 223.093 231.708 223.093C221.382 223.093 213.011 215.562 213.011 206.274C213.011 196.985 221.382 189.455 231.708 189.455C242.034 189.455 250.405 196.985 250.405 206.274ZM218.62 206.274C218.62 212.776 224.479 218.047 231.708 218.047C238.936 218.047 244.796 212.776 244.796 206.274C244.796 199.771 238.936 194.5 231.708 194.5C224.479 194.5 218.62 199.771 218.62 206.274Z" fill="#EFF3FE"/>
<path d="M251.737 210.889C251.05 213.195 249.865 215.357 248.249 217.252C246.633 219.146 244.618 220.735 242.319 221.929C240.021 223.123 237.483 223.898 234.851 224.21C232.22 224.521 229.545 224.364 226.981 223.746L229.597 214.964C230.879 215.273 232.216 215.352 233.532 215.196C234.848 215.04 236.117 214.653 237.266 214.056C238.416 213.459 239.423 212.664 240.231 211.717C241.039 210.77 241.632 209.689 241.975 208.536L251.737 210.889Z" fill="#FADCE1"/>
<path d="M232.213 224.365C229.559 224.365 226.93 223.895 224.478 222.981C222.025 222.067 219.797 220.728 217.92 219.04C216.043 217.351 214.554 215.347 213.539 213.141C212.523 210.935 212 208.57 212 206.183L222.106 206.183C222.106 207.377 222.368 208.559 222.876 209.662C223.384 210.765 224.128 211.767 225.067 212.611C226.005 213.455 227.119 214.125 228.345 214.582C229.572 215.039 230.886 215.274 232.213 215.274V224.365Z" fill="#B5AA9F"/>
<path d="M232.213 188C235.403 188 238.547 188.679 241.389 189.982C244.232 191.284 246.691 193.174 248.566 195.495C250.44 197.817 251.678 200.504 252.177 203.338C252.676 206.172 252.422 209.072 251.437 211.801L241.825 208.992C242.318 207.628 242.444 206.178 242.195 204.76C241.945 203.343 241.327 202 240.389 200.839C239.452 199.678 238.222 198.734 236.801 198.082C235.38 197.431 233.808 197.091 232.213 197.091V188Z" fill="#F0E9E9"/>
<path opacity="0.5" d="M294.448 204.324V206.505H294.118V204.654H294.105L293.583 204.995V204.679L294.127 204.324H294.448ZM295.798 206.542C295.629 206.541 295.485 206.496 295.366 206.408C295.247 206.32 295.156 206.192 295.092 206.024C295.029 205.856 294.998 205.653 294.998 205.416C294.998 205.179 295.029 204.977 295.092 204.809C295.156 204.642 295.248 204.514 295.367 204.426C295.487 204.338 295.631 204.294 295.798 204.294C295.964 204.294 296.108 204.338 296.227 204.427C296.346 204.515 296.438 204.643 296.501 204.81C296.565 204.977 296.597 205.179 296.597 205.416C296.597 205.653 296.565 205.857 296.502 206.025C296.439 206.193 296.347 206.321 296.228 206.409C296.109 206.498 295.965 206.542 295.798 206.542ZM295.798 206.257C295.945 206.257 296.061 206.185 296.144 206.041C296.228 205.897 296.27 205.688 296.27 205.416C296.27 205.234 296.25 205.081 296.212 204.956C296.174 204.831 296.12 204.735 296.049 204.671C295.979 204.606 295.895 204.573 295.798 204.573C295.651 204.573 295.535 204.645 295.451 204.79C295.368 204.935 295.325 205.144 295.325 205.416C295.325 205.597 295.343 205.751 295.381 205.877C295.419 206.002 295.474 206.097 295.544 206.161C295.614 206.225 295.699 206.257 295.798 206.257Z" fill="#C0B6B6"/>
<path opacity="0.5" d="M309.188 204.324V206.505H308.857V204.654H308.845L308.322 204.995V204.679L308.867 204.324H309.188ZM310.606 204.324V206.505H310.275V204.654H310.262L309.74 204.995V204.679L310.285 204.324H310.606Z" fill="#C0B6B6"/>
<path opacity="0.5" d="M324.598 204.324V206.505H324.267V204.654H324.255L323.733 204.995V204.679L324.277 204.324H324.598ZM325.188 206.505V206.267L325.926 205.502C326.005 205.419 326.07 205.346 326.121 205.283C326.173 205.22 326.212 205.16 326.237 205.103C326.263 205.047 326.276 204.986 326.276 204.922C326.276 204.85 326.259 204.787 326.224 204.735C326.19 204.682 326.144 204.641 326.085 204.612C326.026 204.583 325.96 204.569 325.886 204.569C325.808 204.569 325.739 204.585 325.681 204.617C325.623 204.648 325.578 204.694 325.547 204.752C325.516 204.81 325.5 204.878 325.5 204.956H325.186C325.186 204.824 325.216 204.707 325.277 204.608C325.338 204.509 325.422 204.432 325.529 204.377C325.635 204.321 325.756 204.294 325.892 204.294C326.029 204.294 326.15 204.321 326.254 204.376C326.359 204.43 326.441 204.504 326.5 204.597C326.559 204.69 326.589 204.795 326.589 204.913C326.589 204.994 326.574 205.073 326.543 205.15C326.513 205.228 326.461 205.314 326.386 205.409C326.312 205.504 326.208 205.618 326.075 205.753L325.642 206.207V206.223H326.624V206.505H325.188Z" fill="#C0B6B6"/>
<path opacity="0.5" d="M339.337 204.324V206.505H339.007V204.654H338.994L338.472 204.995V204.679L339.017 204.324H339.337ZM340.687 206.535C340.541 206.535 340.41 206.51 340.295 206.46C340.181 206.409 340.09 206.339 340.024 206.25C339.957 206.159 339.922 206.055 339.917 205.936H340.252C340.256 206.001 340.277 206.057 340.316 206.105C340.356 206.152 340.408 206.188 340.472 206.213C340.536 206.239 340.607 206.252 340.685 206.252C340.771 206.252 340.847 206.237 340.913 206.207C340.98 206.177 341.032 206.136 341.07 206.082C341.107 206.028 341.126 205.966 341.126 205.896C341.126 205.823 341.107 205.759 341.07 205.703C341.033 205.647 340.978 205.603 340.907 205.571C340.836 205.539 340.75 205.523 340.649 205.523H340.465V205.255H340.649C340.73 205.255 340.801 205.24 340.862 205.211C340.924 205.182 340.972 205.141 341.007 205.09C341.042 205.037 341.059 204.976 341.059 204.905C341.059 204.838 341.044 204.779 341.013 204.729C340.983 204.679 340.941 204.64 340.885 204.611C340.831 204.583 340.766 204.569 340.691 204.569C340.62 204.569 340.554 204.582 340.492 204.608C340.431 204.634 340.381 204.67 340.343 204.719C340.305 204.766 340.284 204.824 340.281 204.89H339.963C339.966 204.772 340.001 204.669 340.067 204.579C340.134 204.49 340.222 204.42 340.331 204.369C340.441 204.319 340.562 204.294 340.696 204.294C340.836 204.294 340.956 204.321 341.058 204.376C341.16 204.43 341.239 204.502 341.294 204.592C341.351 204.682 341.378 204.781 341.378 204.888C341.378 205.01 341.344 205.114 341.275 205.199C341.207 205.284 341.116 205.342 341.003 205.371V205.388C341.147 205.41 341.26 205.467 341.339 205.56C341.419 205.653 341.459 205.769 341.459 205.907C341.459 206.027 341.426 206.134 341.358 206.229C341.292 206.325 341.2 206.4 341.085 206.454C340.969 206.508 340.836 206.535 340.687 206.535Z" fill="#C0B6B6"/>
<path opacity="0.5" d="M354.078 204.324V206.505H353.747V204.654H353.735L353.213 204.995V204.679L353.757 204.324H354.078ZM354.622 206.079V205.813L355.565 204.324H355.775V204.716H355.642L354.967 205.783V205.8H356.259V206.079H354.622ZM355.657 206.505V205.998L355.659 205.877V204.324H355.971V206.505H355.657Z" fill="#C0B6B6"/>
<path d="M278.908 183.03C278.783 183.03 278.67 183.005 278.57 182.955C278.47 182.906 278.39 182.837 278.329 182.751C278.269 182.664 278.236 182.565 278.23 182.455H278.486C278.496 182.553 278.54 182.635 278.62 182.7C278.7 182.763 278.796 182.795 278.908 182.795C278.997 182.795 279.077 182.775 279.146 182.733C279.217 182.691 279.272 182.633 279.311 182.56C279.352 182.486 279.372 182.403 279.372 182.31C279.372 182.214 279.351 182.13 279.309 182.055C279.268 181.98 279.211 181.92 279.139 181.877C279.066 181.834 278.984 181.812 278.891 181.811C278.824 181.81 278.755 181.821 278.685 181.842C278.615 181.863 278.557 181.889 278.511 181.922L278.264 181.892L278.396 180.818H279.53V181.053H278.618L278.541 181.696H278.554C278.599 181.661 278.655 181.631 278.722 181.608C278.79 181.584 278.86 181.572 278.933 181.572C279.067 181.572 279.186 181.604 279.29 181.668C279.395 181.732 279.478 181.818 279.537 181.928C279.598 182.038 279.628 182.164 279.628 182.305C279.628 182.445 279.597 182.569 279.534 182.678C279.472 182.787 279.387 182.873 279.278 182.936C279.17 182.999 279.046 183.03 278.908 183.03ZM280.763 183.03C280.602 183.03 280.465 182.986 280.353 182.899C280.24 182.811 280.153 182.683 280.094 182.516C280.034 182.349 280.004 182.146 280.004 181.909C280.004 181.673 280.034 181.472 280.094 181.305C280.154 181.137 280.241 181.01 280.354 180.922C280.467 180.833 280.604 180.788 280.763 180.788C280.922 180.788 281.058 180.833 281.171 180.922C281.284 181.01 281.371 181.137 281.431 181.305C281.491 181.472 281.521 181.673 281.521 181.909C281.521 182.146 281.491 182.349 281.432 182.516C281.372 182.683 281.286 182.811 281.173 182.899C281.06 182.986 280.923 183.03 280.763 183.03ZM280.763 182.795C280.922 182.795 281.045 182.719 281.133 182.565C281.222 182.412 281.266 182.193 281.266 181.909C281.266 181.72 281.245 181.559 281.205 181.426C281.165 181.294 281.108 181.192 281.032 181.123C280.958 181.053 280.868 181.018 280.763 181.018C280.605 181.018 280.482 181.096 280.393 181.252C280.304 181.407 280.26 181.626 280.26 181.909C280.26 182.098 280.28 182.259 280.32 182.391C280.359 182.523 280.416 182.623 280.491 182.692C280.566 182.761 280.657 182.795 280.763 182.795Z" fill="#DDBDBD"/>
<path d="M278.908 193.276C278.783 193.276 278.67 193.251 278.57 193.201C278.47 193.151 278.39 193.083 278.329 192.997C278.269 192.91 278.236 192.811 278.23 192.7H278.486C278.496 192.799 278.54 192.881 278.62 192.945C278.7 193.009 278.796 193.041 278.908 193.041C278.997 193.041 279.077 193.02 279.146 192.978C279.217 192.937 279.272 192.879 279.311 192.806C279.352 192.732 279.372 192.649 279.372 192.556C279.372 192.46 279.351 192.375 279.309 192.301C279.268 192.226 279.211 192.166 279.139 192.123C279.066 192.08 278.984 192.058 278.891 192.057C278.824 192.056 278.755 192.067 278.685 192.088C278.615 192.108 278.557 192.135 278.511 192.168L278.264 192.138L278.396 191.064H279.53V191.298H278.618L278.541 191.942H278.554C278.599 191.906 278.655 191.877 278.722 191.853C278.79 191.83 278.86 191.818 278.933 191.818C279.067 191.818 279.186 191.85 279.29 191.914C279.395 191.977 279.478 192.064 279.537 192.174C279.598 192.284 279.628 192.41 279.628 192.551C279.628 192.69 279.597 192.815 279.534 192.924C279.472 193.033 279.387 193.119 279.278 193.182C279.17 193.244 279.046 193.276 278.908 193.276ZM280.763 193.276C280.602 193.276 280.465 193.232 280.353 193.145C280.24 193.057 280.153 192.929 280.094 192.762C280.034 192.595 280.004 192.392 280.004 192.155C280.004 191.919 280.034 191.718 280.094 191.551C280.154 191.383 280.241 191.255 280.354 191.167C280.467 191.079 280.604 191.034 280.763 191.034C280.922 191.034 281.058 191.079 281.171 191.167C281.284 191.255 281.371 191.383 281.431 191.551C281.491 191.718 281.521 191.919 281.521 192.155C281.521 192.392 281.491 192.595 281.432 192.762C281.372 192.929 281.286 193.057 281.173 193.145C281.06 193.232 280.923 193.276 280.763 193.276ZM280.763 193.041C280.922 193.041 281.045 192.965 281.133 192.811C281.222 192.658 281.266 192.439 281.266 192.155C281.266 191.966 281.245 191.805 281.205 191.672C281.165 191.54 281.108 191.438 281.032 191.369C280.958 191.299 280.868 191.264 280.763 191.264C280.605 191.264 280.482 191.342 280.393 191.498C280.304 191.652 280.26 191.872 280.26 192.155C280.26 192.344 280.28 192.504 280.32 192.636C280.359 192.769 280.416 192.869 280.491 192.938C280.566 193.007 280.657 193.041 280.763 193.041Z" fill="#DDBDBD"/>
<path d="M278.908 202.919C278.783 202.919 278.67 202.894 278.57 202.844C278.47 202.795 278.39 202.727 278.329 202.64C278.269 202.553 278.236 202.455 278.23 202.344H278.486C278.496 202.442 278.54 202.524 278.62 202.589C278.7 202.653 278.796 202.685 278.908 202.685C278.997 202.685 279.077 202.664 279.146 202.622C279.217 202.58 279.272 202.522 279.311 202.449C279.352 202.375 279.372 202.292 279.372 202.199C279.372 202.104 279.351 202.019 279.309 201.944C279.268 201.869 279.211 201.81 279.139 201.766C279.066 201.723 278.984 201.701 278.891 201.7C278.824 201.7 278.755 201.71 278.685 201.731C278.615 201.752 278.557 201.778 278.511 201.811L278.264 201.781L278.396 200.707H279.53V200.942H278.618L278.541 201.585H278.554C278.599 201.55 278.655 201.52 278.722 201.497C278.79 201.473 278.86 201.462 278.933 201.462C279.067 201.462 279.186 201.494 279.29 201.557C279.395 201.621 279.478 201.707 279.537 201.817C279.598 201.928 279.628 202.053 279.628 202.195C279.628 202.334 279.597 202.458 279.534 202.567C279.472 202.676 279.387 202.762 279.278 202.825C279.17 202.888 279.046 202.919 278.908 202.919ZM280.763 202.919C280.602 202.919 280.465 202.875 280.353 202.788C280.24 202.7 280.153 202.572 280.094 202.405C280.034 202.238 280.004 202.035 280.004 201.798C280.004 201.562 280.034 201.361 280.094 201.194C280.154 201.027 280.241 200.899 280.354 200.811C280.467 200.722 280.604 200.678 280.763 200.678C280.922 200.678 281.058 200.722 281.171 200.811C281.284 200.899 281.371 201.027 281.431 201.194C281.491 201.361 281.521 201.562 281.521 201.798C281.521 202.035 281.491 202.238 281.432 202.405C281.372 202.572 281.286 202.7 281.173 202.788C281.06 202.875 280.923 202.919 280.763 202.919ZM280.763 202.685C280.922 202.685 281.045 202.608 281.133 202.455C281.222 202.301 281.266 202.082 281.266 201.798C281.266 201.609 281.245 201.448 281.205 201.316C281.165 201.183 281.108 201.082 281.032 201.012C280.958 200.942 280.868 200.908 280.763 200.908C280.605 200.908 280.482 200.985 280.393 201.141C280.304 201.296 280.26 201.515 280.26 201.798C280.26 201.987 280.28 202.148 280.32 202.28C280.359 202.412 280.416 202.512 280.491 202.581C280.566 202.65 280.657 202.685 280.763 202.685Z" fill="#DDBDBD"/>
<path d="M363.76 201.697L287.38 201.697" stroke="black" stroke-opacity="0.2" stroke-width="0.5" stroke-linecap="round" stroke-dasharray="6 6"/>
<path d="M363.09 190.849L286.71 190.849" stroke="black" stroke-opacity="0.2" stroke-width="0.5" stroke-linecap="round" stroke-dasharray="6 6"/>
<path d="M363.09 181.205L286.71 181.205" stroke="black" stroke-opacity="0.2" stroke-width="0.5" stroke-linecap="round" stroke-dasharray="6 6"/>
<rect x="324.23" y="193.26" width="1.34" height="7.83513" rx="0.67" fill="#E7E7E7"/>
<rect x="325.57" y="195.068" width="2.01" height="6.02703" rx="1.005" fill="#F5D3C2"/>
<rect x="338.97" y="189.643" width="2.01" height="11.4514" rx="1.005" fill="#E7E7E7"/>
<rect x="340.98" y="197.478" width="1.34" height="3.61622" rx="0.67" fill="#F5D3C2"/>
<rect x="355.72" y="197.478" width="1.34" height="3.61622" rx="0.67" fill="#F5D3C2"/>
<rect x="353.71" y="190.246" width="2.01" height="10.8486" rx="1.005" fill="#E7E7E7"/>
<rect x="308.82" y="183.013" width="2.01" height="18.0811" rx="1.005" fill="#E7E7E7"/>
<rect x="310.83" y="187.232" width="2.01" height="13.8622" rx="1.005" fill="#F5D3C2"/>
<path opacity="0.5" d="M297.409 154.238V153.51H297.497V153.834H297.884V153.51H297.972V154.238H297.884V153.912H297.497V154.238H297.409ZM298.366 154.249C298.314 154.249 298.268 154.237 298.23 154.214C298.192 154.191 298.163 154.158 298.142 154.116C298.122 154.074 298.112 154.025 298.112 153.969C298.112 153.913 298.122 153.864 298.142 153.821C298.163 153.779 298.192 153.745 298.228 153.721C298.265 153.697 298.308 153.685 298.358 153.685C298.386 153.685 298.414 153.69 298.442 153.699C298.469 153.709 298.495 153.724 298.517 153.745C298.54 153.766 298.558 153.794 298.572 153.829C298.585 153.864 298.592 153.907 298.592 153.958V153.993H298.171V153.921H298.507C298.507 153.89 298.501 153.863 298.488 153.838C298.476 153.814 298.459 153.795 298.436 153.781C298.414 153.767 298.388 153.76 298.358 153.76C298.324 153.76 298.295 153.769 298.271 153.785C298.247 153.801 298.228 153.823 298.215 153.849C298.202 153.875 298.196 153.904 298.196 153.934V153.982C298.196 154.023 298.203 154.058 298.217 154.087C298.231 154.115 298.251 154.137 298.277 154.152C298.303 154.166 298.332 154.174 298.366 154.174C298.388 154.174 298.408 154.171 298.426 154.164C298.444 154.158 298.459 154.149 298.472 154.136C298.485 154.123 298.495 154.107 298.502 154.088L298.583 154.111C298.575 154.139 298.561 154.163 298.54 154.184C298.52 154.204 298.495 154.22 298.466 154.232C298.436 154.243 298.403 154.249 298.366 154.249ZM298.719 154.238V153.692H298.8V153.774H298.806C298.816 153.747 298.834 153.726 298.86 153.709C298.886 153.692 298.915 153.684 298.948 153.684C298.954 153.684 298.962 153.684 298.971 153.684C298.98 153.684 298.987 153.685 298.992 153.685V153.77C298.989 153.77 298.983 153.768 298.973 153.767C298.963 153.765 298.952 153.765 298.941 153.765C298.915 153.765 298.891 153.77 298.87 153.781C298.849 153.792 298.833 153.807 298.821 153.827C298.809 153.846 298.803 153.868 298.803 153.892V154.238H298.719ZM299.304 154.249C299.251 154.249 299.206 154.237 299.168 154.214C299.13 154.191 299.1 154.158 299.08 154.116C299.06 154.074 299.049 154.025 299.049 153.969C299.049 153.913 299.06 153.864 299.08 153.821C299.1 153.779 299.129 153.745 299.166 153.721C299.203 153.697 299.246 153.685 299.295 153.685C299.323 153.685 299.352 153.69 299.379 153.699C299.407 153.709 299.432 153.724 299.455 153.745C299.478 153.766 299.496 153.794 299.509 153.829C299.523 153.864 299.529 153.907 299.529 153.958V153.993H299.109V153.921H299.444C299.444 153.89 299.438 153.863 299.426 153.838C299.414 153.814 299.396 153.795 299.374 153.781C299.352 153.767 299.325 153.76 299.295 153.76C299.262 153.76 299.233 153.769 299.208 153.785C299.184 153.801 299.166 153.823 299.153 153.849C299.14 153.875 299.133 153.904 299.133 153.934V153.982C299.133 154.023 299.14 154.058 299.154 154.087C299.169 154.115 299.189 154.137 299.214 154.152C299.24 154.166 299.27 154.174 299.304 154.174C299.326 154.174 299.346 154.171 299.363 154.164C299.381 154.158 299.397 154.149 299.41 154.136C299.423 154.123 299.433 154.107 299.44 154.088L299.521 154.111C299.512 154.139 299.498 154.163 299.478 154.184C299.458 154.204 299.433 154.22 299.403 154.232C299.374 154.243 299.341 154.249 299.304 154.249ZM300.099 154.25C300.064 154.25 300.033 154.244 300.005 154.231C299.976 154.218 299.954 154.198 299.937 154.174C299.921 154.149 299.913 154.118 299.913 154.083C299.913 154.051 299.919 154.026 299.931 154.007C299.943 153.987 299.96 153.972 299.98 153.961C300.001 153.949 300.024 153.941 300.049 153.936C300.074 153.93 300.099 153.926 300.124 153.922C300.157 153.918 300.184 153.915 300.205 153.913C300.226 153.91 300.241 153.906 300.25 153.901C300.26 153.895 300.265 153.886 300.265 153.872V153.87C300.265 153.835 300.255 153.807 300.236 153.788C300.217 153.769 300.188 153.759 300.15 153.759C300.11 153.759 300.078 153.768 300.056 153.785C300.033 153.803 300.017 153.821 300.008 153.841L299.928 153.813C299.942 153.78 299.961 153.754 299.985 153.735C300.009 153.717 300.035 153.704 300.063 153.696C300.092 153.689 300.12 153.685 300.147 153.685C300.165 153.685 300.185 153.687 300.207 153.691C300.23 153.695 300.252 153.704 300.274 153.717C300.295 153.729 300.313 153.749 300.327 153.774C300.342 153.8 300.349 153.835 300.349 153.878V154.238H300.265V154.164H300.261C300.255 154.176 300.245 154.188 300.232 154.202C300.219 154.215 300.201 154.227 300.179 154.236C300.157 154.246 300.13 154.25 300.099 154.25ZM300.111 154.175C300.145 154.175 300.173 154.169 300.195 154.156C300.218 154.142 300.236 154.126 300.247 154.105C300.259 154.084 300.265 154.063 300.265 154.04V153.963C300.261 153.968 300.254 153.972 300.241 153.975C300.23 153.978 300.216 153.981 300.2 153.984C300.185 153.986 300.17 153.988 300.155 153.99C300.141 153.992 300.129 153.993 300.12 153.995C300.098 153.997 300.078 154.002 300.059 154.009C300.04 154.015 300.025 154.024 300.013 154.037C300.002 154.049 299.996 154.066 299.996 154.087C299.996 154.116 300.007 154.138 300.029 154.153C300.051 154.168 300.078 154.175 300.111 154.175ZM300.502 154.238V153.692H300.583V153.774H300.588C300.598 153.747 300.616 153.726 300.642 153.709C300.668 153.692 300.698 153.684 300.73 153.684C300.737 153.684 300.744 153.684 300.753 153.684C300.763 153.684 300.77 153.685 300.774 153.685V153.77C300.772 153.77 300.765 153.768 300.755 153.767C300.745 153.765 300.734 153.765 300.723 153.765C300.697 153.765 300.673 153.77 300.652 153.781C300.632 153.792 300.615 153.807 300.603 153.827C300.591 153.846 300.585 153.868 300.585 153.892V154.238H300.502ZM301.086 154.249C301.033 154.249 300.988 154.237 300.95 154.214C300.912 154.191 300.883 154.158 300.862 154.116C300.842 154.074 300.832 154.025 300.832 153.969C300.832 153.913 300.842 153.864 300.862 153.821C300.883 153.779 300.911 153.745 300.948 153.721C300.985 153.697 301.028 153.685 301.077 153.685C301.106 153.685 301.134 153.69 301.161 153.699C301.189 153.709 301.214 153.724 301.237 153.745C301.26 153.766 301.278 153.794 301.291 153.829C301.305 153.864 301.312 153.907 301.312 153.958V153.993H300.891V153.921H301.226C301.226 153.89 301.22 153.863 301.208 153.838C301.196 153.814 301.179 153.795 301.156 153.781C301.134 153.767 301.108 153.76 301.077 153.76C301.044 153.76 301.015 153.769 300.991 153.785C300.967 153.801 300.948 153.823 300.935 153.849C300.922 153.875 300.915 153.904 300.915 153.934V153.982C300.915 154.023 300.922 154.058 300.937 154.087C300.951 154.115 300.971 154.137 300.997 154.152C301.022 154.166 301.052 154.174 301.086 154.174C301.108 154.174 301.128 154.171 301.145 154.164C301.163 154.158 301.179 154.149 301.192 154.136C301.205 154.123 301.215 154.107 301.222 154.088L301.303 154.111C301.295 154.139 301.28 154.163 301.26 154.184C301.24 154.204 301.215 154.22 301.186 154.232C301.156 154.243 301.123 154.249 301.086 154.249ZM302.107 153.814L302.031 153.836C302.027 153.823 302.02 153.811 302.011 153.799C302.002 153.787 301.989 153.777 301.974 153.769C301.958 153.761 301.938 153.757 301.914 153.757C301.88 153.757 301.852 153.765 301.83 153.781C301.808 153.796 301.797 153.815 301.797 153.838C301.797 153.859 301.805 153.876 301.82 153.888C301.835 153.9 301.859 153.91 301.891 153.918L301.972 153.938C302.021 153.95 302.057 153.968 302.081 153.992C302.105 154.016 302.117 154.047 302.117 154.086C302.117 154.117 302.108 154.145 302.09 154.169C302.072 154.194 302.047 154.213 302.015 154.228C301.983 154.242 301.946 154.249 301.904 154.249C301.848 154.249 301.802 154.237 301.766 154.213C301.729 154.189 301.706 154.153 301.696 154.107L301.776 154.087C301.783 154.116 301.798 154.138 301.819 154.153C301.84 154.168 301.868 154.175 301.902 154.175C301.941 154.175 301.972 154.167 301.995 154.15C302.018 154.133 302.03 154.113 302.03 154.09C302.03 154.071 302.023 154.055 302.01 154.042C301.997 154.029 301.977 154.02 301.949 154.013L301.858 153.992C301.808 153.98 301.772 153.962 301.748 153.937C301.725 153.912 301.713 153.88 301.713 153.843C301.713 153.812 301.722 153.785 301.739 153.761C301.757 153.737 301.781 153.719 301.811 153.705C301.841 153.692 301.875 153.685 301.914 153.685C301.968 153.685 302.01 153.697 302.041 153.721C302.072 153.744 302.094 153.775 302.107 153.814ZM302.464 154.249C302.415 154.249 302.372 154.237 302.335 154.214C302.298 154.19 302.269 154.158 302.248 154.115C302.228 154.073 302.217 154.024 302.217 153.968C302.217 153.911 302.228 153.861 302.248 153.819C302.269 153.776 302.298 153.744 302.335 153.72C302.372 153.697 302.415 153.685 302.464 153.685C302.514 153.685 302.557 153.697 302.594 153.72C302.631 153.744 302.66 153.776 302.68 153.819C302.701 153.861 302.712 153.911 302.712 153.968C302.712 154.024 302.701 154.073 302.68 154.115C302.66 154.158 302.631 154.19 302.594 154.214C302.557 154.237 302.514 154.249 302.464 154.249ZM302.464 154.174C302.502 154.174 302.533 154.164 302.557 154.145C302.581 154.126 302.599 154.1 302.61 154.069C302.622 154.038 302.628 154.004 302.628 153.968C302.628 153.931 302.622 153.897 302.61 153.866C302.599 153.834 302.581 153.809 302.557 153.789C302.533 153.77 302.502 153.76 302.464 153.76C302.427 153.76 302.396 153.77 302.372 153.789C302.348 153.809 302.33 153.834 302.319 153.866C302.307 153.897 302.301 153.931 302.301 153.968C302.301 154.004 302.307 154.038 302.319 154.069C302.33 154.1 302.348 154.126 302.372 154.145C302.396 154.164 302.427 154.174 302.464 154.174ZM302.84 154.238V153.692H302.921V153.777H302.928C302.939 153.748 302.957 153.726 302.983 153.709C303.008 153.693 303.038 153.685 303.074 153.685C303.11 153.685 303.14 153.693 303.164 153.709C303.188 153.726 303.207 153.748 303.22 153.777H303.226C303.24 153.749 303.261 153.727 303.289 153.71C303.317 153.693 303.35 153.685 303.389 153.685C303.438 153.685 303.478 153.7 303.509 153.731C303.54 153.761 303.555 153.808 303.555 153.872V154.238H303.472V153.872C303.472 153.832 303.461 153.803 303.439 153.786C303.417 153.769 303.391 153.76 303.361 153.76C303.323 153.76 303.293 153.772 303.272 153.795C303.251 153.818 303.24 153.847 303.24 153.882V154.238H303.155V153.864C303.155 153.833 303.145 153.808 303.125 153.789C303.105 153.77 303.079 153.76 303.047 153.76C303.025 153.76 303.005 153.766 302.986 153.778C302.967 153.789 302.952 153.805 302.94 153.826C302.929 153.846 302.923 153.87 302.923 153.897V154.238H302.84ZM303.937 154.249C303.885 154.249 303.839 154.237 303.801 154.214C303.764 154.191 303.734 154.158 303.714 154.116C303.693 154.074 303.683 154.025 303.683 153.969C303.683 153.913 303.693 153.864 303.714 153.821C303.734 153.779 303.763 153.745 303.8 153.721C303.837 153.697 303.88 153.685 303.929 153.685C303.957 153.685 303.985 153.69 304.013 153.699C304.041 153.709 304.066 153.724 304.089 153.745C304.111 153.766 304.13 153.794 304.143 153.829C304.156 153.864 304.163 153.907 304.163 153.958V153.993H303.743V153.921H304.078C304.078 153.89 304.072 153.863 304.06 153.838C304.047 153.814 304.03 153.795 304.008 153.781C303.985 153.767 303.959 153.76 303.929 153.76C303.895 153.76 303.867 153.769 303.842 153.785C303.818 153.801 303.799 153.823 303.786 153.849C303.773 153.875 303.767 153.904 303.767 153.934V153.982C303.767 154.023 303.774 154.058 303.788 154.087C303.803 154.115 303.823 154.137 303.848 154.152C303.874 154.166 303.904 154.174 303.937 154.174C303.959 154.174 303.979 154.171 303.997 154.164C304.015 154.158 304.031 154.149 304.044 154.136C304.057 154.123 304.067 154.107 304.074 154.088L304.155 154.111C304.146 154.139 304.132 154.163 304.112 154.184C304.092 154.204 304.067 154.22 304.037 154.232C304.008 154.243 303.974 154.249 303.937 154.249ZM304.809 153.692V153.763H304.527V153.692H304.809ZM304.609 153.561H304.693V154.081C304.693 154.105 304.696 154.123 304.703 154.135C304.71 154.146 304.719 154.154 304.73 154.158C304.741 154.162 304.753 154.164 304.765 154.164C304.774 154.164 304.782 154.163 304.788 154.162C304.794 154.161 304.799 154.16 304.802 154.159L304.819 154.235C304.813 154.237 304.806 154.239 304.795 154.241C304.785 154.243 304.772 154.245 304.757 154.245C304.733 154.245 304.71 154.24 304.687 154.229C304.665 154.219 304.646 154.204 304.631 154.183C304.616 154.162 304.609 154.136 304.609 154.104V153.561ZM304.935 154.238V153.692H305.019V154.238H304.935ZM304.978 153.601C304.962 153.601 304.947 153.596 304.936 153.584C304.924 153.573 304.918 153.56 304.918 153.544C304.918 153.529 304.924 153.515 304.936 153.504C304.947 153.493 304.962 153.488 304.978 153.488C304.994 153.488 305.008 153.493 305.02 153.504C305.032 153.515 305.038 153.529 305.038 153.544C305.038 153.56 305.032 153.573 305.02 153.584C305.008 153.596 304.994 153.601 304.978 153.601ZM305.173 154.442V153.692H305.254V153.779H305.263C305.27 153.769 305.278 153.757 305.289 153.743C305.3 153.728 305.316 153.714 305.337 153.703C305.357 153.691 305.386 153.685 305.421 153.685C305.467 153.685 305.508 153.696 305.543 153.719C305.578 153.742 305.605 153.775 305.625 153.817C305.644 153.859 305.654 153.909 305.654 153.966C305.654 154.024 305.644 154.074 305.625 154.116C305.605 154.159 305.578 154.191 305.543 154.214C305.508 154.237 305.468 154.249 305.423 154.249C305.388 154.249 305.359 154.243 305.338 154.232C305.317 154.22 305.301 154.206 305.29 154.191C305.278 154.176 305.27 154.164 305.263 154.154H305.256V154.442H305.173ZM305.255 153.965C305.255 154.006 305.261 154.042 305.273 154.074C305.285 154.105 305.303 154.13 305.326 154.147C305.349 154.165 305.378 154.174 305.411 154.174C305.446 154.174 305.475 154.164 305.499 154.146C305.523 154.127 305.54 154.102 305.552 154.071C305.564 154.039 305.57 154.004 305.57 153.965C305.57 153.926 305.564 153.892 305.553 153.861C305.541 153.83 305.523 153.806 305.5 153.788C305.476 153.769 305.447 153.76 305.411 153.76C305.377 153.76 305.348 153.769 305.325 153.786C305.302 153.803 305.285 153.827 305.273 153.858C305.261 153.888 305.255 153.924 305.255 153.965ZM306.168 153.814L306.093 153.836C306.088 153.823 306.081 153.811 306.072 153.799C306.063 153.787 306.051 153.777 306.035 153.769C306.02 153.761 306 153.757 305.975 153.757C305.942 153.757 305.914 153.765 305.892 153.781C305.87 153.796 305.859 153.815 305.859 153.838C305.859 153.859 305.866 153.876 305.881 153.888C305.897 153.9 305.92 153.91 305.952 153.918L306.033 153.938C306.082 153.95 306.118 153.968 306.142 153.992C306.166 154.016 306.178 154.047 306.178 154.086C306.178 154.117 306.169 154.145 306.151 154.169C306.134 154.194 306.109 154.213 306.077 154.228C306.045 154.242 306.008 154.249 305.965 154.249C305.91 154.249 305.863 154.237 305.827 154.213C305.791 154.189 305.767 154.153 305.758 154.107L305.837 154.087C305.845 154.116 305.859 154.138 305.88 154.153C305.902 154.168 305.929 154.175 305.964 154.175C306.003 154.175 306.034 154.167 306.057 154.15C306.08 154.133 306.092 154.113 306.092 154.09C306.092 154.071 306.085 154.055 306.072 154.042C306.058 154.029 306.038 154.02 306.011 154.013L305.92 153.992C305.87 153.98 305.833 153.962 305.81 153.937C305.786 153.912 305.775 153.88 305.775 153.843C305.775 153.812 305.783 153.785 305.801 153.761C305.818 153.737 305.842 153.719 305.872 153.705C305.902 153.692 305.937 153.685 305.975 153.685C306.029 153.685 306.071 153.697 306.102 153.721C306.133 153.744 306.155 153.775 306.168 153.814ZM306.807 154.249C306.758 154.249 306.715 154.237 306.678 154.214C306.641 154.19 306.612 154.158 306.591 154.115C306.57 154.073 306.56 154.024 306.56 153.968C306.56 153.911 306.57 153.861 306.591 153.819C306.612 153.776 306.641 153.744 306.678 153.72C306.715 153.697 306.758 153.685 306.807 153.685C306.856 153.685 306.9 153.697 306.937 153.72C306.974 153.744 307.003 153.776 307.023 153.819C307.044 153.861 307.054 153.911 307.054 153.968C307.054 154.024 307.044 154.073 307.023 154.115C307.003 154.158 306.974 154.19 306.937 154.214C306.9 154.237 306.856 154.249 306.807 154.249ZM306.807 154.174C306.845 154.174 306.875 154.164 306.9 154.145C306.924 154.126 306.942 154.1 306.953 154.069C306.965 154.038 306.971 154.004 306.971 153.968C306.971 153.931 306.965 153.897 306.953 153.866C306.942 153.834 306.924 153.809 306.9 153.789C306.875 153.77 306.845 153.76 306.807 153.76C306.77 153.76 306.739 153.77 306.715 153.789C306.691 153.809 306.673 153.834 306.661 153.866C306.65 153.897 306.644 153.931 306.644 153.968C306.644 154.004 306.65 154.038 306.661 154.069C306.673 154.1 306.691 154.126 306.715 154.145C306.739 154.164 306.77 154.174 306.807 154.174ZM307.266 153.909V154.238H307.182V153.692H307.263V153.777H307.27C307.283 153.75 307.303 153.727 307.329 153.711C307.355 153.694 307.388 153.685 307.429 153.685C307.466 153.685 307.499 153.693 307.526 153.708C307.554 153.723 307.576 153.745 307.591 153.776C307.606 153.806 307.614 153.845 307.614 153.891V154.238H307.53V153.897C307.53 153.854 307.519 153.82 307.497 153.796C307.475 153.772 307.444 153.76 307.405 153.76C307.379 153.76 307.355 153.766 307.334 153.778C307.313 153.789 307.296 153.806 307.284 153.828C307.272 153.851 307.266 153.878 307.266 153.909ZM308.132 153.909V154.238H308.049V153.51H308.132V153.777H308.139C308.152 153.749 308.171 153.727 308.197 153.71C308.223 153.693 308.257 153.685 308.3 153.685C308.337 153.685 308.37 153.692 308.398 153.707C308.426 153.722 308.447 153.745 308.463 153.775C308.478 153.805 308.486 153.844 308.486 153.891V154.238H308.402V153.897C308.402 153.853 308.391 153.82 308.368 153.796C308.346 153.772 308.315 153.76 308.276 153.76C308.248 153.76 308.224 153.766 308.202 153.778C308.18 153.789 308.163 153.806 308.151 153.828C308.139 153.851 308.132 153.878 308.132 153.909ZM308.861 154.249C308.812 154.249 308.769 154.237 308.731 154.214C308.694 154.19 308.666 154.158 308.645 154.115C308.624 154.073 308.614 154.024 308.614 153.968C308.614 153.911 308.624 153.861 308.645 153.819C308.666 153.776 308.694 153.744 308.731 153.72C308.769 153.697 308.812 153.685 308.861 153.685C308.91 153.685 308.953 153.697 308.99 153.72C309.027 153.744 309.056 153.776 309.077 153.819C309.098 153.861 309.108 153.911 309.108 153.968C309.108 154.024 309.098 154.073 309.077 154.115C309.056 154.158 309.027 154.19 308.99 154.214C308.953 154.237 308.91 154.249 308.861 154.249ZM308.861 154.174C308.898 154.174 308.929 154.164 308.953 154.145C308.977 154.126 308.995 154.1 309.007 154.069C309.019 154.038 309.024 154.004 309.024 153.968C309.024 153.931 309.019 153.897 309.007 153.866C308.995 153.834 308.977 153.809 308.953 153.789C308.929 153.77 308.898 153.76 308.861 153.76C308.824 153.76 308.793 153.77 308.769 153.789C308.744 153.809 308.727 153.834 308.715 153.866C308.703 153.897 308.698 153.931 308.698 153.968C308.698 154.004 308.703 154.038 308.715 154.069C308.727 154.1 308.744 154.126 308.769 154.145C308.793 154.164 308.824 154.174 308.861 154.174ZM309.341 154.238L309.175 153.692H309.263L309.381 154.11H309.387L309.503 153.692H309.592L309.708 154.108H309.713L309.831 153.692H309.919L309.753 154.238H309.671L309.551 153.819H309.543L309.423 154.238H309.341ZM310.548 153.692V153.763H310.266V153.692H310.548ZM310.348 153.561H310.432V154.081C310.432 154.105 310.435 154.123 310.442 154.135C310.449 154.146 310.458 154.154 310.469 154.158C310.48 154.162 310.492 154.164 310.504 154.164C310.514 154.164 310.521 154.163 310.527 154.162C310.533 154.161 310.538 154.16 310.541 154.159L310.558 154.235C310.553 154.237 310.545 154.239 310.535 154.241C310.524 154.243 310.512 154.245 310.496 154.245C310.472 154.245 310.449 154.24 310.426 154.229C310.404 154.219 310.385 154.204 310.37 154.183C310.356 154.162 310.348 154.136 310.348 154.104V153.561ZM310.89 154.249C310.841 154.249 310.798 154.237 310.761 154.214C310.724 154.19 310.695 154.158 310.674 154.115C310.653 154.073 310.643 154.024 310.643 153.968C310.643 153.911 310.653 153.861 310.674 153.819C310.695 153.776 310.724 153.744 310.761 153.72C310.798 153.697 310.841 153.685 310.89 153.685C310.939 153.685 310.983 153.697 311.02 153.72C311.057 153.744 311.086 153.776 311.106 153.819C311.127 153.861 311.137 153.911 311.137 153.968C311.137 154.024 311.127 154.073 311.106 154.115C311.086 154.158 311.057 154.19 311.02 154.214C310.983 154.237 310.939 154.249 310.89 154.249ZM310.89 154.174C310.928 154.174 310.958 154.164 310.983 154.145C311.007 154.126 311.025 154.1 311.036 154.069C311.048 154.038 311.054 154.004 311.054 153.968C311.054 153.931 311.048 153.897 311.036 153.866C311.025 153.834 311.007 153.809 310.983 153.789C310.958 153.77 310.928 153.76 310.89 153.76C310.853 153.76 310.822 153.77 310.798 153.789C310.774 153.809 310.756 153.834 310.744 153.866C310.733 153.897 310.727 153.931 310.727 153.968C310.727 154.004 310.733 154.038 310.744 154.069C310.756 154.1 310.774 154.126 310.798 154.145C310.822 154.164 310.853 154.174 310.89 154.174ZM299.956 155.238V154.692H300.04V155.238H299.956ZM299.998 154.601C299.982 154.601 299.968 154.596 299.956 154.584C299.945 154.573 299.939 154.56 299.939 154.544C299.939 154.529 299.945 154.515 299.956 154.504C299.968 154.493 299.982 154.488 299.998 154.488C300.015 154.488 300.029 154.493 300.04 154.504C300.052 154.515 300.058 154.529 300.058 154.544C300.058 154.56 300.052 154.573 300.04 154.584C300.029 154.596 300.015 154.601 299.998 154.601ZM300.193 155.238V154.692H300.274V154.777H300.281C300.293 154.748 300.311 154.726 300.336 154.709C300.362 154.693 300.392 154.685 300.427 154.685C300.463 154.685 300.493 154.693 300.517 154.709C300.541 154.726 300.56 154.748 300.574 154.777H300.579C300.593 154.749 300.614 154.727 300.642 154.71C300.67 154.693 300.704 154.685 300.743 154.685C300.792 154.685 300.831 154.7 300.862 154.731C300.893 154.761 300.909 154.808 300.909 154.872V155.238H300.825V154.872C300.825 154.832 300.814 154.803 300.792 154.786C300.77 154.769 300.744 154.76 300.714 154.76C300.676 154.76 300.646 154.772 300.625 154.795C300.604 154.818 300.594 154.847 300.594 154.882V155.238H300.508V154.864C300.508 154.833 300.498 154.808 300.478 154.789C300.458 154.77 300.432 154.76 300.4 154.76C300.379 154.76 300.358 154.766 300.339 154.778C300.321 154.789 300.306 154.805 300.294 154.826C300.283 154.846 300.277 154.87 300.277 154.897V155.238H300.193ZM301.062 155.442V154.692H301.143V154.779H301.153C301.159 154.769 301.168 154.757 301.179 154.743C301.19 154.728 301.206 154.714 301.226 154.703C301.247 154.691 301.275 154.685 301.311 154.685C301.357 154.685 301.397 154.696 301.432 154.719C301.467 154.742 301.495 154.775 301.514 154.817C301.534 154.859 301.544 154.909 301.544 154.966C301.544 155.024 301.534 155.074 301.514 155.116C301.495 155.159 301.467 155.191 301.433 155.214C301.398 155.237 301.358 155.249 301.312 155.249C301.277 155.249 301.249 155.243 301.228 155.232C301.207 155.22 301.191 155.206 301.179 155.191C301.168 155.176 301.159 155.164 301.153 155.154H301.146V155.442H301.062ZM301.145 154.965C301.145 155.006 301.151 155.042 301.163 155.074C301.175 155.105 301.192 155.13 301.216 155.147C301.239 155.165 301.267 155.174 301.301 155.174C301.336 155.174 301.365 155.164 301.389 155.146C301.412 155.127 301.43 155.102 301.442 155.071C301.454 155.039 301.46 155.004 301.46 154.965C301.46 154.926 301.454 154.892 301.442 154.861C301.431 154.83 301.413 154.806 301.389 154.788C301.366 154.769 301.336 154.76 301.301 154.76C301.267 154.76 301.238 154.769 301.215 154.786C301.192 154.803 301.174 154.827 301.162 154.858C301.151 154.888 301.145 154.924 301.145 154.965ZM301.672 155.238V154.692H301.753V154.774H301.758C301.768 154.747 301.786 154.726 301.812 154.709C301.838 154.692 301.868 154.684 301.9 154.684C301.906 154.684 301.914 154.684 301.923 154.684C301.933 154.684 301.94 154.685 301.944 154.685V154.77C301.941 154.77 301.935 154.768 301.925 154.767C301.915 154.765 301.904 154.765 301.893 154.765C301.867 154.765 301.843 154.77 301.822 154.781C301.802 154.792 301.785 154.807 301.773 154.827C301.761 154.846 301.755 154.868 301.755 154.892V155.238H301.672ZM302.249 155.249C302.199 155.249 302.156 155.237 302.119 155.214C302.082 155.19 302.053 155.158 302.032 155.115C302.012 155.073 302.001 155.024 302.001 154.968C302.001 154.911 302.012 154.861 302.032 154.819C302.053 154.776 302.082 154.744 302.119 154.72C302.156 154.697 302.199 154.685 302.249 154.685C302.298 154.685 302.341 154.697 302.378 154.72C302.415 154.744 302.444 154.776 302.465 154.819C302.485 154.861 302.496 154.911 302.496 154.968C302.496 155.024 302.485 155.073 302.465 155.115C302.444 155.158 302.415 155.19 302.378 155.214C302.341 155.237 302.298 155.249 302.249 155.249ZM302.249 155.174C302.286 155.174 302.317 155.164 302.341 155.145C302.365 155.126 302.383 155.1 302.395 155.069C302.406 155.038 302.412 155.004 302.412 154.968C302.412 154.931 302.406 154.897 302.395 154.866C302.383 154.834 302.365 154.809 302.341 154.789C302.317 154.77 302.286 154.76 302.249 154.76C302.211 154.76 302.18 154.77 302.156 154.789C302.132 154.809 302.114 154.834 302.103 154.866C302.091 154.897 302.085 154.931 302.085 154.968C302.085 155.004 302.091 155.038 302.103 155.069C302.114 155.1 302.132 155.126 302.156 155.145C302.18 155.164 302.211 155.174 302.249 155.174ZM303.05 154.692L302.849 155.238H302.763L302.562 154.692H302.653L302.803 155.127H302.809L302.959 154.692H303.05ZM303.37 155.249C303.317 155.249 303.272 155.237 303.234 155.214C303.196 155.191 303.167 155.158 303.146 155.116C303.126 155.074 303.116 155.025 303.116 154.969C303.116 154.913 303.126 154.864 303.146 154.821C303.167 154.779 303.196 154.745 303.232 154.721C303.269 154.697 303.312 154.685 303.361 154.685C303.39 154.685 303.418 154.69 303.446 154.699C303.473 154.709 303.499 154.724 303.521 154.745C303.544 154.766 303.562 154.794 303.576 154.829C303.589 154.864 303.596 154.907 303.596 154.958V154.993H303.175V154.921H303.511C303.511 154.89 303.504 154.863 303.492 154.838C303.48 154.814 303.463 154.795 303.44 154.781C303.418 154.767 303.392 154.76 303.361 154.76C303.328 154.76 303.299 154.769 303.275 154.785C303.251 154.801 303.232 154.823 303.219 154.849C303.206 154.875 303.2 154.904 303.2 154.934V154.982C303.2 155.023 303.207 155.058 303.221 155.087C303.235 155.115 303.255 155.137 303.281 155.152C303.306 155.166 303.336 155.174 303.37 155.174C303.392 155.174 303.412 155.171 303.43 155.164C303.448 155.158 303.463 155.149 303.476 155.136C303.489 155.123 303.499 155.107 303.506 155.088L303.587 155.111C303.579 155.139 303.564 155.163 303.544 155.184C303.524 155.204 303.499 155.22 303.47 155.232C303.44 155.243 303.407 155.249 303.37 155.249ZM304.059 155.442C304.044 155.442 304.032 155.441 304.021 155.439C304.009 155.436 304.002 155.434 303.997 155.432L304.019 155.358C304.039 155.363 304.057 155.365 304.073 155.364C304.088 155.363 304.102 155.356 304.114 155.343C304.127 155.331 304.138 155.311 304.148 155.283L304.164 155.24L303.962 154.692H304.053L304.203 155.127H304.209L304.36 154.692H304.451L304.219 155.317C304.209 155.345 304.196 155.369 304.18 155.387C304.165 155.406 304.147 155.42 304.127 155.429C304.107 155.438 304.084 155.442 304.059 155.442ZM304.763 155.249C304.714 155.249 304.671 155.237 304.634 155.214C304.597 155.19 304.568 155.158 304.547 155.115C304.526 155.073 304.516 155.024 304.516 154.968C304.516 154.911 304.526 154.861 304.547 154.819C304.568 154.776 304.597 154.744 304.634 154.72C304.671 154.697 304.714 154.685 304.763 154.685C304.813 154.685 304.856 154.697 304.893 154.72C304.93 154.744 304.959 154.776 304.979 154.819C305 154.861 305.01 154.911 305.01 154.968C305.01 155.024 305 155.073 304.979 155.115C304.959 155.158 304.93 155.19 304.893 155.214C304.856 155.237 304.813 155.249 304.763 155.249ZM304.763 155.174C304.801 155.174 304.831 155.164 304.856 155.145C304.88 155.126 304.898 155.1 304.909 155.069C304.921 155.038 304.927 155.004 304.927 154.968C304.927 154.931 304.921 154.897 304.909 154.866C304.898 154.834 304.88 154.809 304.856 154.789C304.831 154.77 304.801 154.76 304.763 154.76C304.726 154.76 304.695 154.77 304.671 154.789C304.647 154.809 304.629 154.834 304.617 154.866C304.606 154.897 304.6 154.931 304.6 154.968C304.6 155.004 304.606 155.038 304.617 155.069C304.629 155.1 304.647 155.126 304.671 155.145C304.695 155.164 304.726 155.174 304.763 155.174ZM305.482 155.015V154.692H305.566V155.238H305.482V155.145H305.476C305.464 155.173 305.444 155.196 305.417 155.216C305.39 155.235 305.356 155.245 305.315 155.245C305.28 155.245 305.25 155.237 305.224 155.222C305.197 155.207 305.176 155.184 305.161 155.154C305.146 155.124 305.138 155.085 305.138 155.039V154.692H305.222V155.033C305.222 155.073 305.233 155.104 305.256 155.128C305.278 155.152 305.307 155.164 305.342 155.164C305.362 155.164 305.384 155.158 305.405 155.148C305.427 155.137 305.445 155.121 305.46 155.099C305.475 155.077 305.482 155.049 305.482 155.015ZM305.719 155.238V154.692H305.8V154.774H305.806C305.816 154.747 305.834 154.726 305.86 154.709C305.886 154.692 305.915 154.684 305.948 154.684C305.954 154.684 305.962 154.684 305.971 154.684C305.98 154.684 305.987 154.685 305.992 154.685V154.77C305.989 154.77 305.983 154.768 305.973 154.767C305.963 154.765 305.952 154.765 305.941 154.765C305.915 154.765 305.891 154.77 305.87 154.781C305.849 154.792 305.833 154.807 305.821 154.827C305.809 154.846 305.803 154.868 305.803 154.892V155.238H305.719ZM306.759 154.814L306.684 154.836C306.679 154.823 306.672 154.811 306.663 154.799C306.654 154.787 306.642 154.777 306.626 154.769C306.61 154.761 306.59 154.757 306.566 154.757C306.533 154.757 306.505 154.765 306.482 154.781C306.46 154.796 306.449 154.815 306.449 154.838C306.449 154.859 306.457 154.876 306.472 154.888C306.487 154.9 306.511 154.91 306.543 154.918L306.624 154.938C306.673 154.95 306.709 154.968 306.733 154.992C306.757 155.016 306.769 155.047 306.769 155.086C306.769 155.117 306.76 155.145 306.742 155.169C306.724 155.194 306.699 155.213 306.668 155.228C306.636 155.242 306.598 155.249 306.556 155.249C306.5 155.249 306.454 155.237 306.418 155.213C306.381 155.189 306.358 155.153 306.349 155.107L306.428 155.087C306.436 155.116 306.45 155.138 306.471 155.153C306.492 155.168 306.52 155.175 306.555 155.175C306.594 155.175 306.625 155.167 306.648 155.15C306.671 155.133 306.682 155.113 306.682 155.09C306.682 155.071 306.676 155.055 306.663 155.042C306.649 155.029 306.629 155.02 306.601 155.013L306.511 154.992C306.461 154.98 306.424 154.962 306.4 154.937C306.377 154.912 306.366 154.88 306.366 154.843C306.366 154.812 306.374 154.785 306.392 154.761C306.409 154.737 306.433 154.719 306.463 154.705C306.493 154.692 306.528 154.685 306.566 154.685C306.62 154.685 306.662 154.697 306.693 154.721C306.724 154.744 306.746 154.775 306.759 154.814ZM307.117 155.249C307.066 155.249 307.022 155.237 306.985 155.213C306.948 155.189 306.919 155.155 306.899 155.113C306.88 155.071 306.87 155.022 306.87 154.968C306.87 154.912 306.88 154.863 306.9 154.821C306.921 154.778 306.949 154.745 306.986 154.721C307.023 154.697 307.066 154.685 307.115 154.685C307.154 154.685 307.188 154.692 307.219 154.706C307.25 154.721 307.275 154.74 307.295 154.766C307.314 154.792 307.327 154.821 307.331 154.855H307.247C307.241 154.831 307.227 154.809 307.205 154.789C307.183 154.77 307.154 154.76 307.117 154.76C307.084 154.76 307.055 154.769 307.031 154.786C307.006 154.803 306.987 154.826 306.974 154.857C306.96 154.888 306.953 154.924 306.953 154.965C306.953 155.007 306.96 155.044 306.973 155.075C306.987 155.106 307.006 155.13 307.03 155.148C307.055 155.165 307.084 155.174 307.117 155.174C307.139 155.174 307.158 155.17 307.176 155.162C307.194 155.155 307.209 155.144 307.221 155.13C307.234 155.115 307.242 155.098 307.247 155.078H307.331C307.327 155.111 307.315 155.14 307.296 155.165C307.278 155.191 307.253 155.211 307.223 155.227C307.192 155.241 307.157 155.249 307.117 155.249ZM307.675 155.249C307.626 155.249 307.583 155.237 307.546 155.214C307.509 155.19 307.48 155.158 307.459 155.115C307.439 155.073 307.428 155.024 307.428 154.968C307.428 154.911 307.439 154.861 307.459 154.819C307.48 154.776 307.509 154.744 307.546 154.72C307.583 154.697 307.626 154.685 307.675 154.685C307.725 154.685 307.768 154.697 307.805 154.72C307.842 154.744 307.871 154.776 307.891 154.819C307.912 154.861 307.923 154.911 307.923 154.968C307.923 155.024 307.912 155.073 307.891 155.115C307.871 155.158 307.842 155.19 307.805 155.214C307.768 155.237 307.725 155.249 307.675 155.249ZM307.675 155.174C307.713 155.174 307.744 155.164 307.768 155.145C307.792 155.126 307.81 155.1 307.821 155.069C307.833 155.038 307.839 155.004 307.839 154.968C307.839 154.931 307.833 154.897 307.821 154.866C307.81 154.834 307.792 154.809 307.768 154.789C307.744 154.77 307.713 154.76 307.675 154.76C307.638 154.76 307.607 154.77 307.583 154.789C307.559 154.809 307.541 154.834 307.529 154.866C307.518 154.897 307.512 154.931 307.512 154.968C307.512 155.004 307.518 155.038 307.529 155.069C307.541 155.1 307.559 155.126 307.583 155.145C307.607 155.164 307.638 155.174 307.675 155.174ZM308.05 155.238V154.692H308.131V154.774H308.137C308.147 154.747 308.165 154.726 308.191 154.709C308.217 154.692 308.247 154.684 308.279 154.684C308.285 154.684 308.293 154.684 308.302 154.684C308.312 154.684 308.318 154.685 308.323 154.685V154.77C308.32 154.77 308.314 154.768 308.304 154.767C308.294 154.765 308.283 154.765 308.272 154.765C308.246 154.765 308.222 154.77 308.201 154.781C308.18 154.792 308.164 154.807 308.152 154.827C308.14 154.846 308.134 154.868 308.134 154.892V155.238H308.05ZM308.635 155.249C308.582 155.249 308.537 155.237 308.499 155.214C308.461 155.191 308.432 155.158 308.411 155.116C308.391 155.074 308.38 155.025 308.38 154.969C308.38 154.913 308.391 154.864 308.411 154.821C308.432 154.779 308.46 154.745 308.497 154.721C308.534 154.697 308.577 154.685 308.626 154.685C308.655 154.685 308.683 154.69 308.71 154.699C308.738 154.709 308.763 154.724 308.786 154.745C308.809 154.766 308.827 154.794 308.84 154.829C308.854 154.864 308.861 154.907 308.861 154.958V154.993H308.44V154.921H308.775C308.775 154.89 308.769 154.863 308.757 154.838C308.745 154.814 308.727 154.795 308.705 154.781C308.683 154.767 308.656 154.76 308.626 154.76C308.593 154.76 308.564 154.769 308.539 154.785C308.515 154.801 308.497 154.823 308.484 154.849C308.471 154.875 308.464 154.904 308.464 154.934V154.982C308.464 155.023 308.471 155.058 308.486 155.087C308.5 155.115 308.52 155.137 308.546 155.152C308.571 155.166 308.601 155.174 308.635 155.174C308.657 155.174 308.677 155.171 308.694 155.164C308.712 155.158 308.728 155.149 308.741 155.136C308.754 155.123 308.764 155.107 308.771 155.088L308.852 155.111C308.843 155.139 308.829 155.163 308.809 155.184C308.789 155.204 308.764 155.22 308.734 155.232C308.705 155.243 308.672 155.249 308.635 155.249Z" fill="black"/>
<path d="M313.825 147.171C313.291 145.065 312.032 143.193 310.253 141.857C308.474 140.521 306.278 139.799 304.019 139.808C301.759 139.817 299.569 140.556 297.802 141.906C296.034 143.256 294.792 145.138 294.276 147.248L298.214 148.135C298.523 146.874 299.265 145.75 300.321 144.943C301.377 144.137 302.685 143.695 304.035 143.69C305.385 143.685 306.697 144.116 307.76 144.914C308.823 145.712 309.575 146.831 309.894 148.089L313.825 147.171Z" fill="#E9ECF1"/>
<path d="M301.116 140.365C299.46 140.843 297.965 141.717 296.78 142.899C295.595 144.081 294.761 145.532 294.359 147.107L298.264 147.977C298.504 147.036 299.003 146.17 299.711 145.463C300.419 144.757 301.311 144.235 302.301 143.949L301.116 140.365Z" fill="url(#paint24_linear_139_3260)"/>
<path d="M300.71 139.808L302.05 144.027" stroke="#D4D5E0" stroke-width="0.5" stroke-linecap="round"/>
<path d="M302.822 148.865C302.672 148.865 302.538 148.837 302.42 148.782C302.302 148.727 302.209 148.65 302.141 148.553C302.072 148.456 302.036 148.344 302.033 148.218H302.48C302.485 148.303 302.521 148.371 302.587 148.424C302.653 148.477 302.731 148.503 302.822 148.503C302.895 148.503 302.959 148.487 303.014 148.455C303.07 148.422 303.114 148.377 303.145 148.32C303.177 148.261 303.193 148.195 303.193 148.119C303.193 148.043 303.177 147.975 303.144 147.917C303.112 147.859 303.068 147.813 303.011 147.781C302.954 147.748 302.889 147.731 302.816 147.73C302.752 147.73 302.69 147.744 302.63 147.77C302.57 147.796 302.523 147.832 302.49 147.877L302.08 147.804L302.183 146.653H303.517V147.031H302.563L302.507 147.577H302.52C302.558 147.523 302.616 147.478 302.693 147.443C302.771 147.407 302.858 147.39 302.953 147.39C303.085 147.39 303.202 147.42 303.305 147.482C303.408 147.544 303.489 147.629 303.549 147.737C303.609 147.844 303.638 147.968 303.637 148.108C303.638 148.255 303.604 148.385 303.535 148.5C303.467 148.613 303.371 148.703 303.248 148.768C303.126 148.833 302.984 148.865 302.822 148.865ZM304.773 148.865C304.609 148.865 304.463 148.838 304.335 148.785C304.208 148.731 304.108 148.658 304.036 148.565C303.963 148.472 303.927 148.366 303.927 148.248C303.927 148.157 303.948 148.074 303.989 147.998C304.031 147.921 304.088 147.858 304.159 147.807C304.231 147.756 304.311 147.723 304.4 147.709V147.694C304.284 147.671 304.189 147.614 304.117 147.525C304.044 147.435 304.008 147.33 304.008 147.211C304.008 147.098 304.041 146.997 304.107 146.909C304.173 146.82 304.264 146.751 304.379 146.7C304.495 146.649 304.626 146.624 304.773 146.624C304.92 146.624 305.051 146.649 305.166 146.7C305.282 146.751 305.373 146.821 305.439 146.91C305.505 146.998 305.538 147.098 305.539 147.211C305.538 147.331 305.501 147.435 305.428 147.525C305.355 147.614 305.261 147.671 305.147 147.694V147.709C305.234 147.723 305.313 147.756 305.384 147.807C305.456 147.858 305.513 147.921 305.555 147.998C305.598 148.074 305.619 148.157 305.62 148.248C305.619 148.366 305.583 148.472 305.51 148.565C305.438 148.658 305.338 148.731 305.21 148.785C305.083 148.838 304.937 148.865 304.773 148.865ZM304.773 148.526C304.846 148.526 304.91 148.513 304.965 148.487C305.019 148.46 305.062 148.423 305.093 148.376C305.124 148.328 305.139 148.274 305.139 148.212C305.139 148.149 305.123 148.093 305.092 148.045C305.06 147.996 305.016 147.957 304.962 147.93C304.907 147.901 304.844 147.887 304.773 147.887C304.703 147.887 304.64 147.901 304.584 147.93C304.529 147.957 304.485 147.996 304.453 148.045C304.422 148.093 304.407 148.149 304.407 148.212C304.407 148.274 304.422 148.328 304.452 148.376C304.483 148.423 304.526 148.46 304.581 148.487C304.637 148.513 304.701 148.526 304.773 148.526ZM304.773 147.551C304.834 147.551 304.888 147.539 304.936 147.514C304.984 147.489 305.021 147.455 305.048 147.411C305.075 147.367 305.088 147.316 305.088 147.259C305.088 147.202 305.075 147.152 305.048 147.109C305.021 147.066 304.984 147.032 304.937 147.008C304.89 146.983 304.835 146.971 304.773 146.971C304.711 146.971 304.657 146.983 304.609 147.008C304.561 147.032 304.524 147.066 304.497 147.109C304.471 147.152 304.458 147.202 304.458 147.259C304.458 147.316 304.471 147.367 304.498 147.411C304.525 147.455 304.562 147.489 304.61 147.514C304.658 147.539 304.712 147.551 304.773 147.551Z" fill="#D3C1C1"/>
<path d="M205.65 149.09L205.192 150.158C204.405 151.992 204 153.972 204 155.967C204 159.844 207.143 163 211.019 163H267.69C272.832 163 277 158.832 277 153.69C275.518 154.385 274.088 153.93 272.883 153.049C270.749 151.49 268.134 150.172 265.62 150.986C263.591 151.643 261.367 151.057 259.925 149.486L259.387 148.9C257.789 147.159 255.391 146.391 253.079 146.878L249.712 147.588C248.445 147.855 247.124 147.623 246.024 146.942L245.857 146.838C243.552 145.41 240.524 146.154 239.144 148.488L237.052 152.025C236.312 153.276 234.543 153.385 233.655 152.234C233.191 151.631 232.433 151.335 231.683 151.462L230.386 151.683C228.986 151.921 227.56 151.442 226.586 150.408L225.691 149.458C224.534 148.23 222.682 147.965 221.228 148.818C219.843 149.631 218.089 149.434 216.92 148.334L215.532 147.029C212.416 144.1 207.336 145.159 205.65 149.09Z" fill="url(#paint25_linear_139_3260)"/>
<rect x="342.306" y="218" width="11.3951" height="16.7053" fill="#F2F2F3"/>
<rect x="279" y="218" width="12.0282" height="16.7053" fill="url(#paint26_linear_139_3260)"/>
<rect x="291.661" y="218" width="12.0282" height="16.7053" fill="url(#paint27_linear_139_3260)"/>
<rect x="304.322" y="218" width="12.0282" height="16.7053" fill="url(#paint28_linear_139_3260)"/>
<rect x="317.617" y="218" width="11.3951" height="16.7053" fill="url(#paint29_linear_139_3260)"/>
<rect x="329.645" y="218" width="12.0282" height="16.7053" fill="url(#paint30_linear_139_3260)"/>
<rect x="354.967" y="218" width="11.3951" height="16.7053" fill="url(#paint31_linear_139_3260)"/>
<path d="M284.064 230.097C284.396 227.825 285.947 223.42 289.585 221.79C290.693 221.294 291.975 221.29 293.124 221.684C293.551 221.83 293.991 222.029 294.441 222.32C296.763 223.821 298.482 226.025 301.144 225.275V225.275C302.028 225.025 303.517 224.597 304.414 224.799C305.46 225.035 306.842 225.616 309.332 226.963C311.796 228.297 314.613 229.948 317.18 228.824C317.22 228.807 317.26 228.789 317.301 228.77C317.866 228.447 319.063 227.315 320.263 226.102C321.908 224.439 324.267 223.663 326.556 224.141V224.141C328.13 224.47 329.77 224.216 331.17 223.426L331.975 222.971C334.751 221.404 338.238 221.93 340.429 224.246V224.246C342.021 225.929 344.348 226.707 346.632 226.32L346.881 226.278C349.183 225.888 351.535 226.645 353.619 227.697C355.402 228.596 357.801 229.457 360.665 229.777" stroke="#D3D8FB" stroke-width="0.5" stroke-linecap="round"/>
<defs>
<filter id="filter0_d_139_3260" x="174" y="108" width="212" height="144.531" filterUnits="userSpaceOnUse" color-interpolation-filters="sRGB">
<feFlood flood-opacity="0" result="BackgroundImageFix"/>
<feColorMatrix in="SourceAlpha" type="matrix" values="0 0 0 0 0 0 0 0 0 0 0 0 0 0 0 0 0 0 127 0" result="hardAlpha"/>
<feOffset dx="-7" dy="4"/>
<feGaussianBlur stdDeviation="2"/>
<feComposite in2="hardAlpha" operator="out"/>
<feColorMatrix type="matrix" values="0 0 0 0 0 0 0 0 0 0 0 0 0 0 0 0 0 0 0.25 0"/>
<feBlend mode="normal" in2="BackgroundImageFix" result="effect1_dropShadow_139_3260"/>
<feBlend mode="normal" in="SourceGraphic" in2="effect1_dropShadow_139_3260" result="shape"/>
</filter>
<linearGradient id="paint0_linear_139_3260" x1="340.329" y1="148.128" x2="340.329" y2="154.864" gradientUnits="userSpaceOnUse">
<stop stop-color="#EED5DB"/>
<stop offset="1" stop-color="#F1D1E6"/>
</linearGradient>
<linearGradient id="paint1_linear_139_3260" x1="340.329" y1="146.203" x2="340.329" y2="147.647" gradientUnits="userSpaceOnUse">
<stop stop-color="#F6E5EB"/>
<stop offset="1" stop-color="#D6CED0"/>
</linearGradient>
<linearGradient id="paint2_linear_139_3260" x1="342.364" y1="151.978" x2="342.364" y2="154.865" gradientUnits="userSpaceOnUse">
<stop stop-color="#EED5DB"/>
<stop offset="1" stop-color="#F1D1E6"/>
</linearGradient>
<linearGradient id="paint3_linear_139_3260" x1="342.364" y1="144.279" x2="342.364" y2="151.496" gradientUnits="userSpaceOnUse">
<stop stop-color="#F6E5EB"/>
<stop offset="1" stop-color="#D6CED0"/>
</linearGradient>
<linearGradient id="paint4_linear_139_3260" x1="344.499" y1="149.091" x2="344.499" y2="154.865" gradientUnits="userSpaceOnUse">
<stop stop-color="#EED5DB"/>
<stop offset="1" stop-color="#F1D1E6"/>
</linearGradient>
<linearGradient id="paint5_linear_139_3260" x1="344.499" y1="144.76" x2="344.499" y2="148.609" gradientUnits="userSpaceOnUse">
<stop stop-color="#F6E5EB"/>
<stop offset="1" stop-color="#D6CED0"/>
</linearGradient>
<linearGradient id="paint6_linear_139_3260" x1="346.635" y1="149.091" x2="346.635" y2="154.865" gradientUnits="userSpaceOnUse">
<stop stop-color="#EED5DB"/>
<stop offset="1" stop-color="#F1D1E6"/>
</linearGradient>
<linearGradient id="paint7_linear_139_3260" x1="346.635" y1="147.647" x2="346.635" y2="148.609" gradientUnits="userSpaceOnUse">
<stop stop-color="#F6E5EB"/>
<stop offset="1" stop-color="#D6CED0"/>
</linearGradient>
<linearGradient id="paint8_linear_139_3260" x1="348.771" y1="148.128" x2="348.771" y2="154.864" gradientUnits="userSpaceOnUse">
<stop stop-color="#EED5DB"/>
<stop offset="1" stop-color="#F1D1E6"/>
</linearGradient>
<linearGradient id="paint9_linear_139_3260" x1="348.771" y1="143.797" x2="348.771" y2="147.647" gradientUnits="userSpaceOnUse">
<stop stop-color="#F6E5EB"/>
<stop offset="1" stop-color="#D6CED0"/>
</linearGradient>
<linearGradient id="paint10_linear_139_3260" x1="350.907" y1="149.572" x2="350.907" y2="154.864" gradientUnits="userSpaceOnUse">
<stop stop-color="#EED5DB"/>
<stop offset="1" stop-color="#F1D1E6"/>
</linearGradient>
<linearGradient id="paint11_linear_139_3260" x1="350.907" y1="146.203" x2="350.907" y2="149.09" gradientUnits="userSpaceOnUse">
<stop stop-color="#F6E5EB"/>
<stop offset="1" stop-color="#D6CED0"/>
</linearGradient>
<linearGradient id="paint12_linear_139_3260" x1="353.042" y1="146.685" x2="353.042" y2="154.864" gradientUnits="userSpaceOnUse">
<stop stop-color="#EED5DB"/>
<stop offset="1" stop-color="#F1D1E6"/>
</linearGradient>
<linearGradient id="paint13_linear_139_3260" x1="353.042" y1="144.279" x2="353.042" y2="146.203" gradientUnits="userSpaceOnUse">
<stop stop-color="#F6E5EB"/>
<stop offset="1" stop-color="#D6CED0"/>
</linearGradient>
<linearGradient id="paint14_linear_139_3260" x1="355.077" y1="149.091" x2="355.077" y2="154.865" gradientUnits="userSpaceOnUse">
<stop stop-color="#EED5DB"/>
<stop offset="1" stop-color="#F1D1E6"/>
</linearGradient>
<linearGradient id="paint15_linear_139_3260" x1="355.077" y1="146.685" x2="355.077" y2="148.609" gradientUnits="userSpaceOnUse">
<stop stop-color="#F6E5EB"/>
<stop offset="1" stop-color="#D6CED0"/>
</linearGradient>
<linearGradient id="paint16_linear_139_3260" x1="357.212" y1="153.421" x2="357.212" y2="154.864" gradientUnits="userSpaceOnUse">
<stop stop-color="#EED5DB"/>
<stop offset="1" stop-color="#F1D1E6"/>
</linearGradient>
<linearGradient id="paint17_linear_139_3260" x1="357.212" y1="145.722" x2="357.212" y2="152.94" gradientUnits="userSpaceOnUse">
<stop stop-color="#F6E5EB"/>
<stop offset="1" stop-color="#D6CED0"/>
</linearGradient>
<linearGradient id="paint18_linear_139_3260" x1="359.246" y1="150.053" x2="359.246" y2="154.864" gradientUnits="userSpaceOnUse">
<stop stop-color="#EED5DB"/>
<stop offset="1" stop-color="#F1D1E6"/>
</linearGradient>
<linearGradient id="paint19_linear_139_3260" x1="359.246" y1="144.76" x2="359.246" y2="149.571" gradientUnits="userSpaceOnUse">
<stop stop-color="#F6E5EB"/>
<stop offset="1" stop-color="#D6CED0"/>
</linearGradient>
<linearGradient id="paint20_linear_139_3260" x1="361.077" y1="151.015" x2="361.077" y2="154.864" gradientUnits="userSpaceOnUse">
<stop stop-color="#EED5DB"/>
<stop offset="1" stop-color="#F1D1E6"/>
</linearGradient>
<linearGradient id="paint21_linear_139_3260" x1="361.077" y1="146.685" x2="361.077" y2="150.534" gradientUnits="userSpaceOnUse">
<stop stop-color="#F6E5EB"/>
<stop offset="1" stop-color="#D6CED0"/>
</linearGradient>
<linearGradient id="paint22_linear_139_3260" x1="363.01" y1="151.015" x2="363.01" y2="154.864" gradientUnits="userSpaceOnUse">
<stop stop-color="#EED5DB"/>
<stop offset="1" stop-color="#F1D1E6"/>
</linearGradient>
<linearGradient id="paint23_linear_139_3260" x1="363.01" y1="142.835" x2="363.01" y2="150.534" gradientUnits="userSpaceOnUse">
<stop stop-color="#F6E5EB"/>
<stop offset="1" stop-color="#D6CED0"/>
</linearGradient>
<linearGradient id="paint24_linear_139_3260" x1="295.902" y1="147.234" x2="307.684" y2="140.699" gradientUnits="userSpaceOnUse">
<stop offset="0.158001" stop-color="#EBEBEB"/>
<stop offset="0.895779" stop-color="#B8B8BA"/>
</linearGradient>
<linearGradient id="paint25_linear_139_3260" x1="240.5" y1="141" x2="240.5" y2="163" gradientUnits="userSpaceOnUse">
<stop stop-color="#D5D9FF"/>
<stop offset="1" stop-color="#D9D9D9" stop-opacity="0"/>
</linearGradient>
<linearGradient id="paint26_linear_139_3260" x1="285.014" y1="218" x2="285.014" y2="234.705" gradientUnits="userSpaceOnUse">
<stop stop-color="#FFF4F4"/>
<stop offset="1" stop-color="#EBEDFC" stop-opacity="0.74"/>
</linearGradient>
<linearGradient id="paint27_linear_139_3260" x1="297.675" y1="218" x2="297.675" y2="234.705" gradientUnits="userSpaceOnUse">
<stop stop-color="#FFF4F4"/>
<stop offset="1" stop-color="#EBEDFC" stop-opacity="0.74"/>
</linearGradient>
<linearGradient id="paint28_linear_139_3260" x1="310.336" y1="218" x2="310.336" y2="234.705" gradientUnits="userSpaceOnUse">
<stop stop-color="#FFF4F4"/>
<stop offset="1" stop-color="#EBEDFC" stop-opacity="0.74"/>
</linearGradient>
<linearGradient id="paint29_linear_139_3260" x1="323.314" y1="218" x2="323.314" y2="234.705" gradientUnits="userSpaceOnUse">
<stop stop-color="#FFF4F4"/>
<stop offset="1" stop-color="#EBEDFC" stop-opacity="0.74"/>
</linearGradient>
<linearGradient id="paint30_linear_139_3260" x1="335.659" y1="218" x2="335.659" y2="234.705" gradientUnits="userSpaceOnUse">
<stop stop-color="#FFF4F4"/>
<stop offset="1" stop-color="#EBEDFC" stop-opacity="0.74"/>
</linearGradient>
<linearGradient id="paint31_linear_139_3260" x1="360.665" y1="218" x2="360.665" y2="234.705" gradientUnits="userSpaceOnUse">
<stop stop-color="#FFF4F4"/>
<stop offset="1" stop-color="#EBEDFC" stop-opacity="0.74"/>
</linearGradient>
</defs>
</svg>
