<svg width="129" height="160" viewBox="0 0 129 160" fill="none" xmlns="http://www.w3.org/2000/svg">
<g id="Icon">
<rect id="Background" y="160" width="160" height="129" rx="23" transform="rotate(-90 0 160)" fill="#BE3788"/>
<g id="Icon_2">
<path id="Vector" d="M81.6645 89.8633L72.9814 98.5198C71.8689 99.6283 70.3702 100.247 68.7995 100.247H45.9226C42.6523 100.247 40 97.5918 40 94.3179V59.9291C40 56.6552 42.6523 54 45.9226 54H77.4826C80.7529 54 83.4052 56.6552 83.4052 59.9291V85.6614C83.4103 87.2391 82.782 88.7497 81.6645 89.8633Z" stroke="white" stroke-width="2.5" stroke-miterlimit="10"/>
<path id="Vector_2" d="M86.9281 95.3953L78.245 104.052C77.1326 105.16 75.6339 105.779 74.0631 105.779H51.1914C47.9211 105.779 45.2688 103.124 45.2688 99.8499V65.4611C45.2688 62.1872 47.9211 59.532 51.1914 59.532H82.7514C86.0217 59.532 88.674 62.1872 88.674 65.4611V91.1934C88.674 92.7711 88.0457 94.2817 86.9281 95.3953Z" fill="#E445A4"/>
<path id="Rectangle 297" d="M53.7258 73.5492C53.7258 72.9058 54.2474 72.3843 54.8908 72.3843H79.7427C80.386 72.3843 80.9076 72.9058 80.9076 73.5492C80.9076 74.1926 80.386 74.7141 79.7427 74.7141H54.8908C54.2474 74.7141 53.7258 74.1926 53.7258 73.5492Z" fill="white"/>
<path id="Rectangle 298" d="M53.7258 78.986C53.7258 78.3426 54.2474 77.821 54.8908 77.821H79.7427C80.386 77.821 80.9076 78.3426 80.9076 78.986C80.9076 79.6294 80.386 80.1509 79.7427 80.1509H54.8908C54.2474 80.1509 53.7258 79.6294 53.7258 78.986Z" fill="white"/>
<path id="Rectangle 299" d="M53.7258 84.4221C53.7258 83.7788 54.2474 83.2572 54.8908 83.2572H79.7427C80.386 83.2572 80.9076 83.7788 80.9076 84.4221C80.9076 85.0655 80.386 85.5871 79.7427 85.5871H54.8908C54.2474 85.5871 53.7258 85.0655 53.7258 84.4221Z" fill="white"/>
<path id="Rectangle 300" d="M53.7258 89.8584C53.7258 89.215 54.2474 88.6935 54.8908 88.6935H67.3167C67.9601 88.6935 68.4816 89.215 68.4816 89.8584C68.4816 90.5018 67.9601 91.0233 67.3167 91.0233H54.8908C54.2474 91.0233 53.7258 90.5018 53.7258 89.8584Z" fill="white"/>
</g>
</g>
</svg>
