<svg width="602" height="339" viewBox="0 0 602 339" fill="none" xmlns="http://www.w3.org/2000/svg">
<mask id="mask0_14_893" style="mask-type:alpha" maskUnits="userSpaceOnUse" x="0" y="0" width="602" height="339">
<rect width="602" height="339" rx="30" fill="#EAFFE9"/>
</mask>
<g mask="url(#mask0_14_893)">
<rect x="64" y="66" width="473" height="304" rx="30" fill="#A6DBD8"/>
<path d="M105 96C105 93.2386 107.239 91 110 91H224C226.761 91 229 93.2386 229 96V104C229 106.761 226.761 109 224 109H110C107.239 109 105 106.761 105 104V96Z" fill="#C8F1EF"/>
<path d="M105 124C105 121.239 107.239 119 110 119H224C226.761 119 229 121.239 229 124V337H105V124Z" fill="#C8F1EF"/>
<path d="M239 96C239 93.2386 241.239 91 244 91H500C502.761 91 505 93.2386 505 96V104C505 106.761 502.761 109 500 109H244C241.239 109 239 106.761 239 104V96Z" fill="#C8F1EF"/>
<path d="M239 124C239 121.239 241.239 119 244 119H340C342.761 119 345 121.239 345 124V166C345 168.761 342.761 171 340 171H244C241.239 171 239 168.761 239 166V124Z" fill="#C8F1EF"/>
<path d="M239 186C239 183.239 241.239 181 244 181H500C502.761 181 505 183.239 505 186V245C505 247.761 502.761 250 500 250H244C241.239 250 239 247.761 239 245V186Z" fill="#C8F1EF"/>
<path d="M239 263C239 260.239 241.239 258 244 258H424C426.761 258 429 260.239 429 263V322C429 324.761 426.761 327 424 327H244C241.239 327 239 324.761 239 322V263Z" fill="#C8F1EF"/>
<path d="M437 263C437 260.239 439.239 258 442 258H500C502.761 258 505 260.239 505 263V322C505 324.761 502.761 327 500 327H442C439.239 327 437 324.761 437 322V263Z" fill="#C8F1EF"/>
<path d="M353 124C353 121.239 355.239 119 358 119H500C502.761 119 505 121.239 505 124V166C505 168.761 502.761 171 500 171H358C355.239 171 353 168.761 353 166V124Z" fill="#C8F1EF"/>
<circle cx="308" cy="215" r="95" fill="#A6DBD8"/>
</g>
<g clip-path="url(#clip0_14_893)">
<path d="M323.308 210.02C326.878 212.169 330.249 213.435 333.421 213.821C336.594 214.206 338.652 213.613 339.598 212.042C340.543 210.471 340.102 208.374 338.277 205.752C336.451 203.13 333.752 200.744 330.182 198.596C326.612 196.448 323.241 195.181 320.069 194.796C316.897 194.411 314.838 195.003 313.893 196.574C312.947 198.145 313.388 200.242 315.214 202.864C317.04 205.487 319.738 207.872 323.308 210.02ZM321.16 213.591C322.135 214.178 323.416 214.811 325.003 215.489C326.589 216.167 328.196 216.689 329.823 217.053C331.452 217.417 332.972 217.53 334.385 217.392C335.797 217.254 336.819 216.66 337.449 215.612L335.301 219.182C334.671 220.23 333.649 220.823 332.236 220.962C330.823 221.101 329.303 220.988 327.675 220.623C326.046 220.259 324.439 219.738 322.854 219.06C321.268 218.383 319.987 217.749 319.011 217.161C318.035 216.574 316.877 215.738 315.536 214.655C314.194 213.572 312.981 212.396 311.895 211.128C310.81 209.859 309.998 208.569 309.459 207.256C308.919 205.943 308.965 204.763 309.596 203.715L311.744 200.145C311.114 201.192 311.068 202.372 311.607 203.686C312.146 204.999 312.958 206.29 314.043 207.558C315.127 208.826 316.341 210.002 317.683 211.086C319.025 212.17 320.184 213.005 321.16 213.591ZM316.863 220.731C317.839 221.318 319.12 221.951 320.706 222.629C322.292 223.307 323.899 223.829 325.526 224.193C327.155 224.557 328.676 224.67 330.088 224.532C331.5 224.394 332.522 223.801 333.153 222.752L331.004 226.323C330.374 227.37 329.353 227.963 327.94 228.102C326.527 228.242 325.006 228.129 323.378 227.763C321.749 227.399 320.142 226.878 318.557 226.201C316.972 225.523 315.691 224.89 314.715 224.301C313.739 223.714 312.58 222.879 311.239 221.795C309.898 220.712 308.684 219.536 307.598 218.268C306.513 217 305.702 215.709 305.162 214.396C304.623 213.084 304.669 211.903 305.299 210.855L307.448 207.285C306.817 208.332 306.772 209.512 307.311 210.826C307.849 212.14 308.661 213.43 309.746 214.698C310.831 215.966 312.044 217.143 313.386 218.227C314.729 219.31 315.887 220.145 316.863 220.731Z" fill="#F8F8F8"/>
</g>
<path d="M355.951 239.547C353.697 237.504 350.184 237.637 347.816 239.547L330.171 253.659C328.013 255.397 325.32 256.332 322.532 256.332H299.942C298.261 256.332 296.886 254.957 296.886 253.277C296.886 251.596 298.261 250.222 299.942 250.222H314.894C317.93 250.222 320.756 248.14 321.253 245.142C321.883 241.323 318.942 238 315.219 238H284.665C279.509 238 274.525 239.776 270.514 243.022L261.635 250.222H251.055C249.375 250.222 248 251.596 248 253.277V271.609C248 273.29 249.375 274.665 251.055 274.665H319.191C321.959 274.665 324.652 273.729 326.829 271.991L355.702 248.885C358.605 246.574 358.834 242.144 355.951 239.547Z" fill="#F8F8F8"/>
<defs>
<clipPath id="clip0_14_893">
<rect width="40" height="40" fill="white" transform="translate(315.624 184) rotate(31.0368)"/>
</clipPath>
</defs>
</svg>
