<svg width="36" height="38" viewBox="0 0 36 38" fill="none" xmlns="http://www.w3.org/2000/svg">
<path opacity="0.5" d="M4.52672 27.282V25.8274H4.70286V26.4752H5.47843V25.8274H5.65456V27.282H5.47843V26.6314H4.70286V27.282H4.52672ZM6.44185 27.3047C6.33674 27.3047 6.24606 27.2815 6.16983 27.2351C6.09408 27.1882 6.0356 27.1229 5.99441 27.0391C5.95369 26.9548 5.93333 26.8568 5.93333 26.7451C5.93333 26.6333 5.95369 26.5348 5.99441 26.4496C6.0356 26.3639 6.09289 26.2971 6.16628 26.2493C6.24015 26.201 6.32632 26.1769 6.4248 26.1769C6.48162 26.1769 6.53773 26.1863 6.59313 26.2053C6.64853 26.2242 6.69895 26.255 6.74441 26.2976C6.78986 26.3397 6.82608 26.3956 6.85307 26.4652C6.88006 26.5348 6.89355 26.6205 6.89355 26.7223V26.7933H6.05265V26.6485H6.7231C6.7231 26.5869 6.71079 26.532 6.68617 26.4837C6.66202 26.4354 6.62746 26.3973 6.58248 26.3693C6.53797 26.3414 6.48541 26.3274 6.4248 26.3274C6.35804 26.3274 6.30028 26.344 6.25151 26.3772C6.20321 26.4098 6.16605 26.4524 6.14 26.505C6.11396 26.5576 6.10094 26.6139 6.10094 26.674V26.7706C6.10094 26.853 6.11515 26.9228 6.14355 26.9801C6.17244 27.037 6.21245 27.0803 6.26358 27.1101C6.31472 27.1395 6.37414 27.1541 6.44185 27.1541C6.48588 27.1541 6.52566 27.148 6.56117 27.1357C6.59715 27.1229 6.62817 27.104 6.65421 27.0789C6.68025 27.0533 6.70037 27.0216 6.71458 26.9837L6.87651 27.0291C6.85946 27.0841 6.83082 27.1324 6.79057 27.174C6.75033 27.2152 6.70061 27.2474 6.64142 27.2706C6.58224 27.2933 6.51571 27.3047 6.44185 27.3047ZM7.14853 27.282V26.1911H7.31046V26.3558H7.32182C7.34171 26.3019 7.37769 26.2581 7.42978 26.2245C7.48186 26.1908 7.54057 26.174 7.60591 26.174C7.61822 26.174 7.63361 26.1743 7.65208 26.1747C7.67054 26.1752 7.68451 26.1759 7.69398 26.1769V26.3473C7.6883 26.3459 7.67528 26.3438 7.65492 26.3409C7.63503 26.3376 7.61396 26.336 7.59171 26.336C7.53868 26.336 7.49133 26.3471 7.44966 26.3693C7.40847 26.3911 7.3758 26.4214 7.35165 26.4602C7.32798 26.4986 7.31614 26.5424 7.31614 26.5916V27.282H7.14853ZM8.31685 27.3047C8.21174 27.3047 8.12106 27.2815 8.04483 27.2351C7.96908 27.1882 7.9106 27.1229 7.86941 27.0391C7.82869 26.9548 7.80833 26.8568 7.80833 26.7451C7.80833 26.6333 7.82869 26.5348 7.86941 26.4496C7.9106 26.3639 7.96789 26.2971 8.04128 26.2493C8.11515 26.201 8.20132 26.1769 8.2998 26.1769C8.35662 26.1769 8.41273 26.1863 8.46813 26.2053C8.52353 26.2242 8.57395 26.255 8.61941 26.2976C8.66486 26.3397 8.70108 26.3956 8.72807 26.4652C8.75506 26.5348 8.76855 26.6205 8.76855 26.7223V26.7933H7.92765V26.6485H8.5981C8.5981 26.5869 8.58579 26.532 8.56117 26.4837C8.53702 26.4354 8.50246 26.3973 8.45748 26.3693C8.41297 26.3414 8.36041 26.3274 8.2998 26.3274C8.23304 26.3274 8.17528 26.344 8.12651 26.3772C8.07821 26.4098 8.04105 26.4524 8.015 26.505C7.98896 26.5576 7.97594 26.6139 7.97594 26.674V26.7706C7.97594 26.853 7.99015 26.9228 8.01855 26.9801C8.04744 27.037 8.08745 27.0803 8.13858 27.1101C8.18972 27.1395 8.24914 27.1541 8.31685 27.1541C8.36088 27.1541 8.40066 27.148 8.43617 27.1357C8.47215 27.1229 8.50317 27.104 8.52921 27.0789C8.55525 27.0533 8.57537 27.0216 8.58958 26.9837L8.75151 27.0291C8.73446 27.0841 8.70582 27.1324 8.66557 27.174C8.62533 27.2152 8.57561 27.2474 8.51642 27.2706C8.45724 27.2933 8.39071 27.3047 8.31685 27.3047ZM9.90705 27.3076C9.83792 27.3076 9.77518 27.2945 9.71884 27.2685C9.66249 27.242 9.61775 27.2039 9.58461 27.1541C9.55146 27.104 9.53489 27.0433 9.53489 26.9723C9.53489 26.9098 9.5472 26.8592 9.57182 26.8203C9.59644 26.781 9.62935 26.7503 9.67054 26.728C9.71174 26.7058 9.75719 26.6892 9.80691 26.6783C9.8571 26.6669 9.90752 26.6579 9.95819 26.6513C10.0245 26.6428 10.0782 26.6364 10.1194 26.6321C10.1611 26.6274 10.1914 26.6196 10.2103 26.6087C10.2297 26.5978 10.2394 26.5789 10.2394 26.5519V26.5462C10.2394 26.4761 10.2203 26.4217 10.1819 26.3828C10.144 26.344 10.0865 26.3246 10.0093 26.3246C9.9293 26.3246 9.86657 26.3421 9.82111 26.3772C9.77566 26.4122 9.7437 26.4496 9.72523 26.4894L9.56614 26.4326C9.59455 26.3663 9.63243 26.3147 9.67978 26.2777C9.7276 26.2403 9.77968 26.2143 9.83603 26.1996C9.89284 26.1844 9.94872 26.1769 10.0036 26.1769C10.0387 26.1769 10.0789 26.1811 10.1244 26.1897C10.1703 26.1977 10.2146 26.2145 10.2572 26.2401C10.3003 26.2656 10.336 26.3042 10.3644 26.3558C10.3928 26.4075 10.407 26.4766 10.407 26.5632V27.282H10.2394V27.1343H10.2309C10.2195 27.1579 10.2006 27.1833 10.1741 27.2102C10.1476 27.2372 10.1123 27.2602 10.0683 27.2791C10.0242 27.2981 9.9705 27.3076 9.90705 27.3076ZM9.93262 27.157C9.99891 27.157 10.0548 27.144 10.1002 27.1179C10.1462 27.0919 10.1807 27.0583 10.2039 27.0171C10.2276 26.9759 10.2394 26.9326 10.2394 26.8871V26.7337C10.2323 26.7422 10.2167 26.75 10.1926 26.7571C10.1689 26.7638 10.1414 26.7697 10.1102 26.7749C10.0794 26.7796 10.0493 26.7839 10.02 26.7877C9.99109 26.791 9.96766 26.7938 9.94966 26.7962C9.9061 26.8019 9.86538 26.8111 9.8275 26.8239C9.7901 26.8362 9.7598 26.8549 9.73659 26.88C9.71387 26.9046 9.7025 26.9382 9.7025 26.9808C9.7025 27.0391 9.72405 27.0831 9.76713 27.1129C9.81069 27.1423 9.86586 27.157 9.93262 27.157ZM10.713 27.282V26.1911H10.8749V26.3558H10.8863C10.9062 26.3019 10.9421 26.2581 10.9942 26.2245C11.0463 26.1908 11.105 26.174 11.1704 26.174C11.1827 26.174 11.1981 26.1743 11.2165 26.1747C11.235 26.1752 11.249 26.1759 11.2584 26.1769V26.3473C11.2528 26.3459 11.2397 26.3438 11.2194 26.3409C11.1995 26.3376 11.1784 26.336 11.1562 26.336C11.1031 26.336 11.0558 26.3471 11.0141 26.3693C10.9729 26.3911 10.9403 26.4214 10.9161 26.4602C10.8924 26.4986 10.8806 26.5424 10.8806 26.5916V27.282H10.713ZM11.8813 27.3047C11.7762 27.3047 11.6855 27.2815 11.6093 27.2351C11.5335 27.1882 11.4751 27.1229 11.4339 27.0391C11.3931 26.9548 11.3728 26.8568 11.3728 26.7451C11.3728 26.6333 11.3931 26.5348 11.4339 26.4496C11.4751 26.3639 11.5323 26.2971 11.6057 26.2493C11.6796 26.201 11.7658 26.1769 11.8643 26.1769C11.9211 26.1769 11.9772 26.1863 12.0326 26.2053C12.088 26.2242 12.1384 26.255 12.1839 26.2976C12.2293 26.3397 12.2655 26.3956 12.2925 26.4652C12.3195 26.5348 12.333 26.6205 12.333 26.7223V26.7933H11.4921V26.6485H12.1626C12.1626 26.5869 12.1502 26.532 12.1256 26.4837C12.1015 26.4354 12.0669 26.3973 12.0219 26.3693C11.9774 26.3414 11.9249 26.3274 11.8643 26.3274C11.7975 26.3274 11.7397 26.344 11.691 26.3772C11.6427 26.4098 11.6055 26.4524 11.5795 26.505C11.5534 26.5576 11.5404 26.6139 11.5404 26.674V26.7706C11.5404 26.853 11.5546 26.9228 11.583 26.9801C11.6119 27.037 11.6519 27.0803 11.703 27.1101C11.7542 27.1395 11.8136 27.1541 11.8813 27.1541C11.9253 27.1541 11.9651 27.148 12.0006 27.1357C12.0366 27.1229 12.0676 27.104 12.0937 27.0789C12.1197 27.0533 12.1398 27.0216 12.154 26.9837L12.316 27.0291C12.2989 27.0841 12.2703 27.1324 12.23 27.174C12.1898 27.2152 12.1401 27.2474 12.0809 27.2706C12.0217 27.2933 11.9552 27.3047 11.8813 27.3047ZM13.9232 26.4354L13.7726 26.478C13.7632 26.4529 13.7492 26.4285 13.7307 26.4049C13.7127 26.3807 13.6881 26.3608 13.6569 26.3452C13.6256 26.3296 13.5856 26.3218 13.5368 26.3218C13.4701 26.3218 13.4144 26.3371 13.3699 26.3679C13.3259 26.3982 13.3039 26.4368 13.3039 26.4837C13.3039 26.5254 13.319 26.5583 13.3493 26.5824C13.3796 26.6066 13.427 26.6267 13.4914 26.6428L13.6533 26.6826C13.7509 26.7062 13.8235 26.7424 13.8714 26.7912C13.9192 26.8395 13.9431 26.9018 13.9431 26.978C13.9431 27.0405 13.9251 27.0964 13.8891 27.1456C13.8536 27.1949 13.8039 27.2337 13.74 27.2621C13.676 27.2905 13.6017 27.3047 13.517 27.3047C13.4057 27.3047 13.3136 27.2806 13.2407 27.2323C13.1678 27.184 13.1216 27.1134 13.1022 27.0206L13.2613 26.9808C13.2764 27.0396 13.3051 27.0836 13.3472 27.1129C13.3898 27.1423 13.4455 27.157 13.5141 27.157C13.5922 27.157 13.6543 27.1404 13.7002 27.1073C13.7466 27.0736 13.7698 27.0334 13.7698 26.9865C13.7698 26.9486 13.7565 26.9169 13.73 26.8914C13.7035 26.8653 13.6628 26.8459 13.6079 26.8331L13.426 26.7905C13.3261 26.7668 13.2528 26.7301 13.2059 26.6804C13.1595 26.6302 13.1363 26.5675 13.1363 26.4922C13.1363 26.4307 13.1536 26.3762 13.1881 26.3289C13.2232 26.2815 13.2707 26.2443 13.3309 26.2174C13.3915 26.1904 13.4601 26.1769 13.5368 26.1769C13.6448 26.1769 13.7296 26.2005 13.7911 26.2479C13.8531 26.2952 13.8972 26.3577 13.9232 26.4354ZM14.6386 27.3047C14.5401 27.3047 14.4537 27.2813 14.3794 27.2344C14.3055 27.1875 14.2477 27.1219 14.2061 27.0377C14.1649 26.9534 14.1443 26.8549 14.1443 26.7422C14.1443 26.6286 14.1649 26.5294 14.2061 26.4446C14.2477 26.3599 14.3055 26.2941 14.3794 26.2472C14.4537 26.2003 14.5401 26.1769 14.6386 26.1769C14.7371 26.1769 14.8232 26.2003 14.8971 26.2472C14.9714 26.2941 15.0292 26.3599 15.0704 26.4446C15.1121 26.5294 15.1329 26.6286 15.1329 26.7422C15.1329 26.8549 15.1121 26.9534 15.0704 27.0377C15.0292 27.1219 14.9714 27.1875 14.8971 27.2344C14.8232 27.2813 14.7371 27.3047 14.6386 27.3047ZM14.6386 27.1541C14.7134 27.1541 14.7749 27.135 14.8232 27.0966C14.8715 27.0583 14.9073 27.0078 14.9305 26.9453C14.9537 26.8828 14.9653 26.8151 14.9653 26.7422C14.9653 26.6693 14.9537 26.6013 14.9305 26.5384C14.9073 26.4754 14.8715 26.4245 14.8232 26.3857C14.7749 26.3468 14.7134 26.3274 14.6386 26.3274C14.5638 26.3274 14.5022 26.3468 14.4539 26.3857C14.4056 26.4245 14.3699 26.4754 14.3467 26.5384C14.3235 26.6013 14.3119 26.6693 14.3119 26.7422C14.3119 26.8151 14.3235 26.8828 14.3467 26.9453C14.3699 27.0078 14.4056 27.0583 14.4539 27.0966C14.5022 27.135 14.5638 27.1541 14.6386 27.1541ZM15.3888 27.282V26.1911H15.5507V26.3615H15.5649C15.5876 26.3033 15.6243 26.2581 15.675 26.2259C15.7256 26.1932 15.7865 26.1769 15.8575 26.1769C15.9295 26.1769 15.9894 26.1932 16.0372 26.2259C16.0855 26.2581 16.1231 26.3033 16.1501 26.3615H16.1615C16.1894 26.3052 16.2313 26.2604 16.2872 26.2273C16.3431 26.1937 16.4101 26.1769 16.4882 26.1769C16.5857 26.1769 16.6655 26.2074 16.7275 26.2685C16.7896 26.3291 16.8206 26.4236 16.8206 26.5519V27.282H16.653V26.5519C16.653 26.4714 16.6309 26.4138 16.5869 26.3793C16.5429 26.3447 16.491 26.3274 16.4314 26.3274C16.3547 26.3274 16.2952 26.3506 16.2531 26.397C16.211 26.443 16.1899 26.5012 16.1899 26.5718V27.282H16.0194V26.5348C16.0194 26.4728 15.9993 26.4228 15.9591 26.385C15.9188 26.3466 15.867 26.3274 15.8035 26.3274C15.76 26.3274 15.7193 26.339 15.6814 26.3622C15.644 26.3854 15.6137 26.4176 15.5905 26.4588C15.5677 26.4995 15.5564 26.5467 15.5564 26.6002V27.282H15.3888ZM17.5844 27.3047C17.4793 27.3047 17.3886 27.2815 17.3124 27.2351C17.2367 27.1882 17.1782 27.1229 17.137 27.0391C17.0963 26.9548 17.0759 26.8568 17.0759 26.7451C17.0759 26.6333 17.0963 26.5348 17.137 26.4496C17.1782 26.3639 17.2355 26.2971 17.3089 26.2493C17.3827 26.201 17.4689 26.1769 17.5674 26.1769C17.6242 26.1769 17.6803 26.1863 17.7357 26.2053C17.7911 26.2242 17.8415 26.255 17.887 26.2976C17.9324 26.3397 17.9687 26.3956 17.9956 26.4652C18.0226 26.5348 18.0361 26.6205 18.0361 26.7223V26.7933H17.1952V26.6485H17.8657C17.8657 26.5869 17.8534 26.532 17.8287 26.4837C17.8046 26.4354 17.77 26.3973 17.7251 26.3693C17.6805 26.3414 17.628 26.3274 17.5674 26.3274C17.5006 26.3274 17.4429 26.344 17.3941 26.3772C17.3458 26.4098 17.3086 26.4524 17.2826 26.505C17.2565 26.5576 17.2435 26.6139 17.2435 26.674V26.7706C17.2435 26.853 17.2577 26.9228 17.2861 26.9801C17.315 27.037 17.355 27.0803 17.4062 27.1101C17.4573 27.1395 17.5167 27.1541 17.5844 27.1541C17.6285 27.1541 17.6682 27.148 17.7037 27.1357C17.7397 27.1229 17.7707 27.104 17.7968 27.0789C17.8228 27.0533 17.843 27.0216 17.8572 26.9837L18.0191 27.0291C18.002 27.0841 17.9734 27.1324 17.9331 27.174C17.8929 27.2152 17.8432 27.2474 17.784 27.2706C17.7248 27.2933 17.6583 27.3047 17.5844 27.3047ZM19.328 26.1911V26.3331H18.7627V26.1911H19.328ZM18.9275 25.9297H19.0951V26.9695C19.0951 27.0168 19.1019 27.0523 19.1157 27.076C19.1299 27.0992 19.1479 27.1148 19.1697 27.1229C19.1919 27.1305 19.2153 27.1343 19.24 27.1343C19.2584 27.1343 19.2736 27.1333 19.2854 27.1314C19.2973 27.129 19.3067 27.1272 19.3138 27.1257L19.3479 27.2763C19.3366 27.2806 19.3207 27.2848 19.3003 27.2891C19.28 27.2938 19.2542 27.2962 19.2229 27.2962C19.1756 27.2962 19.1292 27.286 19.0837 27.2656C19.0387 27.2453 19.0013 27.2143 18.9715 27.1726C18.9421 27.1309 18.9275 27.0784 18.9275 27.0149V25.9297ZM19.5802 27.282V26.1911H19.7478V27.282H19.5802ZM19.6654 26.0093C19.6327 26.0093 19.6046 25.9981 19.5809 25.9759C19.5577 25.9536 19.5461 25.9269 19.5461 25.8956C19.5461 25.8644 19.5577 25.8376 19.5809 25.8154C19.6046 25.7931 19.6327 25.782 19.6654 25.782C19.6981 25.782 19.726 25.7931 19.7492 25.8154C19.7729 25.8376 19.7847 25.8644 19.7847 25.8956C19.7847 25.9269 19.7729 25.9536 19.7492 25.9759C19.726 25.9981 19.6981 26.0093 19.6654 26.0093ZM20.0548 27.6911V26.1911H20.2167V26.3644H20.2366C20.2489 26.3454 20.266 26.3213 20.2877 26.2919C20.31 26.2621 20.3417 26.2356 20.3829 26.2124C20.4246 26.1887 20.4809 26.1769 20.5519 26.1769C20.6438 26.1769 20.7248 26.1998 20.7948 26.2458C20.8649 26.2917 20.9196 26.3568 20.9589 26.4411C20.9982 26.5254 21.0178 26.6248 21.0178 26.7394C21.0178 26.8549 20.9982 26.955 20.9589 27.0398C20.9196 27.1241 20.8651 27.1894 20.7955 27.2358C20.7259 27.2817 20.6457 27.3047 20.5548 27.3047C20.4847 27.3047 20.4286 27.2931 20.3865 27.2699C20.3443 27.2462 20.3119 27.2195 20.2892 27.1897C20.2664 27.1593 20.2489 27.1343 20.2366 27.1144H20.2224V27.6911H20.0548ZM20.2195 26.7365C20.2195 26.8189 20.2316 26.8916 20.2558 26.9546C20.2799 27.0171 20.3152 27.0661 20.3616 27.1016C20.408 27.1366 20.4648 27.1541 20.532 27.1541C20.6021 27.1541 20.6606 27.1357 20.7075 27.0987C20.7548 27.0613 20.7903 27.0111 20.814 26.9482C20.8382 26.8847 20.8502 26.8142 20.8502 26.7365C20.8502 26.6598 20.8384 26.5907 20.8147 26.5291C20.7915 26.4671 20.7562 26.4181 20.7089 26.3821C20.662 26.3457 20.6031 26.3274 20.532 26.3274C20.4639 26.3274 20.4066 26.3447 20.3602 26.3793C20.3138 26.4134 20.2787 26.4612 20.2551 26.5227C20.2314 26.5838 20.2195 26.6551 20.2195 26.7365ZM22.0463 26.4354L21.8957 26.478C21.8862 26.4529 21.8722 26.4285 21.8538 26.4049C21.8358 26.3807 21.8112 26.3608 21.7799 26.3452C21.7487 26.3296 21.7087 26.3218 21.6599 26.3218C21.5931 26.3218 21.5375 26.3371 21.493 26.3679C21.449 26.3982 21.4269 26.4368 21.4269 26.4837C21.4269 26.5254 21.4421 26.5583 21.4724 26.5824C21.5027 26.6066 21.55 26.6267 21.6144 26.6428L21.7764 26.6826C21.8739 26.7062 21.9466 26.7424 21.9944 26.7912C22.0422 26.8395 22.0661 26.9018 22.0661 26.978C22.0661 27.0405 22.0481 27.0964 22.0122 27.1456C21.9767 27.1949 21.9269 27.2337 21.863 27.2621C21.7991 27.2905 21.7248 27.3047 21.64 27.3047C21.5287 27.3047 21.4366 27.2806 21.3637 27.2323C21.2908 27.184 21.2446 27.1134 21.2252 27.0206L21.3843 26.9808C21.3995 27.0396 21.4281 27.0836 21.4703 27.1129C21.5129 27.1423 21.5685 27.157 21.6372 27.157C21.7153 27.157 21.7773 27.1404 21.8232 27.1073C21.8696 27.0736 21.8928 27.0334 21.8928 26.9865C21.8928 26.9486 21.8796 26.9169 21.8531 26.8914C21.8266 26.8653 21.7858 26.8459 21.7309 26.8331L21.5491 26.7905C21.4492 26.7668 21.3758 26.7301 21.3289 26.6804C21.2825 26.6302 21.2593 26.5675 21.2593 26.4922C21.2593 26.4307 21.2766 26.3762 21.3112 26.3289C21.3462 26.2815 21.3938 26.2443 21.4539 26.2174C21.5145 26.1904 21.5832 26.1769 21.6599 26.1769C21.7678 26.1769 21.8526 26.2005 21.9142 26.2479C21.9762 26.2952 22.0202 26.3577 22.0463 26.4354ZM23.3241 27.3047C23.2256 27.3047 23.1392 27.2813 23.0649 27.2344C22.991 27.1875 22.9333 27.1219 22.8916 27.0377C22.8504 26.9534 22.8298 26.8549 22.8298 26.7422C22.8298 26.6286 22.8504 26.5294 22.8916 26.4446C22.9333 26.3599 22.991 26.2941 23.0649 26.2472C23.1392 26.2003 23.2256 26.1769 23.3241 26.1769C23.4226 26.1769 23.5088 26.2003 23.5827 26.2472C23.657 26.2941 23.7148 26.3599 23.7559 26.4446C23.7976 26.5294 23.8184 26.6286 23.8184 26.7422C23.8184 26.8549 23.7976 26.9534 23.7559 27.0377C23.7148 27.1219 23.657 27.1875 23.5827 27.2344C23.5088 27.2813 23.4226 27.3047 23.3241 27.3047ZM23.3241 27.1541C23.3989 27.1541 23.4605 27.135 23.5088 27.0966C23.5571 27.0583 23.5928 27.0078 23.616 26.9453C23.6392 26.8828 23.6508 26.8151 23.6508 26.7422C23.6508 26.6693 23.6392 26.6013 23.616 26.5384C23.5928 26.4754 23.5571 26.4245 23.5088 26.3857C23.4605 26.3468 23.3989 26.3274 23.3241 26.3274C23.2493 26.3274 23.1878 26.3468 23.1395 26.3857C23.0912 26.4245 23.0554 26.4754 23.0322 26.5384C23.009 26.6013 22.9974 26.6693 22.9974 26.7422C22.9974 26.8151 23.009 26.8828 23.0322 26.9453C23.0554 27.0078 23.0912 27.0583 23.1395 27.0966C23.1878 27.135 23.2493 27.1541 23.3241 27.1541ZM24.2419 26.6257V27.282H24.0743V26.1911H24.2362V26.3615H24.2504C24.276 26.3061 24.3148 26.2616 24.3669 26.228C24.419 26.1939 24.4862 26.1769 24.5686 26.1769C24.6425 26.1769 24.7071 26.192 24.7625 26.2223C24.8179 26.2522 24.861 26.2976 24.8918 26.3587C24.9226 26.4193 24.9379 26.496 24.9379 26.5888V27.282H24.7703V26.6002C24.7703 26.5145 24.7481 26.4477 24.7036 26.3999C24.6591 26.3516 24.598 26.3274 24.5203 26.3274C24.4668 26.3274 24.419 26.339 24.3769 26.3622C24.3352 26.3854 24.3023 26.4193 24.2781 26.4638C24.254 26.5083 24.2419 26.5623 24.2419 26.6257ZM25.9743 26.6257V27.282H25.8067V25.8274H25.9743V26.3615H25.9885C26.0141 26.3052 26.0525 26.2604 26.1036 26.2273C26.1552 26.1937 26.2239 26.1769 26.3096 26.1769C26.3839 26.1769 26.449 26.1918 26.5049 26.2216C26.5608 26.251 26.6041 26.2962 26.6349 26.3573C26.6661 26.4179 26.6817 26.4951 26.6817 26.5888V27.282H26.5141V26.6002C26.5141 26.5135 26.4916 26.4465 26.4466 26.3992C26.4021 26.3513 26.3403 26.3274 26.2613 26.3274C26.2064 26.3274 26.1571 26.339 26.1135 26.3622C26.0705 26.3854 26.0364 26.4193 26.0113 26.4638C25.9867 26.5083 25.9743 26.5623 25.9743 26.6257ZM27.4316 27.3047C27.3331 27.3047 27.2467 27.2813 27.1723 27.2344C27.0985 27.1875 27.0407 27.1219 26.999 27.0377C26.9578 26.9534 26.9372 26.8549 26.9372 26.7422C26.9372 26.6286 26.9578 26.5294 26.999 26.4446C27.0407 26.3599 27.0985 26.2941 27.1723 26.2472C27.2467 26.2003 27.3331 26.1769 27.4316 26.1769C27.53 26.1769 27.6162 26.2003 27.6901 26.2472C27.7644 26.2941 27.8222 26.3599 27.8634 26.4446C27.905 26.5294 27.9259 26.6286 27.9259 26.7422C27.9259 26.8549 27.905 26.9534 27.8634 27.0377C27.8222 27.1219 27.7644 27.1875 27.6901 27.2344C27.6162 27.2813 27.53 27.3047 27.4316 27.3047ZM27.4316 27.1541C27.5064 27.1541 27.5679 27.135 27.6162 27.0966C27.6645 27.0583 27.7003 27.0078 27.7235 26.9453C27.7467 26.8828 27.7583 26.8151 27.7583 26.7422C27.7583 26.6693 27.7467 26.6013 27.7235 26.5384C27.7003 26.4754 27.6645 26.4245 27.6162 26.3857C27.5679 26.3468 27.5064 26.3274 27.4316 26.3274C27.3567 26.3274 27.2952 26.3468 27.2469 26.3857C27.1986 26.4245 27.1628 26.4754 27.1396 26.5384C27.1164 26.6013 27.1048 26.6693 27.1048 26.7422C27.1048 26.8151 27.1164 26.8828 27.1396 26.9453C27.1628 27.0078 27.1986 27.0583 27.2469 27.0966C27.2952 27.135 27.3567 27.1541 27.4316 27.1541ZM28.3918 27.282L28.0594 26.1911H28.2355L28.4713 27.0263H28.4827L28.7156 26.1911H28.8946L29.1247 27.0235H29.1361L29.3719 26.1911H29.548L29.2156 27.282H29.0509L28.8122 26.4439H28.7952L28.5566 27.282H28.3918ZM30.8066 26.1911V26.3331H30.2412V26.1911H30.8066ZM30.406 25.9297H30.5736V26.9695C30.5736 27.0168 30.5805 27.0523 30.5942 27.076C30.6084 27.0992 30.6264 27.1148 30.6482 27.1229C30.6704 27.1305 30.6939 27.1343 30.7185 27.1343C30.7369 27.1343 30.7521 27.1333 30.7639 27.1314C30.7758 27.129 30.7852 27.1272 30.7923 27.1257L30.8264 27.2763C30.8151 27.2806 30.7992 27.2848 30.7789 27.2891C30.7585 27.2938 30.7327 27.2962 30.7014 27.2962C30.6541 27.2962 30.6077 27.286 30.5622 27.2656C30.5173 27.2453 30.4798 27.2143 30.45 27.1726C30.4207 27.1309 30.406 27.0784 30.406 27.0149V25.9297ZM31.4901 27.3047C31.3917 27.3047 31.3052 27.2813 31.2309 27.2344C31.157 27.1875 31.0993 27.1219 31.0576 27.0377C31.0164 26.9534 30.9958 26.8549 30.9958 26.7422C30.9958 26.6286 31.0164 26.5294 31.0576 26.4446C31.0993 26.3599 31.157 26.2941 31.2309 26.2472C31.3052 26.2003 31.3917 26.1769 31.4901 26.1769C31.5886 26.1769 31.6748 26.2003 31.7487 26.2472C31.823 26.2941 31.8808 26.3599 31.922 26.4446C31.9636 26.5294 31.9845 26.6286 31.9845 26.7422C31.9845 26.8549 31.9636 26.9534 31.922 27.0377C31.8808 27.1219 31.823 27.1875 31.7487 27.2344C31.6748 27.2813 31.5886 27.3047 31.4901 27.3047ZM31.4901 27.1541C31.565 27.1541 31.6265 27.135 31.6748 27.0966C31.7231 27.0583 31.7588 27.0078 31.782 26.9453C31.8052 26.8828 31.8169 26.8151 31.8169 26.7422C31.8169 26.6693 31.8052 26.6013 31.782 26.5384C31.7588 26.4754 31.7231 26.4245 31.6748 26.3857C31.6265 26.3468 31.565 26.3274 31.4901 26.3274C31.4153 26.3274 31.3538 26.3468 31.3055 26.3857C31.2572 26.4245 31.2214 26.4754 31.1982 26.5384C31.175 26.6013 31.1634 26.6693 31.1634 26.7422C31.1634 26.8151 31.175 26.8828 31.1982 26.9453C31.2214 27.0078 31.2572 27.0583 31.3055 27.0966C31.3538 27.135 31.4153 27.1541 31.4901 27.1541ZM9.62118 29.282V28.1911H9.7888V29.282H9.62118ZM9.70641 28.0093C9.67374 28.0093 9.64557 27.9981 9.62189 27.9759C9.59869 27.9536 9.58709 27.9269 9.58709 27.8956C9.58709 27.8644 9.59869 27.8376 9.62189 27.8154C9.64557 27.7931 9.67374 27.782 9.70641 27.782C9.73908 27.782 9.76702 27.7931 9.79022 27.8154C9.81389 27.8376 9.82573 27.8644 9.82573 27.8956C9.82573 27.9269 9.81389 27.9536 9.79022 27.9759C9.76702 27.9981 9.73908 28.0093 9.70641 28.0093ZM10.0958 29.282V28.1911H10.2577V28.3615H10.2719C10.2947 28.3033 10.3314 28.2581 10.382 28.2259C10.4327 28.1932 10.4935 28.1769 10.5645 28.1769C10.6365 28.1769 10.6964 28.1932 10.7442 28.2259C10.7925 28.2581 10.8302 28.3033 10.8572 28.3615H10.8685C10.8965 28.3052 10.9384 28.2604 10.9942 28.2273C11.0501 28.1937 11.1171 28.1769 11.1952 28.1769C11.2928 28.1769 11.3725 28.2074 11.4346 28.2685C11.4966 28.3291 11.5276 28.4236 11.5276 28.5519V29.282H11.36V28.5519C11.36 28.4714 11.338 28.4138 11.2939 28.3793C11.2499 28.3447 11.1981 28.3274 11.1384 28.3274C11.0617 28.3274 11.0023 28.3506 10.9601 28.397C10.918 28.443 10.8969 28.5012 10.8969 28.5718V29.282H10.7265V28.5348C10.7265 28.4728 10.7064 28.4228 10.6661 28.385C10.6259 28.3466 10.574 28.3274 10.5106 28.3274C10.467 28.3274 10.4263 28.339 10.3884 28.3622C10.351 28.3854 10.3207 28.4176 10.2975 28.4588C10.2748 28.4995 10.2634 28.5467 10.2634 28.6002V29.282H10.0958ZM11.8341 29.6911V28.1911H11.996V28.3644H12.0159C12.0282 28.3454 12.0452 28.3213 12.067 28.2919C12.0893 28.2621 12.121 28.2356 12.1622 28.2124C12.2039 28.1887 12.2602 28.1769 12.3312 28.1769C12.4231 28.1769 12.5041 28.1998 12.5741 28.2458C12.6442 28.2917 12.6989 28.3568 12.7382 28.4411C12.7775 28.5254 12.7971 28.6248 12.7971 28.7394C12.7971 28.8549 12.7775 28.955 12.7382 29.0398C12.6989 29.1241 12.6444 29.1894 12.5748 29.2358C12.5052 29.2817 12.425 29.3047 12.3341 29.3047C12.264 29.3047 12.2079 29.2931 12.1657 29.2699C12.1236 29.2462 12.0912 29.2195 12.0684 29.1897C12.0457 29.1593 12.0282 29.1343 12.0159 29.1144H12.0017V29.6911H11.8341ZM11.9988 28.7365C11.9988 28.8189 12.0109 28.8916 12.0351 28.9546C12.0592 29.0171 12.0945 29.0661 12.1409 29.1016C12.1873 29.1366 12.2441 29.1541 12.3113 29.1541C12.3814 29.1541 12.4399 29.1357 12.4868 29.0987C12.5341 29.0613 12.5696 29.0111 12.5933 28.9482C12.6175 28.8847 12.6295 28.8142 12.6295 28.7365C12.6295 28.6598 12.6177 28.5907 12.594 28.5291C12.5708 28.4671 12.5355 28.4181 12.4882 28.3821C12.4413 28.3457 12.3824 28.3274 12.3113 28.3274C12.2432 28.3274 12.1859 28.3447 12.1395 28.3793C12.0931 28.4134 12.058 28.4612 12.0344 28.5227C12.0107 28.5838 11.9988 28.6551 11.9988 28.7365ZM13.0528 29.282V28.1911H13.2148V28.3558H13.2261C13.246 28.3019 13.282 28.2581 13.3341 28.2245C13.3862 28.1908 13.4449 28.174 13.5102 28.174C13.5225 28.174 13.5379 28.1743 13.5564 28.1747C13.5748 28.1752 13.5888 28.1759 13.5983 28.1769V28.3473C13.5926 28.3459 13.5796 28.3438 13.5592 28.3409C13.5393 28.3376 13.5183 28.336 13.496 28.336C13.443 28.336 13.3956 28.3471 13.354 28.3693C13.3128 28.3911 13.2801 28.4214 13.2559 28.4602C13.2323 28.4986 13.2204 28.5424 13.2204 28.5916V29.282H13.0528ZM14.2069 29.3047C14.1085 29.3047 14.022 29.2813 13.9477 29.2344C13.8738 29.1875 13.8161 29.1219 13.7744 29.0377C13.7332 28.9534 13.7126 28.8549 13.7126 28.7422C13.7126 28.6286 13.7332 28.5294 13.7744 28.4446C13.8161 28.3599 13.8738 28.2941 13.9477 28.2472C14.022 28.2003 14.1085 28.1769 14.2069 28.1769C14.3054 28.1769 14.3916 28.2003 14.4655 28.2472C14.5398 28.2941 14.5976 28.3599 14.6388 28.4446C14.6804 28.5294 14.7013 28.6286 14.7013 28.7422C14.7013 28.8549 14.6804 28.9534 14.6388 29.0377C14.5976 29.1219 14.5398 29.1875 14.4655 29.2344C14.3916 29.2813 14.3054 29.3047 14.2069 29.3047ZM14.2069 29.1541C14.2818 29.1541 14.3433 29.135 14.3916 29.0966C14.4399 29.0583 14.4756 29.0078 14.4988 28.9453C14.522 28.8828 14.5336 28.8151 14.5336 28.7422C14.5336 28.6693 14.522 28.6013 14.4988 28.5384C14.4756 28.4754 14.4399 28.4245 14.3916 28.3857C14.3433 28.3468 14.2818 28.3274 14.2069 28.3274C14.1321 28.3274 14.0706 28.3468 14.0223 28.3857C13.974 28.4245 13.9382 28.4754 13.915 28.5384C13.8918 28.6013 13.8802 28.6693 13.8802 28.7422C13.8802 28.8151 13.8918 28.8828 13.915 28.9453C13.9382 29.0078 13.974 29.0583 14.0223 29.0966C14.0706 29.135 14.1321 29.1541 14.2069 29.1541ZM15.8101 28.1911L15.4067 29.282H15.2362L14.8328 28.1911H15.0146L15.3158 29.0604H15.3271L15.6283 28.1911H15.8101ZM16.4497 29.3047C16.3445 29.3047 16.2539 29.2815 16.1776 29.2351C16.1019 29.1882 16.0434 29.1229 16.0022 29.0391C15.9615 28.9548 15.9411 28.8568 15.9411 28.7451C15.9411 28.6333 15.9615 28.5348 16.0022 28.4496C16.0434 28.3639 16.1007 28.2971 16.1741 28.2493C16.248 28.201 16.3341 28.1769 16.4326 28.1769C16.4894 28.1769 16.5455 28.1863 16.6009 28.2053C16.6563 28.2242 16.7068 28.255 16.7522 28.2976C16.7977 28.3397 16.8339 28.3956 16.8609 28.4652C16.8879 28.5348 16.9014 28.6205 16.9014 28.7223V28.7933H16.0605V28.6485H16.7309C16.7309 28.5869 16.7186 28.532 16.694 28.4837C16.6698 28.4354 16.6353 28.3973 16.5903 28.3693C16.5458 28.3414 16.4932 28.3274 16.4326 28.3274C16.3659 28.3274 16.3081 28.344 16.2593 28.3772C16.211 28.4098 16.1739 28.4524 16.1478 28.505C16.1218 28.5576 16.1088 28.6139 16.1088 28.674V28.7706C16.1088 28.853 16.123 28.9228 16.1514 28.9801C16.1802 29.037 16.2203 29.0803 16.2714 29.1101C16.3225 29.1395 16.382 29.1541 16.4497 29.1541C16.4937 29.1541 16.5335 29.148 16.569 29.1357C16.605 29.1229 16.636 29.104 16.662 29.0789C16.6881 29.0533 16.7082 29.0216 16.7224 28.9837L16.8843 29.0291C16.8673 29.0841 16.8386 29.1324 16.7984 29.174C16.7581 29.2152 16.7084 29.2474 16.6492 29.2706C16.5901 29.2933 16.5235 29.3047 16.4497 29.3047ZM17.8268 29.6911C17.7984 29.6911 17.7731 29.6887 17.7508 29.684C17.7285 29.6797 17.7132 29.6754 17.7046 29.6712L17.7472 29.5235C17.788 29.5339 17.824 29.5377 17.8552 29.5348C17.8865 29.532 17.9142 29.518 17.9383 29.4929C17.9629 29.4683 17.9854 29.4283 18.0058 29.3729L18.037 29.2877L17.6336 28.1911H17.8154L18.1166 29.0604H18.1279L18.4291 28.1911H18.6109L18.1478 29.4411C18.127 29.4974 18.1012 29.5441 18.0704 29.581C18.0396 29.6184 18.0039 29.6461 17.9632 29.6641C17.9229 29.6821 17.8775 29.6911 17.8268 29.6911ZM19.2362 29.3047C19.1378 29.3047 19.0513 29.2813 18.977 29.2344C18.9031 29.1875 18.8454 29.1219 18.8037 29.0377C18.7625 28.9534 18.7419 28.8549 18.7419 28.7422C18.7419 28.6286 18.7625 28.5294 18.8037 28.4446C18.8454 28.3599 18.9031 28.2941 18.977 28.2472C19.0513 28.2003 19.1378 28.1769 19.2362 28.1769C19.3347 28.1769 19.4209 28.2003 19.4948 28.2472C19.5691 28.2941 19.6269 28.3599 19.6681 28.4446C19.7097 28.5294 19.7306 28.6286 19.7306 28.7422C19.7306 28.8549 19.7097 28.9534 19.6681 29.0377C19.6269 29.1219 19.5691 29.1875 19.4948 29.2344C19.4209 29.2813 19.3347 29.3047 19.2362 29.3047ZM19.2362 29.1541C19.311 29.1541 19.3726 29.135 19.4209 29.0966C19.4692 29.0583 19.5049 29.0078 19.5281 28.9453C19.5513 28.8828 19.5629 28.8151 19.5629 28.7422C19.5629 28.6693 19.5513 28.6013 19.5281 28.5384C19.5049 28.4754 19.4692 28.4245 19.4209 28.3857C19.3726 28.3468 19.311 28.3274 19.2362 28.3274C19.1614 28.3274 19.0999 28.3468 19.0516 28.3857C19.0033 28.4245 18.9675 28.4754 18.9443 28.5384C18.9211 28.6013 18.9095 28.6693 18.9095 28.7422C18.9095 28.8151 18.9211 28.8828 18.9443 28.9453C18.9675 29.0078 19.0033 29.0583 19.0516 29.0966C19.0999 29.135 19.1614 29.1541 19.2362 29.1541ZM20.6739 28.836V28.1911H20.8415V29.282H20.6739V29.0973H20.6626C20.637 29.1527 20.5972 29.1998 20.5432 29.2387C20.4893 29.277 20.4211 29.2962 20.3387 29.2962C20.2705 29.2962 20.2099 29.2813 20.1569 29.2514C20.1038 29.2211 20.0622 29.1757 20.0319 29.1151C20.0016 29.054 19.9864 28.9771 19.9864 28.8843V28.1911H20.154V28.8729C20.154 28.9524 20.1763 29.0159 20.2208 29.0632C20.2658 29.1106 20.3231 29.1343 20.3927 29.1343C20.4343 29.1343 20.4767 29.1236 20.5198 29.1023C20.5634 29.081 20.5998 29.0483 20.6292 29.0043C20.659 28.9602 20.6739 28.9041 20.6739 28.836ZM21.1485 29.282V28.1911H21.3105V28.3558H21.3218C21.3417 28.3019 21.3777 28.2581 21.4298 28.2245C21.4819 28.1908 21.5406 28.174 21.6059 28.174C21.6182 28.174 21.6336 28.1743 21.6521 28.1747C21.6705 28.1752 21.6845 28.1759 21.694 28.1769V28.3473C21.6883 28.3459 21.6753 28.3438 21.6549 28.3409C21.635 28.3376 21.614 28.336 21.5917 28.336C21.5387 28.336 21.4913 28.3471 21.4497 28.3693C21.4085 28.3911 21.3758 28.4214 21.3517 28.4602C21.328 28.4986 21.3161 28.5424 21.3161 28.5916V29.282H21.1485ZM23.2279 28.4354L23.0773 28.478C23.0679 28.4529 23.0539 28.4285 23.0354 28.4049C23.0174 28.3807 22.9928 28.3608 22.9616 28.3452C22.9303 28.3296 22.8903 28.3218 22.8415 28.3218C22.7748 28.3218 22.7191 28.3371 22.6746 28.3679C22.6306 28.3982 22.6086 28.4368 22.6086 28.4837C22.6086 28.5254 22.6237 28.5583 22.654 28.5824C22.6843 28.6066 22.7317 28.6267 22.7961 28.6428L22.958 28.6826C23.0555 28.7062 23.1282 28.7424 23.176 28.7912C23.2239 28.8395 23.2478 28.9018 23.2478 28.978C23.2478 29.0405 23.2298 29.0964 23.1938 29.1456C23.1583 29.1949 23.1086 29.2337 23.0447 29.2621C22.9807 29.2905 22.9064 29.3047 22.8216 29.3047C22.7104 29.3047 22.6183 29.2806 22.5454 29.2323C22.4724 29.184 22.4263 29.1134 22.4069 29.0206L22.566 28.9808C22.5811 29.0396 22.6098 29.0836 22.6519 29.1129C22.6945 29.1423 22.7501 29.157 22.8188 29.157C22.8969 29.157 22.959 29.1404 23.0049 29.1073C23.0513 29.0736 23.0745 29.0334 23.0745 28.9865C23.0745 28.9486 23.0612 28.9169 23.0347 28.8914C23.0082 28.8653 22.9675 28.8459 22.9126 28.8331L22.7307 28.7905C22.6308 28.7668 22.5574 28.7301 22.5106 28.6804C22.4642 28.6302 22.441 28.5675 22.441 28.4922C22.441 28.4307 22.4582 28.3762 22.4928 28.3289C22.5278 28.2815 22.5754 28.2443 22.6356 28.2174C22.6962 28.1904 22.7648 28.1769 22.8415 28.1769C22.9495 28.1769 23.0342 28.2005 23.0958 28.2479C23.1578 28.2952 23.2019 28.3577 23.2279 28.4354ZM23.9433 29.3047C23.841 29.3047 23.7529 29.2806 23.6791 29.2323C23.6052 29.184 23.5484 29.1174 23.5086 29.0327C23.4688 28.9479 23.449 28.8511 23.449 28.7422C23.449 28.6314 23.4693 28.5336 23.51 28.4489C23.5512 28.3637 23.6085 28.2971 23.6819 28.2493C23.7558 28.201 23.8419 28.1769 23.9404 28.1769C24.0171 28.1769 24.0863 28.1911 24.1478 28.2195C24.2094 28.2479 24.2598 28.2877 24.2991 28.3388C24.3384 28.3899 24.3628 28.4496 24.3722 28.5178H24.2046C24.1919 28.4681 24.1634 28.424 24.1194 28.3857C24.0758 28.3468 24.0171 28.3274 23.9433 28.3274C23.8779 28.3274 23.8206 28.3445 23.7714 28.3786C23.7226 28.4122 23.6845 28.4598 23.657 28.5213C23.6301 28.5824 23.6166 28.6541 23.6166 28.7365C23.6166 28.8208 23.6298 28.8942 23.6563 28.9567C23.6833 29.0192 23.7212 29.0677 23.77 29.1023C23.8192 29.1369 23.877 29.1541 23.9433 29.1541C23.9868 29.1541 24.0264 29.1466 24.0619 29.1314C24.0974 29.1163 24.1275 29.0945 24.1521 29.0661C24.1767 29.0377 24.1942 29.0036 24.2046 28.9638H24.3722C24.3628 29.0282 24.3393 29.0862 24.3019 29.1378C24.265 29.1889 24.216 29.2297 24.1549 29.26C24.0943 29.2898 24.0238 29.3047 23.9433 29.3047ZM25.0605 29.3047C24.962 29.3047 24.8756 29.2813 24.8012 29.2344C24.7274 29.1875 24.6696 29.1219 24.6279 29.0377C24.5867 28.9534 24.5661 28.8549 24.5661 28.7422C24.5661 28.6286 24.5867 28.5294 24.6279 28.4446C24.6696 28.3599 24.7274 28.2941 24.8012 28.2472C24.8756 28.2003 24.962 28.1769 25.0605 28.1769C25.1589 28.1769 25.2451 28.2003 25.319 28.2472C25.3933 28.2941 25.4511 28.3599 25.4923 28.4446C25.5339 28.5294 25.5548 28.6286 25.5548 28.7422C25.5548 28.8549 25.5339 28.9534 25.4923 29.0377C25.4511 29.1219 25.3933 29.1875 25.319 29.2344C25.2451 29.2813 25.1589 29.3047 25.0605 29.3047ZM25.0605 29.1541C25.1353 29.1541 25.1968 29.135 25.2451 29.0966C25.2934 29.0583 25.3292 29.0078 25.3524 28.9453C25.3756 28.8828 25.3872 28.8151 25.3872 28.7422C25.3872 28.6693 25.3756 28.6013 25.3524 28.5384C25.3292 28.4754 25.2934 28.4245 25.2451 28.3857C25.1968 28.3468 25.1353 28.3274 25.0605 28.3274C24.9856 28.3274 24.9241 28.3468 24.8758 28.3857C24.8275 28.4245 24.7918 28.4754 24.7686 28.5384C24.7454 28.6013 24.7338 28.6693 24.7338 28.7422C24.7338 28.8151 24.7454 28.8828 24.7686 28.9453C24.7918 29.0078 24.8275 29.0583 24.8758 29.0966C24.9241 29.135 24.9856 29.1541 25.0605 29.1541ZM25.8106 29.282V28.1911H25.9726V28.3558H25.9839C26.0038 28.3019 26.0398 28.2581 26.0919 28.2245C26.144 28.1908 26.2027 28.174 26.268 28.174C26.2803 28.174 26.2957 28.1743 26.3142 28.1747C26.3327 28.1752 26.3466 28.1759 26.3561 28.1769V28.3473C26.3504 28.3459 26.3374 28.3438 26.317 28.3409C26.2971 28.3376 26.2761 28.336 26.2538 28.336C26.2008 28.336 26.1534 28.3471 26.1118 28.3693C26.0706 28.3911 26.0379 28.4214 26.0138 28.4602C25.9901 28.4986 25.9782 28.5424 25.9782 28.5916V29.282H25.8106ZM26.979 29.3047C26.8738 29.3047 26.7832 29.2815 26.7069 29.2351C26.6312 29.1882 26.5727 29.1229 26.5315 29.0391C26.4908 28.9548 26.4704 28.8568 26.4704 28.7451C26.4704 28.6333 26.4908 28.5348 26.5315 28.4496C26.5727 28.3639 26.63 28.2971 26.7034 28.2493C26.7773 28.201 26.8634 28.1769 26.9619 28.1769C27.0187 28.1769 27.0748 28.1863 27.1302 28.2053C27.1856 28.2242 27.2361 28.255 27.2815 28.2976C27.327 28.3397 27.3632 28.3956 27.3902 28.4652C27.4172 28.5348 27.4307 28.6205 27.4307 28.7223V28.7933H26.5898V28.6485H27.2602C27.2602 28.5869 27.2479 28.532 27.2233 28.4837C27.1991 28.4354 27.1646 28.3973 27.1196 28.3693C27.0751 28.3414 27.0225 28.3274 26.9619 28.3274C26.8952 28.3274 26.8374 28.344 26.7886 28.3772C26.7403 28.4098 26.7032 28.4524 26.6771 28.505C26.6511 28.5576 26.6381 28.6139 26.6381 28.674V28.7706C26.6381 28.853 26.6523 28.9228 26.6807 28.9801C26.7095 29.037 26.7496 29.0803 26.8007 29.1101C26.8518 29.1395 26.9113 29.1541 26.979 29.1541C27.023 29.1541 27.0628 29.148 27.0983 29.1357C27.1343 29.1229 27.1653 29.104 27.1913 29.0789C27.2174 29.0533 27.2375 29.0216 27.2517 28.9837L27.4136 29.0291C27.3966 29.0841 27.3679 29.1324 27.3277 29.174C27.2874 29.2152 27.2377 29.2474 27.1785 29.2706C27.1193 29.2933 27.0528 29.3047 26.979 29.3047Z" fill="black"/>
<path d="M32.5746 15.2166C31.7773 11.722 29.8994 8.61583 27.244 6.39936C24.5885 4.18289 21.3104 2.9854 17.9386 3.00013C14.5668 3.01486 11.2979 4.24095 8.6596 6.48055C6.02125 8.72014 4.16727 11.8426 3.39682 15.3441L9.27532 16.8158C9.73563 14.7238 10.8433 12.8583 12.4196 11.5202C13.9959 10.1822 15.9488 9.44967 17.9633 9.44087C19.9778 9.43207 21.9363 10.1475 23.5228 11.4717C25.1093 12.796 26.2313 14.6518 26.7076 16.7396L32.5746 15.2166Z" fill="#E9ECF1"/>
<path d="M13.6056 3.92416C11.1336 4.71755 8.90336 6.16652 7.13481 8.12819C5.36627 10.0899 4.12051 12.4965 3.52038 15.1107L9.34915 16.5544C9.70769 14.9925 10.452 13.5547 11.5086 12.3827C12.5652 11.2107 13.8977 10.345 15.3746 9.871L13.6056 3.92416Z" fill="url(#paint0_linear_269_1313)"/>
<path d="M13 3L15 10" stroke="#D4D5E0" stroke-width="0.5" stroke-linecap="round"/>
<path d="M16.3221 18.0497C16.0711 18.0497 15.8474 18.0036 15.6509 17.9112C15.4556 17.8189 15.3005 17.6916 15.1857 17.5295C15.0709 17.3673 15.0111 17.1815 15.0064 16.9719H15.7521C15.7604 17.1128 15.8196 17.227 15.9297 17.3146C16.0398 17.4022 16.1706 17.446 16.3221 17.446C16.4428 17.446 16.5494 17.4194 16.6417 17.3661C16.7352 17.3117 16.808 17.2365 16.8601 17.1406C16.9134 17.0436 16.94 16.9323 16.94 16.8068C16.94 16.679 16.9128 16.5665 16.8583 16.4695C16.805 16.3724 16.7311 16.2966 16.6364 16.2422C16.5417 16.1877 16.4334 16.1599 16.3114 16.1587C16.2049 16.1587 16.1013 16.1806 16.0007 16.2244C15.9013 16.2682 15.8237 16.328 15.7681 16.4038L15.0845 16.2812L15.2567 14.3636H17.4798V14.9922H15.8906L15.7965 15.9031H15.8178C15.8817 15.8131 15.9782 15.7385 16.1072 15.6793C16.2363 15.6201 16.3807 15.5906 16.5405 15.5906C16.7595 15.5906 16.9548 15.642 17.1264 15.745C17.2981 15.848 17.4336 15.9895 17.533 16.1694C17.6325 16.3481 17.6816 16.5541 17.6804 16.7873C17.6816 17.0323 17.6248 17.2501 17.5099 17.4407C17.3963 17.6301 17.2371 17.7792 17.0323 17.8881C16.8287 17.9959 16.592 18.0497 16.3221 18.0497ZM19.5732 18.0497C19.2997 18.0497 19.0565 18.0053 18.8434 17.9165C18.6315 17.8266 18.4652 17.7041 18.3445 17.549C18.2237 17.3939 18.1634 17.2182 18.1634 17.0217C18.1634 16.8701 18.1977 16.7311 18.2663 16.6044C18.3362 16.4766 18.4309 16.3706 18.5504 16.2866C18.67 16.2013 18.8037 16.1469 18.9517 16.1232V16.0984C18.7576 16.0593 18.6001 15.9652 18.4794 15.8161C18.3587 15.6657 18.2983 15.4911 18.2983 15.2923C18.2983 15.104 18.3533 14.9366 18.4634 14.7898C18.5735 14.6418 18.7244 14.5258 18.9162 14.4418C19.1091 14.3565 19.3281 14.3139 19.5732 14.3139C19.8182 14.3139 20.0366 14.3565 20.2283 14.4418C20.4213 14.527 20.5728 14.6436 20.6829 14.7915C20.793 14.9383 20.8486 15.1052 20.8498 15.2923C20.8486 15.4923 20.7871 15.6669 20.6651 15.8161C20.5432 15.9652 20.387 16.0593 20.1964 16.0984V16.1232C20.342 16.1469 20.474 16.2013 20.5923 16.2866C20.7119 16.3706 20.8066 16.4766 20.8764 16.6044C20.9474 16.7311 20.9835 16.8701 20.9847 17.0217C20.9835 17.2182 20.9226 17.3939 20.8018 17.549C20.6811 17.7041 20.5142 17.8266 20.3011 17.9165C20.0893 18.0053 19.8466 18.0497 19.5732 18.0497ZM19.5732 17.4851C19.6951 17.4851 19.8016 17.4632 19.8928 17.4194C19.9839 17.3744 20.0549 17.3129 20.1058 17.2347C20.1579 17.1554 20.1839 17.0643 20.1839 16.9613C20.1839 16.8559 20.1573 16.763 20.104 16.6825C20.0508 16.6009 19.9786 16.5369 19.8874 16.4908C19.7963 16.4434 19.6915 16.4197 19.5732 16.4197C19.456 16.4197 19.3512 16.4434 19.2589 16.4908C19.1665 16.5369 19.0938 16.6009 19.0405 16.6825C18.9884 16.763 18.9624 16.8559 18.9624 16.9613C18.9624 17.0643 18.9878 17.1554 19.0387 17.2347C19.0896 17.3129 19.1612 17.3744 19.2536 17.4194C19.3459 17.4632 19.4524 17.4851 19.5732 17.4851ZM19.5732 15.8604C19.675 15.8604 19.7655 15.8397 19.8448 15.7983C19.9241 15.7569 19.9863 15.6995 20.0312 15.6261C20.0762 15.5527 20.0987 15.468 20.0987 15.3722C20.0987 15.2775 20.0762 15.1946 20.0312 15.1236C19.9863 15.0514 19.9247 14.9951 19.8466 14.9549C19.7685 14.9135 19.6773 14.8928 19.5732 14.8928C19.4702 14.8928 19.379 14.9135 19.2997 14.9549C19.2204 14.9951 19.1583 15.0514 19.1133 15.1236C19.0695 15.1946 19.0476 15.2775 19.0476 15.3722C19.0476 15.468 19.0701 15.5527 19.1151 15.6261C19.16 15.6995 19.2222 15.7569 19.3015 15.7983C19.3808 15.8397 19.4714 15.8604 19.5732 15.8604Z" fill="#D3C1C1"/>
<defs>
<linearGradient id="paint0_linear_269_1313" x1="5.8245" y1="15.3208" x2="24.2358" y2="6.13496" gradientUnits="userSpaceOnUse">
<stop offset="0.158001" stop-color="#EBEBEB"/>
<stop offset="0.895779" stop-color="#B8B8BA"/>
</linearGradient>
</defs>
</svg>
