<svg width="142" height="123" viewBox="0 0 142 123" fill="none" xmlns="http://www.w3.org/2000/svg">
<g filter="url(#filter0_d_66_2237)">
<rect x="16" y="11" width="100" height="80.3922" rx="15" fill="white"/>
</g>
<rect x="31.7039" y="27.7405" width="0.918343" height="39.7949" rx="0.459171" fill="#EFF3FE"/>
<rect x="31.3977" y="49.9851" width="1.53057" height="4.59171" rx="0.765286" fill="url(#paint0_linear_66_2237)"/>
<rect x="31.3977" y="46.1072" width="1.53057" height="21.428" rx="0.765286" fill="url(#paint1_linear_66_2237)"/>
<path d="M31.5795 71.8804C31.5795 72.0058 31.5658 72.1144 31.5385 72.2064C31.5118 72.2978 31.4752 72.3734 31.4285 72.4334C31.3818 72.4934 31.3265 72.5381 31.2625 72.5674C31.1992 72.5968 31.1312 72.6114 31.0585 72.6114C30.9852 72.6114 30.9168 72.5968 30.8535 72.5674C30.7908 72.5381 30.7362 72.4934 30.6895 72.4334C30.6428 72.3734 30.6062 72.2978 30.5795 72.2064C30.5528 72.1144 30.5395 72.0058 30.5395 71.8804C30.5395 71.7551 30.5528 71.6464 30.5795 71.5544C30.6062 71.4624 30.6428 71.3864 30.6895 71.3264C30.7362 71.2658 30.7908 71.2208 30.8535 71.1914C30.9168 71.1621 30.9852 71.1474 31.0585 71.1474C31.1312 71.1474 31.1992 71.1621 31.2625 71.1914C31.3265 71.2208 31.3818 71.2658 31.4285 71.3264C31.4752 71.3864 31.5118 71.4624 31.5385 71.5544C31.5658 71.6464 31.5795 71.7551 31.5795 71.8804ZM31.3945 71.8804C31.3945 71.7711 31.3852 71.6794 31.3665 71.6054C31.3485 71.5308 31.3238 71.4708 31.2925 71.4254C31.2618 71.3801 31.2262 71.3478 31.1855 71.3284C31.1448 71.3084 31.1025 71.2984 31.0585 71.2984C31.0145 71.2984 30.9722 71.3084 30.9315 71.3284C30.8908 71.3478 30.8552 71.3801 30.8245 71.4254C30.7938 71.4708 30.7692 71.5308 30.7505 71.6054C30.7325 71.6794 30.7235 71.7711 30.7235 71.8804C30.7235 71.9898 30.7325 72.0814 30.7505 72.1554C30.7692 72.2294 30.7938 72.2891 30.8245 72.3344C30.8552 72.3798 30.8908 72.4124 30.9315 72.4324C30.9722 72.4518 31.0145 72.4614 31.0585 72.4614C31.1025 72.4614 31.1448 72.4518 31.1855 72.4324C31.2262 72.4124 31.2618 72.3798 31.2925 72.3344C31.3238 72.2891 31.3485 72.2294 31.3665 72.1554C31.3852 72.0814 31.3945 71.9898 31.3945 71.8804ZM33.1576 72.4604V72.5964H32.3896V72.4604H32.6966V71.4834C32.6966 71.4541 32.6976 71.4244 32.6996 71.3944L32.4446 71.6134C32.436 71.6208 32.4273 71.6254 32.4186 71.6274C32.41 71.6288 32.402 71.6288 32.3946 71.6274C32.3873 71.6261 32.3803 71.6234 32.3736 71.6194C32.3676 71.6154 32.363 71.6111 32.3596 71.6064L32.3036 71.5294L32.7306 71.1604H32.8756V72.4604H33.1576Z" fill="#BACCFD"/>
<rect x="37.8262" y="27.7405" width="0.918343" height="39.7949" rx="0.459171" fill="#EFF3FE"/>
<rect x="37.52" y="43.8625" width="1.53057" height="22.9586" rx="0.765286" fill="url(#paint2_linear_66_2237)"/>
<rect x="37.52" y="58.3518" width="1.53057" height="9.18343" rx="0.765286" fill="url(#paint3_linear_66_2237)"/>
<path d="M37.3957 71.8804C37.3957 72.0058 37.382 72.1144 37.3547 72.2064C37.328 72.2978 37.2913 72.3734 37.2447 72.4334C37.198 72.4934 37.1427 72.5381 37.0787 72.5674C37.0153 72.5968 36.9473 72.6114 36.8747 72.6114C36.8013 72.6114 36.733 72.5968 36.6697 72.5674C36.607 72.5381 36.5523 72.4934 36.5057 72.4334C36.459 72.3734 36.4223 72.2978 36.3957 72.2064C36.369 72.1144 36.3557 72.0058 36.3557 71.8804C36.3557 71.7551 36.369 71.6464 36.3957 71.5544C36.4223 71.4624 36.459 71.3864 36.5057 71.3264C36.5523 71.2658 36.607 71.2208 36.6697 71.1914C36.733 71.1621 36.8013 71.1474 36.8747 71.1474C36.9473 71.1474 37.0153 71.1621 37.0787 71.1914C37.1427 71.2208 37.198 71.2658 37.2447 71.3264C37.2913 71.3864 37.328 71.4624 37.3547 71.5544C37.382 71.6464 37.3957 71.7551 37.3957 71.8804ZM37.2107 71.8804C37.2107 71.7711 37.2013 71.6794 37.1827 71.6054C37.1647 71.5308 37.14 71.4708 37.1087 71.4254C37.078 71.3801 37.0423 71.3478 37.0017 71.3284C36.961 71.3084 36.9187 71.2984 36.8747 71.2984C36.8307 71.2984 36.7883 71.3084 36.7477 71.3284C36.707 71.3478 36.6713 71.3801 36.6407 71.4254C36.61 71.4708 36.5853 71.5308 36.5667 71.6054C36.5487 71.6794 36.5397 71.7711 36.5397 71.8804C36.5397 71.9898 36.5487 72.0814 36.5667 72.1554C36.5853 72.2294 36.61 72.2891 36.6407 72.3344C36.6713 72.3798 36.707 72.4124 36.7477 72.4324C36.7883 72.4518 36.8307 72.4614 36.8747 72.4614C36.9187 72.4614 36.961 72.4518 37.0017 72.4324C37.0423 72.4124 37.078 72.3798 37.1087 72.3344C37.14 72.2891 37.1647 72.2294 37.1827 72.1554C37.2013 72.0814 37.2107 71.9898 37.2107 71.8804ZM38.9428 72.4274C38.9621 72.4274 38.9775 72.4331 38.9888 72.4444C39.0001 72.4558 39.0058 72.4704 39.0058 72.4884V72.5964H38.0498V72.5354C38.0498 72.5228 38.0525 72.5098 38.0578 72.4964C38.0631 72.4831 38.0715 72.4708 38.0828 72.4594L38.5418 71.9984C38.5798 71.9598 38.6145 71.9228 38.6458 71.8874C38.6771 71.8514 38.7038 71.8154 38.7258 71.7794C38.7478 71.7434 38.7648 71.7071 38.7768 71.6704C38.7888 71.6331 38.7948 71.5934 38.7948 71.5514C38.7948 71.5094 38.7881 71.4728 38.7748 71.4414C38.7615 71.4094 38.7431 71.3831 38.7198 71.3624C38.6971 71.3418 38.6701 71.3264 38.6388 71.3164C38.6075 71.3058 38.5738 71.3004 38.5378 71.3004C38.5011 71.3004 38.4675 71.3058 38.4368 71.3164C38.4061 71.3271 38.3788 71.3421 38.3548 71.3614C38.3315 71.3801 38.3118 71.4024 38.2958 71.4284C38.2798 71.4544 38.2685 71.4831 38.2618 71.5144C38.2538 71.5378 38.2428 71.5534 38.2288 71.5614C38.2155 71.5688 38.1965 71.5708 38.1718 71.5674L38.0788 71.5514C38.0881 71.4861 38.1061 71.4284 38.1328 71.3784C38.1601 71.3278 38.1941 71.2854 38.2348 71.2514C38.2761 71.2174 38.3231 71.1918 38.3758 71.1744C38.4285 71.1564 38.4855 71.1474 38.5468 71.1474C38.6075 71.1474 38.6641 71.1564 38.7168 71.1744C38.7695 71.1924 38.8151 71.2188 38.8538 71.2534C38.8925 71.2874 38.9228 71.3291 38.9448 71.3784C38.9668 71.4278 38.9778 71.4838 38.9778 71.5464C38.9778 71.5998 38.9698 71.6494 38.9538 71.6954C38.9378 71.7408 38.9161 71.7841 38.8888 71.8254C38.8615 71.8668 38.8298 71.9071 38.7938 71.9464C38.7585 71.9858 38.7208 72.0254 38.6808 72.0654L38.3028 72.4514C38.3295 72.4441 38.3565 72.4384 38.3838 72.4344C38.4111 72.4298 38.4375 72.4274 38.4628 72.4274H38.9428Z" fill="#BACCFD"/>
<rect x="44.2546" y="27.7405" width="0.918343" height="39.7949" rx="0.459171" fill="#EFF3FE"/>
<rect x="43.9485" y="45.3933" width="1.53057" height="12.2446" rx="0.765286" fill="url(#paint4_linear_66_2237)"/>
<rect x="43.9485" y="49.1685" width="1.53057" height="18.3669" rx="0.765286" fill="url(#paint5_linear_66_2237)"/>
<path d="M43.8239 71.8804C43.8239 72.0058 43.8102 72.1144 43.7829 72.2064C43.7562 72.2978 43.7195 72.3734 43.6729 72.4334C43.6262 72.4934 43.5709 72.5381 43.5069 72.5674C43.4435 72.5968 43.3755 72.6114 43.3029 72.6114C43.2295 72.6114 43.1612 72.5968 43.0979 72.5674C43.0352 72.5381 42.9805 72.4934 42.9339 72.4334C42.8872 72.3734 42.8505 72.2978 42.8239 72.2064C42.7972 72.1144 42.7839 72.0058 42.7839 71.8804C42.7839 71.7551 42.7972 71.6464 42.8239 71.5544C42.8505 71.4624 42.8872 71.3864 42.9339 71.3264C42.9805 71.2658 43.0352 71.2208 43.0979 71.1914C43.1612 71.1621 43.2295 71.1474 43.3029 71.1474C43.3755 71.1474 43.4435 71.1621 43.5069 71.1914C43.5709 71.2208 43.6262 71.2658 43.6729 71.3264C43.7195 71.3864 43.7562 71.4624 43.7829 71.5544C43.8102 71.6464 43.8239 71.7551 43.8239 71.8804ZM43.6389 71.8804C43.6389 71.7711 43.6295 71.6794 43.6109 71.6054C43.5929 71.5308 43.5682 71.4708 43.5369 71.4254C43.5062 71.3801 43.4705 71.3478 43.4299 71.3284C43.3892 71.3084 43.3469 71.2984 43.3029 71.2984C43.2589 71.2984 43.2165 71.3084 43.1759 71.3284C43.1352 71.3478 43.0995 71.3801 43.0689 71.4254C43.0382 71.4708 43.0135 71.5308 42.9949 71.6054C42.9769 71.6794 42.9679 71.7711 42.9679 71.8804C42.9679 71.9898 42.9769 72.0814 42.9949 72.1554C43.0135 72.2294 43.0382 72.2891 43.0689 72.3344C43.0995 72.3798 43.1352 72.4124 43.1759 72.4324C43.2165 72.4518 43.2589 72.4614 43.3029 72.4614C43.3469 72.4614 43.3892 72.4518 43.4299 72.4324C43.4705 72.4124 43.5062 72.3798 43.5369 72.3344C43.5682 72.2891 43.5929 72.2294 43.6109 72.1554C43.6295 72.0814 43.6389 71.9898 43.6389 71.8804ZM44.514 71.5514C44.5234 71.4861 44.5414 71.4284 44.568 71.3784C44.5947 71.3278 44.6284 71.2854 44.669 71.2514C44.7104 71.2174 44.7574 71.1918 44.81 71.1744C44.8634 71.1564 44.9207 71.1474 44.982 71.1474C45.0427 71.1474 45.0987 71.1561 45.15 71.1734C45.2014 71.1908 45.2454 71.2154 45.282 71.2474C45.3194 71.2794 45.3484 71.3181 45.369 71.3634C45.3897 71.4088 45.4 71.4591 45.4 71.5144C45.4 71.5598 45.394 71.6004 45.382 71.6364C45.3707 71.6718 45.354 71.7028 45.332 71.7294C45.3107 71.7561 45.2847 71.7788 45.254 71.7974C45.2234 71.8161 45.189 71.8314 45.151 71.8434C45.2444 71.8674 45.3144 71.9088 45.361 71.9674C45.4084 72.0254 45.432 72.0981 45.432 72.1854C45.432 72.2514 45.4194 72.3108 45.394 72.3634C45.3694 72.4161 45.3354 72.4611 45.292 72.4984C45.2487 72.5351 45.198 72.5634 45.14 72.5834C45.0827 72.6028 45.021 72.6124 44.955 72.6124C44.879 72.6124 44.814 72.6031 44.76 72.5844C44.706 72.5651 44.6604 72.5388 44.623 72.5054C44.5857 72.4721 44.555 72.4328 44.531 72.3874C44.507 72.3414 44.4867 72.2918 44.47 72.2384L44.547 72.2064C44.567 72.1978 44.5864 72.1954 44.605 72.1994C44.6244 72.2034 44.6384 72.2144 44.647 72.2324C44.6557 72.2511 44.6664 72.2734 44.679 72.2994C44.6924 72.3254 44.7104 72.3504 44.733 72.3744C44.7557 72.3984 44.7844 72.4188 44.819 72.4354C44.8544 72.4521 44.899 72.4604 44.953 72.4604C45.003 72.4604 45.0467 72.4524 45.084 72.4364C45.122 72.4198 45.1534 72.3984 45.178 72.3724C45.2034 72.3464 45.2224 72.3174 45.235 72.2854C45.2477 72.2534 45.254 72.2218 45.254 72.1904C45.254 72.1518 45.249 72.1164 45.239 72.0844C45.229 72.0524 45.2104 72.0248 45.183 72.0014C45.1557 71.9781 45.118 71.9598 45.07 71.9464C45.0227 71.9331 44.9617 71.9264 44.887 71.9264V71.7974C44.9484 71.7968 45.0004 71.7901 45.043 71.7774C45.0864 71.7648 45.1214 71.7474 45.148 71.7254C45.1754 71.7034 45.195 71.6771 45.207 71.6464C45.2197 71.6158 45.226 71.5818 45.226 71.5444C45.226 71.5031 45.2194 71.4671 45.206 71.4364C45.1934 71.4058 45.1757 71.3804 45.153 71.3604C45.1304 71.3404 45.1034 71.3254 45.072 71.3154C45.0414 71.3054 45.008 71.3004 44.972 71.3004C44.936 71.3004 44.9024 71.3058 44.871 71.3164C44.8404 71.3271 44.813 71.3421 44.789 71.3614C44.7657 71.3801 44.746 71.4024 44.73 71.4284C44.714 71.4544 44.7027 71.4831 44.696 71.5144C44.6874 71.5378 44.6764 71.5534 44.663 71.5614C44.6504 71.5688 44.6317 71.5708 44.607 71.5674L44.514 71.5514Z" fill="#BACCFD"/>
<rect x="50.6829" y="27.7405" width="0.918343" height="39.7949" rx="0.459171" fill="#EFF3FE"/>
<rect x="50.3767" y="54.5767" width="1.53057" height="3.06114" rx="0.765286" fill="url(#paint6_linear_66_2237)"/>
<rect x="50.3767" y="49.1685" width="1.53057" height="18.3669" rx="0.765286" fill="url(#paint7_linear_66_2237)"/>
<path d="M50.2523 71.8804C50.2523 72.0058 50.2387 72.1144 50.2113 72.2064C50.1847 72.2978 50.148 72.3734 50.1013 72.4334C50.0547 72.4934 49.9993 72.5381 49.9353 72.5674C49.872 72.5968 49.804 72.6114 49.7313 72.6114C49.658 72.6114 49.5897 72.5968 49.5263 72.5674C49.4637 72.5381 49.409 72.4934 49.3623 72.4334C49.3157 72.3734 49.279 72.2978 49.2523 72.2064C49.2257 72.1144 49.2123 72.0058 49.2123 71.8804C49.2123 71.7551 49.2257 71.6464 49.2523 71.5544C49.279 71.4624 49.3157 71.3864 49.3623 71.3264C49.409 71.2658 49.4637 71.2208 49.5263 71.1914C49.5897 71.1621 49.658 71.1474 49.7313 71.1474C49.804 71.1474 49.872 71.1621 49.9353 71.1914C49.9993 71.2208 50.0547 71.2658 50.1013 71.3264C50.148 71.3864 50.1847 71.4624 50.2113 71.5544C50.2387 71.6464 50.2523 71.7551 50.2523 71.8804ZM50.0673 71.8804C50.0673 71.7711 50.058 71.6794 50.0393 71.6054C50.0213 71.5308 49.9967 71.4708 49.9653 71.4254C49.9347 71.3801 49.899 71.3478 49.8583 71.3284C49.8177 71.3084 49.7753 71.2984 49.7313 71.2984C49.6873 71.2984 49.645 71.3084 49.6043 71.3284C49.5637 71.3478 49.528 71.3801 49.4973 71.4254C49.4667 71.4708 49.442 71.5308 49.4233 71.6054C49.4053 71.6794 49.3963 71.7711 49.3963 71.8804C49.3963 71.9898 49.4053 72.0814 49.4233 72.1554C49.442 72.2294 49.4667 72.2891 49.4973 72.3344C49.528 72.3798 49.5637 72.4124 49.6043 72.4324C49.645 72.4518 49.6873 72.4614 49.7313 72.4614C49.7753 72.4614 49.8177 72.4518 49.8583 72.4324C49.899 72.4124 49.9347 72.3798 49.9653 72.3344C49.9967 72.2891 50.0213 72.2294 50.0393 72.1554C50.058 72.0814 50.0673 71.9898 50.0673 71.8804ZM51.5425 72.0794V71.4884C51.5425 71.4711 51.5432 71.4521 51.5445 71.4314C51.5458 71.4108 51.5478 71.3898 51.5505 71.3684L51.0285 72.0794H51.5425ZM51.9155 72.0794V72.1814C51.9155 72.1921 51.9122 72.2011 51.9055 72.2084C51.8995 72.2158 51.8898 72.2194 51.8765 72.2194H51.6985V72.5964H51.5425V72.2194H50.9065C50.8932 72.2194 50.8815 72.2158 50.8715 72.2084C50.8622 72.2004 50.8562 72.1908 50.8535 72.1794L50.8355 72.0884L51.5325 71.1634H51.6985V72.0794H51.9155Z" fill="#BACCFD"/>
<rect x="57.1116" y="28" width="0.918343" height="39.7949" rx="0.459171" fill="#EFF3FE"/>
<rect x="56.8054" y="41.5913" width="1.53057" height="12.2446" rx="0.765286" fill="url(#paint8_linear_66_2237)"/>
<rect x="56.8054" y="46.3667" width="1.53057" height="21.428" rx="0.765286" fill="url(#paint9_linear_66_2237)"/>
<path d="M56.6808 71.8804C56.6808 72.0058 56.6671 72.1144 56.6398 72.2064C56.6131 72.2978 56.5765 72.3734 56.5298 72.4334C56.4831 72.4934 56.4278 72.5381 56.3638 72.5674C56.3005 72.5968 56.2325 72.6114 56.1598 72.6114C56.0865 72.6114 56.0181 72.5968 55.9548 72.5674C55.8921 72.5381 55.8375 72.4934 55.7908 72.4334C55.7441 72.3734 55.7075 72.2978 55.6808 72.2064C55.6541 72.1144 55.6408 72.0058 55.6408 71.8804C55.6408 71.7551 55.6541 71.6464 55.6808 71.5544C55.7075 71.4624 55.7441 71.3864 55.7908 71.3264C55.8375 71.2658 55.8921 71.2208 55.9548 71.1914C56.0181 71.1621 56.0865 71.1474 56.1598 71.1474C56.2325 71.1474 56.3005 71.1621 56.3638 71.1914C56.4278 71.2208 56.4831 71.2658 56.5298 71.3264C56.5765 71.3864 56.6131 71.4624 56.6398 71.5544C56.6671 71.6464 56.6808 71.7551 56.6808 71.8804ZM56.4958 71.8804C56.4958 71.7711 56.4865 71.6794 56.4678 71.6054C56.4498 71.5308 56.4251 71.4708 56.3938 71.4254C56.3631 71.3801 56.3275 71.3478 56.2868 71.3284C56.2461 71.3084 56.2038 71.2984 56.1598 71.2984C56.1158 71.2984 56.0735 71.3084 56.0328 71.3284C55.9921 71.3478 55.9565 71.3801 55.9258 71.4254C55.8951 71.4708 55.8705 71.5308 55.8518 71.6054C55.8338 71.6794 55.8248 71.7711 55.8248 71.8804C55.8248 71.9898 55.8338 72.0814 55.8518 72.1554C55.8705 72.2294 55.8951 72.2891 55.9258 72.3344C55.9565 72.3798 55.9921 72.4124 56.0328 72.4324C56.0735 72.4518 56.1158 72.4614 56.1598 72.4614C56.2038 72.4614 56.2461 72.4518 56.2868 72.4324C56.3275 72.4124 56.3631 72.3798 56.3938 72.3344C56.4251 72.2891 56.4498 72.2294 56.4678 72.1554C56.4865 72.0814 56.4958 71.9898 56.4958 71.8804ZM57.603 71.7044C57.6776 71.6884 57.7463 71.6804 57.809 71.6804C57.8836 71.6804 57.9496 71.6914 58.007 71.7134C58.0643 71.7354 58.112 71.7658 58.15 71.8044C58.1886 71.8431 58.2176 71.8888 58.237 71.9414C58.257 71.9941 58.267 72.0514 58.267 72.1134C58.267 72.1894 58.2536 72.2581 58.227 72.3194C58.201 72.3808 58.1646 72.4334 58.118 72.4774C58.072 72.5208 58.0176 72.5541 57.955 72.5774C57.8923 72.6008 57.8246 72.6124 57.752 72.6124C57.71 72.6124 57.6696 72.6081 57.631 72.5994C57.5923 72.5914 57.556 72.5804 57.522 72.5664C57.4886 72.5524 57.4576 72.5364 57.429 72.5184C57.4003 72.5004 57.375 72.4814 57.353 72.4614L57.408 72.3854C57.42 72.3681 57.4356 72.3594 57.455 72.3594C57.4683 72.3594 57.4833 72.3648 57.5 72.3754C57.5166 72.3854 57.537 72.3968 57.561 72.4094C57.585 72.4221 57.613 72.4338 57.645 72.4444C57.6776 72.4544 57.7163 72.4594 57.761 72.4594C57.811 72.4594 57.856 72.4514 57.896 72.4354C57.936 72.4194 57.9703 72.3968 57.999 72.3674C58.0276 72.3374 58.0496 72.3018 58.065 72.2604C58.0803 72.2191 58.088 72.1728 58.088 72.1214C58.088 72.0768 58.0813 72.0364 58.068 72.0004C58.0553 71.9644 58.0356 71.9338 58.009 71.9084C57.983 71.8831 57.9503 71.8634 57.911 71.8494C57.8716 71.8354 57.8256 71.8284 57.773 71.8284C57.737 71.8284 57.6993 71.8314 57.66 71.8374C57.6213 71.8434 57.5816 71.8531 57.541 71.8664L57.429 71.8334L57.544 71.1634H58.223V71.2414C58.223 71.2668 58.215 71.2878 58.199 71.3044C58.1836 71.3204 58.157 71.3284 58.119 71.3284H57.669L57.603 71.7044Z" fill="#BACCFD"/>
<rect x="63.54" y="27.7405" width="0.918343" height="39.7949" rx="0.459171" fill="#EFF3FE"/>
<rect x="63.2339" y="49.2446" width="1.53057" height="9.18343" rx="0.765286" fill="url(#paint10_linear_66_2237)"/>
<rect x="63.2339" y="50.699" width="1.53057" height="16.8363" rx="0.765286" fill="url(#paint11_linear_66_2237)"/>
<path d="M63.1093 71.8804C63.1093 72.0058 63.0956 72.1144 63.0683 72.2064C63.0416 72.2978 63.0049 72.3734 62.9583 72.4334C62.9116 72.4934 62.8563 72.5381 62.7923 72.5674C62.7289 72.5968 62.6609 72.6114 62.5883 72.6114C62.5149 72.6114 62.4466 72.5968 62.3833 72.5674C62.3206 72.5381 62.2659 72.4934 62.2193 72.4334C62.1726 72.3734 62.1359 72.2978 62.1093 72.2064C62.0826 72.1144 62.0693 72.0058 62.0693 71.8804C62.0693 71.7551 62.0826 71.6464 62.1093 71.5544C62.1359 71.4624 62.1726 71.3864 62.2193 71.3264C62.2659 71.2658 62.3206 71.2208 62.3833 71.1914C62.4466 71.1621 62.5149 71.1474 62.5883 71.1474C62.6609 71.1474 62.7289 71.1621 62.7923 71.1914C62.8563 71.2208 62.9116 71.2658 62.9583 71.3264C63.0049 71.3864 63.0416 71.4624 63.0683 71.5544C63.0956 71.6464 63.1093 71.7551 63.1093 71.8804ZM62.9243 71.8804C62.9243 71.7711 62.9149 71.6794 62.8963 71.6054C62.8783 71.5308 62.8536 71.4708 62.8223 71.4254C62.7916 71.3801 62.7559 71.3478 62.7153 71.3284C62.6746 71.3084 62.6323 71.2984 62.5883 71.2984C62.5443 71.2984 62.5019 71.3084 62.4613 71.3284C62.4206 71.3478 62.3849 71.3801 62.3543 71.4254C62.3236 71.4708 62.2989 71.5308 62.2803 71.6054C62.2623 71.6794 62.2533 71.7711 62.2533 71.8804C62.2533 71.9898 62.2623 72.0814 62.2803 72.1554C62.2989 72.2294 62.3236 72.2891 62.3543 72.3344C62.3849 72.3798 62.4206 72.4124 62.4613 72.4324C62.5019 72.4518 62.5443 72.4614 62.5883 72.4614C62.6323 72.4614 62.6746 72.4518 62.7153 72.4324C62.7559 72.4124 62.7916 72.3798 62.8223 72.3344C62.8536 72.2891 62.8783 72.2294 62.8963 72.1554C62.9149 72.0814 62.9243 71.9898 62.9243 71.8804ZM64.2474 72.4644C64.2954 72.4644 64.3388 72.4568 64.3774 72.4414C64.4168 72.4261 64.4501 72.4048 64.4774 72.3774C64.5054 72.3501 64.5268 72.3178 64.5414 72.2804C64.5568 72.2431 64.5644 72.2024 64.5644 72.1584C64.5644 72.1118 64.5571 72.0698 64.5424 72.0324C64.5278 71.9944 64.5068 71.9624 64.4794 71.9364C64.4528 71.9098 64.4208 71.8894 64.3834 71.8754C64.3461 71.8614 64.3051 71.8544 64.2604 71.8544C64.2124 71.8544 64.1691 71.8628 64.1304 71.8794C64.0918 71.8954 64.0588 71.9174 64.0314 71.9454C64.0048 71.9728 63.9841 72.0048 63.9694 72.0414C63.9554 72.0774 63.9484 72.1151 63.9484 72.1544C63.9484 72.2004 63.9551 72.2424 63.9684 72.2804C63.9818 72.3184 64.0011 72.3511 64.0264 72.3784C64.0524 72.4058 64.0838 72.4271 64.1204 72.4424C64.1578 72.4571 64.2001 72.4644 64.2474 72.4644ZM64.1434 71.7004C64.1308 71.7164 64.1184 71.7321 64.1064 71.7474C64.0951 71.7621 64.0841 71.7768 64.0734 71.7914C64.1074 71.7681 64.1448 71.7501 64.1854 71.7374C64.2261 71.7248 64.2704 71.7184 64.3184 71.7184C64.3764 71.7184 64.4311 71.7281 64.4824 71.7474C64.5338 71.7661 64.5784 71.7938 64.6164 71.8304C64.6551 71.8664 64.6858 71.9111 64.7084 71.9644C64.7311 72.0171 64.7424 72.0774 64.7424 72.1454C64.7424 72.2114 64.7304 72.2728 64.7064 72.3294C64.6824 72.3861 64.6488 72.4354 64.6054 72.4774C64.5628 72.5194 64.5111 72.5524 64.4504 72.5764C64.3904 72.6004 64.3241 72.6124 64.2514 72.6124C64.1794 72.6124 64.1141 72.6011 64.0554 72.5784C63.9968 72.5551 63.9468 72.5224 63.9054 72.4804C63.8648 72.4378 63.8331 72.3864 63.8104 72.3264C63.7884 72.2658 63.7774 72.1981 63.7774 72.1234C63.7774 72.0608 63.7911 71.9941 63.8184 71.9234C63.8464 71.8521 63.8908 71.7761 63.9514 71.6954L64.3154 71.2064C64.3248 71.1944 64.3374 71.1844 64.3534 71.1764C64.3701 71.1678 64.3891 71.1634 64.4104 71.1634H64.5684L64.1434 71.7004Z" fill="#BACCFD"/>
<rect x="69.9683" y="27.7405" width="0.918343" height="39.7949" rx="0.459171" fill="#EFF3FE"/>
<rect x="69.6621" y="43.1221" width="1.53057" height="6.12228" rx="0.765286" fill="url(#paint12_linear_66_2237)"/>
<rect x="69.6621" y="41.5154" width="1.53057" height="26.0197" rx="0.765286" fill="url(#paint13_linear_66_2237)"/>
<path d="M69.5377 71.8804C69.5377 72.0058 69.5241 72.1144 69.4967 72.2064C69.4701 72.2978 69.4334 72.3734 69.3867 72.4334C69.3401 72.4934 69.2847 72.5381 69.2207 72.5674C69.1574 72.5968 69.0894 72.6114 69.0167 72.6114C68.9434 72.6114 68.8751 72.5968 68.8117 72.5674C68.7491 72.5381 68.6944 72.4934 68.6477 72.4334C68.6011 72.3734 68.5644 72.2978 68.5377 72.2064C68.5111 72.1144 68.4977 72.0058 68.4977 71.8804C68.4977 71.7551 68.5111 71.6464 68.5377 71.5544C68.5644 71.4624 68.6011 71.3864 68.6477 71.3264C68.6944 71.2658 68.7491 71.2208 68.8117 71.1914C68.8751 71.1621 68.9434 71.1474 69.0167 71.1474C69.0894 71.1474 69.1574 71.1621 69.2207 71.1914C69.2847 71.2208 69.3401 71.2658 69.3867 71.3264C69.4334 71.3864 69.4701 71.4624 69.4967 71.5544C69.5241 71.6464 69.5377 71.7551 69.5377 71.8804ZM69.3527 71.8804C69.3527 71.7711 69.3434 71.6794 69.3247 71.6054C69.3067 71.5308 69.2821 71.4708 69.2507 71.4254C69.2201 71.3801 69.1844 71.3478 69.1437 71.3284C69.1031 71.3084 69.0607 71.2984 69.0167 71.2984C68.9727 71.2984 68.9304 71.3084 68.8897 71.3284C68.8491 71.3478 68.8134 71.3801 68.7827 71.4254C68.7521 71.4708 68.7274 71.5308 68.7087 71.6054C68.6907 71.6794 68.6817 71.7711 68.6817 71.8804C68.6817 71.9898 68.6907 72.0814 68.7087 72.1554C68.7274 72.2294 68.7521 72.2891 68.7827 72.3344C68.8134 72.3798 68.8491 72.4124 68.8897 72.4324C68.9304 72.4518 68.9727 72.4614 69.0167 72.4614C69.0607 72.4614 69.1031 72.4518 69.1437 72.4324C69.1844 72.4124 69.2201 72.3798 69.2507 72.3344C69.2821 72.2891 69.3067 72.2294 69.3247 72.1554C69.3434 72.0814 69.3527 71.9898 69.3527 71.8804ZM71.1789 71.1634V71.2434C71.1789 71.2661 71.1762 71.2848 71.1709 71.2994C71.1662 71.3141 71.1616 71.3264 71.1569 71.3364L70.5629 72.5334C70.5542 72.5508 70.5422 72.5658 70.5269 72.5784C70.5116 72.5904 70.4912 72.5964 70.4659 72.5964H70.3379L70.9399 71.4144C70.9486 71.3978 70.9576 71.3824 70.9669 71.3684C70.9762 71.3544 70.9862 71.3411 70.9969 71.3284H70.2489C70.2376 71.3284 70.2276 71.3241 70.2189 71.3154C70.2102 71.3061 70.2059 71.2958 70.2059 71.2844V71.1634H71.1789Z" fill="#BACCFD"/>
<rect x="76.0906" y="27.7405" width="0.918343" height="39.7949" rx="0.459171" fill="#EFF3FE"/>
<rect x="75.7844" y="50.7749" width="1.53057" height="6.12228" rx="0.765286" fill="url(#paint14_linear_66_2237)"/>
<rect x="75.7844" y="49.1685" width="1.53057" height="18.3669" rx="0.765286" fill="url(#paint15_linear_66_2237)"/>
<path d="M75.6598 71.8804C75.6598 72.0058 75.6461 72.1144 75.6188 72.2064C75.5921 72.2978 75.5555 72.3734 75.5088 72.4334C75.4621 72.4934 75.4068 72.5381 75.3428 72.5674C75.2795 72.5968 75.2115 72.6114 75.1388 72.6114C75.0655 72.6114 74.9971 72.5968 74.9338 72.5674C74.8711 72.5381 74.8165 72.4934 74.7698 72.4334C74.7231 72.3734 74.6865 72.2978 74.6598 72.2064C74.6331 72.1144 74.6198 72.0058 74.6198 71.8804C74.6198 71.7551 74.6331 71.6464 74.6598 71.5544C74.6865 71.4624 74.7231 71.3864 74.7698 71.3264C74.8165 71.2658 74.8711 71.2208 74.9338 71.1914C74.9971 71.1621 75.0655 71.1474 75.1388 71.1474C75.2115 71.1474 75.2795 71.1621 75.3428 71.1914C75.4068 71.2208 75.4621 71.2658 75.5088 71.3264C75.5555 71.3864 75.5921 71.4624 75.6188 71.5544C75.6461 71.6464 75.6598 71.7551 75.6598 71.8804ZM75.4748 71.8804C75.4748 71.7711 75.4655 71.6794 75.4468 71.6054C75.4288 71.5308 75.4041 71.4708 75.3728 71.4254C75.3421 71.3801 75.3065 71.3478 75.2658 71.3284C75.2251 71.3084 75.1828 71.2984 75.1388 71.2984C75.0948 71.2984 75.0525 71.3084 75.0118 71.3284C74.9711 71.3478 74.9355 71.3801 74.9048 71.4254C74.8741 71.4708 74.8495 71.5308 74.8308 71.6054C74.8128 71.6794 74.8038 71.7711 74.8038 71.8804C74.8038 71.9898 74.8128 72.0814 74.8308 72.1554C74.8495 72.2294 74.8741 72.2891 74.9048 72.3344C74.9355 72.3798 74.9711 72.4124 75.0118 72.4324C75.0525 72.4518 75.0948 72.4614 75.1388 72.4614C75.1828 72.4614 75.2251 72.4518 75.2658 72.4324C75.3065 72.4124 75.3421 72.3798 75.3728 72.3344C75.4041 72.2891 75.4288 72.2294 75.4468 72.1554C75.4655 72.0814 75.4748 71.9898 75.4748 71.8804ZM76.8 72.4704C76.8466 72.4704 76.8883 72.4641 76.925 72.4514C76.9623 72.4381 76.9936 72.4198 77.019 72.3964C77.045 72.3724 77.0646 72.3441 77.078 72.3114C77.092 72.2781 77.099 72.2414 77.099 72.2014C77.099 72.1521 77.0906 72.1101 77.074 72.0754C77.058 72.0401 77.036 72.0114 77.008 71.9894C76.9806 71.9674 76.949 71.9514 76.913 71.9414C76.877 71.9308 76.8393 71.9254 76.8 71.9254C76.7606 71.9254 76.723 71.9308 76.687 71.9414C76.651 71.9514 76.619 71.9674 76.591 71.9894C76.5636 72.0114 76.5416 72.0401 76.525 72.0754C76.509 72.1101 76.501 72.1521 76.501 72.2014C76.501 72.2414 76.5076 72.2781 76.521 72.3114C76.535 72.3441 76.5546 72.3724 76.58 72.3964C76.606 72.4198 76.6373 72.4381 76.674 72.4514C76.7113 72.4641 76.7533 72.4704 76.8 72.4704ZM76.8 71.2854C76.7573 71.2854 76.7196 71.2918 76.687 71.3044C76.655 71.3171 76.628 71.3344 76.606 71.3564C76.5846 71.3784 76.5683 71.4041 76.557 71.4334C76.5463 71.4628 76.541 71.4941 76.541 71.5274C76.541 71.5601 76.5456 71.5918 76.555 71.6224C76.5643 71.6531 76.5793 71.6804 76.6 71.7044C76.6206 71.7278 76.6473 71.7468 76.68 71.7614C76.7133 71.7754 76.7533 71.7824 76.8 71.7824C76.8466 71.7824 76.8863 71.7754 76.919 71.7614C76.9523 71.7468 76.9793 71.7278 77 71.7044C77.0206 71.6804 77.0356 71.6531 77.045 71.6224C77.0543 71.5918 77.059 71.5601 77.059 71.5274C77.059 71.4941 77.0533 71.4628 77.042 71.4334C77.0313 71.4041 77.015 71.3784 76.993 71.3564C76.9716 71.3344 76.9446 71.3171 76.912 71.3044C76.88 71.2918 76.8426 71.2854 76.8 71.2854ZM77.005 71.8494C77.0943 71.8748 77.163 71.9171 77.211 71.9764C77.259 72.0358 77.283 72.1118 77.283 72.2044C77.283 72.2671 77.271 72.3238 77.247 72.3744C77.2236 72.4244 77.1906 72.4671 77.148 72.5024C77.106 72.5378 77.0553 72.5651 76.996 72.5844C76.9366 72.6031 76.8713 72.6124 76.8 72.6124C76.7286 72.6124 76.6633 72.6031 76.604 72.5844C76.5446 72.5651 76.4936 72.5378 76.451 72.5024C76.4083 72.4671 76.3753 72.4244 76.352 72.3744C76.3286 72.3238 76.317 72.2671 76.317 72.2044C76.317 72.1118 76.341 72.0358 76.389 71.9764C76.437 71.9171 76.5056 71.8748 76.595 71.8494C76.5196 71.8214 76.4626 71.7798 76.424 71.7244C76.386 71.6684 76.367 71.6018 76.367 71.5244C76.367 71.4718 76.3773 71.4224 76.398 71.3764C76.4186 71.3304 76.448 71.2904 76.486 71.2564C76.524 71.2224 76.5693 71.1958 76.622 71.1764C76.6753 71.1571 76.7346 71.1474 76.8 71.1474C76.8646 71.1474 76.9236 71.1571 76.977 71.1764C77.0303 71.1958 77.076 71.2224 77.114 71.2564C77.152 71.2904 77.1813 71.3304 77.202 71.3764C77.2226 71.4224 77.233 71.4718 77.233 71.5244C77.233 71.6018 77.2136 71.6684 77.175 71.7244C77.137 71.7798 77.0803 71.8214 77.005 71.8494Z" fill="#BACCFD"/>
<rect x="82.5188" y="50" width="0.918343" height="17.5353" rx="0.459171" fill="#EFF3FE"/>
<rect x="82.2126" y="55.7166" width="1.53057" height="10.1165" rx="0.765286" fill="url(#paint16_linear_66_2237)"/>
<rect x="82.2126" y="65.512" width="1.53057" height="2.02331" rx="0.765286" fill="url(#paint17_linear_66_2237)"/>
<path d="M82.0883 71.8804C82.0883 72.0058 82.0746 72.1144 82.0473 72.2064C82.0206 72.2978 81.9839 72.3734 81.9373 72.4334C81.8906 72.4934 81.8353 72.5381 81.7713 72.5674C81.7079 72.5968 81.6399 72.6114 81.5673 72.6114C81.4939 72.6114 81.4256 72.5968 81.3623 72.5674C81.2996 72.5381 81.2449 72.4934 81.1983 72.4334C81.1516 72.3734 81.1149 72.2978 81.0883 72.2064C81.0616 72.1144 81.0483 72.0058 81.0483 71.8804C81.0483 71.7551 81.0616 71.6464 81.0883 71.5544C81.1149 71.4624 81.1516 71.3864 81.1983 71.3264C81.2449 71.2658 81.2996 71.2208 81.3623 71.1914C81.4256 71.1621 81.4939 71.1474 81.5673 71.1474C81.6399 71.1474 81.7079 71.1621 81.7713 71.1914C81.8353 71.2208 81.8906 71.2658 81.9373 71.3264C81.9839 71.3864 82.0206 71.4624 82.0473 71.5544C82.0746 71.6464 82.0883 71.7551 82.0883 71.8804ZM81.9033 71.8804C81.9033 71.7711 81.8939 71.6794 81.8753 71.6054C81.8573 71.5308 81.8326 71.4708 81.8013 71.4254C81.7706 71.3801 81.7349 71.3478 81.6943 71.3284C81.6536 71.3084 81.6113 71.2984 81.5673 71.2984C81.5233 71.2984 81.4809 71.3084 81.4403 71.3284C81.3996 71.3478 81.3639 71.3801 81.3333 71.4254C81.3026 71.4708 81.2779 71.5308 81.2593 71.6054C81.2413 71.6794 81.2323 71.7711 81.2323 71.8804C81.2323 71.9898 81.2413 72.0814 81.2593 72.1554C81.2779 72.2294 81.3026 72.2891 81.3333 72.3344C81.3639 72.3798 81.3996 72.4124 81.4403 72.4324C81.4809 72.4518 81.5233 72.4614 81.5673 72.4614C81.6113 72.4614 81.6536 72.4518 81.6943 72.4324C81.7349 72.4124 81.7706 72.3798 81.8013 72.3344C81.8326 72.2891 81.8573 72.2294 81.8753 72.1554C81.8939 72.0814 81.9033 71.9898 81.9033 71.8804ZM82.9314 71.5844C82.9314 71.6298 82.9378 71.6704 82.9504 71.7064C82.9638 71.7418 82.9824 71.7718 83.0064 71.7964C83.0311 71.8211 83.0608 71.8398 83.0954 71.8524C83.1308 71.8651 83.1701 71.8714 83.2134 71.8714C83.2614 71.8714 83.3038 71.8638 83.3404 71.8484C83.3778 71.8324 83.4091 71.8114 83.4344 71.7854C83.4598 71.7594 83.4791 71.7294 83.4924 71.6954C83.5058 71.6614 83.5124 71.6261 83.5124 71.5894C83.5124 71.5448 83.5051 71.5044 83.4904 71.4684C83.4764 71.4318 83.4568 71.4008 83.4314 71.3754C83.4061 71.3501 83.3758 71.3308 83.3404 71.3174C83.3058 71.3034 83.2674 71.2964 83.2254 71.2964C83.1814 71.2964 83.1414 71.3038 83.1054 71.3184C83.0694 71.3324 83.0384 71.3521 83.0124 71.3774C82.9864 71.4028 82.9664 71.4331 82.9524 71.4684C82.9384 71.5038 82.9314 71.5424 82.9314 71.5844ZM83.3474 72.0254C83.3621 72.0061 83.3758 71.9878 83.3884 71.9704C83.4011 71.9531 83.4131 71.9358 83.4244 71.9184C83.3878 71.9478 83.3464 71.9701 83.3004 71.9854C83.2544 72.0008 83.2058 72.0084 83.1544 72.0084C83.1004 72.0084 83.0491 71.9994 83.0004 71.9814C82.9524 71.9634 82.9101 71.9371 82.8734 71.9024C82.8368 71.8671 82.8074 71.8241 82.7854 71.7734C82.7641 71.7221 82.7534 71.6634 82.7534 71.5974C82.7534 71.5348 82.7651 71.4761 82.7884 71.4214C82.8118 71.3668 82.8444 71.3191 82.8864 71.2784C82.9284 71.2378 82.9784 71.2058 83.0364 71.1824C83.0944 71.1591 83.1581 71.1474 83.2274 71.1474C83.2961 71.1474 83.3584 71.1588 83.4144 71.1814C83.4704 71.2041 83.5184 71.2358 83.5584 71.2764C83.5984 71.3171 83.6291 71.3658 83.6504 71.4224C83.6724 71.4791 83.6834 71.5418 83.6834 71.6104C83.6834 71.6518 83.6794 71.6911 83.6714 71.7284C83.6641 71.7651 83.6531 71.8014 83.6384 71.8374C83.6244 71.8728 83.6071 71.9081 83.5864 71.9434C83.5658 71.9781 83.5424 72.0138 83.5164 72.0504L83.1674 72.5544C83.1588 72.5671 83.1464 72.5774 83.1304 72.5854C83.1144 72.5928 83.0961 72.5964 83.0754 72.5964H82.9114L83.3474 72.0254Z" fill="#BACCFD"/>
<rect x="88.6414" y="27.7405" width="0.918343" height="39.7949" rx="0.459171" fill="#EFF3FE"/>
<rect x="88.3352" y="48.6528" width="1.53057" height="15.3057" rx="0.765286" fill="url(#paint18_linear_66_2237)"/>
<rect x="88.3352" y="52.2292" width="1.53057" height="15.3057" rx="0.765286" fill="url(#paint19_linear_66_2237)"/>
<path d="M88.4347 72.4604V72.5964H87.6667V72.4604H87.9737V71.4834C87.9737 71.4541 87.9747 71.4244 87.9767 71.3944L87.7217 71.6134C87.7131 71.6208 87.7044 71.6254 87.6957 71.6274C87.6871 71.6288 87.6791 71.6288 87.6717 71.6274C87.6644 71.6261 87.6574 71.6234 87.6507 71.6194C87.6447 71.6154 87.6401 71.6111 87.6367 71.6064L87.5807 71.5294L88.0077 71.1604H88.1527V72.4604H88.4347ZM90.1769 71.8804C90.1769 72.0058 90.1632 72.1144 90.1359 72.2064C90.1092 72.2978 90.0726 72.3734 90.0259 72.4334C89.9792 72.4934 89.9239 72.5381 89.8599 72.5674C89.7966 72.5968 89.7286 72.6114 89.6559 72.6114C89.5826 72.6114 89.5142 72.5968 89.4509 72.5674C89.3882 72.5381 89.3336 72.4934 89.2869 72.4334C89.2402 72.3734 89.2036 72.2978 89.1769 72.2064C89.1502 72.1144 89.1369 72.0058 89.1369 71.8804C89.1369 71.7551 89.1502 71.6464 89.1769 71.5544C89.2036 71.4624 89.2402 71.3864 89.2869 71.3264C89.3336 71.2658 89.3882 71.2208 89.4509 71.1914C89.5142 71.1621 89.5826 71.1474 89.6559 71.1474C89.7286 71.1474 89.7966 71.1621 89.8599 71.1914C89.9239 71.2208 89.9792 71.2658 90.0259 71.3264C90.0726 71.3864 90.1092 71.4624 90.1359 71.5544C90.1632 71.6464 90.1769 71.7551 90.1769 71.8804ZM89.9919 71.8804C89.9919 71.7711 89.9826 71.6794 89.9639 71.6054C89.9459 71.5308 89.9212 71.4708 89.8899 71.4254C89.8592 71.3801 89.8236 71.3478 89.7829 71.3284C89.7422 71.3084 89.6999 71.2984 89.6559 71.2984C89.6119 71.2984 89.5696 71.3084 89.5289 71.3284C89.4882 71.3478 89.4526 71.3801 89.4219 71.4254C89.3912 71.4708 89.3666 71.5308 89.3479 71.6054C89.3299 71.6794 89.3209 71.7711 89.3209 71.8804C89.3209 71.9898 89.3299 72.0814 89.3479 72.1554C89.3666 72.2294 89.3912 72.2891 89.4219 72.3344C89.4526 72.3798 89.4882 72.4124 89.5289 72.4324C89.5696 72.4518 89.6119 72.4614 89.6559 72.4614C89.6999 72.4614 89.7422 72.4518 89.7829 72.4324C89.8236 72.4124 89.8592 72.3798 89.8899 72.3344C89.9212 72.2891 89.9459 72.2294 89.9639 72.1554C89.9826 72.0814 89.9919 71.9898 89.9919 71.8804Z" fill="#BACCFD"/>
<rect x="94.1514" y="27.7405" width="0.918343" height="39.7949" rx="0.459171" fill="#EFF3FE"/>
<rect x="93.8452" y="54.7749" width="1.53057" height="12.2446" rx="0.765286" fill="url(#paint20_linear_66_2237)"/>
<rect x="93.8452" y="55.2908" width="1.53057" height="12.2446" rx="0.765286" fill="url(#paint21_linear_66_2237)"/>
<path d="M94.2509 72.4604V72.5964H93.4829V72.4604H93.7899V71.4834C93.7899 71.4541 93.7909 71.4244 93.7929 71.3944L93.5379 71.6134C93.5292 71.6208 93.5206 71.6254 93.5119 71.6274C93.5032 71.6288 93.4952 71.6288 93.4879 71.6274C93.4806 71.6261 93.4736 71.6234 93.4669 71.6194C93.4609 71.6154 93.4562 71.6111 93.4529 71.6064L93.3969 71.5294L93.8239 71.1604H93.9689V72.4604H94.2509ZM95.9111 72.4604V72.5964H95.1431V72.4604H95.4501V71.4834C95.4501 71.4541 95.4511 71.4244 95.4531 71.3944L95.1981 71.6134C95.1894 71.6208 95.1807 71.6254 95.1721 71.6274C95.1634 71.6288 95.1554 71.6288 95.1481 71.6274C95.1407 71.6261 95.1337 71.6234 95.1271 71.6194C95.1211 71.6154 95.1164 71.6111 95.1131 71.6064L95.0571 71.5294L95.4841 71.1604H95.6291V72.4604H95.9111Z" fill="#BACCFD"/>
<rect x="99.9675" y="27.7405" width="0.918343" height="39.7949" rx="0.459171" fill="#EFF3FE"/>
<rect x="99.6614" y="42.5305" width="1.53057" height="24.4891" rx="0.765286" fill="url(#paint22_linear_66_2237)"/>
<rect x="99.6614" y="55.2908" width="1.53057" height="12.2446" rx="0.765286" fill="url(#paint23_linear_66_2237)"/>
<path d="M99.7609 72.4604V72.5964H98.9929V72.4604H99.2999V71.4834C99.2999 71.4541 99.3009 71.4244 99.3029 71.3944L99.0479 71.6134C99.0393 71.6208 99.0306 71.6254 99.0219 71.6274C99.0133 71.6288 99.0053 71.6288 98.9979 71.6274C98.9906 71.6261 98.9836 71.6234 98.9769 71.6194C98.9709 71.6154 98.9663 71.6111 98.9629 71.6064L98.9069 71.5294L99.3339 71.1604H99.4789V72.4604H99.7609ZM101.39 72.4274C101.409 72.4274 101.425 72.4331 101.436 72.4444C101.447 72.4558 101.453 72.4704 101.453 72.4884V72.5964H100.497V72.5354C100.497 72.5228 100.5 72.5098 100.505 72.4964C100.51 72.4831 100.519 72.4708 100.53 72.4594L100.989 71.9984C101.027 71.9598 101.062 71.9228 101.093 71.8874C101.124 71.8514 101.151 71.8154 101.173 71.7794C101.195 71.7434 101.212 71.7071 101.224 71.6704C101.236 71.6331 101.242 71.5934 101.242 71.5514C101.242 71.5094 101.235 71.4728 101.222 71.4414C101.209 71.4094 101.19 71.3831 101.167 71.3624C101.144 71.3418 101.117 71.3264 101.086 71.3164C101.055 71.3058 101.021 71.3004 100.985 71.3004C100.948 71.3004 100.915 71.3058 100.884 71.3164C100.853 71.3271 100.826 71.3421 100.802 71.3614C100.779 71.3801 100.759 71.4024 100.743 71.4284C100.727 71.4544 100.716 71.4831 100.709 71.5144C100.701 71.5378 100.69 71.5534 100.676 71.5614C100.663 71.5688 100.644 71.5708 100.619 71.5674L100.526 71.5514C100.535 71.4861 100.553 71.4284 100.58 71.3784C100.607 71.3278 100.641 71.2854 100.682 71.2514C100.723 71.2174 100.77 71.1918 100.823 71.1744C100.876 71.1564 100.933 71.1474 100.994 71.1474C101.055 71.1474 101.111 71.1564 101.164 71.1744C101.217 71.1924 101.262 71.2188 101.301 71.2534C101.34 71.2874 101.37 71.3291 101.392 71.3784C101.414 71.4278 101.425 71.4838 101.425 71.5464C101.425 71.5998 101.417 71.6494 101.401 71.6954C101.385 71.7408 101.363 71.7841 101.336 71.8254C101.309 71.8668 101.277 71.9071 101.241 71.9464C101.206 71.9858 101.168 72.0254 101.128 72.0654L100.75 72.4514C100.777 72.4441 100.804 72.4384 100.831 72.4344C100.858 72.4298 100.885 72.4274 100.91 72.4274H101.39Z" fill="#BACCFD"/>
<defs>
<filter id="filter0_d_66_2237" x="0" y="0" width="142" height="122.392" filterUnits="userSpaceOnUse" color-interpolation-filters="sRGB">
<feFlood flood-opacity="0" result="BackgroundImageFix"/>
<feColorMatrix in="SourceAlpha" type="matrix" values="0 0 0 0 0 0 0 0 0 0 0 0 0 0 0 0 0 0 127 0" result="hardAlpha"/>
<feOffset dx="5" dy="10"/>
<feGaussianBlur stdDeviation="10.5"/>
<feComposite in2="hardAlpha" operator="out"/>
<feColorMatrix type="matrix" values="0 0 0 0 0.429167 0 0 0 0 0.416649 0 0 0 0 0.416649 0 0 0 0.25 0"/>
<feBlend mode="normal" in2="BackgroundImageFix" result="effect1_dropShadow_66_2237"/>
<feBlend mode="normal" in="SourceGraphic" in2="effect1_dropShadow_66_2237" result="shape"/>
</filter>
<linearGradient id="paint0_linear_66_2237" x1="32.163" y1="49.9851" x2="32.163" y2="54.5768" gradientUnits="userSpaceOnUse">
<stop stop-color="#FBA2C2"/>
<stop offset="1" stop-color="#D6CED0"/>
</linearGradient>
<linearGradient id="paint1_linear_66_2237" x1="32.163" y1="46.1072" x2="32.163" y2="67.5352" gradientUnits="userSpaceOnUse">
<stop stop-color="#F44771"/>
<stop offset="1" stop-color="#FD29B5"/>
</linearGradient>
<linearGradient id="paint2_linear_66_2237" x1="38.2853" y1="43.8625" x2="38.2853" y2="66.8211" gradientUnits="userSpaceOnUse">
<stop stop-color="#FBA2C2"/>
<stop offset="1" stop-color="#D6CED0"/>
</linearGradient>
<linearGradient id="paint3_linear_66_2237" x1="38.2853" y1="58.3518" x2="38.2853" y2="67.5352" gradientUnits="userSpaceOnUse">
<stop stop-color="#F44771"/>
<stop offset="1" stop-color="#FD29B5"/>
</linearGradient>
<linearGradient id="paint4_linear_66_2237" x1="44.7138" y1="45.3933" x2="44.7138" y2="57.6379" gradientUnits="userSpaceOnUse">
<stop stop-color="#FBA2C2"/>
<stop offset="1" stop-color="#D6CED0"/>
</linearGradient>
<linearGradient id="paint5_linear_66_2237" x1="44.7138" y1="49.1685" x2="44.7138" y2="67.5353" gradientUnits="userSpaceOnUse">
<stop stop-color="#F44771"/>
<stop offset="1" stop-color="#FD29B5"/>
</linearGradient>
<linearGradient id="paint6_linear_66_2237" x1="51.142" y1="54.5767" x2="51.142" y2="57.6378" gradientUnits="userSpaceOnUse">
<stop stop-color="#FBA2C2"/>
<stop offset="1" stop-color="#D6CED0"/>
</linearGradient>
<linearGradient id="paint7_linear_66_2237" x1="51.142" y1="49.1685" x2="51.142" y2="67.5353" gradientUnits="userSpaceOnUse">
<stop stop-color="#F44771"/>
<stop offset="1" stop-color="#FD29B5"/>
</linearGradient>
<linearGradient id="paint8_linear_66_2237" x1="57.5707" y1="41.5913" x2="57.5707" y2="53.8359" gradientUnits="userSpaceOnUse">
<stop stop-color="#FBA2C2"/>
<stop offset="1" stop-color="#D6CED0"/>
</linearGradient>
<linearGradient id="paint9_linear_66_2237" x1="57.5707" y1="46.3667" x2="57.5707" y2="67.7947" gradientUnits="userSpaceOnUse">
<stop stop-color="#F44771"/>
<stop offset="1" stop-color="#FD29B5"/>
</linearGradient>
<linearGradient id="paint10_linear_66_2237" x1="63.9992" y1="49.2446" x2="63.9992" y2="58.4281" gradientUnits="userSpaceOnUse">
<stop stop-color="#FBA2C2"/>
<stop offset="1" stop-color="#D6CED0"/>
</linearGradient>
<linearGradient id="paint11_linear_66_2237" x1="63.9992" y1="50.699" x2="63.9992" y2="67.5353" gradientUnits="userSpaceOnUse">
<stop stop-color="#F44771"/>
<stop offset="1" stop-color="#FD29B5"/>
</linearGradient>
<linearGradient id="paint12_linear_66_2237" x1="70.4274" y1="43.1221" x2="70.4274" y2="49.2444" gradientUnits="userSpaceOnUse">
<stop stop-color="#FBA2C2"/>
<stop offset="1" stop-color="#D6CED0"/>
</linearGradient>
<linearGradient id="paint13_linear_66_2237" x1="70.4274" y1="41.5154" x2="70.4274" y2="67.5351" gradientUnits="userSpaceOnUse">
<stop stop-color="#F44771"/>
<stop offset="1" stop-color="#FD29B5"/>
</linearGradient>
<linearGradient id="paint14_linear_66_2237" x1="76.5497" y1="50.7749" x2="76.5497" y2="56.8972" gradientUnits="userSpaceOnUse">
<stop stop-color="#FBA2C2"/>
<stop offset="1" stop-color="#D6CED0"/>
</linearGradient>
<linearGradient id="paint15_linear_66_2237" x1="76.5497" y1="49.1685" x2="76.5497" y2="67.5353" gradientUnits="userSpaceOnUse">
<stop stop-color="#F44771"/>
<stop offset="1" stop-color="#FD29B5"/>
</linearGradient>
<linearGradient id="paint16_linear_66_2237" x1="82.9779" y1="55.7166" x2="82.9779" y2="65.8331" gradientUnits="userSpaceOnUse">
<stop stop-color="#FBA2C2"/>
<stop offset="1" stop-color="#D6CED0"/>
</linearGradient>
<linearGradient id="paint17_linear_66_2237" x1="82.9779" y1="65.512" x2="82.9779" y2="67.5353" gradientUnits="userSpaceOnUse">
<stop stop-color="#F44771"/>
<stop offset="1" stop-color="#FD29B5"/>
</linearGradient>
<linearGradient id="paint18_linear_66_2237" x1="89.1005" y1="48.6528" x2="89.1005" y2="63.9585" gradientUnits="userSpaceOnUse">
<stop stop-color="#FBA2C2"/>
<stop offset="1" stop-color="#D6CED0"/>
</linearGradient>
<linearGradient id="paint19_linear_66_2237" x1="89.1005" y1="52.2292" x2="89.1005" y2="67.535" gradientUnits="userSpaceOnUse">
<stop stop-color="#F44771"/>
<stop offset="1" stop-color="#FD29B5"/>
</linearGradient>
<linearGradient id="paint20_linear_66_2237" x1="94.6105" y1="54.7749" x2="94.6105" y2="67.0195" gradientUnits="userSpaceOnUse">
<stop stop-color="#FBA2C2"/>
<stop offset="1" stop-color="#D6CED0"/>
</linearGradient>
<linearGradient id="paint21_linear_66_2237" x1="94.6105" y1="55.2908" x2="94.6105" y2="67.5353" gradientUnits="userSpaceOnUse">
<stop stop-color="#F44771"/>
<stop offset="1" stop-color="#FD29B5"/>
</linearGradient>
<linearGradient id="paint22_linear_66_2237" x1="100.427" y1="42.5305" x2="100.427" y2="67.0197" gradientUnits="userSpaceOnUse">
<stop stop-color="#FBA2C2"/>
<stop offset="1" stop-color="#D6CED0"/>
</linearGradient>
<linearGradient id="paint23_linear_66_2237" x1="100.427" y1="55.2908" x2="100.427" y2="67.5353" gradientUnits="userSpaceOnUse">
<stop stop-color="#F44771"/>
<stop offset="1" stop-color="#FD29B5"/>
</linearGradient>
</defs>
</svg>
