<svg width="922" height="591" viewBox="0 0 922 591" fill="none" xmlns="http://www.w3.org/2000/svg">
<g clip-path="url(#clip0_35_9106)">
<mask id="mask0_35_9106" style="mask-type:alpha" maskUnits="userSpaceOnUse" x="86" y="1" width="725" height="557">
<rect x="86" y="1" width="725" height="557" fill="white"/>
</mask>
<g mask="url(#mask0_35_9106)">
<path opacity="0.6" d="M325.904 247.046L212 350.161L358.447 393.699L470.026 440.674L449.105 318.081L477 247.046L402.614 212.674L325.904 247.046Z" fill="#E697FF" stroke="#A155B9" stroke-width="2"/>
<path d="M394.683 40.9468V49.6741H393.626V42.0548H393.575L391.444 43.4695V42.3957L393.626 40.9468H394.683ZM400.039 49.7934C399.397 49.7934 398.85 49.6187 398.398 49.2692C397.947 48.917 397.602 48.407 397.363 47.7394C397.124 47.069 397.005 46.2593 397.005 45.3104C397.005 44.3673 397.124 43.5619 397.363 42.8942C397.604 42.2238 397.951 41.7124 398.403 41.3602C398.857 41.005 399.403 40.8275 400.039 40.8275C400.675 40.8275 401.219 41.005 401.671 41.3602C402.126 41.7124 402.472 42.2238 402.711 42.8942C402.952 43.5619 403.073 44.3673 403.073 45.3104C403.073 46.2593 402.954 47.069 402.715 47.7394C402.477 48.407 402.131 48.917 401.68 49.2692C401.228 49.6187 400.681 49.7934 400.039 49.7934ZM400.039 48.8559C400.675 48.8559 401.17 48.5491 401.522 47.9354C401.874 47.3218 402.05 46.4468 402.05 45.3104C402.05 44.5548 401.969 43.9113 401.808 43.38C401.648 42.8488 401.418 42.444 401.117 42.1655C400.819 41.8871 400.46 41.7479 400.039 41.7479C399.408 41.7479 398.915 42.059 398.56 42.6812C398.205 43.3005 398.028 44.1769 398.028 45.3104C398.028 46.0661 398.107 46.7082 398.266 47.2366C398.425 47.765 398.654 48.167 398.952 48.4425C399.254 48.7181 399.616 48.8559 400.039 48.8559ZM407.539 49.7934C406.897 49.7934 406.35 49.6187 405.898 49.2692C405.447 48.917 405.102 48.407 404.863 47.7394C404.624 47.069 404.505 46.2593 404.505 45.3104C404.505 44.3673 404.624 43.5619 404.863 42.8942C405.104 42.2238 405.451 41.7124 405.903 41.3602C406.357 41.005 406.903 40.8275 407.539 40.8275C408.175 40.8275 408.719 41.005 409.171 41.3602C409.626 41.7124 409.972 42.2238 410.211 42.8942C410.452 43.5619 410.573 44.3673 410.573 45.3104C410.573 46.2593 410.454 47.069 410.215 47.7394C409.977 48.407 409.631 48.917 409.18 49.2692C408.728 49.6187 408.181 49.7934 407.539 49.7934ZM407.539 48.8559C408.175 48.8559 408.67 48.5491 409.022 47.9354C409.374 47.3218 409.55 46.4468 409.55 45.3104C409.55 44.5548 409.469 43.9113 409.308 43.38C409.148 42.8488 408.918 42.444 408.617 42.1655C408.319 41.8871 407.96 41.7479 407.539 41.7479C406.908 41.7479 406.415 42.059 406.06 42.6812C405.705 43.3005 405.528 44.1769 405.528 45.3104C405.528 46.0661 405.607 46.7082 405.766 47.2366C405.925 47.765 406.154 48.167 406.452 48.4425C406.754 48.7181 407.116 48.8559 407.539 48.8559Z" fill="#BDBDBD"/>
<path d="M397.252 93.7934C396.666 93.7934 396.149 93.6897 395.7 93.4823C395.254 93.2721 394.906 92.9837 394.656 92.6173C394.406 92.2479 394.283 91.8275 394.286 91.3559C394.283 90.9866 394.355 90.6457 394.503 90.3332C394.651 90.0178 394.852 89.755 395.108 89.5448C395.367 89.3317 395.655 89.1968 395.973 89.14V89.0888C395.556 88.9809 395.223 88.7465 394.976 88.3857C394.729 88.0221 394.607 87.6087 394.61 87.1457C394.607 86.7025 394.719 86.3062 394.946 85.9567C395.173 85.6073 395.486 85.3317 395.884 85.13C396.284 84.9283 396.74 84.8275 397.252 84.8275C397.757 84.8275 398.209 84.9283 398.607 85.13C399.004 85.3317 399.317 85.6073 399.544 85.9567C399.774 86.3062 399.891 86.7025 399.894 87.1457C399.891 87.6087 399.764 88.0221 399.514 88.3857C399.267 88.7465 398.939 88.9809 398.53 89.0888V89.14C398.845 89.1968 399.129 89.3317 399.382 89.5448C399.635 89.755 399.837 90.0178 399.987 90.3332C400.138 90.6457 400.215 90.9866 400.218 91.3559C400.215 91.8275 400.087 92.2479 399.834 92.6173C399.584 92.9837 399.236 93.2721 398.79 93.4823C398.347 93.6897 397.834 93.7934 397.252 93.7934ZM397.252 92.8559C397.646 92.8559 397.987 92.792 398.274 92.6641C398.561 92.5363 398.783 92.3559 398.939 92.1229C399.095 91.89 399.175 91.6173 399.178 91.3048C399.175 90.9752 399.09 90.684 398.922 90.4312C398.754 90.1783 398.526 89.9795 398.236 89.8346C397.949 89.6897 397.621 89.6173 397.252 89.6173C396.879 89.6173 396.547 89.6897 396.254 89.8346C395.965 89.9795 395.736 90.1783 395.568 90.4312C395.404 90.684 395.323 90.9752 395.325 91.3048C395.323 91.6173 395.398 91.89 395.551 92.1229C395.708 92.3559 395.931 92.5363 396.22 92.6641C396.51 92.792 396.854 92.8559 397.252 92.8559ZM397.252 88.7138C397.564 88.7138 397.841 88.6513 398.083 88.5263C398.327 88.4013 398.519 88.2266 398.658 88.0022C398.797 87.7778 398.868 87.515 398.871 87.2138C398.868 86.9184 398.798 86.6613 398.662 86.4425C398.526 86.2209 398.337 86.0505 398.095 85.9312C397.854 85.809 397.573 85.7479 397.252 85.7479C396.925 85.7479 396.639 85.809 396.395 85.9312C396.151 86.0505 395.962 86.2209 395.828 86.4425C395.695 86.6613 395.629 86.9184 395.632 87.2138C395.629 87.515 395.696 87.7778 395.833 88.0022C395.972 88.2266 396.164 88.4013 396.408 88.5263C396.652 88.6513 396.933 88.7138 397.252 88.7138ZM404.697 93.7934C404.055 93.7934 403.508 93.6187 403.057 93.2692C402.605 92.917 402.26 92.407 402.021 91.7394C401.782 91.069 401.663 90.2593 401.663 89.3104C401.663 88.3673 401.782 87.5619 402.021 86.8942C402.263 86.2238 402.609 85.7124 403.061 85.3602C403.515 85.005 404.061 84.8275 404.697 84.8275C405.334 84.8275 405.878 85.005 406.329 85.3602C406.784 85.7124 407.131 86.2238 407.369 86.8942C407.611 87.5619 407.731 88.3673 407.731 89.3104C407.731 90.2593 407.612 91.069 407.373 91.7394C407.135 92.407 406.79 92.917 406.338 93.2692C405.886 93.6187 405.339 93.7934 404.697 93.7934ZM404.697 92.8559C405.334 92.8559 405.828 92.5491 406.18 91.9354C406.532 91.3218 406.709 90.4468 406.709 89.3104C406.709 88.5548 406.628 87.9113 406.466 87.38C406.307 86.8488 406.077 86.444 405.775 86.1655C405.477 85.8871 405.118 85.7479 404.697 85.7479C404.067 85.7479 403.574 86.059 403.219 86.6812C402.863 87.3005 402.686 88.1769 402.686 89.3104C402.686 90.0661 402.765 90.7082 402.925 91.2366C403.084 91.765 403.312 92.167 403.611 92.4425C403.912 92.7181 404.274 92.8559 404.697 92.8559Z" fill="#BDBDBD"/>
<path d="M397.307 131.793C396.949 131.788 396.591 131.72 396.233 131.589C395.875 131.458 395.548 131.238 395.253 130.928C394.958 130.616 394.72 130.194 394.541 129.663C394.362 129.129 394.273 128.458 394.273 127.651C394.273 126.879 394.345 126.194 394.49 125.597C394.635 124.998 394.845 124.494 395.121 124.085C395.396 123.673 395.729 123.36 396.118 123.147C396.51 122.934 396.952 122.827 397.443 122.827C397.932 122.827 398.367 122.925 398.747 123.122C399.131 123.315 399.443 123.585 399.685 123.931C399.926 124.278 400.083 124.677 400.154 125.129H399.114C399.017 124.737 398.83 124.411 398.551 124.153C398.273 123.894 397.904 123.765 397.443 123.765C396.767 123.765 396.235 124.059 395.845 124.647C395.459 125.235 395.264 126.06 395.262 127.123H395.33C395.489 126.881 395.678 126.675 395.896 126.505C396.118 126.332 396.362 126.198 396.629 126.104C396.896 126.011 397.179 125.964 397.477 125.964C397.977 125.964 398.435 126.089 398.85 126.339C399.264 126.586 399.597 126.928 399.847 127.366C400.097 127.8 400.222 128.299 400.222 128.862C400.222 129.401 400.101 129.896 399.86 130.345C399.618 130.791 399.279 131.146 398.841 131.41C398.406 131.671 397.895 131.799 397.307 131.793ZM397.307 130.856C397.665 130.856 397.986 130.766 398.27 130.587C398.557 130.408 398.783 130.168 398.948 129.867C399.115 129.566 399.199 129.231 399.199 128.862C399.199 128.501 399.118 128.173 398.956 127.877C398.797 127.579 398.577 127.342 398.296 127.166C398.017 126.989 397.699 126.901 397.341 126.901C397.071 126.901 396.82 126.955 396.587 127.063C396.354 127.168 396.149 127.313 395.973 127.498C395.8 127.683 395.664 127.894 395.564 128.133C395.465 128.369 395.415 128.617 395.415 128.879C395.415 129.225 395.496 129.549 395.658 129.85C395.823 130.151 396.047 130.394 396.331 130.579C396.618 130.764 396.943 130.856 397.307 130.856ZM404.744 131.793C404.102 131.793 403.555 131.619 403.104 131.269C402.652 130.917 402.307 130.407 402.068 129.739C401.829 129.069 401.71 128.259 401.71 127.31C401.71 126.367 401.829 125.562 402.068 124.894C402.309 124.224 402.656 123.712 403.108 123.36C403.562 123.005 404.108 122.827 404.744 122.827C405.381 122.827 405.925 123.005 406.376 123.36C406.831 123.712 407.177 124.224 407.416 124.894C407.657 125.562 407.778 126.367 407.778 127.31C407.778 128.259 407.659 129.069 407.42 129.739C407.182 130.407 406.836 130.917 406.385 131.269C405.933 131.619 405.386 131.793 404.744 131.793ZM404.744 130.856C405.381 130.856 405.875 130.549 406.227 129.935C406.579 129.322 406.756 128.447 406.756 127.31C406.756 126.555 406.675 125.911 406.513 125.38C406.354 124.849 406.123 124.444 405.822 124.166C405.524 123.887 405.165 123.748 404.744 123.748C404.113 123.748 403.621 124.059 403.265 124.681C402.91 125.3 402.733 126.177 402.733 127.31C402.733 128.066 402.812 128.708 402.971 129.237C403.131 129.765 403.359 130.167 403.657 130.443C403.959 130.718 404.321 130.856 404.744 130.856Z" fill="#BDBDBD"/>
<path d="M394.099 181.884V181.015L397.934 174.947H398.565V176.293H398.139L395.241 180.879V180.947H400.406V181.884H394.099ZM398.207 183.674V181.62V181.215V174.947H399.213V183.674H398.207ZM404.85 183.793C404.208 183.793 403.661 183.619 403.209 183.269C402.757 182.917 402.412 182.407 402.173 181.739C401.935 181.069 401.816 180.259 401.816 179.31C401.816 178.367 401.935 177.562 402.173 176.894C402.415 176.224 402.762 175.712 403.213 175.36C403.668 175.005 404.213 174.827 404.85 174.827C405.486 174.827 406.03 175.005 406.482 175.36C406.936 175.712 407.283 176.224 407.521 176.894C407.763 177.562 407.884 178.367 407.884 179.31C407.884 180.259 407.764 181.069 407.526 181.739C407.287 182.407 406.942 182.917 406.49 183.269C406.039 183.619 405.492 183.793 404.85 183.793ZM404.85 182.856C405.486 182.856 405.98 182.549 406.333 181.935C406.685 181.322 406.861 180.447 406.861 179.31C406.861 178.555 406.78 177.911 406.618 177.38C406.459 176.849 406.229 176.444 405.928 176.166C405.629 175.887 405.27 175.748 404.85 175.748C404.219 175.748 403.726 176.059 403.371 176.681C403.016 177.3 402.838 178.177 402.838 179.31C402.838 180.066 402.918 180.708 403.077 181.237C403.236 181.765 403.465 182.167 403.763 182.443C404.064 182.718 404.426 182.856 404.85 182.856Z" fill="#BDBDBD"/>
<path d="M394.521 232.674V231.907L397.401 228.754C397.739 228.384 398.018 228.063 398.237 227.791C398.455 227.515 398.617 227.256 398.722 227.015C398.83 226.771 398.884 226.515 398.884 226.248C398.884 225.941 398.81 225.675 398.663 225.451C398.518 225.227 398.319 225.053 398.066 224.931C397.813 224.809 397.529 224.748 397.214 224.748C396.879 224.748 396.586 224.818 396.336 224.957C396.089 225.093 395.897 225.285 395.761 225.532C395.627 225.779 395.56 226.069 395.56 226.401H394.555C394.555 225.89 394.673 225.441 394.908 225.055C395.144 224.668 395.465 224.367 395.871 224.151C396.281 223.935 396.739 223.827 397.248 223.827C397.759 223.827 398.212 223.935 398.607 224.151C399.002 224.367 399.312 224.658 399.536 225.025C399.761 225.391 399.873 225.799 399.873 226.248C399.873 226.569 399.815 226.883 399.698 227.19C399.585 227.494 399.386 227.833 399.102 228.208C398.82 228.58 398.43 229.035 397.93 229.572L395.969 231.668V231.737H400.026V232.674H394.521ZM404.633 232.793C403.991 232.793 403.444 232.619 402.992 232.269C402.54 231.917 402.195 231.407 401.957 230.739C401.718 230.069 401.599 229.259 401.599 228.31C401.599 227.367 401.718 226.562 401.957 225.894C402.198 225.224 402.545 224.712 402.996 224.36C403.451 224.005 403.996 223.827 404.633 223.827C405.269 223.827 405.813 224.005 406.265 224.36C406.719 224.712 407.066 225.224 407.305 225.894C407.546 226.562 407.667 227.367 407.667 228.31C407.667 229.259 407.548 230.069 407.309 230.739C407.07 231.407 406.725 231.917 406.273 232.269C405.822 232.619 405.275 232.793 404.633 232.793ZM404.633 231.856C405.269 231.856 405.763 231.549 406.116 230.935C406.468 230.322 406.644 229.447 406.644 228.31C406.644 227.555 406.563 226.911 406.401 226.38C406.242 225.849 406.012 225.444 405.711 225.166C405.413 224.887 405.053 224.748 404.633 224.748C404.002 224.748 403.509 225.059 403.154 225.681C402.799 226.3 402.621 227.177 402.621 228.31C402.621 229.066 402.701 229.708 402.86 230.237C403.019 230.765 403.248 231.167 403.546 231.443C403.847 231.718 404.21 231.856 404.633 231.856Z" fill="#BDBDBD"/>
<path d="M208.067 153.151L402.525 60.7294L596.983 153.151L645.008 360.811L510.442 527.345H294.607L160.042 360.811L208.067 153.151Z" stroke="#BDBDBD"/>
<path d="M247.953 184.542L402.526 111.077L557.1 184.542L595.274 349.607L488.31 481.983H316.743L209.779 349.607L247.953 184.542Z" stroke="#BDBDBD"/>
<path d="M284.212 213.08L402.526 156.847L520.841 213.08L550.06 339.423L468.187 440.745H336.865L254.993 339.423L284.212 213.08Z" stroke="#BDBDBD"/>
<path d="M325.907 245.898L402.525 209.483L479.142 245.898L498.062 327.71L445.045 393.322H360.004L306.987 327.71L325.907 245.898Z" stroke="#BDBDBD"/>
<path d="M363.979 275.862L402.525 257.542L441.07 275.862L450.588 317.016L423.917 350.022H381.132L354.462 317.016L363.979 275.862Z" stroke="#BDBDBD"/>
<path d="M161.367 359.972L402.525 306.192L594.989 154.005" stroke="#BDBDBD"/>
<path d="M511.092 527.314L404.368 307.212L211.249 155.836" stroke="#BDBDBD"/>
<path d="M404.308 62.2708L403.531 306.276L294.844 524.759" stroke="#BDBDBD"/>
<path d="M403.686 307.336L643.685 361.116" stroke="#BDBDBD"/>
<path opacity="0.6" d="M292 219.39L403.238 63.6741L438 276.639L511 329.307L421.778 343.047L331.397 450.674L370.794 313.278L292 219.39Z" fill="#63ABFD" stroke="#165BAA" stroke-width="2"/>
<ellipse cx="402.521" cy="63.6085" rx="5.79709" ry="5.72131" fill="#165BAA"/>
<ellipse cx="291.218" cy="219.228" rx="5.79709" ry="5.72129" fill="#165BAA"/>
<ellipse cx="370.058" cy="313.057" rx="5.79709" ry="5.72129" fill="#165BAA"/>
<ellipse cx="330.637" cy="450.369" rx="5.79709" ry="5.72129" fill="#165BAA"/>
<ellipse cx="421.074" cy="342.808" rx="5.79709" ry="5.72132" fill="#165BAA"/>
<ellipse cx="509.187" cy="329.077" rx="5.79709" ry="5.72129" fill="#165BAA"/>
<ellipse cx="437.304" cy="276.441" rx="5.79709" ry="5.72132" fill="#165BAA"/>
<ellipse cx="212.38" cy="349.674" rx="5.79709" ry="5.72132" fill="#A155B9"/>
<ellipse cx="358.464" cy="393.156" rx="5.79709" ry="5.72129" fill="#A155B9"/>
<ellipse cx="469.77" cy="438.926" rx="5.79709" ry="5.72132" fill="#A155B9"/>
<ellipse cx="476.725" cy="246.69" rx="5.79709" ry="5.72132" fill="#A155B9"/>
<ellipse cx="402.521" cy="113.956" rx="5.79709" ry="5.72131" fill="#F765A3"/>
<ellipse cx="557.884" cy="184.9" rx="5.7971" ry="5.72129" fill="#F765A3"/>
<ellipse cx="548.61" cy="338.231" rx="5.79709" ry="5.72129" fill="#F765A3"/>
<ellipse cx="444.262" cy="390.867" rx="5.79709" ry="5.72132" fill="#F765A3"/>
<ellipse cx="448.898" cy="317.634" rx="5.79707" ry="5.72132" fill="#A155B9"/>
<ellipse cx="402.521" cy="212.362" rx="5.79709" ry="5.72132" fill="#A155B9"/>
<ellipse cx="326.001" cy="246.69" rx="5.79709" ry="5.72132" fill="#A155B9"/>
<ellipse cx="444.262" cy="390.867" rx="5.79709" ry="5.72132" fill="#F765A3"/>
<ellipse cx="356.145" cy="315.346" rx="5.79709" ry="5.72129" fill="#F765A3"/>
<ellipse cx="247.162" cy="184.9" rx="5.79708" ry="5.72129" fill="#F765A3"/>
<ellipse cx="381.652" cy="349.674" rx="5.79709" ry="5.72132" fill="#F765A3"/>
<path opacity="0.6" d="M402.523 113.956L247.161 184.9L356.147 315.346L381.654 349.674L444.262 390.867L548.61 338.231L557.885 184.9L402.523 113.956Z" fill="#FFA5CB" stroke="#F765A3" stroke-width="2"/>
<ellipse cx="247.162" cy="184.9" rx="5.79708" ry="5.72129" fill="#16BFD6"/>
<ellipse cx="161.363" cy="358.828" rx="5.79709" ry="5.72132" fill="#16BFD6"/>
<ellipse cx="381.652" cy="349.674" rx="5.79709" ry="5.72132" fill="#16BFD6"/>
<ellipse cx="448.898" cy="319.923" rx="5.79707" ry="5.72129" fill="#16BFD6"/>
<ellipse cx="597.305" cy="155.149" rx="5.7971" ry="5.72129" fill="#16BFD6"/>
<ellipse cx="402.521" cy="159.726" rx="5.79709" ry="5.72129" fill="#16BFD6"/>
<path opacity="0.6" d="M161.364 358.828L247.161 184.9L402.523 159.727L597.305 155.149L448.899 318.779L381.653 349.674L161.364 358.828Z" fill="#82F0FF" stroke="#16BFD6" stroke-width="2"/>
<path d="M392.374 5.58316H393.959V14.9411C393.959 15.7763 393.806 16.4859 393.499 17.0697C393.192 17.6535 392.76 18.0967 392.201 18.3992C391.643 18.7018 390.985 18.853 390.226 18.853C389.51 18.853 388.873 18.7231 388.315 18.4631C387.757 18.1989 387.318 17.8239 386.998 17.3381C386.679 16.8523 386.519 16.2749 386.519 15.6059H388.078C388.078 15.9766 388.17 16.3005 388.353 16.5775C388.541 16.8502 388.797 17.0633 389.12 17.2167C389.444 17.3701 389.813 17.4468 390.226 17.4468C390.682 17.4468 391.07 17.3509 391.39 17.1592C391.709 16.9674 391.952 16.6861 392.118 16.3154C392.289 15.9404 392.374 15.4823 392.374 14.9411V5.58316ZM399.821 18.9042C399.199 18.9042 398.634 18.787 398.127 18.5526C397.62 18.314 397.217 17.9709 396.919 17.5235C396.62 17.0718 396.471 16.5263 396.471 15.8871C396.471 15.3246 396.582 14.8687 396.804 14.5192C397.025 14.1655 397.321 13.8886 397.692 13.6883C398.063 13.488 398.472 13.3388 398.919 13.2408C399.371 13.1386 399.825 13.0576 400.281 12.9979C400.877 12.9212 401.361 12.8637 401.732 12.8254C402.107 12.7827 402.38 12.7124 402.55 12.6144C402.725 12.5164 402.812 12.3459 402.812 12.103V12.0519C402.812 11.4212 402.64 10.9312 402.294 10.5817C401.953 10.2323 401.436 10.0576 400.741 10.0576C400.021 10.0576 399.456 10.2153 399.047 10.5306C398.638 10.8459 398.35 11.1826 398.184 11.5405L396.752 11.0292C397.008 10.4326 397.349 9.96811 397.775 9.63572C398.206 9.29907 398.674 9.0647 399.181 8.93259C399.693 8.79623 400.196 8.72805 400.69 8.72805C401.005 8.72805 401.368 8.7664 401.777 8.84311C402.19 8.91555 402.588 9.06683 402.972 9.29694C403.36 9.52706 403.681 9.87436 403.937 10.3388C404.193 10.8033 404.321 11.4255 404.321 12.2053V18.6741H402.812V17.3445H402.735C402.633 17.5576 402.463 17.7856 402.224 18.0285C401.985 18.2714 401.668 18.478 401.272 18.6485C400.875 18.819 400.392 18.9042 399.821 18.9042ZM400.051 17.5491C400.647 17.5491 401.15 17.4319 401.559 17.1975C401.973 16.9631 402.284 16.6606 402.493 16.2898C402.706 15.9191 402.812 15.5292 402.812 15.1201V13.7394C402.748 13.8161 402.608 13.8864 402.39 13.9504C402.177 14.01 401.93 14.0633 401.649 14.1102C401.372 14.1528 401.101 14.1911 400.837 14.2252C400.577 14.255 400.366 14.2806 400.204 14.3019C399.812 14.353 399.446 14.4361 399.105 14.5512C398.768 14.662 398.495 14.8303 398.287 15.0562C398.082 15.2778 397.98 15.5803 397.98 15.9638C397.98 16.488 398.174 16.8843 398.561 17.1528C398.953 17.417 399.45 17.5491 400.051 17.5491ZM408.583 12.7678V18.6741H407.074V8.85589H408.531V10.39H408.659C408.889 9.8914 409.239 9.49083 409.708 9.18828C410.176 8.88146 410.781 8.72805 411.523 8.72805C412.188 8.72805 412.769 8.86441 413.268 9.13714C413.767 9.40561 414.154 9.8147 414.431 10.3644C414.708 10.9099 414.847 11.6002 414.847 12.4354V18.6741H413.338V12.5377C413.338 11.7664 413.138 11.1655 412.737 10.7352C412.337 10.3005 411.787 10.0832 411.088 10.0832C410.607 10.0832 410.176 10.1876 409.797 10.3964C409.422 10.6052 409.126 10.9099 408.909 11.3104C408.691 11.711 408.583 12.1968 408.583 12.7678Z" fill="#BDBDBD"/>
<path d="M616.835 137.674V124.583H624.685V125.989H618.42V130.413H624.097V131.819H618.42V137.674H616.835ZM630.591 137.879C629.645 137.879 628.829 137.67 628.143 137.252C627.461 136.83 626.935 136.242 626.564 135.488C626.197 134.729 626.014 133.847 626.014 132.842C626.014 131.836 626.197 130.95 626.564 130.183C626.935 129.411 627.45 128.81 628.111 128.38C628.776 127.945 629.551 127.728 630.438 127.728C630.949 127.728 631.454 127.813 631.952 127.984C632.451 128.154 632.905 128.431 633.314 128.815C633.723 129.194 634.049 129.697 634.292 130.323C634.535 130.95 634.656 131.721 634.656 132.637V133.276H627.088V131.972H633.122C633.122 131.418 633.011 130.924 632.79 130.489C632.572 130.055 632.261 129.712 631.857 129.46C631.456 129.209 630.983 129.083 630.438 129.083C629.837 129.083 629.317 129.232 628.878 129.531C628.443 129.825 628.109 130.208 627.874 130.681C627.64 131.154 627.523 131.661 627.523 132.202V133.072C627.523 133.813 627.651 134.442 627.906 134.957C628.166 135.469 628.526 135.859 628.987 136.127C629.447 136.391 629.982 136.524 630.591 136.524C630.987 136.524 631.345 136.468 631.665 136.357C631.989 136.242 632.268 136.072 632.502 135.846C632.737 135.616 632.918 135.33 633.045 134.989L634.503 135.399C634.349 135.893 634.092 136.327 633.729 136.702C633.367 137.073 632.92 137.363 632.387 137.572C631.854 137.776 631.256 137.879 630.591 137.879ZM637.156 137.674V124.583H638.664V129.416H638.792C638.903 129.245 639.056 129.028 639.252 128.764C639.452 128.495 639.738 128.256 640.109 128.048C640.484 127.835 640.991 127.728 641.63 127.728C642.457 127.728 643.185 127.935 643.816 128.348C644.447 128.761 644.939 129.347 645.293 130.106C645.646 130.864 645.823 131.759 645.823 132.791C645.823 133.83 645.646 134.732 645.293 135.494C644.939 136.253 644.449 136.841 643.822 137.259C643.196 137.672 642.474 137.879 641.656 137.879C641.025 137.879 640.52 137.774 640.141 137.565C639.761 137.352 639.469 137.112 639.265 136.843C639.06 136.57 638.903 136.345 638.792 136.166H638.613V137.674H637.156ZM638.638 132.765C638.638 133.506 638.747 134.161 638.964 134.727C639.182 135.29 639.499 135.731 639.917 136.05C640.335 136.366 640.846 136.524 641.451 136.524C642.082 136.524 642.608 136.357 643.03 136.025C643.456 135.688 643.776 135.237 643.989 134.67C644.206 134.099 644.315 133.464 644.315 132.765C644.315 132.075 644.208 131.452 643.995 130.899C643.786 130.34 643.469 129.899 643.043 129.575C642.621 129.247 642.09 129.083 641.451 129.083C640.837 129.083 640.322 129.239 639.904 129.55C639.487 129.857 639.171 130.287 638.958 130.841C638.745 131.391 638.638 132.032 638.638 132.765Z" fill="#BDBDBD"/>
<path d="M674.158 339.583H676.051L680.499 350.45H680.653L685.102 339.583H686.994V352.674H685.511V342.728H685.383L681.292 352.674H679.86L675.769 342.728H675.641V352.674H674.158V339.583ZM692.857 352.904C692.235 352.904 691.67 352.787 691.163 352.553C690.656 352.314 690.253 351.971 689.955 351.524C689.657 351.072 689.507 350.526 689.507 349.887C689.507 349.325 689.618 348.869 689.84 348.519C690.061 348.166 690.358 347.889 690.728 347.688C691.099 347.488 691.508 347.339 691.956 347.241C692.407 347.139 692.861 347.058 693.317 346.998C693.914 346.921 694.397 346.864 694.768 346.825C695.143 346.783 695.416 346.712 695.586 346.614C695.761 346.516 695.848 346.346 695.848 346.103V346.052C695.848 345.421 695.676 344.931 695.331 344.582C694.99 344.232 694.472 344.058 693.777 344.058C693.057 344.058 692.492 344.215 692.083 344.531C691.674 344.846 691.387 345.183 691.22 345.541L689.789 345.029C690.044 344.433 690.385 343.968 690.811 343.636C691.242 343.299 691.71 343.065 692.218 342.933C692.729 342.796 693.232 342.728 693.726 342.728C694.041 342.728 694.404 342.766 694.813 342.843C695.226 342.916 695.625 343.067 696.008 343.297C696.396 343.527 696.718 343.874 696.973 344.339C697.229 344.803 697.357 345.425 697.357 346.205V352.674H695.848V351.345H695.772C695.669 351.558 695.499 351.786 695.26 352.028C695.022 352.271 694.704 352.478 694.308 352.649C693.911 352.819 693.428 352.904 692.857 352.904ZM693.087 351.549C693.684 351.549 694.186 351.432 694.595 351.198C695.009 350.963 695.32 350.661 695.529 350.29C695.742 349.919 695.848 349.529 695.848 349.12V347.739C695.784 347.816 695.644 347.886 695.426 347.95C695.213 348.01 694.966 348.063 694.685 348.11C694.408 348.153 694.137 348.191 693.873 348.225C693.613 348.255 693.402 348.281 693.24 348.302C692.848 348.353 692.482 348.436 692.141 348.551C691.804 348.662 691.532 348.83 691.323 349.056C691.118 349.278 691.016 349.58 691.016 349.964C691.016 350.488 691.21 350.884 691.598 351.153C691.99 351.417 692.486 351.549 693.087 351.549ZM700.11 352.674V342.856H701.568V344.339H701.67C701.849 343.853 702.173 343.459 702.641 343.156C703.11 342.854 703.639 342.702 704.227 342.702C704.337 342.702 704.476 342.705 704.642 342.709C704.808 342.713 704.934 342.72 705.019 342.728V344.262C704.968 344.249 704.851 344.23 704.668 344.205C704.489 344.175 704.299 344.16 704.099 344.16C703.622 344.16 703.195 344.26 702.82 344.46C702.45 344.656 702.156 344.929 701.938 345.278C701.725 345.624 701.619 346.018 701.619 346.461V352.674H700.11Z" fill="#BDBDBD"/>
<path d="M534.707 553.674H533.045L537.852 540.583H539.488L544.295 553.674H542.633L538.721 542.654H538.619L534.707 553.674ZM535.321 548.56H542.02V549.967H535.321V548.56ZM546.13 557.356V543.856H547.587V545.416H547.766C547.877 545.245 548.03 545.028 548.226 544.764C548.427 544.495 548.712 544.256 549.083 544.048C549.458 543.835 549.965 543.728 550.604 543.728C551.431 543.728 552.16 543.935 552.79 544.348C553.421 544.761 553.913 545.347 554.267 546.106C554.62 546.864 554.797 547.759 554.797 548.791C554.797 549.83 554.62 550.732 554.267 551.494C553.913 552.253 553.423 552.841 552.797 553.259C552.17 553.672 551.448 553.879 550.63 553.879C549.999 553.879 549.494 553.774 549.115 553.565C548.736 553.352 548.444 553.112 548.239 552.843C548.035 552.57 547.877 552.345 547.766 552.166H547.638V557.356H546.13ZM547.613 548.765C547.613 549.506 547.721 550.161 547.939 550.727C548.156 551.29 548.473 551.731 548.891 552.05C549.309 552.366 549.82 552.524 550.425 552.524C551.056 552.524 551.582 552.357 552.004 552.025C552.43 551.688 552.75 551.237 552.963 550.67C553.18 550.099 553.289 549.464 553.289 548.765C553.289 548.075 553.182 547.452 552.969 546.899C552.76 546.34 552.443 545.899 552.017 545.575C551.595 545.247 551.064 545.083 550.425 545.083C549.812 545.083 549.296 545.239 548.878 545.55C548.461 545.857 548.145 546.287 547.932 546.841C547.719 547.391 547.613 548.032 547.613 548.765ZM557.098 553.674V543.856H558.556V545.339H558.658C558.837 544.853 559.161 544.459 559.63 544.156C560.098 543.854 560.627 543.702 561.215 543.702C561.326 543.702 561.464 543.705 561.63 543.709C561.797 543.713 561.922 543.72 562.008 543.728V545.262C561.956 545.249 561.839 545.23 561.656 545.205C561.477 545.175 561.287 545.16 561.087 545.16C560.61 545.16 560.184 545.26 559.809 545.46C559.438 545.656 559.144 545.929 558.927 546.278C558.714 546.624 558.607 547.018 558.607 547.461V553.674H557.098Z" fill="#BDBDBD"/>
<path d="M250.673 538.583H252.565L257.014 549.45H257.167L261.616 538.583H263.508V551.674H262.025V541.728H261.898L257.807 551.674H256.375L252.284 541.728H252.156V551.674H250.673V538.583ZM269.371 551.904C268.749 551.904 268.185 551.787 267.678 551.553C267.17 551.314 266.768 550.971 266.469 550.524C266.171 550.072 266.022 549.526 266.022 548.887C266.022 548.325 266.133 547.869 266.354 547.519C266.576 547.166 266.872 546.889 267.243 546.688C267.614 546.488 268.023 546.339 268.47 546.241C268.922 546.139 269.376 546.058 269.832 545.998C270.428 545.921 270.912 545.864 271.283 545.825C271.658 545.783 271.93 545.712 272.101 545.614C272.276 545.516 272.363 545.346 272.363 545.103V545.052C272.363 544.421 272.19 543.931 271.845 543.582C271.504 543.232 270.987 543.058 270.292 543.058C269.572 543.058 269.007 543.215 268.598 543.531C268.189 543.846 267.901 544.183 267.735 544.541L266.303 544.029C266.559 543.433 266.9 542.968 267.326 542.636C267.756 542.299 268.225 542.065 268.732 541.933C269.244 541.796 269.746 541.728 270.241 541.728C270.556 541.728 270.918 541.766 271.327 541.843C271.741 541.916 272.139 542.067 272.523 542.297C272.911 542.527 273.232 542.874 273.488 543.339C273.744 543.803 273.871 544.425 273.871 545.205V551.674H272.363V550.345H272.286C272.184 550.558 272.013 550.786 271.775 551.028C271.536 551.271 271.219 551.478 270.822 551.649C270.426 551.819 269.942 551.904 269.371 551.904ZM269.602 550.549C270.198 550.549 270.701 550.432 271.11 550.198C271.523 549.963 271.835 549.661 272.043 549.29C272.256 548.919 272.363 548.529 272.363 548.12V546.739C272.299 546.816 272.158 546.886 271.941 546.95C271.728 547.01 271.481 547.063 271.2 547.11C270.923 547.153 270.652 547.191 270.388 547.225C270.128 547.255 269.917 547.281 269.755 547.302C269.363 547.353 268.996 547.436 268.656 547.551C268.319 547.662 268.046 547.83 267.837 548.056C267.633 548.278 267.531 548.58 267.531 548.964C267.531 549.488 267.724 549.884 268.112 550.153C268.504 550.417 269.001 550.549 269.602 550.549ZM277.245 555.356C276.989 555.356 276.761 555.335 276.561 555.292C276.361 555.254 276.222 555.215 276.145 555.177L276.529 553.847C276.895 553.941 277.219 553.975 277.501 553.95C277.782 553.924 278.031 553.798 278.248 553.573C278.47 553.351 278.672 552.991 278.856 552.492L279.137 551.725L275.506 541.856H277.143L279.853 549.68H279.955L282.665 541.856H284.302L280.134 553.106C279.947 553.613 279.714 554.033 279.437 554.365C279.16 554.702 278.839 554.951 278.472 555.113C278.11 555.275 277.701 555.356 277.245 555.356Z" fill="#BDBDBD"/>
<path d="M114.216 330.583H115.801V339.941C115.801 340.776 115.648 341.486 115.341 342.07C115.034 342.653 114.601 343.097 114.043 343.399C113.485 343.702 112.827 343.853 112.068 343.853C111.352 343.853 110.715 343.723 110.157 343.463C109.599 343.199 109.16 342.824 108.84 342.338C108.52 341.852 108.361 341.275 108.361 340.606H109.92C109.92 340.977 110.012 341.3 110.195 341.577C110.383 341.85 110.638 342.063 110.962 342.217C111.286 342.37 111.655 342.447 112.068 342.447C112.524 342.447 112.912 342.351 113.231 342.159C113.551 341.967 113.794 341.686 113.96 341.315C114.131 340.94 114.216 340.482 114.216 339.941V330.583ZM124.961 339.66V333.856H126.469V343.674H124.961V342.012H124.858C124.628 342.511 124.27 342.935 123.785 343.284C123.299 343.629 122.685 343.802 121.944 343.802C121.33 343.802 120.785 343.668 120.307 343.399C119.83 343.126 119.455 342.717 119.182 342.172C118.91 341.622 118.773 340.93 118.773 340.095V333.856H120.282V339.992C120.282 340.708 120.482 341.279 120.883 341.705C121.287 342.131 121.803 342.345 122.43 342.345C122.805 342.345 123.186 342.249 123.574 342.057C123.966 341.865 124.294 341.571 124.558 341.175C124.827 340.778 124.961 340.274 124.961 339.66ZM130.741 337.768V343.674H129.232V333.856H130.69V335.39H130.817C131.048 334.891 131.397 334.491 131.866 334.188C132.335 333.881 132.94 333.728 133.681 333.728C134.346 333.728 134.928 333.864 135.426 334.137C135.925 334.406 136.313 334.815 136.589 335.364C136.866 335.91 137.005 336.6 137.005 337.435V343.674H135.496V337.538C135.496 336.766 135.296 336.166 134.896 335.735C134.495 335.3 133.945 335.083 133.246 335.083C132.765 335.083 132.335 335.188 131.955 335.396C131.58 335.605 131.284 335.91 131.067 336.31C130.849 336.711 130.741 337.197 130.741 337.768Z" fill="#BDBDBD"/>
<path d="M168.845 121.583H170.43V130.941C170.43 131.776 170.276 132.486 169.97 133.07C169.663 133.653 169.23 134.097 168.672 134.399C168.114 134.702 167.455 134.853 166.697 134.853C165.981 134.853 165.344 134.723 164.786 134.463C164.227 134.199 163.789 133.824 163.469 133.338C163.149 132.852 162.99 132.275 162.99 131.606H164.549C164.549 131.977 164.641 132.3 164.824 132.577C165.012 132.85 165.267 133.063 165.591 133.217C165.915 133.37 166.284 133.447 166.697 133.447C167.153 133.447 167.541 133.351 167.86 133.159C168.18 132.967 168.423 132.686 168.589 132.315C168.759 131.94 168.845 131.482 168.845 130.941V121.583ZM179.59 130.66V124.856H181.098V134.674H179.59V133.012H179.487C179.257 133.511 178.899 133.935 178.414 134.284C177.928 134.629 177.314 134.802 176.573 134.802C175.959 134.802 175.414 134.668 174.936 134.399C174.459 134.126 174.084 133.717 173.811 133.172C173.539 132.622 173.402 131.93 173.402 131.095V124.856H174.911V130.992C174.911 131.708 175.111 132.279 175.512 132.705C175.916 133.131 176.432 133.345 177.058 133.345C177.433 133.345 177.815 133.249 178.203 133.057C178.595 132.865 178.923 132.571 179.187 132.175C179.455 131.778 179.59 131.274 179.59 130.66ZM185.37 121.583V134.674H183.861V121.583H185.37Z" fill="#BDBDBD"/>
</g>
</g>
<defs>
<clipPath id="clip0_35_9106">
<rect width="922" height="589.891" fill="white" transform="translate(0 0.782715)"/>
</clipPath>
</defs>
</svg>
