<svg width="922" height="591" viewBox="0 0 922 591" fill="none" xmlns="http://www.w3.org/2000/svg">
<g clip-path="url(#clip0_35_9442)">
<path d="M614.002 286C614.002 325.328 604.278 364.058 585.677 398.811C567.077 433.565 540.166 463.285 507.293 485.378C474.42 507.471 436.583 521.266 397.085 525.56C357.586 529.853 317.626 524.514 280.692 510.009L303.509 453.097C331.06 463.917 360.868 467.9 390.331 464.697C419.794 461.495 448.018 451.204 472.54 434.724C497.061 418.244 517.135 396.074 531.01 370.151C544.885 344.227 552.139 315.336 552.139 286H614.002Z" fill="#165BAA"/>
<path d="M370.502 527C332.867 527 295.743 518.366 262.047 501.775C228.351 485.184 198.999 461.089 176.296 431.381C153.593 401.672 138.157 367.16 131.199 330.553C124.241 293.946 125.952 256.241 136.197 220.399L195.975 237.136C188.344 263.834 187.07 291.919 192.253 319.186C197.435 346.454 208.933 372.161 225.844 394.29C242.755 416.418 264.618 434.366 289.717 446.724C314.817 459.082 342.469 465.513 370.502 465.513V527Z" fill="#F765A3"/>
<path d="M135.081 223.616C150.374 167.22 185.883 118.233 234.999 85.7727C284.115 53.3121 343.493 39.588 402.084 47.1542C460.676 54.7203 514.491 83.0614 553.514 126.904C592.538 170.746 614.113 227.104 614.225 285.49L551.021 285.608C550.938 242.363 534.958 200.621 506.054 168.148C477.15 135.675 437.291 114.683 393.894 109.079C350.497 103.475 306.517 113.64 270.138 137.683C233.759 161.726 207.459 198.008 196.131 239.78L135.081 223.616Z" fill="#A155B9"/>
<path d="M194.124 239.249C203.602 204.298 223.497 172.97 251.224 149.334C278.952 125.698 313.231 110.846 349.611 106.707C385.99 102.567 422.789 109.331 455.228 126.121C487.667 142.91 514.247 168.95 531.518 200.857L489.762 222.923C476.97 199.29 457.283 180.003 433.256 167.568C409.229 155.132 381.973 150.122 355.028 153.188C328.083 156.254 302.693 167.255 282.156 184.761C261.619 202.268 246.883 225.471 239.863 251.358L194.124 239.249Z" fill="#1DDD8D"/>
<path d="M528.635 195.735C543.649 221.431 552.018 250.389 553.001 280.044C553.983 309.699 547.549 339.136 534.268 365.747C520.986 392.358 501.268 415.321 476.86 432.604C452.451 449.887 424.106 460.955 394.334 464.827C364.563 468.7 334.284 465.258 306.18 454.807C278.076 444.355 253.015 427.217 233.216 404.909C213.416 382.601 199.491 355.813 192.672 326.917C185.853 298.021 186.352 267.91 194.124 239.25L239.863 251.36C234.106 272.587 233.737 294.89 238.788 316.293C243.838 337.695 254.152 357.536 268.817 374.059C283.482 390.582 302.044 403.276 322.86 411.017C343.676 418.758 366.102 421.308 388.153 418.439C410.204 415.57 431.199 407.373 449.278 394.572C467.357 381.771 481.961 364.762 491.798 345.052C501.635 325.342 506.401 303.539 505.674 281.575C504.946 259.61 498.747 238.162 487.626 219.13L528.635 195.735Z" fill="#953BBF"/>
<path d="M135.081 223.616C150.869 165.394 188.181 115.139 239.646 82.7766C291.11 50.4145 352.986 38.2987 413.052 48.8223L402.157 109.537C357.471 101.708 311.438 110.722 273.151 134.798C234.863 158.873 207.105 196.261 195.359 239.576L135.081 223.616Z" fill="#16BFD6"/>
</g>
<defs>
<clipPath id="clip0_35_9442">
<rect width="922" height="589.891" fill="white" transform="translate(0 0.674072)"/>
</clipPath>
</defs>
</svg>
