<svg width="31" height="35" viewBox="0 0 31 35" fill="none" xmlns="http://www.w3.org/2000/svg">
<path fill-rule="evenodd" clip-rule="evenodd" d="M15.5 34.6251C24.0603 34.6251 30.9998 33.092 30.9998 31.2005L31 24.3501C31 24.3501 30.9999 24.3501 30.9999 24.3502C30.9998 26.2416 24.0603 27.7751 15.5 27.7751C6.93957 27.7751 0 26.2417 0 24.3502H3.67256e-05C2.44836e-05 24.3501 1.22417e-05 24.3501 0 24.3501V24.3502V31.2005C0 33.092 6.93956 34.6251 15.5 34.6251Z" fill="#C93B92"/>
<path fill-rule="evenodd" clip-rule="evenodd" d="M15.5 25.7198C24.0603 25.7198 30.9998 24.1868 30.9998 22.2952L31 15.4448C31 15.4448 30.9999 15.4449 30.9999 15.4449C30.9998 17.3364 24.0603 18.8698 15.5 18.8698C6.93957 18.8698 0 17.3364 0 15.4449H3.67256e-05C2.44836e-05 15.4449 1.22417e-05 15.4449 0 15.4449V15.4449V22.2952C0 24.1868 6.93956 25.7198 15.5 25.7198Z" fill="#C93B92"/>
<path d="M30.9999 22.2949C30.9999 24.1864 24.0604 25.7199 15.5 25.7199C6.93957 25.7199 0 24.1865 0 22.295C3.87499 22.2949 6.93957 22.295 15.5 22.295C24.0604 22.295 28.4166 22.295 30.9999 22.2949Z" fill="#C84D9A"/>
<path d="M30.9999 4.485C30.9999 6.37658 24.0604 7.225 15.5 7.225C6.93957 7.225 0 6.37658 0 4.485C0 2.59342 6.93957 0.375 15.5 0.375C24.0604 0.375 30.9999 2.59342 30.9999 4.485Z" fill="#C84D9A"/>
<path d="M30.9999 4.48486C30.9999 6.37638 24.0604 7.90986 15.5 7.90986C6.93957 7.90986 0 6.37644 0 4.48492C3.87499 4.48486 6.93957 4.48492 15.5 4.48492C24.0604 4.48492 28.4166 4.48497 30.9999 4.48486Z" fill="#C84D9A"/>
<path fill-rule="evenodd" clip-rule="evenodd" d="M15.5 16.815C24.0603 16.815 30.9998 15.282 30.9998 13.3904L31 6.54004C31 6.54006 30.9999 6.54008 30.9999 6.54009C30.9998 8.43159 24.0603 9.96504 15.5 9.96504C6.93957 9.96504 0 8.43162 0 6.5401H3.67256e-05C2.44836e-05 6.54009 1.22417e-05 6.54008 0 6.54007V6.5401V13.3904C0 15.282 6.93956 16.815 15.5 16.815Z" fill="#C93B92"/>
<path d="M30.9999 13.3901C30.9999 15.2817 24.0604 16.8151 15.5 16.8151C6.93957 16.8151 0 15.2817 0 13.3902C3.87499 13.3901 6.93957 13.3902 15.5 13.3902C24.0604 13.3902 28.4166 13.3902 30.9999 13.3901Z" fill="#C84D9A"/>
</svg>
