<svg width="25" height="25" viewBox="0 0 25 25" fill="none" xmlns="http://www.w3.org/2000/svg">
<g id="Datainsights Icon">
<g id="Group 687">
<path id="Subtract" fill-rule="evenodd" clip-rule="evenodd" d="M12.4999 25C19.4035 25 24.9998 23.881 24.9998 22.5003L24.9999 17.5C24.9999 17.5 24.9999 17.5 24.9999 17.5C24.9998 18.8807 19.4034 20 12.4999 20C5.59641 20 0 18.8807 0 17.5H2.96174e-05C1.97448e-05 17.5 9.87234e-06 17.5 0 17.5V17.5V22.5003C0 23.881 5.59641 25 12.4999 25Z" fill="white"/>
<g id="Group 690">
<path id="Subtract_2" fill-rule="evenodd" clip-rule="evenodd" d="M12.4999 18.5C19.4035 18.5 24.9998 17.381 24.9998 16.0003L24.9999 11C24.9999 11 24.9999 11 24.9999 11C24.9998 12.3807 19.4034 13.5 12.4999 13.5C5.59641 13.5 0 12.3807 0 11H2.96173e-05C1.97448e-05 11 9.87234e-06 11 0 11V11V16.0003C0 17.381 5.59641 18.5 12.4999 18.5Z" fill="white"/>
<path id="Ellipse 988" d="M24.9999 16C24.9999 17.3807 19.4035 18 12.4999 18C5.59641 18 0 17.3807 0 16C0 14.6193 5.59648 13.5 12.5 13.5C19.4035 13.5 24.9999 14.6193 24.9999 16Z" fill="#FFF2F2"/>
<path id="Vector" d="M24.9999 16C24.9999 17.3807 19.4035 18.5 12.4999 18.5C5.59641 18.5 0 17.3807 0 16C3.12498 16 5.59641 16 12.4999 16C19.4035 16 22.9165 16.0001 24.9999 16Z" fill="white"/>
</g>
<g id="Group 688">
<path id="Ellipse 991" d="M24.9999 3C24.9999 4.38071 19.4035 5 12.4999 5C5.59641 5 0 4.38071 0 3C0 1.61929 5.59641 0 12.4999 0C19.4035 0 24.9999 1.61929 24.9999 3Z" fill="#FFF2F2"/>
<path id="Ellipse 992" d="M24.9999 3C24.9999 4.38067 19.4035 5.5 12.4999 5.5C5.59641 5.5 0 4.38072 0 3.00004C3.12498 3 5.59641 3.00004 12.4999 3.00004C19.4035 3.00004 22.9165 3.00008 24.9999 3Z" fill="white"/>
</g>
<g id="Group 689">
<path id="Subtract_3" fill-rule="evenodd" clip-rule="evenodd" d="M12.4999 12C19.4035 12 24.9998 10.881 24.9998 9.50026L24.9999 4.5C24.9999 4.50001 24.9999 4.50003 24.9999 4.50004C24.9998 5.88069 19.4034 7 12.4999 7C5.59641 7 0 5.88072 0 4.50004H2.96173e-05C1.97448e-05 4.50004 9.87234e-06 4.50003 0 4.50002V4.50004V9.50026C0 10.881 5.59641 12 12.4999 12Z" fill="white"/>
<path id="Ellipse 993" d="M24.9999 9.5C24.9999 10.8807 19.4035 11.5 12.4999 11.5C5.59641 11.5 0 10.8807 0 9.5C0 8.11929 5.59641 7 12.4999 7C19.4035 7 24.9999 8.11929 24.9999 9.5Z" fill="#FFF2F2"/>
<path id="Ellipse 990" d="M24.9999 9.5C24.9999 10.8807 19.4035 12 12.4999 12C5.59641 12 0 10.8807 0 9.50004C3.12498 9.5 5.59641 9.50004 12.4999 9.50004C19.4035 9.50004 22.9165 9.50008 24.9999 9.5Z" fill="white"/>
</g>
</g>
</g>
</svg>
