<svg width="18" height="30" viewBox="0 0 18 30" fill="none" xmlns="http://www.w3.org/2000/svg">
<path fill-rule="evenodd" clip-rule="evenodd" d="M17.1197 17.12C17.6815 16.5575 17.9971 15.795 17.9971 15C17.9971 14.205 17.6815 13.4425 17.1197 12.88L5.80771 1.56405C5.24492 1.00152 4.48172 0.685604 3.686 0.685791C3.292 0.685884 2.90188 0.763579 2.53791 0.914442C2.17394 1.0653 1.84324 1.28638 1.56471 1.56504C1.28618 1.84371 1.06526 2.17451 0.914566 2.53855C0.763874 2.90259 0.686361 3.29275 0.686455 3.68675C0.686548 4.08075 0.764246 4.47087 0.915108 4.83485C1.06597 5.19882 1.28704 5.52951 1.56571 5.80804L10.7557 15L1.56371 24.192C1.27705 24.4687 1.04835 24.7996 0.890953 25.1655C0.733557 25.5315 0.650618 25.9251 0.646969 26.3234C0.64332 26.7217 0.71904 27.1168 0.869709 27.4856C1.02038 27.8543 1.24298 28.1894 1.52452 28.4712C1.80606 28.753 2.14091 28.9759 2.50953 29.1269C2.87815 29.278 3.27315 29.354 3.67149 29.3508C4.06982 29.3475 4.46352 29.2649 4.82961 29.1079C5.19569 28.9508 5.52683 28.7224 5.80371 28.436L17.1237 17.12H17.1197Z" fill="#A12873"/>
</svg>
