<svg width="18" height="30" viewBox="0 0 18 30" fill="none" xmlns="http://www.w3.org/2000/svg">
<path fill-rule="evenodd" clip-rule="evenodd" d="M0.88029 17.12C0.318488 16.5575 0.00292969 15.795 0.00292969 15C0.00292969 14.205 0.318488 13.4425 0.88029 12.88L12.1923 1.56405C12.7551 1.00152 13.5183 0.685604 14.314 0.685791C14.708 0.685884 15.0981 0.763579 15.4621 0.914442C15.8261 1.0653 16.1568 1.28638 16.4353 1.56504C16.7138 1.84371 16.9347 2.17451 17.0854 2.53855C17.2361 2.90259 17.3136 3.29275 17.3135 3.68675C17.3135 4.08075 17.2358 4.47087 17.0849 4.83485C16.934 5.19882 16.713 5.52951 16.4343 5.80804L7.24429 15L16.4363 24.192C16.7229 24.4687 16.9517 24.7996 17.109 25.1655C17.2664 25.5315 17.3494 25.9251 17.353 26.3234C17.3567 26.7217 17.281 27.1168 17.1303 27.4856C16.9796 27.8543 16.757 28.1894 16.4755 28.4712C16.1939 28.753 15.8591 28.9759 15.4905 29.1269C15.1219 29.278 14.7269 29.354 14.3285 29.3508C13.9302 29.3475 13.5365 29.2649 13.1704 29.1079C12.8043 28.9508 12.4732 28.7224 12.1963 28.436L0.87629 17.12H0.88029Z" fill="#A12873"/>
</svg>
